%TF.GenerationSoftware,KiCad,Pcbnew,(5.1.9)-1*%
%TF.CreationDate,2022-01-01T15:39:13-06:00*%
%TF.ProjectId,RaspberryPiHAT,52617370-6265-4727-9279-50694841542e,1*%
%TF.SameCoordinates,Original*%
%TF.FileFunction,Legend,Bot*%
%TF.FilePolarity,Positive*%
%FSLAX46Y46*%
G04 Gerber Fmt 4.6, Leading zero omitted, Abs format (unit mm)*
G04 Created by KiCad (PCBNEW (5.1.9)-1) date 2022-01-01 15:39:13*
%MOMM*%
%LPD*%
G01*
G04 APERTURE LIST*
%ADD10C,0.125000*%
%ADD11C,0.150000*%
%ADD12C,0.010000*%
G04 APERTURE END LIST*
D10*
X222684702Y-77131690D02*
X222684702Y-76631690D01*
X222565654Y-76631690D01*
X222494226Y-76655500D01*
X222446607Y-76703119D01*
X222422797Y-76750738D01*
X222398988Y-76845976D01*
X222398988Y-76917404D01*
X222422797Y-77012642D01*
X222446607Y-77060261D01*
X222494226Y-77107880D01*
X222565654Y-77131690D01*
X222684702Y-77131690D01*
X221994226Y-77107880D02*
X222041845Y-77131690D01*
X222137083Y-77131690D01*
X222184702Y-77107880D01*
X222208511Y-77060261D01*
X222208511Y-76869785D01*
X222184702Y-76822166D01*
X222137083Y-76798357D01*
X222041845Y-76798357D01*
X221994226Y-76822166D01*
X221970416Y-76869785D01*
X221970416Y-76917404D01*
X222208511Y-76965023D01*
X221779940Y-77107880D02*
X221732321Y-77131690D01*
X221637083Y-77131690D01*
X221589464Y-77107880D01*
X221565654Y-77060261D01*
X221565654Y-77036452D01*
X221589464Y-76988833D01*
X221637083Y-76965023D01*
X221708511Y-76965023D01*
X221756130Y-76941214D01*
X221779940Y-76893595D01*
X221779940Y-76869785D01*
X221756130Y-76822166D01*
X221708511Y-76798357D01*
X221637083Y-76798357D01*
X221589464Y-76822166D01*
X221351369Y-77131690D02*
X221351369Y-76798357D01*
X221351369Y-76631690D02*
X221375178Y-76655500D01*
X221351369Y-76679309D01*
X221327559Y-76655500D01*
X221351369Y-76631690D01*
X221351369Y-76679309D01*
X220898988Y-76798357D02*
X220898988Y-77203119D01*
X220922797Y-77250738D01*
X220946607Y-77274547D01*
X220994226Y-77298357D01*
X221065654Y-77298357D01*
X221113273Y-77274547D01*
X220898988Y-77107880D02*
X220946607Y-77131690D01*
X221041845Y-77131690D01*
X221089464Y-77107880D01*
X221113273Y-77084071D01*
X221137083Y-77036452D01*
X221137083Y-76893595D01*
X221113273Y-76845976D01*
X221089464Y-76822166D01*
X221041845Y-76798357D01*
X220946607Y-76798357D01*
X220898988Y-76822166D01*
X220660892Y-76798357D02*
X220660892Y-77131690D01*
X220660892Y-76845976D02*
X220637083Y-76822166D01*
X220589464Y-76798357D01*
X220518035Y-76798357D01*
X220470416Y-76822166D01*
X220446607Y-76869785D01*
X220446607Y-77131690D01*
X220018035Y-77107880D02*
X220065654Y-77131690D01*
X220160892Y-77131690D01*
X220208511Y-77107880D01*
X220232321Y-77060261D01*
X220232321Y-76869785D01*
X220208511Y-76822166D01*
X220160892Y-76798357D01*
X220065654Y-76798357D01*
X220018035Y-76822166D01*
X219994226Y-76869785D01*
X219994226Y-76917404D01*
X220232321Y-76965023D01*
X219565654Y-77131690D02*
X219565654Y-76631690D01*
X219565654Y-77107880D02*
X219613273Y-77131690D01*
X219708511Y-77131690D01*
X219756130Y-77107880D01*
X219779940Y-77084071D01*
X219803750Y-77036452D01*
X219803750Y-76893595D01*
X219779940Y-76845976D01*
X219756130Y-76822166D01*
X219708511Y-76798357D01*
X219613273Y-76798357D01*
X219565654Y-76822166D01*
X218946607Y-77131690D02*
X218946607Y-76631690D01*
X218946607Y-76822166D02*
X218898988Y-76798357D01*
X218803750Y-76798357D01*
X218756130Y-76822166D01*
X218732321Y-76845976D01*
X218708511Y-76893595D01*
X218708511Y-77036452D01*
X218732321Y-77084071D01*
X218756130Y-77107880D01*
X218803750Y-77131690D01*
X218898988Y-77131690D01*
X218946607Y-77107880D01*
X218541845Y-76798357D02*
X218422797Y-77131690D01*
X218303750Y-76798357D02*
X218422797Y-77131690D01*
X218470416Y-77250738D01*
X218494226Y-77274547D01*
X218541845Y-77298357D01*
X217732321Y-77131690D02*
X217732321Y-76631690D01*
X217565654Y-76988833D01*
X217398988Y-76631690D01*
X217398988Y-77131690D01*
X217160892Y-77131690D02*
X217160892Y-76798357D01*
X217160892Y-76631690D02*
X217184702Y-76655500D01*
X217160892Y-76679309D01*
X217137083Y-76655500D01*
X217160892Y-76631690D01*
X217160892Y-76679309D01*
X216708511Y-77107880D02*
X216756130Y-77131690D01*
X216851369Y-77131690D01*
X216898988Y-77107880D01*
X216922797Y-77084071D01*
X216946607Y-77036452D01*
X216946607Y-76893595D01*
X216922797Y-76845976D01*
X216898988Y-76822166D01*
X216851369Y-76798357D01*
X216756130Y-76798357D01*
X216708511Y-76822166D01*
X216494226Y-77131690D02*
X216494226Y-76631690D01*
X216279940Y-77131690D02*
X216279940Y-76869785D01*
X216303750Y-76822166D01*
X216351369Y-76798357D01*
X216422797Y-76798357D01*
X216470416Y-76822166D01*
X216494226Y-76845976D01*
X215827559Y-77131690D02*
X215827559Y-76869785D01*
X215851369Y-76822166D01*
X215898988Y-76798357D01*
X215994226Y-76798357D01*
X216041845Y-76822166D01*
X215827559Y-77107880D02*
X215875178Y-77131690D01*
X215994226Y-77131690D01*
X216041845Y-77107880D01*
X216065654Y-77060261D01*
X216065654Y-77012642D01*
X216041845Y-76965023D01*
X215994226Y-76941214D01*
X215875178Y-76941214D01*
X215827559Y-76917404D01*
X215398988Y-77107880D02*
X215446607Y-77131690D01*
X215541845Y-77131690D01*
X215589464Y-77107880D01*
X215613273Y-77060261D01*
X215613273Y-76869785D01*
X215589464Y-76822166D01*
X215541845Y-76798357D01*
X215446607Y-76798357D01*
X215398988Y-76822166D01*
X215375178Y-76869785D01*
X215375178Y-76917404D01*
X215613273Y-76965023D01*
X215089464Y-77131690D02*
X215137083Y-77107880D01*
X215160892Y-77060261D01*
X215160892Y-76631690D01*
X214279940Y-77131690D02*
X214518035Y-77131690D01*
X214518035Y-76631690D01*
X214160892Y-76798357D02*
X214041845Y-77131690D01*
X213922797Y-76798357D02*
X214041845Y-77131690D01*
X214089464Y-77250738D01*
X214113273Y-77274547D01*
X214160892Y-77298357D01*
X222470416Y-77673357D02*
X222470416Y-78078119D01*
X222494226Y-78125738D01*
X222518035Y-78149547D01*
X222565654Y-78173357D01*
X222637083Y-78173357D01*
X222684702Y-78149547D01*
X222470416Y-77982880D02*
X222518035Y-78006690D01*
X222613273Y-78006690D01*
X222660892Y-77982880D01*
X222684702Y-77959071D01*
X222708511Y-77911452D01*
X222708511Y-77768595D01*
X222684702Y-77720976D01*
X222660892Y-77697166D01*
X222613273Y-77673357D01*
X222518035Y-77673357D01*
X222470416Y-77697166D01*
X222232321Y-78006690D02*
X222232321Y-77673357D01*
X222232321Y-77506690D02*
X222256130Y-77530500D01*
X222232321Y-77554309D01*
X222208511Y-77530500D01*
X222232321Y-77506690D01*
X222232321Y-77554309D01*
X222065654Y-77673357D02*
X221875178Y-77673357D01*
X221994226Y-77506690D02*
X221994226Y-77935261D01*
X221970416Y-77982880D01*
X221922797Y-78006690D01*
X221875178Y-78006690D01*
X221708511Y-78006690D02*
X221708511Y-77506690D01*
X221494226Y-78006690D02*
X221494226Y-77744785D01*
X221518035Y-77697166D01*
X221565654Y-77673357D01*
X221637083Y-77673357D01*
X221684702Y-77697166D01*
X221708511Y-77720976D01*
X221041845Y-77673357D02*
X221041845Y-78006690D01*
X221256130Y-77673357D02*
X221256130Y-77935261D01*
X221232321Y-77982880D01*
X221184702Y-78006690D01*
X221113273Y-78006690D01*
X221065654Y-77982880D01*
X221041845Y-77959071D01*
X220803750Y-78006690D02*
X220803750Y-77506690D01*
X220803750Y-77697166D02*
X220756130Y-77673357D01*
X220660892Y-77673357D01*
X220613273Y-77697166D01*
X220589464Y-77720976D01*
X220565654Y-77768595D01*
X220565654Y-77911452D01*
X220589464Y-77959071D01*
X220613273Y-77982880D01*
X220660892Y-78006690D01*
X220756130Y-78006690D01*
X220803750Y-77982880D01*
X220351369Y-77959071D02*
X220327559Y-77982880D01*
X220351369Y-78006690D01*
X220375178Y-77982880D01*
X220351369Y-77959071D01*
X220351369Y-78006690D01*
X219898988Y-77982880D02*
X219946607Y-78006690D01*
X220041845Y-78006690D01*
X220089464Y-77982880D01*
X220113273Y-77959071D01*
X220137083Y-77911452D01*
X220137083Y-77768595D01*
X220113273Y-77720976D01*
X220089464Y-77697166D01*
X220041845Y-77673357D01*
X219946607Y-77673357D01*
X219898988Y-77697166D01*
X219613273Y-78006690D02*
X219660892Y-77982880D01*
X219684702Y-77959071D01*
X219708511Y-77911452D01*
X219708511Y-77768595D01*
X219684702Y-77720976D01*
X219660892Y-77697166D01*
X219613273Y-77673357D01*
X219541845Y-77673357D01*
X219494226Y-77697166D01*
X219470416Y-77720976D01*
X219446607Y-77768595D01*
X219446607Y-77911452D01*
X219470416Y-77959071D01*
X219494226Y-77982880D01*
X219541845Y-78006690D01*
X219613273Y-78006690D01*
X219232321Y-78006690D02*
X219232321Y-77673357D01*
X219232321Y-77720976D02*
X219208511Y-77697166D01*
X219160892Y-77673357D01*
X219089464Y-77673357D01*
X219041845Y-77697166D01*
X219018035Y-77744785D01*
X219018035Y-78006690D01*
X219018035Y-77744785D02*
X218994226Y-77697166D01*
X218946607Y-77673357D01*
X218875178Y-77673357D01*
X218827559Y-77697166D01*
X218803750Y-77744785D01*
X218803750Y-78006690D01*
X218208511Y-77482880D02*
X218637083Y-78125738D01*
X218041845Y-78006690D02*
X218041845Y-77506690D01*
X217875178Y-77863833D01*
X217708511Y-77506690D01*
X217708511Y-78006690D01*
X217470416Y-78006690D02*
X217470416Y-77673357D01*
X217470416Y-77506690D02*
X217494226Y-77530500D01*
X217470416Y-77554309D01*
X217446607Y-77530500D01*
X217470416Y-77506690D01*
X217470416Y-77554309D01*
X217018035Y-77982880D02*
X217065654Y-78006690D01*
X217160892Y-78006690D01*
X217208511Y-77982880D01*
X217232321Y-77959071D01*
X217256130Y-77911452D01*
X217256130Y-77768595D01*
X217232321Y-77720976D01*
X217208511Y-77697166D01*
X217160892Y-77673357D01*
X217065654Y-77673357D01*
X217018035Y-77697166D01*
X216803750Y-78006690D02*
X216803750Y-77506690D01*
X216589464Y-78006690D02*
X216589464Y-77744785D01*
X216613273Y-77697166D01*
X216660892Y-77673357D01*
X216732321Y-77673357D01*
X216779940Y-77697166D01*
X216803750Y-77720976D01*
X216137083Y-78006690D02*
X216137083Y-77744785D01*
X216160892Y-77697166D01*
X216208511Y-77673357D01*
X216303750Y-77673357D01*
X216351369Y-77697166D01*
X216137083Y-77982880D02*
X216184702Y-78006690D01*
X216303750Y-78006690D01*
X216351369Y-77982880D01*
X216375178Y-77935261D01*
X216375178Y-77887642D01*
X216351369Y-77840023D01*
X216303750Y-77816214D01*
X216184702Y-77816214D01*
X216137083Y-77792404D01*
X215708511Y-77982880D02*
X215756130Y-78006690D01*
X215851369Y-78006690D01*
X215898988Y-77982880D01*
X215922797Y-77935261D01*
X215922797Y-77744785D01*
X215898988Y-77697166D01*
X215851369Y-77673357D01*
X215756130Y-77673357D01*
X215708511Y-77697166D01*
X215684702Y-77744785D01*
X215684702Y-77792404D01*
X215922797Y-77840023D01*
X215398988Y-78006690D02*
X215446607Y-77982880D01*
X215470416Y-77935261D01*
X215470416Y-77506690D01*
X215208511Y-77816214D02*
X214827559Y-77816214D01*
X214256130Y-78054309D02*
X214303750Y-78030500D01*
X214351369Y-77982880D01*
X214422797Y-77911452D01*
X214470416Y-77887642D01*
X214518035Y-77887642D01*
X214494226Y-78006690D02*
X214541845Y-77982880D01*
X214589464Y-77935261D01*
X214613273Y-77840023D01*
X214613273Y-77673357D01*
X214589464Y-77578119D01*
X214541845Y-77530500D01*
X214494226Y-77506690D01*
X214398988Y-77506690D01*
X214351369Y-77530500D01*
X214303750Y-77578119D01*
X214279940Y-77673357D01*
X214279940Y-77840023D01*
X214303750Y-77935261D01*
X214351369Y-77982880D01*
X214398988Y-78006690D01*
X214494226Y-78006690D01*
X214065654Y-77816214D02*
X213684702Y-77816214D01*
X213208511Y-78006690D02*
X213446607Y-78006690D01*
X213446607Y-77506690D01*
X213089464Y-77673357D02*
X212970416Y-78006690D01*
X212851369Y-77673357D02*
X212970416Y-78006690D01*
X213018035Y-78125738D01*
X213041845Y-78149547D01*
X213089464Y-78173357D01*
D11*
X212818071Y-65651571D02*
X212675214Y-65699190D01*
X212627595Y-65746809D01*
X212579976Y-65842047D01*
X212579976Y-65984904D01*
X212627595Y-66080142D01*
X212675214Y-66127761D01*
X212770452Y-66175380D01*
X213151404Y-66175380D01*
X213151404Y-65175380D01*
X212818071Y-65175380D01*
X212722833Y-65223000D01*
X212675214Y-65270619D01*
X212627595Y-65365857D01*
X212627595Y-65461095D01*
X212675214Y-65556333D01*
X212722833Y-65603952D01*
X212818071Y-65651571D01*
X213151404Y-65651571D01*
X211722833Y-65508714D02*
X211722833Y-66175380D01*
X212151404Y-65508714D02*
X212151404Y-66032523D01*
X212103785Y-66127761D01*
X212008547Y-66175380D01*
X211865690Y-66175380D01*
X211770452Y-66127761D01*
X211722833Y-66080142D01*
X211389500Y-65508714D02*
X211008547Y-65508714D01*
X211246642Y-65175380D02*
X211246642Y-66032523D01*
X211199023Y-66127761D01*
X211103785Y-66175380D01*
X211008547Y-66175380D01*
X210818071Y-65508714D02*
X210437119Y-65508714D01*
X210675214Y-65175380D02*
X210675214Y-66032523D01*
X210627595Y-66127761D01*
X210532357Y-66175380D01*
X210437119Y-66175380D01*
X209960928Y-66175380D02*
X210056166Y-66127761D01*
X210103785Y-66080142D01*
X210151404Y-65984904D01*
X210151404Y-65699190D01*
X210103785Y-65603952D01*
X210056166Y-65556333D01*
X209960928Y-65508714D01*
X209818071Y-65508714D01*
X209722833Y-65556333D01*
X209675214Y-65603952D01*
X209627595Y-65699190D01*
X209627595Y-65984904D01*
X209675214Y-66080142D01*
X209722833Y-66127761D01*
X209818071Y-66175380D01*
X209960928Y-66175380D01*
X209199023Y-65508714D02*
X209199023Y-66175380D01*
X209199023Y-65603952D02*
X209151404Y-65556333D01*
X209056166Y-65508714D01*
X208913309Y-65508714D01*
X208818071Y-65556333D01*
X208770452Y-65651571D01*
X208770452Y-66175380D01*
X208294261Y-66080142D02*
X208246642Y-66127761D01*
X208294261Y-66175380D01*
X208341880Y-66127761D01*
X208294261Y-66080142D01*
X208294261Y-66175380D01*
X208294261Y-65556333D02*
X208246642Y-65603952D01*
X208294261Y-65651571D01*
X208341880Y-65603952D01*
X208294261Y-65556333D01*
X208294261Y-65651571D01*
X206532357Y-65223000D02*
X206627595Y-65175380D01*
X206770452Y-65175380D01*
X206913309Y-65223000D01*
X207008547Y-65318238D01*
X207056166Y-65413476D01*
X207103785Y-65603952D01*
X207103785Y-65746809D01*
X207056166Y-65937285D01*
X207008547Y-66032523D01*
X206913309Y-66127761D01*
X206770452Y-66175380D01*
X206675214Y-66175380D01*
X206532357Y-66127761D01*
X206484738Y-66080142D01*
X206484738Y-65746809D01*
X206675214Y-65746809D01*
X206056166Y-66175380D02*
X206056166Y-65175380D01*
X205675214Y-65175380D01*
X205579976Y-65223000D01*
X205532357Y-65270619D01*
X205484738Y-65365857D01*
X205484738Y-65508714D01*
X205532357Y-65603952D01*
X205579976Y-65651571D01*
X205675214Y-65699190D01*
X206056166Y-65699190D01*
X205056166Y-66175380D02*
X205056166Y-65175380D01*
X204389500Y-65175380D02*
X204199023Y-65175380D01*
X204103785Y-65223000D01*
X204008547Y-65318238D01*
X203960928Y-65508714D01*
X203960928Y-65842047D01*
X204008547Y-66032523D01*
X204103785Y-66127761D01*
X204199023Y-66175380D01*
X204389500Y-66175380D01*
X204484738Y-66127761D01*
X204579976Y-66032523D01*
X204627595Y-65842047D01*
X204627595Y-65508714D01*
X204579976Y-65318238D01*
X204484738Y-65223000D01*
X204389500Y-65175380D01*
X203008547Y-66175380D02*
X203579976Y-66175380D01*
X203294261Y-66175380D02*
X203294261Y-65175380D01*
X203389500Y-65318238D01*
X203484738Y-65413476D01*
X203579976Y-65461095D01*
X202151404Y-65508714D02*
X202151404Y-66175380D01*
X202389500Y-65127761D02*
X202627595Y-65842047D01*
X202008547Y-65842047D01*
X212675214Y-67825380D02*
X213151404Y-67825380D01*
X213151404Y-66825380D01*
X212341880Y-67301571D02*
X212008547Y-67301571D01*
X211865690Y-67825380D02*
X212341880Y-67825380D01*
X212341880Y-66825380D01*
X211865690Y-66825380D01*
X211437119Y-67825380D02*
X211437119Y-66825380D01*
X211199023Y-66825380D01*
X211056166Y-66873000D01*
X210960928Y-66968238D01*
X210913309Y-67063476D01*
X210865690Y-67253952D01*
X210865690Y-67396809D01*
X210913309Y-67587285D01*
X210960928Y-67682523D01*
X211056166Y-67777761D01*
X211199023Y-67825380D01*
X211437119Y-67825380D01*
X210437119Y-67730142D02*
X210389500Y-67777761D01*
X210437119Y-67825380D01*
X210484738Y-67777761D01*
X210437119Y-67730142D01*
X210437119Y-67825380D01*
X210437119Y-67206333D02*
X210389500Y-67253952D01*
X210437119Y-67301571D01*
X210484738Y-67253952D01*
X210437119Y-67206333D01*
X210437119Y-67301571D01*
X208675214Y-66873000D02*
X208770452Y-66825380D01*
X208913309Y-66825380D01*
X209056166Y-66873000D01*
X209151404Y-66968238D01*
X209199023Y-67063476D01*
X209246642Y-67253952D01*
X209246642Y-67396809D01*
X209199023Y-67587285D01*
X209151404Y-67682523D01*
X209056166Y-67777761D01*
X208913309Y-67825380D01*
X208818071Y-67825380D01*
X208675214Y-67777761D01*
X208627595Y-67730142D01*
X208627595Y-67396809D01*
X208818071Y-67396809D01*
X208199023Y-67825380D02*
X208199023Y-66825380D01*
X207818071Y-66825380D01*
X207722833Y-66873000D01*
X207675214Y-66920619D01*
X207627595Y-67015857D01*
X207627595Y-67158714D01*
X207675214Y-67253952D01*
X207722833Y-67301571D01*
X207818071Y-67349190D01*
X208199023Y-67349190D01*
X207199023Y-67825380D02*
X207199023Y-66825380D01*
X206532357Y-66825380D02*
X206341880Y-66825380D01*
X206246642Y-66873000D01*
X206151404Y-66968238D01*
X206103785Y-67158714D01*
X206103785Y-67492047D01*
X206151404Y-67682523D01*
X206246642Y-67777761D01*
X206341880Y-67825380D01*
X206532357Y-67825380D01*
X206627595Y-67777761D01*
X206722833Y-67682523D01*
X206770452Y-67492047D01*
X206770452Y-67158714D01*
X206722833Y-66968238D01*
X206627595Y-66873000D01*
X206532357Y-66825380D01*
X205246642Y-67158714D02*
X205246642Y-67825380D01*
X205484738Y-66777761D02*
X205722833Y-67492047D01*
X205103785Y-67492047D01*
X223882976Y-66112380D02*
X224216309Y-65636190D01*
X224454404Y-66112380D02*
X224454404Y-65112380D01*
X224073452Y-65112380D01*
X223978214Y-65160000D01*
X223930595Y-65207619D01*
X223882976Y-65302857D01*
X223882976Y-65445714D01*
X223930595Y-65540952D01*
X223978214Y-65588571D01*
X224073452Y-65636190D01*
X224454404Y-65636190D01*
X223025833Y-66112380D02*
X223025833Y-65588571D01*
X223073452Y-65493333D01*
X223168690Y-65445714D01*
X223359166Y-65445714D01*
X223454404Y-65493333D01*
X223025833Y-66064761D02*
X223121071Y-66112380D01*
X223359166Y-66112380D01*
X223454404Y-66064761D01*
X223502023Y-65969523D01*
X223502023Y-65874285D01*
X223454404Y-65779047D01*
X223359166Y-65731428D01*
X223121071Y-65731428D01*
X223025833Y-65683809D01*
X222597261Y-66064761D02*
X222502023Y-66112380D01*
X222311547Y-66112380D01*
X222216309Y-66064761D01*
X222168690Y-65969523D01*
X222168690Y-65921904D01*
X222216309Y-65826666D01*
X222311547Y-65779047D01*
X222454404Y-65779047D01*
X222549642Y-65731428D01*
X222597261Y-65636190D01*
X222597261Y-65588571D01*
X222549642Y-65493333D01*
X222454404Y-65445714D01*
X222311547Y-65445714D01*
X222216309Y-65493333D01*
X221740119Y-65445714D02*
X221740119Y-66445714D01*
X221740119Y-65493333D02*
X221644880Y-65445714D01*
X221454404Y-65445714D01*
X221359166Y-65493333D01*
X221311547Y-65540952D01*
X221263928Y-65636190D01*
X221263928Y-65921904D01*
X221311547Y-66017142D01*
X221359166Y-66064761D01*
X221454404Y-66112380D01*
X221644880Y-66112380D01*
X221740119Y-66064761D01*
X220835357Y-66112380D02*
X220835357Y-65112380D01*
X220835357Y-65493333D02*
X220740119Y-65445714D01*
X220549642Y-65445714D01*
X220454404Y-65493333D01*
X220406785Y-65540952D01*
X220359166Y-65636190D01*
X220359166Y-65921904D01*
X220406785Y-66017142D01*
X220454404Y-66064761D01*
X220549642Y-66112380D01*
X220740119Y-66112380D01*
X220835357Y-66064761D01*
X219549642Y-66064761D02*
X219644880Y-66112380D01*
X219835357Y-66112380D01*
X219930595Y-66064761D01*
X219978214Y-65969523D01*
X219978214Y-65588571D01*
X219930595Y-65493333D01*
X219835357Y-65445714D01*
X219644880Y-65445714D01*
X219549642Y-65493333D01*
X219502023Y-65588571D01*
X219502023Y-65683809D01*
X219978214Y-65779047D01*
X219073452Y-66112380D02*
X219073452Y-65445714D01*
X219073452Y-65636190D02*
X219025833Y-65540952D01*
X218978214Y-65493333D01*
X218882976Y-65445714D01*
X218787738Y-65445714D01*
X218454404Y-66112380D02*
X218454404Y-65445714D01*
X218454404Y-65636190D02*
X218406785Y-65540952D01*
X218359166Y-65493333D01*
X218263928Y-65445714D01*
X218168690Y-65445714D01*
X217930595Y-65445714D02*
X217692500Y-66112380D01*
X217454404Y-65445714D02*
X217692500Y-66112380D01*
X217787738Y-66350476D01*
X217835357Y-66398095D01*
X217930595Y-66445714D01*
X216311547Y-66112380D02*
X216311547Y-65112380D01*
X215930595Y-65112380D01*
X215835357Y-65160000D01*
X215787738Y-65207619D01*
X215740119Y-65302857D01*
X215740119Y-65445714D01*
X215787738Y-65540952D01*
X215835357Y-65588571D01*
X215930595Y-65636190D01*
X216311547Y-65636190D01*
X215311547Y-66112380D02*
X215311547Y-65445714D01*
X215311547Y-65112380D02*
X215359166Y-65160000D01*
X215311547Y-65207619D01*
X215263928Y-65160000D01*
X215311547Y-65112380D01*
X215311547Y-65207619D01*
X224121071Y-67238571D02*
X224454404Y-67238571D01*
X224454404Y-67762380D02*
X224454404Y-66762380D01*
X223978214Y-66762380D01*
X223168690Y-67095714D02*
X223168690Y-67762380D01*
X223597261Y-67095714D02*
X223597261Y-67619523D01*
X223549642Y-67714761D01*
X223454404Y-67762380D01*
X223311547Y-67762380D01*
X223216309Y-67714761D01*
X223168690Y-67667142D01*
X222549642Y-67762380D02*
X222644880Y-67714761D01*
X222692500Y-67619523D01*
X222692500Y-66762380D01*
X222025833Y-67762380D02*
X222121071Y-67714761D01*
X222168690Y-67619523D01*
X222168690Y-66762380D01*
X220930595Y-67714761D02*
X220787738Y-67762380D01*
X220549642Y-67762380D01*
X220454404Y-67714761D01*
X220406785Y-67667142D01*
X220359166Y-67571904D01*
X220359166Y-67476666D01*
X220406785Y-67381428D01*
X220454404Y-67333809D01*
X220549642Y-67286190D01*
X220740119Y-67238571D01*
X220835357Y-67190952D01*
X220882976Y-67143333D01*
X220930595Y-67048095D01*
X220930595Y-66952857D01*
X220882976Y-66857619D01*
X220835357Y-66810000D01*
X220740119Y-66762380D01*
X220502023Y-66762380D01*
X220359166Y-66810000D01*
X220073452Y-67095714D02*
X219692500Y-67095714D01*
X219930595Y-66762380D02*
X219930595Y-67619523D01*
X219882976Y-67714761D01*
X219787738Y-67762380D01*
X219692500Y-67762380D01*
X218930595Y-67762380D02*
X218930595Y-67238571D01*
X218978214Y-67143333D01*
X219073452Y-67095714D01*
X219263928Y-67095714D01*
X219359166Y-67143333D01*
X218930595Y-67714761D02*
X219025833Y-67762380D01*
X219263928Y-67762380D01*
X219359166Y-67714761D01*
X219406785Y-67619523D01*
X219406785Y-67524285D01*
X219359166Y-67429047D01*
X219263928Y-67381428D01*
X219025833Y-67381428D01*
X218930595Y-67333809D01*
X218025833Y-67714761D02*
X218121071Y-67762380D01*
X218311547Y-67762380D01*
X218406785Y-67714761D01*
X218454404Y-67667142D01*
X218502023Y-67571904D01*
X218502023Y-67286190D01*
X218454404Y-67190952D01*
X218406785Y-67143333D01*
X218311547Y-67095714D01*
X218121071Y-67095714D01*
X218025833Y-67143333D01*
X217597261Y-67762380D02*
X217597261Y-66762380D01*
X217502023Y-67381428D02*
X217216309Y-67762380D01*
X217216309Y-67095714D02*
X217597261Y-67476666D01*
X224597261Y-68412380D02*
X224263928Y-69412380D01*
X223930595Y-68412380D01*
X223216309Y-69364761D02*
X223311547Y-69412380D01*
X223502023Y-69412380D01*
X223597261Y-69364761D01*
X223644880Y-69269523D01*
X223644880Y-68888571D01*
X223597261Y-68793333D01*
X223502023Y-68745714D01*
X223311547Y-68745714D01*
X223216309Y-68793333D01*
X223168690Y-68888571D01*
X223168690Y-68983809D01*
X223644880Y-69079047D01*
X222740119Y-69412380D02*
X222740119Y-68745714D01*
X222740119Y-68936190D02*
X222692500Y-68840952D01*
X222644880Y-68793333D01*
X222549642Y-68745714D01*
X222454404Y-68745714D01*
X222168690Y-69364761D02*
X222073452Y-69412380D01*
X221882976Y-69412380D01*
X221787738Y-69364761D01*
X221740119Y-69269523D01*
X221740119Y-69221904D01*
X221787738Y-69126666D01*
X221882976Y-69079047D01*
X222025833Y-69079047D01*
X222121071Y-69031428D01*
X222168690Y-68936190D01*
X222168690Y-68888571D01*
X222121071Y-68793333D01*
X222025833Y-68745714D01*
X221882976Y-68745714D01*
X221787738Y-68793333D01*
X221311547Y-69412380D02*
X221311547Y-68745714D01*
X221311547Y-68412380D02*
X221359166Y-68460000D01*
X221311547Y-68507619D01*
X221263928Y-68460000D01*
X221311547Y-68412380D01*
X221311547Y-68507619D01*
X220692500Y-69412380D02*
X220787738Y-69364761D01*
X220835357Y-69317142D01*
X220882976Y-69221904D01*
X220882976Y-68936190D01*
X220835357Y-68840952D01*
X220787738Y-68793333D01*
X220692500Y-68745714D01*
X220549642Y-68745714D01*
X220454404Y-68793333D01*
X220406785Y-68840952D01*
X220359166Y-68936190D01*
X220359166Y-69221904D01*
X220406785Y-69317142D01*
X220454404Y-69364761D01*
X220549642Y-69412380D01*
X220692500Y-69412380D01*
X219930595Y-68745714D02*
X219930595Y-69412380D01*
X219930595Y-68840952D02*
X219882976Y-68793333D01*
X219787738Y-68745714D01*
X219644880Y-68745714D01*
X219549642Y-68793333D01*
X219502023Y-68888571D01*
X219502023Y-69412380D01*
X217740119Y-69412380D02*
X218311547Y-69412380D01*
X218025833Y-69412380D02*
X218025833Y-68412380D01*
X218121071Y-68555238D01*
X218216309Y-68650476D01*
X218311547Y-68698095D01*
D12*
%TO.C,REF\u002A\u002A*%
G36*
X206906090Y-70902348D02*
G01*
X206827546Y-70902778D01*
X206770702Y-70903942D01*
X206731895Y-70906207D01*
X206707462Y-70909940D01*
X206693738Y-70915506D01*
X206687060Y-70923273D01*
X206683764Y-70933605D01*
X206683444Y-70934943D01*
X206678438Y-70959079D01*
X206669171Y-71006701D01*
X206656608Y-71072741D01*
X206641713Y-71152128D01*
X206625449Y-71239796D01*
X206624881Y-71242875D01*
X206608590Y-71328789D01*
X206593348Y-71404696D01*
X206580139Y-71466045D01*
X206569946Y-71508282D01*
X206563752Y-71526855D01*
X206563457Y-71527184D01*
X206545212Y-71536253D01*
X206507595Y-71551367D01*
X206458729Y-71569262D01*
X206458457Y-71569358D01*
X206396907Y-71592493D01*
X206324343Y-71621965D01*
X206255943Y-71651597D01*
X206252706Y-71653062D01*
X206141298Y-71703626D01*
X205894601Y-71535160D01*
X205818923Y-71483803D01*
X205750369Y-71437889D01*
X205692912Y-71400030D01*
X205650524Y-71372837D01*
X205627175Y-71358921D01*
X205624958Y-71357889D01*
X205607990Y-71362484D01*
X205576299Y-71384655D01*
X205528648Y-71425447D01*
X205463802Y-71485905D01*
X205397603Y-71550227D01*
X205333786Y-71613612D01*
X205276671Y-71671451D01*
X205229695Y-71720175D01*
X205196297Y-71756210D01*
X205179915Y-71775984D01*
X205179306Y-71777002D01*
X205177495Y-71790572D01*
X205184317Y-71812733D01*
X205201460Y-71846478D01*
X205230607Y-71894800D01*
X205273445Y-71960692D01*
X205330552Y-72045517D01*
X205381234Y-72120177D01*
X205426539Y-72187140D01*
X205463850Y-72242516D01*
X205490548Y-72282420D01*
X205504015Y-72302962D01*
X205504863Y-72304356D01*
X205503219Y-72324038D01*
X205490755Y-72362293D01*
X205469952Y-72411889D01*
X205462538Y-72427728D01*
X205430186Y-72498290D01*
X205395672Y-72578353D01*
X205367635Y-72647629D01*
X205347432Y-72699045D01*
X205331385Y-72738119D01*
X205322112Y-72758541D01*
X205320959Y-72760114D01*
X205303904Y-72762721D01*
X205263702Y-72769863D01*
X205205698Y-72780523D01*
X205135237Y-72793685D01*
X205057665Y-72808333D01*
X204978328Y-72823449D01*
X204902569Y-72838018D01*
X204835736Y-72851022D01*
X204783172Y-72861445D01*
X204750224Y-72868270D01*
X204742143Y-72870199D01*
X204733795Y-72874962D01*
X204727494Y-72885718D01*
X204722955Y-72906098D01*
X204719896Y-72939734D01*
X204718033Y-72990255D01*
X204717082Y-73061292D01*
X204716760Y-73156476D01*
X204716743Y-73195492D01*
X204716743Y-73512799D01*
X204792943Y-73527839D01*
X204835337Y-73535995D01*
X204898600Y-73547899D01*
X204975038Y-73562116D01*
X205056957Y-73577210D01*
X205079600Y-73581355D01*
X205155194Y-73596053D01*
X205221047Y-73610505D01*
X205271634Y-73623375D01*
X205301426Y-73633322D01*
X205306388Y-73636287D01*
X205318574Y-73657283D01*
X205336047Y-73697967D01*
X205355423Y-73750322D01*
X205359266Y-73761600D01*
X205384661Y-73831523D01*
X205416183Y-73910418D01*
X205447031Y-73981266D01*
X205447183Y-73981595D01*
X205498553Y-74092733D01*
X205329601Y-74341253D01*
X205160648Y-74589772D01*
X205377571Y-74807058D01*
X205443181Y-74871726D01*
X205503021Y-74928733D01*
X205553733Y-74975033D01*
X205591954Y-75007584D01*
X205614325Y-75023343D01*
X205617534Y-75024343D01*
X205636374Y-75016469D01*
X205674820Y-74994578D01*
X205728670Y-74961267D01*
X205793724Y-74919131D01*
X205864060Y-74871943D01*
X205935445Y-74823810D01*
X205999092Y-74781928D01*
X206050959Y-74748871D01*
X206087005Y-74727218D01*
X206103133Y-74719543D01*
X206122811Y-74726037D01*
X206160125Y-74743150D01*
X206207379Y-74767326D01*
X206212388Y-74770013D01*
X206276023Y-74801927D01*
X206319659Y-74817579D01*
X206346798Y-74817745D01*
X206360943Y-74803204D01*
X206361025Y-74803000D01*
X206368095Y-74785779D01*
X206384958Y-74744899D01*
X206410305Y-74683525D01*
X206442829Y-74604819D01*
X206481222Y-74511947D01*
X206524178Y-74408072D01*
X206565778Y-74307502D01*
X206611496Y-74196516D01*
X206653474Y-74093703D01*
X206690452Y-74002215D01*
X206721173Y-73925201D01*
X206744378Y-73865815D01*
X206758810Y-73827209D01*
X206763257Y-73812800D01*
X206752104Y-73796272D01*
X206722931Y-73769930D01*
X206684029Y-73740887D01*
X206573243Y-73649039D01*
X206486649Y-73543759D01*
X206425284Y-73427266D01*
X206390185Y-73301776D01*
X206382392Y-73169507D01*
X206388057Y-73108457D01*
X206418922Y-72981795D01*
X206472080Y-72869941D01*
X206544233Y-72774001D01*
X206632083Y-72695076D01*
X206732335Y-72634270D01*
X206841690Y-72592687D01*
X206956853Y-72571428D01*
X207074525Y-72571599D01*
X207191410Y-72594301D01*
X207304211Y-72640638D01*
X207409631Y-72711713D01*
X207453632Y-72751911D01*
X207538021Y-72855129D01*
X207596778Y-72967925D01*
X207630296Y-73087010D01*
X207638965Y-73209095D01*
X207623177Y-73330893D01*
X207583322Y-73449116D01*
X207519793Y-73560475D01*
X207432979Y-73661684D01*
X207335971Y-73740887D01*
X207295563Y-73771162D01*
X207267018Y-73797219D01*
X207256743Y-73812825D01*
X207262123Y-73829843D01*
X207277425Y-73870500D01*
X207301388Y-73931642D01*
X207332756Y-74010119D01*
X207370268Y-74102780D01*
X207412667Y-74206472D01*
X207454337Y-74307526D01*
X207500310Y-74418607D01*
X207542893Y-74521541D01*
X207580779Y-74613165D01*
X207612660Y-74690316D01*
X207637229Y-74749831D01*
X207653180Y-74788544D01*
X207659090Y-74803000D01*
X207673052Y-74817685D01*
X207700060Y-74817642D01*
X207743587Y-74802099D01*
X207807110Y-74770284D01*
X207807612Y-74770013D01*
X207855440Y-74745323D01*
X207894103Y-74727338D01*
X207915905Y-74719614D01*
X207916867Y-74719543D01*
X207933279Y-74727378D01*
X207969513Y-74749165D01*
X208021526Y-74782328D01*
X208085275Y-74824291D01*
X208155940Y-74871943D01*
X208227884Y-74920191D01*
X208292726Y-74962151D01*
X208346265Y-74995227D01*
X208384303Y-75016821D01*
X208402467Y-75024343D01*
X208419192Y-75014457D01*
X208452820Y-74986826D01*
X208499990Y-74944495D01*
X208557342Y-74890505D01*
X208621516Y-74827899D01*
X208642503Y-74806983D01*
X208859501Y-74589623D01*
X208694332Y-74347220D01*
X208644136Y-74272781D01*
X208600081Y-74205972D01*
X208564638Y-74150665D01*
X208540281Y-74110729D01*
X208529478Y-74090036D01*
X208529162Y-74088563D01*
X208534857Y-74069058D01*
X208550174Y-74029822D01*
X208572463Y-73977430D01*
X208588107Y-73942355D01*
X208617359Y-73875201D01*
X208644906Y-73807358D01*
X208666263Y-73750034D01*
X208672065Y-73732572D01*
X208688548Y-73685938D01*
X208704660Y-73649905D01*
X208713510Y-73636287D01*
X208733040Y-73627952D01*
X208775666Y-73616137D01*
X208835855Y-73602181D01*
X208908078Y-73587422D01*
X208940400Y-73581355D01*
X209022478Y-73566273D01*
X209101205Y-73551669D01*
X209168891Y-73538980D01*
X209217840Y-73529642D01*
X209227057Y-73527839D01*
X209303257Y-73512799D01*
X209303257Y-73195492D01*
X209303086Y-73091154D01*
X209302384Y-73012213D01*
X209300866Y-72955038D01*
X209298251Y-72915999D01*
X209294254Y-72891465D01*
X209288591Y-72877805D01*
X209280980Y-72871389D01*
X209277857Y-72870199D01*
X209259022Y-72865980D01*
X209217412Y-72857562D01*
X209158370Y-72845961D01*
X209087243Y-72832195D01*
X209009375Y-72817280D01*
X208930113Y-72802232D01*
X208854802Y-72788069D01*
X208788787Y-72775806D01*
X208737413Y-72766461D01*
X208706025Y-72761050D01*
X208699041Y-72760114D01*
X208692715Y-72747596D01*
X208678710Y-72714246D01*
X208659645Y-72666377D01*
X208652366Y-72647629D01*
X208623004Y-72575195D01*
X208588429Y-72495170D01*
X208557463Y-72427728D01*
X208534677Y-72376159D01*
X208519518Y-72333785D01*
X208514458Y-72307834D01*
X208515264Y-72304356D01*
X208525959Y-72287936D01*
X208550380Y-72251417D01*
X208585905Y-72198687D01*
X208629913Y-72133635D01*
X208679783Y-72060151D01*
X208689644Y-72045645D01*
X208747508Y-71959704D01*
X208790044Y-71894261D01*
X208818946Y-71846304D01*
X208835910Y-71812820D01*
X208842633Y-71790795D01*
X208840810Y-71777217D01*
X208840764Y-71777131D01*
X208826414Y-71759297D01*
X208794677Y-71724817D01*
X208748990Y-71677268D01*
X208692796Y-71620222D01*
X208629532Y-71557255D01*
X208622398Y-71550227D01*
X208542670Y-71473020D01*
X208481143Y-71416330D01*
X208436579Y-71379110D01*
X208407743Y-71360315D01*
X208395042Y-71357889D01*
X208376506Y-71368471D01*
X208338039Y-71392916D01*
X208283614Y-71428612D01*
X208217202Y-71472947D01*
X208142775Y-71523311D01*
X208125399Y-71535160D01*
X207878703Y-71703626D01*
X207767294Y-71653062D01*
X207699543Y-71623595D01*
X207626817Y-71593959D01*
X207564297Y-71570330D01*
X207561543Y-71569358D01*
X207512640Y-71551457D01*
X207474943Y-71536320D01*
X207456575Y-71527210D01*
X207456544Y-71527184D01*
X207450715Y-71510717D01*
X207440808Y-71470219D01*
X207427805Y-71410242D01*
X207412691Y-71335340D01*
X207396448Y-71250064D01*
X207395119Y-71242875D01*
X207378825Y-71155014D01*
X207363867Y-71075260D01*
X207351209Y-71008681D01*
X207341814Y-70960347D01*
X207336646Y-70935325D01*
X207336556Y-70934943D01*
X207333411Y-70924299D01*
X207327296Y-70916262D01*
X207314547Y-70910467D01*
X207291500Y-70906547D01*
X207254491Y-70904135D01*
X207199856Y-70902865D01*
X207123933Y-70902371D01*
X207023056Y-70902286D01*
X207010000Y-70902286D01*
X206906090Y-70902348D01*
G37*
X206906090Y-70902348D02*
X206827546Y-70902778D01*
X206770702Y-70903942D01*
X206731895Y-70906207D01*
X206707462Y-70909940D01*
X206693738Y-70915506D01*
X206687060Y-70923273D01*
X206683764Y-70933605D01*
X206683444Y-70934943D01*
X206678438Y-70959079D01*
X206669171Y-71006701D01*
X206656608Y-71072741D01*
X206641713Y-71152128D01*
X206625449Y-71239796D01*
X206624881Y-71242875D01*
X206608590Y-71328789D01*
X206593348Y-71404696D01*
X206580139Y-71466045D01*
X206569946Y-71508282D01*
X206563752Y-71526855D01*
X206563457Y-71527184D01*
X206545212Y-71536253D01*
X206507595Y-71551367D01*
X206458729Y-71569262D01*
X206458457Y-71569358D01*
X206396907Y-71592493D01*
X206324343Y-71621965D01*
X206255943Y-71651597D01*
X206252706Y-71653062D01*
X206141298Y-71703626D01*
X205894601Y-71535160D01*
X205818923Y-71483803D01*
X205750369Y-71437889D01*
X205692912Y-71400030D01*
X205650524Y-71372837D01*
X205627175Y-71358921D01*
X205624958Y-71357889D01*
X205607990Y-71362484D01*
X205576299Y-71384655D01*
X205528648Y-71425447D01*
X205463802Y-71485905D01*
X205397603Y-71550227D01*
X205333786Y-71613612D01*
X205276671Y-71671451D01*
X205229695Y-71720175D01*
X205196297Y-71756210D01*
X205179915Y-71775984D01*
X205179306Y-71777002D01*
X205177495Y-71790572D01*
X205184317Y-71812733D01*
X205201460Y-71846478D01*
X205230607Y-71894800D01*
X205273445Y-71960692D01*
X205330552Y-72045517D01*
X205381234Y-72120177D01*
X205426539Y-72187140D01*
X205463850Y-72242516D01*
X205490548Y-72282420D01*
X205504015Y-72302962D01*
X205504863Y-72304356D01*
X205503219Y-72324038D01*
X205490755Y-72362293D01*
X205469952Y-72411889D01*
X205462538Y-72427728D01*
X205430186Y-72498290D01*
X205395672Y-72578353D01*
X205367635Y-72647629D01*
X205347432Y-72699045D01*
X205331385Y-72738119D01*
X205322112Y-72758541D01*
X205320959Y-72760114D01*
X205303904Y-72762721D01*
X205263702Y-72769863D01*
X205205698Y-72780523D01*
X205135237Y-72793685D01*
X205057665Y-72808333D01*
X204978328Y-72823449D01*
X204902569Y-72838018D01*
X204835736Y-72851022D01*
X204783172Y-72861445D01*
X204750224Y-72868270D01*
X204742143Y-72870199D01*
X204733795Y-72874962D01*
X204727494Y-72885718D01*
X204722955Y-72906098D01*
X204719896Y-72939734D01*
X204718033Y-72990255D01*
X204717082Y-73061292D01*
X204716760Y-73156476D01*
X204716743Y-73195492D01*
X204716743Y-73512799D01*
X204792943Y-73527839D01*
X204835337Y-73535995D01*
X204898600Y-73547899D01*
X204975038Y-73562116D01*
X205056957Y-73577210D01*
X205079600Y-73581355D01*
X205155194Y-73596053D01*
X205221047Y-73610505D01*
X205271634Y-73623375D01*
X205301426Y-73633322D01*
X205306388Y-73636287D01*
X205318574Y-73657283D01*
X205336047Y-73697967D01*
X205355423Y-73750322D01*
X205359266Y-73761600D01*
X205384661Y-73831523D01*
X205416183Y-73910418D01*
X205447031Y-73981266D01*
X205447183Y-73981595D01*
X205498553Y-74092733D01*
X205329601Y-74341253D01*
X205160648Y-74589772D01*
X205377571Y-74807058D01*
X205443181Y-74871726D01*
X205503021Y-74928733D01*
X205553733Y-74975033D01*
X205591954Y-75007584D01*
X205614325Y-75023343D01*
X205617534Y-75024343D01*
X205636374Y-75016469D01*
X205674820Y-74994578D01*
X205728670Y-74961267D01*
X205793724Y-74919131D01*
X205864060Y-74871943D01*
X205935445Y-74823810D01*
X205999092Y-74781928D01*
X206050959Y-74748871D01*
X206087005Y-74727218D01*
X206103133Y-74719543D01*
X206122811Y-74726037D01*
X206160125Y-74743150D01*
X206207379Y-74767326D01*
X206212388Y-74770013D01*
X206276023Y-74801927D01*
X206319659Y-74817579D01*
X206346798Y-74817745D01*
X206360943Y-74803204D01*
X206361025Y-74803000D01*
X206368095Y-74785779D01*
X206384958Y-74744899D01*
X206410305Y-74683525D01*
X206442829Y-74604819D01*
X206481222Y-74511947D01*
X206524178Y-74408072D01*
X206565778Y-74307502D01*
X206611496Y-74196516D01*
X206653474Y-74093703D01*
X206690452Y-74002215D01*
X206721173Y-73925201D01*
X206744378Y-73865815D01*
X206758810Y-73827209D01*
X206763257Y-73812800D01*
X206752104Y-73796272D01*
X206722931Y-73769930D01*
X206684029Y-73740887D01*
X206573243Y-73649039D01*
X206486649Y-73543759D01*
X206425284Y-73427266D01*
X206390185Y-73301776D01*
X206382392Y-73169507D01*
X206388057Y-73108457D01*
X206418922Y-72981795D01*
X206472080Y-72869941D01*
X206544233Y-72774001D01*
X206632083Y-72695076D01*
X206732335Y-72634270D01*
X206841690Y-72592687D01*
X206956853Y-72571428D01*
X207074525Y-72571599D01*
X207191410Y-72594301D01*
X207304211Y-72640638D01*
X207409631Y-72711713D01*
X207453632Y-72751911D01*
X207538021Y-72855129D01*
X207596778Y-72967925D01*
X207630296Y-73087010D01*
X207638965Y-73209095D01*
X207623177Y-73330893D01*
X207583322Y-73449116D01*
X207519793Y-73560475D01*
X207432979Y-73661684D01*
X207335971Y-73740887D01*
X207295563Y-73771162D01*
X207267018Y-73797219D01*
X207256743Y-73812825D01*
X207262123Y-73829843D01*
X207277425Y-73870500D01*
X207301388Y-73931642D01*
X207332756Y-74010119D01*
X207370268Y-74102780D01*
X207412667Y-74206472D01*
X207454337Y-74307526D01*
X207500310Y-74418607D01*
X207542893Y-74521541D01*
X207580779Y-74613165D01*
X207612660Y-74690316D01*
X207637229Y-74749831D01*
X207653180Y-74788544D01*
X207659090Y-74803000D01*
X207673052Y-74817685D01*
X207700060Y-74817642D01*
X207743587Y-74802099D01*
X207807110Y-74770284D01*
X207807612Y-74770013D01*
X207855440Y-74745323D01*
X207894103Y-74727338D01*
X207915905Y-74719614D01*
X207916867Y-74719543D01*
X207933279Y-74727378D01*
X207969513Y-74749165D01*
X208021526Y-74782328D01*
X208085275Y-74824291D01*
X208155940Y-74871943D01*
X208227884Y-74920191D01*
X208292726Y-74962151D01*
X208346265Y-74995227D01*
X208384303Y-75016821D01*
X208402467Y-75024343D01*
X208419192Y-75014457D01*
X208452820Y-74986826D01*
X208499990Y-74944495D01*
X208557342Y-74890505D01*
X208621516Y-74827899D01*
X208642503Y-74806983D01*
X208859501Y-74589623D01*
X208694332Y-74347220D01*
X208644136Y-74272781D01*
X208600081Y-74205972D01*
X208564638Y-74150665D01*
X208540281Y-74110729D01*
X208529478Y-74090036D01*
X208529162Y-74088563D01*
X208534857Y-74069058D01*
X208550174Y-74029822D01*
X208572463Y-73977430D01*
X208588107Y-73942355D01*
X208617359Y-73875201D01*
X208644906Y-73807358D01*
X208666263Y-73750034D01*
X208672065Y-73732572D01*
X208688548Y-73685938D01*
X208704660Y-73649905D01*
X208713510Y-73636287D01*
X208733040Y-73627952D01*
X208775666Y-73616137D01*
X208835855Y-73602181D01*
X208908078Y-73587422D01*
X208940400Y-73581355D01*
X209022478Y-73566273D01*
X209101205Y-73551669D01*
X209168891Y-73538980D01*
X209217840Y-73529642D01*
X209227057Y-73527839D01*
X209303257Y-73512799D01*
X209303257Y-73195492D01*
X209303086Y-73091154D01*
X209302384Y-73012213D01*
X209300866Y-72955038D01*
X209298251Y-72915999D01*
X209294254Y-72891465D01*
X209288591Y-72877805D01*
X209280980Y-72871389D01*
X209277857Y-72870199D01*
X209259022Y-72865980D01*
X209217412Y-72857562D01*
X209158370Y-72845961D01*
X209087243Y-72832195D01*
X209009375Y-72817280D01*
X208930113Y-72802232D01*
X208854802Y-72788069D01*
X208788787Y-72775806D01*
X208737413Y-72766461D01*
X208706025Y-72761050D01*
X208699041Y-72760114D01*
X208692715Y-72747596D01*
X208678710Y-72714246D01*
X208659645Y-72666377D01*
X208652366Y-72647629D01*
X208623004Y-72575195D01*
X208588429Y-72495170D01*
X208557463Y-72427728D01*
X208534677Y-72376159D01*
X208519518Y-72333785D01*
X208514458Y-72307834D01*
X208515264Y-72304356D01*
X208525959Y-72287936D01*
X208550380Y-72251417D01*
X208585905Y-72198687D01*
X208629913Y-72133635D01*
X208679783Y-72060151D01*
X208689644Y-72045645D01*
X208747508Y-71959704D01*
X208790044Y-71894261D01*
X208818946Y-71846304D01*
X208835910Y-71812820D01*
X208842633Y-71790795D01*
X208840810Y-71777217D01*
X208840764Y-71777131D01*
X208826414Y-71759297D01*
X208794677Y-71724817D01*
X208748990Y-71677268D01*
X208692796Y-71620222D01*
X208629532Y-71557255D01*
X208622398Y-71550227D01*
X208542670Y-71473020D01*
X208481143Y-71416330D01*
X208436579Y-71379110D01*
X208407743Y-71360315D01*
X208395042Y-71357889D01*
X208376506Y-71368471D01*
X208338039Y-71392916D01*
X208283614Y-71428612D01*
X208217202Y-71472947D01*
X208142775Y-71523311D01*
X208125399Y-71535160D01*
X207878703Y-71703626D01*
X207767294Y-71653062D01*
X207699543Y-71623595D01*
X207626817Y-71593959D01*
X207564297Y-71570330D01*
X207561543Y-71569358D01*
X207512640Y-71551457D01*
X207474943Y-71536320D01*
X207456575Y-71527210D01*
X207456544Y-71527184D01*
X207450715Y-71510717D01*
X207440808Y-71470219D01*
X207427805Y-71410242D01*
X207412691Y-71335340D01*
X207396448Y-71250064D01*
X207395119Y-71242875D01*
X207378825Y-71155014D01*
X207363867Y-71075260D01*
X207351209Y-71008681D01*
X207341814Y-70960347D01*
X207336646Y-70935325D01*
X207336556Y-70934943D01*
X207333411Y-70924299D01*
X207327296Y-70916262D01*
X207314547Y-70910467D01*
X207291500Y-70906547D01*
X207254491Y-70904135D01*
X207199856Y-70902865D01*
X207123933Y-70902371D01*
X207023056Y-70902286D01*
X207010000Y-70902286D01*
X206906090Y-70902348D01*
G36*
X203856405Y-75626966D02*
G01*
X203798979Y-75664497D01*
X203771281Y-75698096D01*
X203749338Y-75759064D01*
X203747595Y-75807308D01*
X203751543Y-75871816D01*
X203900314Y-75936934D01*
X203972651Y-75970202D01*
X204019916Y-75996964D01*
X204044493Y-76020144D01*
X204048763Y-76042667D01*
X204035111Y-76067455D01*
X204020057Y-76083886D01*
X203976254Y-76110235D01*
X203928611Y-76112081D01*
X203884855Y-76091546D01*
X203852711Y-76050752D01*
X203846962Y-76036347D01*
X203819424Y-75991356D01*
X203787742Y-75972182D01*
X203744286Y-75955779D01*
X203744286Y-76017966D01*
X203748128Y-76060283D01*
X203763177Y-76095969D01*
X203794720Y-76136943D01*
X203799408Y-76142267D01*
X203834494Y-76178720D01*
X203864653Y-76198283D01*
X203902385Y-76207283D01*
X203933665Y-76210230D01*
X203989615Y-76210965D01*
X204029445Y-76201660D01*
X204054292Y-76187846D01*
X204093344Y-76157467D01*
X204120375Y-76124613D01*
X204137483Y-76083294D01*
X204146762Y-76027521D01*
X204150307Y-75951305D01*
X204150590Y-75912622D01*
X204149628Y-75866247D01*
X204061993Y-75866247D01*
X204060977Y-75891126D01*
X204058444Y-75895200D01*
X204041726Y-75889665D01*
X204005751Y-75875017D01*
X203957669Y-75854190D01*
X203947614Y-75849714D01*
X203886848Y-75818814D01*
X203853368Y-75791657D01*
X203846010Y-75766220D01*
X203863609Y-75740481D01*
X203878144Y-75729109D01*
X203930590Y-75706364D01*
X203979678Y-75710122D01*
X204020773Y-75737884D01*
X204049242Y-75787152D01*
X204058369Y-75826257D01*
X204061993Y-75866247D01*
X204149628Y-75866247D01*
X204148715Y-75822249D01*
X204141804Y-75755384D01*
X204128116Y-75706695D01*
X204105904Y-75670849D01*
X204073426Y-75642513D01*
X204059267Y-75633355D01*
X203994947Y-75609507D01*
X203924527Y-75608006D01*
X203856405Y-75626966D01*
G37*
X203856405Y-75626966D02*
X203798979Y-75664497D01*
X203771281Y-75698096D01*
X203749338Y-75759064D01*
X203747595Y-75807308D01*
X203751543Y-75871816D01*
X203900314Y-75936934D01*
X203972651Y-75970202D01*
X204019916Y-75996964D01*
X204044493Y-76020144D01*
X204048763Y-76042667D01*
X204035111Y-76067455D01*
X204020057Y-76083886D01*
X203976254Y-76110235D01*
X203928611Y-76112081D01*
X203884855Y-76091546D01*
X203852711Y-76050752D01*
X203846962Y-76036347D01*
X203819424Y-75991356D01*
X203787742Y-75972182D01*
X203744286Y-75955779D01*
X203744286Y-76017966D01*
X203748128Y-76060283D01*
X203763177Y-76095969D01*
X203794720Y-76136943D01*
X203799408Y-76142267D01*
X203834494Y-76178720D01*
X203864653Y-76198283D01*
X203902385Y-76207283D01*
X203933665Y-76210230D01*
X203989615Y-76210965D01*
X204029445Y-76201660D01*
X204054292Y-76187846D01*
X204093344Y-76157467D01*
X204120375Y-76124613D01*
X204137483Y-76083294D01*
X204146762Y-76027521D01*
X204150307Y-75951305D01*
X204150590Y-75912622D01*
X204149628Y-75866247D01*
X204061993Y-75866247D01*
X204060977Y-75891126D01*
X204058444Y-75895200D01*
X204041726Y-75889665D01*
X204005751Y-75875017D01*
X203957669Y-75854190D01*
X203947614Y-75849714D01*
X203886848Y-75818814D01*
X203853368Y-75791657D01*
X203846010Y-75766220D01*
X203863609Y-75740481D01*
X203878144Y-75729109D01*
X203930590Y-75706364D01*
X203979678Y-75710122D01*
X204020773Y-75737884D01*
X204049242Y-75787152D01*
X204058369Y-75826257D01*
X204061993Y-75866247D01*
X204149628Y-75866247D01*
X204148715Y-75822249D01*
X204141804Y-75755384D01*
X204128116Y-75706695D01*
X204105904Y-75670849D01*
X204073426Y-75642513D01*
X204059267Y-75633355D01*
X203994947Y-75609507D01*
X203924527Y-75608006D01*
X203856405Y-75626966D01*
G36*
X204357400Y-75618752D02*
G01*
X204340052Y-75626334D01*
X204298644Y-75659128D01*
X204263235Y-75706547D01*
X204241336Y-75757151D01*
X204237771Y-75782098D01*
X204249721Y-75816927D01*
X204275933Y-75835357D01*
X204304036Y-75846516D01*
X204316905Y-75848572D01*
X204323171Y-75833649D01*
X204335544Y-75801175D01*
X204340972Y-75786502D01*
X204371410Y-75735744D01*
X204415480Y-75710427D01*
X204471990Y-75711206D01*
X204476175Y-75712203D01*
X204506345Y-75726507D01*
X204528524Y-75754393D01*
X204543673Y-75799287D01*
X204552750Y-75864615D01*
X204556714Y-75953804D01*
X204557086Y-76001261D01*
X204557270Y-76076071D01*
X204558478Y-76127069D01*
X204561691Y-76159471D01*
X204567891Y-76178495D01*
X204578060Y-76189356D01*
X204593181Y-76197272D01*
X204594054Y-76197670D01*
X204623172Y-76209981D01*
X204637597Y-76214514D01*
X204639814Y-76200809D01*
X204641711Y-76162925D01*
X204643153Y-76105715D01*
X204644002Y-76034027D01*
X204644171Y-75981565D01*
X204643308Y-75880047D01*
X204639930Y-75803032D01*
X204632858Y-75746023D01*
X204620912Y-75704526D01*
X204602910Y-75674043D01*
X204577673Y-75650080D01*
X204552753Y-75633355D01*
X204492829Y-75611097D01*
X204423089Y-75606076D01*
X204357400Y-75618752D01*
G37*
X204357400Y-75618752D02*
X204340052Y-75626334D01*
X204298644Y-75659128D01*
X204263235Y-75706547D01*
X204241336Y-75757151D01*
X204237771Y-75782098D01*
X204249721Y-75816927D01*
X204275933Y-75835357D01*
X204304036Y-75846516D01*
X204316905Y-75848572D01*
X204323171Y-75833649D01*
X204335544Y-75801175D01*
X204340972Y-75786502D01*
X204371410Y-75735744D01*
X204415480Y-75710427D01*
X204471990Y-75711206D01*
X204476175Y-75712203D01*
X204506345Y-75726507D01*
X204528524Y-75754393D01*
X204543673Y-75799287D01*
X204552750Y-75864615D01*
X204556714Y-75953804D01*
X204557086Y-76001261D01*
X204557270Y-76076071D01*
X204558478Y-76127069D01*
X204561691Y-76159471D01*
X204567891Y-76178495D01*
X204578060Y-76189356D01*
X204593181Y-76197272D01*
X204594054Y-76197670D01*
X204623172Y-76209981D01*
X204637597Y-76214514D01*
X204639814Y-76200809D01*
X204641711Y-76162925D01*
X204643153Y-76105715D01*
X204644002Y-76034027D01*
X204644171Y-75981565D01*
X204643308Y-75880047D01*
X204639930Y-75803032D01*
X204632858Y-75746023D01*
X204620912Y-75704526D01*
X204602910Y-75674043D01*
X204577673Y-75650080D01*
X204552753Y-75633355D01*
X204492829Y-75611097D01*
X204423089Y-75606076D01*
X204357400Y-75618752D01*
G36*
X204865124Y-75616335D02*
G01*
X204823333Y-75635344D01*
X204790531Y-75658378D01*
X204766497Y-75684133D01*
X204749903Y-75717358D01*
X204739423Y-75762800D01*
X204733729Y-75825207D01*
X204731493Y-75909327D01*
X204731257Y-75964721D01*
X204731257Y-76180826D01*
X204768226Y-76197670D01*
X204797344Y-76209981D01*
X204811769Y-76214514D01*
X204814528Y-76201025D01*
X204816718Y-76164653D01*
X204818058Y-76111542D01*
X204818343Y-76069372D01*
X204819566Y-76008447D01*
X204822864Y-75960115D01*
X204827679Y-75930518D01*
X204831504Y-75924229D01*
X204857217Y-75930652D01*
X204897582Y-75947125D01*
X204944321Y-75969458D01*
X204989155Y-75993457D01*
X205023807Y-76014930D01*
X205039998Y-76029685D01*
X205040062Y-76029845D01*
X205038670Y-76057152D01*
X205026182Y-76083219D01*
X205004257Y-76104392D01*
X204972257Y-76111474D01*
X204944908Y-76110649D01*
X204906174Y-76110042D01*
X204885842Y-76119116D01*
X204873631Y-76143092D01*
X204872091Y-76147613D01*
X204866797Y-76181806D01*
X204880953Y-76202568D01*
X204917852Y-76212462D01*
X204957711Y-76214292D01*
X205029438Y-76200727D01*
X205066568Y-76181355D01*
X205112424Y-76135845D01*
X205136744Y-76079983D01*
X205138927Y-76020957D01*
X205118371Y-75965953D01*
X205087451Y-75931486D01*
X205056580Y-75912189D01*
X205008058Y-75887759D01*
X204951515Y-75862985D01*
X204942090Y-75859199D01*
X204879981Y-75831791D01*
X204844178Y-75807634D01*
X204832663Y-75783619D01*
X204843420Y-75756635D01*
X204861886Y-75735543D01*
X204905531Y-75709572D01*
X204953554Y-75707624D01*
X204997594Y-75727637D01*
X205029291Y-75767551D01*
X205033451Y-75777848D01*
X205057673Y-75815724D01*
X205093035Y-75843842D01*
X205137657Y-75866917D01*
X205137657Y-75801485D01*
X205135031Y-75761506D01*
X205123770Y-75729997D01*
X205098801Y-75696378D01*
X205074831Y-75670484D01*
X205037559Y-75633817D01*
X205008599Y-75614121D01*
X204977495Y-75606220D01*
X204942287Y-75604914D01*
X204865124Y-75616335D01*
G37*
X204865124Y-75616335D02*
X204823333Y-75635344D01*
X204790531Y-75658378D01*
X204766497Y-75684133D01*
X204749903Y-75717358D01*
X204739423Y-75762800D01*
X204733729Y-75825207D01*
X204731493Y-75909327D01*
X204731257Y-75964721D01*
X204731257Y-76180826D01*
X204768226Y-76197670D01*
X204797344Y-76209981D01*
X204811769Y-76214514D01*
X204814528Y-76201025D01*
X204816718Y-76164653D01*
X204818058Y-76111542D01*
X204818343Y-76069372D01*
X204819566Y-76008447D01*
X204822864Y-75960115D01*
X204827679Y-75930518D01*
X204831504Y-75924229D01*
X204857217Y-75930652D01*
X204897582Y-75947125D01*
X204944321Y-75969458D01*
X204989155Y-75993457D01*
X205023807Y-76014930D01*
X205039998Y-76029685D01*
X205040062Y-76029845D01*
X205038670Y-76057152D01*
X205026182Y-76083219D01*
X205004257Y-76104392D01*
X204972257Y-76111474D01*
X204944908Y-76110649D01*
X204906174Y-76110042D01*
X204885842Y-76119116D01*
X204873631Y-76143092D01*
X204872091Y-76147613D01*
X204866797Y-76181806D01*
X204880953Y-76202568D01*
X204917852Y-76212462D01*
X204957711Y-76214292D01*
X205029438Y-76200727D01*
X205066568Y-76181355D01*
X205112424Y-76135845D01*
X205136744Y-76079983D01*
X205138927Y-76020957D01*
X205118371Y-75965953D01*
X205087451Y-75931486D01*
X205056580Y-75912189D01*
X205008058Y-75887759D01*
X204951515Y-75862985D01*
X204942090Y-75859199D01*
X204879981Y-75831791D01*
X204844178Y-75807634D01*
X204832663Y-75783619D01*
X204843420Y-75756635D01*
X204861886Y-75735543D01*
X204905531Y-75709572D01*
X204953554Y-75707624D01*
X204997594Y-75727637D01*
X205029291Y-75767551D01*
X205033451Y-75777848D01*
X205057673Y-75815724D01*
X205093035Y-75843842D01*
X205137657Y-75866917D01*
X205137657Y-75801485D01*
X205135031Y-75761506D01*
X205123770Y-75729997D01*
X205098801Y-75696378D01*
X205074831Y-75670484D01*
X205037559Y-75633817D01*
X205008599Y-75614121D01*
X204977495Y-75606220D01*
X204942287Y-75604914D01*
X204865124Y-75616335D01*
G36*
X205230167Y-75618663D02*
G01*
X205227952Y-75656850D01*
X205226216Y-75714886D01*
X205225101Y-75788180D01*
X205224743Y-75865055D01*
X205224743Y-76125196D01*
X205270674Y-76171127D01*
X205302325Y-76199429D01*
X205330110Y-76210893D01*
X205368085Y-76210168D01*
X205383160Y-76208321D01*
X205430274Y-76202948D01*
X205469244Y-76199869D01*
X205478743Y-76199585D01*
X205510767Y-76201445D01*
X205556568Y-76206114D01*
X205574326Y-76208321D01*
X205617943Y-76211735D01*
X205647255Y-76204320D01*
X205676320Y-76181427D01*
X205686812Y-76171127D01*
X205732743Y-76125196D01*
X205732743Y-75638602D01*
X205695774Y-75621758D01*
X205663941Y-75609282D01*
X205645317Y-75604914D01*
X205640542Y-75618718D01*
X205636079Y-75657286D01*
X205632225Y-75716356D01*
X205629278Y-75791663D01*
X205627857Y-75855286D01*
X205623886Y-76105657D01*
X205589241Y-76110556D01*
X205557732Y-76107131D01*
X205542292Y-76096041D01*
X205537977Y-76075308D01*
X205534292Y-76031145D01*
X205531531Y-75969146D01*
X205529988Y-75894909D01*
X205529765Y-75856706D01*
X205529543Y-75636783D01*
X205483834Y-75620849D01*
X205451482Y-75610015D01*
X205433885Y-75604962D01*
X205433377Y-75604914D01*
X205431612Y-75618648D01*
X205429671Y-75656730D01*
X205427718Y-75714482D01*
X205425916Y-75787227D01*
X205424657Y-75855286D01*
X205420686Y-76105657D01*
X205333600Y-76105657D01*
X205329604Y-75877240D01*
X205325608Y-75648822D01*
X205283153Y-75626868D01*
X205251808Y-75611793D01*
X205233256Y-75604951D01*
X205232721Y-75604914D01*
X205230167Y-75618663D01*
G37*
X205230167Y-75618663D02*
X205227952Y-75656850D01*
X205226216Y-75714886D01*
X205225101Y-75788180D01*
X205224743Y-75865055D01*
X205224743Y-76125196D01*
X205270674Y-76171127D01*
X205302325Y-76199429D01*
X205330110Y-76210893D01*
X205368085Y-76210168D01*
X205383160Y-76208321D01*
X205430274Y-76202948D01*
X205469244Y-76199869D01*
X205478743Y-76199585D01*
X205510767Y-76201445D01*
X205556568Y-76206114D01*
X205574326Y-76208321D01*
X205617943Y-76211735D01*
X205647255Y-76204320D01*
X205676320Y-76181427D01*
X205686812Y-76171127D01*
X205732743Y-76125196D01*
X205732743Y-75638602D01*
X205695774Y-75621758D01*
X205663941Y-75609282D01*
X205645317Y-75604914D01*
X205640542Y-75618718D01*
X205636079Y-75657286D01*
X205632225Y-75716356D01*
X205629278Y-75791663D01*
X205627857Y-75855286D01*
X205623886Y-76105657D01*
X205589241Y-76110556D01*
X205557732Y-76107131D01*
X205542292Y-76096041D01*
X205537977Y-76075308D01*
X205534292Y-76031145D01*
X205531531Y-75969146D01*
X205529988Y-75894909D01*
X205529765Y-75856706D01*
X205529543Y-75636783D01*
X205483834Y-75620849D01*
X205451482Y-75610015D01*
X205433885Y-75604962D01*
X205433377Y-75604914D01*
X205431612Y-75618648D01*
X205429671Y-75656730D01*
X205427718Y-75714482D01*
X205425916Y-75787227D01*
X205424657Y-75855286D01*
X205420686Y-76105657D01*
X205333600Y-76105657D01*
X205329604Y-75877240D01*
X205325608Y-75648822D01*
X205283153Y-75626868D01*
X205251808Y-75611793D01*
X205233256Y-75604951D01*
X205232721Y-75604914D01*
X205230167Y-75618663D01*
G36*
X205819883Y-75725358D02*
G01*
X205820067Y-75833837D01*
X205820781Y-75917287D01*
X205822325Y-75979704D01*
X205824999Y-76025085D01*
X205829106Y-76057429D01*
X205834945Y-76080733D01*
X205842818Y-76098995D01*
X205848779Y-76109418D01*
X205898145Y-76165945D01*
X205960736Y-76201377D01*
X206029987Y-76214090D01*
X206099332Y-76202463D01*
X206140625Y-76181568D01*
X206183975Y-76145422D01*
X206213519Y-76101276D01*
X206231345Y-76043462D01*
X206239537Y-75966313D01*
X206240698Y-75909714D01*
X206240542Y-75905647D01*
X206139143Y-75905647D01*
X206138524Y-75970550D01*
X206135686Y-76013514D01*
X206129160Y-76041622D01*
X206117477Y-76061953D01*
X206103517Y-76077288D01*
X206056635Y-76106890D01*
X206006299Y-76109419D01*
X205958724Y-76084705D01*
X205955021Y-76081356D01*
X205939217Y-76063935D01*
X205929307Y-76043209D01*
X205923942Y-76012362D01*
X205921772Y-75964577D01*
X205921429Y-75911748D01*
X205922173Y-75845381D01*
X205925252Y-75801106D01*
X205931939Y-75772009D01*
X205943504Y-75751173D01*
X205952987Y-75740107D01*
X205997040Y-75712198D01*
X206047776Y-75708843D01*
X206096204Y-75730159D01*
X206105550Y-75738073D01*
X206121460Y-75755647D01*
X206131390Y-75776587D01*
X206136722Y-75807782D01*
X206138837Y-75856122D01*
X206139143Y-75905647D01*
X206240542Y-75905647D01*
X206237190Y-75818568D01*
X206225274Y-75750086D01*
X206202865Y-75698600D01*
X206167876Y-75658443D01*
X206140625Y-75637861D01*
X206091093Y-75615625D01*
X206033684Y-75605304D01*
X205980318Y-75608067D01*
X205950457Y-75619212D01*
X205938739Y-75622383D01*
X205930963Y-75610557D01*
X205925535Y-75578866D01*
X205921429Y-75530593D01*
X205916933Y-75476829D01*
X205910687Y-75444482D01*
X205899324Y-75425985D01*
X205879472Y-75413770D01*
X205867000Y-75408362D01*
X205819829Y-75388601D01*
X205819883Y-75725358D01*
G37*
X205819883Y-75725358D02*
X205820067Y-75833837D01*
X205820781Y-75917287D01*
X205822325Y-75979704D01*
X205824999Y-76025085D01*
X205829106Y-76057429D01*
X205834945Y-76080733D01*
X205842818Y-76098995D01*
X205848779Y-76109418D01*
X205898145Y-76165945D01*
X205960736Y-76201377D01*
X206029987Y-76214090D01*
X206099332Y-76202463D01*
X206140625Y-76181568D01*
X206183975Y-76145422D01*
X206213519Y-76101276D01*
X206231345Y-76043462D01*
X206239537Y-75966313D01*
X206240698Y-75909714D01*
X206240542Y-75905647D01*
X206139143Y-75905647D01*
X206138524Y-75970550D01*
X206135686Y-76013514D01*
X206129160Y-76041622D01*
X206117477Y-76061953D01*
X206103517Y-76077288D01*
X206056635Y-76106890D01*
X206006299Y-76109419D01*
X205958724Y-76084705D01*
X205955021Y-76081356D01*
X205939217Y-76063935D01*
X205929307Y-76043209D01*
X205923942Y-76012362D01*
X205921772Y-75964577D01*
X205921429Y-75911748D01*
X205922173Y-75845381D01*
X205925252Y-75801106D01*
X205931939Y-75772009D01*
X205943504Y-75751173D01*
X205952987Y-75740107D01*
X205997040Y-75712198D01*
X206047776Y-75708843D01*
X206096204Y-75730159D01*
X206105550Y-75738073D01*
X206121460Y-75755647D01*
X206131390Y-75776587D01*
X206136722Y-75807782D01*
X206138837Y-75856122D01*
X206139143Y-75905647D01*
X206240542Y-75905647D01*
X206237190Y-75818568D01*
X206225274Y-75750086D01*
X206202865Y-75698600D01*
X206167876Y-75658443D01*
X206140625Y-75637861D01*
X206091093Y-75615625D01*
X206033684Y-75605304D01*
X205980318Y-75608067D01*
X205950457Y-75619212D01*
X205938739Y-75622383D01*
X205930963Y-75610557D01*
X205925535Y-75578866D01*
X205921429Y-75530593D01*
X205916933Y-75476829D01*
X205910687Y-75444482D01*
X205899324Y-75425985D01*
X205879472Y-75413770D01*
X205867000Y-75408362D01*
X205819829Y-75388601D01*
X205819883Y-75725358D01*
G36*
X206480074Y-75609755D02*
G01*
X206414142Y-75634084D01*
X206360727Y-75677117D01*
X206339836Y-75707409D01*
X206317061Y-75762994D01*
X206317534Y-75803186D01*
X206341438Y-75830217D01*
X206350283Y-75834813D01*
X206388470Y-75849144D01*
X206407972Y-75845472D01*
X206414578Y-75821407D01*
X206414914Y-75808114D01*
X206427008Y-75759210D01*
X206458529Y-75724999D01*
X206502341Y-75708476D01*
X206551305Y-75712634D01*
X206591106Y-75734227D01*
X206604550Y-75746544D01*
X206614079Y-75761487D01*
X206620515Y-75784075D01*
X206624683Y-75819328D01*
X206627403Y-75872266D01*
X206629498Y-75947907D01*
X206630040Y-75971857D01*
X206632019Y-76053790D01*
X206634269Y-76111455D01*
X206637643Y-76149608D01*
X206642994Y-76173004D01*
X206651176Y-76186398D01*
X206663041Y-76194545D01*
X206670638Y-76198144D01*
X206702898Y-76210452D01*
X206721889Y-76214514D01*
X206728164Y-76200948D01*
X206731994Y-76159934D01*
X206733400Y-76090999D01*
X206732402Y-75993669D01*
X206732092Y-75978657D01*
X206729899Y-75889859D01*
X206727307Y-75825019D01*
X206723618Y-75779067D01*
X206718136Y-75746935D01*
X206710165Y-75723553D01*
X206699007Y-75703852D01*
X206693170Y-75695410D01*
X206659704Y-75658057D01*
X206622273Y-75629003D01*
X206617691Y-75626467D01*
X206550574Y-75606443D01*
X206480074Y-75609755D01*
G37*
X206480074Y-75609755D02*
X206414142Y-75634084D01*
X206360727Y-75677117D01*
X206339836Y-75707409D01*
X206317061Y-75762994D01*
X206317534Y-75803186D01*
X206341438Y-75830217D01*
X206350283Y-75834813D01*
X206388470Y-75849144D01*
X206407972Y-75845472D01*
X206414578Y-75821407D01*
X206414914Y-75808114D01*
X206427008Y-75759210D01*
X206458529Y-75724999D01*
X206502341Y-75708476D01*
X206551305Y-75712634D01*
X206591106Y-75734227D01*
X206604550Y-75746544D01*
X206614079Y-75761487D01*
X206620515Y-75784075D01*
X206624683Y-75819328D01*
X206627403Y-75872266D01*
X206629498Y-75947907D01*
X206630040Y-75971857D01*
X206632019Y-76053790D01*
X206634269Y-76111455D01*
X206637643Y-76149608D01*
X206642994Y-76173004D01*
X206651176Y-76186398D01*
X206663041Y-76194545D01*
X206670638Y-76198144D01*
X206702898Y-76210452D01*
X206721889Y-76214514D01*
X206728164Y-76200948D01*
X206731994Y-76159934D01*
X206733400Y-76090999D01*
X206732402Y-75993669D01*
X206732092Y-75978657D01*
X206729899Y-75889859D01*
X206727307Y-75825019D01*
X206723618Y-75779067D01*
X206718136Y-75746935D01*
X206710165Y-75723553D01*
X206699007Y-75703852D01*
X206693170Y-75695410D01*
X206659704Y-75658057D01*
X206622273Y-75629003D01*
X206617691Y-75626467D01*
X206550574Y-75606443D01*
X206480074Y-75609755D01*
G36*
X206970256Y-75610968D02*
G01*
X206913384Y-75632087D01*
X206912733Y-75632493D01*
X206877560Y-75658380D01*
X206851593Y-75688633D01*
X206833330Y-75728058D01*
X206821268Y-75781462D01*
X206813904Y-75853651D01*
X206809736Y-75949432D01*
X206809371Y-75963078D01*
X206804124Y-76168842D01*
X206848284Y-76191678D01*
X206880237Y-76207110D01*
X206899530Y-76214423D01*
X206900422Y-76214514D01*
X206903761Y-76201022D01*
X206906413Y-76164626D01*
X206908044Y-76111452D01*
X206908400Y-76068393D01*
X206908408Y-75998641D01*
X206911597Y-75954837D01*
X206922712Y-75933944D01*
X206946499Y-75932925D01*
X206987704Y-75948741D01*
X207049914Y-75977815D01*
X207095659Y-76001963D01*
X207119187Y-76022913D01*
X207126104Y-76045747D01*
X207126114Y-76046877D01*
X207114701Y-76086212D01*
X207080908Y-76107462D01*
X207029191Y-76110539D01*
X206991939Y-76110006D01*
X206972297Y-76120735D01*
X206960048Y-76146505D01*
X206952998Y-76179337D01*
X206963158Y-76197966D01*
X206966983Y-76200632D01*
X207002999Y-76211340D01*
X207053434Y-76212856D01*
X207105374Y-76205759D01*
X207142178Y-76192788D01*
X207193062Y-76149585D01*
X207221986Y-76089446D01*
X207227714Y-76042462D01*
X207223343Y-76000082D01*
X207207525Y-75965488D01*
X207176203Y-75934763D01*
X207125322Y-75903990D01*
X207050824Y-75869252D01*
X207046286Y-75867288D01*
X206979179Y-75836287D01*
X206937768Y-75810862D01*
X206920019Y-75788014D01*
X206923893Y-75764745D01*
X206947357Y-75738056D01*
X206954373Y-75731914D01*
X207001370Y-75708100D01*
X207050067Y-75709103D01*
X207092478Y-75732451D01*
X207120616Y-75775675D01*
X207123231Y-75784160D01*
X207148692Y-75825308D01*
X207180999Y-75845128D01*
X207227714Y-75864770D01*
X207227714Y-75813950D01*
X207213504Y-75740082D01*
X207171325Y-75672327D01*
X207149376Y-75649661D01*
X207099483Y-75620569D01*
X207036033Y-75607400D01*
X206970256Y-75610968D01*
G37*
X206970256Y-75610968D02*
X206913384Y-75632087D01*
X206912733Y-75632493D01*
X206877560Y-75658380D01*
X206851593Y-75688633D01*
X206833330Y-75728058D01*
X206821268Y-75781462D01*
X206813904Y-75853651D01*
X206809736Y-75949432D01*
X206809371Y-75963078D01*
X206804124Y-76168842D01*
X206848284Y-76191678D01*
X206880237Y-76207110D01*
X206899530Y-76214423D01*
X206900422Y-76214514D01*
X206903761Y-76201022D01*
X206906413Y-76164626D01*
X206908044Y-76111452D01*
X206908400Y-76068393D01*
X206908408Y-75998641D01*
X206911597Y-75954837D01*
X206922712Y-75933944D01*
X206946499Y-75932925D01*
X206987704Y-75948741D01*
X207049914Y-75977815D01*
X207095659Y-76001963D01*
X207119187Y-76022913D01*
X207126104Y-76045747D01*
X207126114Y-76046877D01*
X207114701Y-76086212D01*
X207080908Y-76107462D01*
X207029191Y-76110539D01*
X206991939Y-76110006D01*
X206972297Y-76120735D01*
X206960048Y-76146505D01*
X206952998Y-76179337D01*
X206963158Y-76197966D01*
X206966983Y-76200632D01*
X207002999Y-76211340D01*
X207053434Y-76212856D01*
X207105374Y-76205759D01*
X207142178Y-76192788D01*
X207193062Y-76149585D01*
X207221986Y-76089446D01*
X207227714Y-76042462D01*
X207223343Y-76000082D01*
X207207525Y-75965488D01*
X207176203Y-75934763D01*
X207125322Y-75903990D01*
X207050824Y-75869252D01*
X207046286Y-75867288D01*
X206979179Y-75836287D01*
X206937768Y-75810862D01*
X206920019Y-75788014D01*
X206923893Y-75764745D01*
X206947357Y-75738056D01*
X206954373Y-75731914D01*
X207001370Y-75708100D01*
X207050067Y-75709103D01*
X207092478Y-75732451D01*
X207120616Y-75775675D01*
X207123231Y-75784160D01*
X207148692Y-75825308D01*
X207180999Y-75845128D01*
X207227714Y-75864770D01*
X207227714Y-75813950D01*
X207213504Y-75740082D01*
X207171325Y-75672327D01*
X207149376Y-75649661D01*
X207099483Y-75620569D01*
X207036033Y-75607400D01*
X206970256Y-75610968D01*
G36*
X207634114Y-75511289D02*
G01*
X207629861Y-75570613D01*
X207624975Y-75605572D01*
X207618205Y-75620820D01*
X207608298Y-75621015D01*
X207605086Y-75619195D01*
X207562356Y-75606015D01*
X207506773Y-75606785D01*
X207450263Y-75620333D01*
X207414918Y-75637861D01*
X207378679Y-75665861D01*
X207352187Y-75697549D01*
X207334001Y-75737813D01*
X207322678Y-75791543D01*
X207316778Y-75863626D01*
X207314857Y-75958951D01*
X207314823Y-75977237D01*
X207314800Y-76182646D01*
X207360509Y-76198580D01*
X207392973Y-76209420D01*
X207410785Y-76214468D01*
X207411309Y-76214514D01*
X207413063Y-76200828D01*
X207414556Y-76163076D01*
X207415674Y-76106224D01*
X207416303Y-76035234D01*
X207416400Y-75992073D01*
X207416602Y-75906973D01*
X207417642Y-75845981D01*
X207420169Y-75804177D01*
X207424836Y-75776642D01*
X207432293Y-75758456D01*
X207443189Y-75744698D01*
X207449993Y-75738073D01*
X207496728Y-75711375D01*
X207547728Y-75709375D01*
X207593999Y-75731955D01*
X207602556Y-75740107D01*
X207615107Y-75755436D01*
X207623812Y-75773618D01*
X207629369Y-75799909D01*
X207632474Y-75839562D01*
X207633824Y-75897832D01*
X207634114Y-75978173D01*
X207634114Y-76182646D01*
X207679823Y-76198580D01*
X207712287Y-76209420D01*
X207730099Y-76214468D01*
X207730623Y-76214514D01*
X207731963Y-76200623D01*
X207733172Y-76161439D01*
X207734199Y-76100700D01*
X207734998Y-76022141D01*
X207735519Y-75929498D01*
X207735714Y-75826509D01*
X207735714Y-75429342D01*
X207688543Y-75409444D01*
X207641371Y-75389547D01*
X207634114Y-75511289D01*
G37*
X207634114Y-75511289D02*
X207629861Y-75570613D01*
X207624975Y-75605572D01*
X207618205Y-75620820D01*
X207608298Y-75621015D01*
X207605086Y-75619195D01*
X207562356Y-75606015D01*
X207506773Y-75606785D01*
X207450263Y-75620333D01*
X207414918Y-75637861D01*
X207378679Y-75665861D01*
X207352187Y-75697549D01*
X207334001Y-75737813D01*
X207322678Y-75791543D01*
X207316778Y-75863626D01*
X207314857Y-75958951D01*
X207314823Y-75977237D01*
X207314800Y-76182646D01*
X207360509Y-76198580D01*
X207392973Y-76209420D01*
X207410785Y-76214468D01*
X207411309Y-76214514D01*
X207413063Y-76200828D01*
X207414556Y-76163076D01*
X207415674Y-76106224D01*
X207416303Y-76035234D01*
X207416400Y-75992073D01*
X207416602Y-75906973D01*
X207417642Y-75845981D01*
X207420169Y-75804177D01*
X207424836Y-75776642D01*
X207432293Y-75758456D01*
X207443189Y-75744698D01*
X207449993Y-75738073D01*
X207496728Y-75711375D01*
X207547728Y-75709375D01*
X207593999Y-75731955D01*
X207602556Y-75740107D01*
X207615107Y-75755436D01*
X207623812Y-75773618D01*
X207629369Y-75799909D01*
X207632474Y-75839562D01*
X207633824Y-75897832D01*
X207634114Y-75978173D01*
X207634114Y-76182646D01*
X207679823Y-76198580D01*
X207712287Y-76209420D01*
X207730099Y-76214468D01*
X207730623Y-76214514D01*
X207731963Y-76200623D01*
X207733172Y-76161439D01*
X207734199Y-76100700D01*
X207734998Y-76022141D01*
X207735519Y-75929498D01*
X207735714Y-75826509D01*
X207735714Y-75429342D01*
X207688543Y-75409444D01*
X207641371Y-75389547D01*
X207634114Y-75511289D01*
G36*
X208841697Y-75591239D02*
G01*
X208784473Y-75629735D01*
X208740251Y-75685335D01*
X208713833Y-75756086D01*
X208708490Y-75808162D01*
X208709097Y-75829893D01*
X208714178Y-75846531D01*
X208728145Y-75861437D01*
X208755411Y-75877973D01*
X208800388Y-75899498D01*
X208867489Y-75929374D01*
X208867829Y-75929524D01*
X208929593Y-75957813D01*
X208980241Y-75982933D01*
X209014596Y-76002179D01*
X209027482Y-76012848D01*
X209027486Y-76012934D01*
X209016128Y-76036166D01*
X208989569Y-76061774D01*
X208959077Y-76080221D01*
X208943630Y-76083886D01*
X208901485Y-76071212D01*
X208865192Y-76039471D01*
X208847483Y-76004572D01*
X208830448Y-75978845D01*
X208797078Y-75949546D01*
X208757851Y-75924235D01*
X208723244Y-75910471D01*
X208716007Y-75909714D01*
X208707861Y-75922160D01*
X208707370Y-75953972D01*
X208713357Y-75996866D01*
X208724643Y-76042558D01*
X208740050Y-76082761D01*
X208740829Y-76084322D01*
X208787196Y-76149062D01*
X208847289Y-76193097D01*
X208915535Y-76214711D01*
X208986362Y-76212185D01*
X209054196Y-76183804D01*
X209057212Y-76181808D01*
X209110573Y-76133448D01*
X209145660Y-76070352D01*
X209165078Y-75987387D01*
X209167684Y-75964078D01*
X209172299Y-75854055D01*
X209166767Y-75802748D01*
X209027486Y-75802748D01*
X209025676Y-75834753D01*
X209015778Y-75844093D01*
X208991102Y-75837105D01*
X208952205Y-75820587D01*
X208908725Y-75799881D01*
X208907644Y-75799333D01*
X208870791Y-75779949D01*
X208856000Y-75767013D01*
X208859647Y-75753451D01*
X208875005Y-75735632D01*
X208914077Y-75709845D01*
X208956154Y-75707950D01*
X208993897Y-75726717D01*
X209019966Y-75762915D01*
X209027486Y-75802748D01*
X209166767Y-75802748D01*
X209162806Y-75766027D01*
X209138450Y-75696212D01*
X209104544Y-75647302D01*
X209043347Y-75597878D01*
X208975937Y-75573359D01*
X208907120Y-75571797D01*
X208841697Y-75591239D01*
G37*
X208841697Y-75591239D02*
X208784473Y-75629735D01*
X208740251Y-75685335D01*
X208713833Y-75756086D01*
X208708490Y-75808162D01*
X208709097Y-75829893D01*
X208714178Y-75846531D01*
X208728145Y-75861437D01*
X208755411Y-75877973D01*
X208800388Y-75899498D01*
X208867489Y-75929374D01*
X208867829Y-75929524D01*
X208929593Y-75957813D01*
X208980241Y-75982933D01*
X209014596Y-76002179D01*
X209027482Y-76012848D01*
X209027486Y-76012934D01*
X209016128Y-76036166D01*
X208989569Y-76061774D01*
X208959077Y-76080221D01*
X208943630Y-76083886D01*
X208901485Y-76071212D01*
X208865192Y-76039471D01*
X208847483Y-76004572D01*
X208830448Y-75978845D01*
X208797078Y-75949546D01*
X208757851Y-75924235D01*
X208723244Y-75910471D01*
X208716007Y-75909714D01*
X208707861Y-75922160D01*
X208707370Y-75953972D01*
X208713357Y-75996866D01*
X208724643Y-76042558D01*
X208740050Y-76082761D01*
X208740829Y-76084322D01*
X208787196Y-76149062D01*
X208847289Y-76193097D01*
X208915535Y-76214711D01*
X208986362Y-76212185D01*
X209054196Y-76183804D01*
X209057212Y-76181808D01*
X209110573Y-76133448D01*
X209145660Y-76070352D01*
X209165078Y-75987387D01*
X209167684Y-75964078D01*
X209172299Y-75854055D01*
X209166767Y-75802748D01*
X209027486Y-75802748D01*
X209025676Y-75834753D01*
X209015778Y-75844093D01*
X208991102Y-75837105D01*
X208952205Y-75820587D01*
X208908725Y-75799881D01*
X208907644Y-75799333D01*
X208870791Y-75779949D01*
X208856000Y-75767013D01*
X208859647Y-75753451D01*
X208875005Y-75735632D01*
X208914077Y-75709845D01*
X208956154Y-75707950D01*
X208993897Y-75726717D01*
X209019966Y-75762915D01*
X209027486Y-75802748D01*
X209166767Y-75802748D01*
X209162806Y-75766027D01*
X209138450Y-75696212D01*
X209104544Y-75647302D01*
X209043347Y-75597878D01*
X208975937Y-75573359D01*
X208907120Y-75571797D01*
X208841697Y-75591239D01*
G36*
X209968885Y-75581962D02*
G01*
X209900855Y-75617733D01*
X209850649Y-75675301D01*
X209832815Y-75712312D01*
X209818937Y-75767882D01*
X209811833Y-75838096D01*
X209811160Y-75914727D01*
X209816573Y-75989552D01*
X209827730Y-76054342D01*
X209844286Y-76100873D01*
X209849374Y-76108887D01*
X209909645Y-76168707D01*
X209981231Y-76204535D01*
X210058908Y-76215020D01*
X210137452Y-76198810D01*
X210159311Y-76189092D01*
X210201878Y-76159143D01*
X210239237Y-76119433D01*
X210242768Y-76114397D01*
X210257119Y-76090124D01*
X210266606Y-76064178D01*
X210272210Y-76030022D01*
X210274914Y-75981119D01*
X210275701Y-75910935D01*
X210275714Y-75895200D01*
X210275678Y-75890192D01*
X210130571Y-75890192D01*
X210129727Y-75956430D01*
X210126404Y-76000386D01*
X210119417Y-76028779D01*
X210107584Y-76048325D01*
X210101543Y-76054857D01*
X210066814Y-76079680D01*
X210033097Y-76078548D01*
X209999005Y-76057016D01*
X209978671Y-76034029D01*
X209966629Y-76000478D01*
X209959866Y-75947569D01*
X209959402Y-75941399D01*
X209958248Y-75845513D01*
X209970312Y-75774299D01*
X209995430Y-75728194D01*
X210033440Y-75707635D01*
X210047008Y-75706514D01*
X210082636Y-75712152D01*
X210107006Y-75731686D01*
X210121907Y-75769042D01*
X210129125Y-75828150D01*
X210130571Y-75890192D01*
X210275678Y-75890192D01*
X210275174Y-75820413D01*
X210272904Y-75768159D01*
X210267932Y-75731949D01*
X210259287Y-75705299D01*
X210245995Y-75681722D01*
X210243057Y-75677338D01*
X210193687Y-75618249D01*
X210139891Y-75583947D01*
X210074398Y-75570331D01*
X210052158Y-75569665D01*
X209968885Y-75581962D01*
G37*
X209968885Y-75581962D02*
X209900855Y-75617733D01*
X209850649Y-75675301D01*
X209832815Y-75712312D01*
X209818937Y-75767882D01*
X209811833Y-75838096D01*
X209811160Y-75914727D01*
X209816573Y-75989552D01*
X209827730Y-76054342D01*
X209844286Y-76100873D01*
X209849374Y-76108887D01*
X209909645Y-76168707D01*
X209981231Y-76204535D01*
X210058908Y-76215020D01*
X210137452Y-76198810D01*
X210159311Y-76189092D01*
X210201878Y-76159143D01*
X210239237Y-76119433D01*
X210242768Y-76114397D01*
X210257119Y-76090124D01*
X210266606Y-76064178D01*
X210272210Y-76030022D01*
X210274914Y-75981119D01*
X210275701Y-75910935D01*
X210275714Y-75895200D01*
X210275678Y-75890192D01*
X210130571Y-75890192D01*
X210129727Y-75956430D01*
X210126404Y-76000386D01*
X210119417Y-76028779D01*
X210107584Y-76048325D01*
X210101543Y-76054857D01*
X210066814Y-76079680D01*
X210033097Y-76078548D01*
X209999005Y-76057016D01*
X209978671Y-76034029D01*
X209966629Y-76000478D01*
X209959866Y-75947569D01*
X209959402Y-75941399D01*
X209958248Y-75845513D01*
X209970312Y-75774299D01*
X209995430Y-75728194D01*
X210033440Y-75707635D01*
X210047008Y-75706514D01*
X210082636Y-75712152D01*
X210107006Y-75731686D01*
X210121907Y-75769042D01*
X210129125Y-75828150D01*
X210130571Y-75890192D01*
X210275678Y-75890192D01*
X210275174Y-75820413D01*
X210272904Y-75768159D01*
X210267932Y-75731949D01*
X210259287Y-75705299D01*
X210245995Y-75681722D01*
X210243057Y-75677338D01*
X210193687Y-75618249D01*
X210139891Y-75583947D01*
X210074398Y-75570331D01*
X210052158Y-75569665D01*
X209968885Y-75581962D01*
G36*
X208293907Y-75587780D02*
G01*
X208247328Y-75614723D01*
X208214943Y-75641466D01*
X208191258Y-75669484D01*
X208174941Y-75703748D01*
X208164661Y-75749227D01*
X208159086Y-75810892D01*
X208156884Y-75893711D01*
X208156629Y-75953246D01*
X208156629Y-76172391D01*
X208218314Y-76200044D01*
X208280000Y-76227697D01*
X208287257Y-75987670D01*
X208290256Y-75898028D01*
X208293402Y-75832962D01*
X208297299Y-75788026D01*
X208302553Y-75758770D01*
X208309769Y-75740748D01*
X208319550Y-75729511D01*
X208322688Y-75727079D01*
X208370239Y-75708083D01*
X208418303Y-75715600D01*
X208446914Y-75735543D01*
X208458553Y-75749675D01*
X208466609Y-75768220D01*
X208471729Y-75796334D01*
X208474559Y-75839173D01*
X208475744Y-75901895D01*
X208475943Y-75967261D01*
X208475982Y-76049268D01*
X208477386Y-76107316D01*
X208482086Y-76146465D01*
X208492013Y-76171780D01*
X208509097Y-76188323D01*
X208535268Y-76201156D01*
X208570225Y-76214491D01*
X208608404Y-76229007D01*
X208603859Y-75971389D01*
X208602029Y-75878519D01*
X208599888Y-75809889D01*
X208596819Y-75760711D01*
X208592206Y-75726198D01*
X208585432Y-75701562D01*
X208575881Y-75682016D01*
X208564366Y-75664770D01*
X208508810Y-75609680D01*
X208441020Y-75577822D01*
X208367287Y-75570191D01*
X208293907Y-75587780D01*
G37*
X208293907Y-75587780D02*
X208247328Y-75614723D01*
X208214943Y-75641466D01*
X208191258Y-75669484D01*
X208174941Y-75703748D01*
X208164661Y-75749227D01*
X208159086Y-75810892D01*
X208156884Y-75893711D01*
X208156629Y-75953246D01*
X208156629Y-76172391D01*
X208218314Y-76200044D01*
X208280000Y-76227697D01*
X208287257Y-75987670D01*
X208290256Y-75898028D01*
X208293402Y-75832962D01*
X208297299Y-75788026D01*
X208302553Y-75758770D01*
X208309769Y-75740748D01*
X208319550Y-75729511D01*
X208322688Y-75727079D01*
X208370239Y-75708083D01*
X208418303Y-75715600D01*
X208446914Y-75735543D01*
X208458553Y-75749675D01*
X208466609Y-75768220D01*
X208471729Y-75796334D01*
X208474559Y-75839173D01*
X208475744Y-75901895D01*
X208475943Y-75967261D01*
X208475982Y-76049268D01*
X208477386Y-76107316D01*
X208482086Y-76146465D01*
X208492013Y-76171780D01*
X208509097Y-76188323D01*
X208535268Y-76201156D01*
X208570225Y-76214491D01*
X208608404Y-76229007D01*
X208603859Y-75971389D01*
X208602029Y-75878519D01*
X208599888Y-75809889D01*
X208596819Y-75760711D01*
X208592206Y-75726198D01*
X208585432Y-75701562D01*
X208575881Y-75682016D01*
X208564366Y-75664770D01*
X208508810Y-75609680D01*
X208441020Y-75577822D01*
X208367287Y-75570191D01*
X208293907Y-75587780D01*
G36*
X209410256Y-75579918D02*
G01*
X209354799Y-75607568D01*
X209305852Y-75658480D01*
X209292371Y-75677338D01*
X209277686Y-75702015D01*
X209268158Y-75728816D01*
X209262707Y-75764587D01*
X209260253Y-75816169D01*
X209259714Y-75884267D01*
X209262148Y-75977588D01*
X209270606Y-76047657D01*
X209286826Y-76099931D01*
X209312546Y-76139869D01*
X209349503Y-76172929D01*
X209352218Y-76174886D01*
X209388640Y-76194908D01*
X209432498Y-76204815D01*
X209488276Y-76207257D01*
X209578952Y-76207257D01*
X209578990Y-76295283D01*
X209579834Y-76344308D01*
X209584976Y-76373065D01*
X209598413Y-76390311D01*
X209624142Y-76404808D01*
X209630321Y-76407769D01*
X209659236Y-76421648D01*
X209681624Y-76430414D01*
X209698271Y-76431171D01*
X209709964Y-76421023D01*
X209717490Y-76397073D01*
X209721634Y-76356426D01*
X209723185Y-76296186D01*
X209722929Y-76213455D01*
X209721651Y-76105339D01*
X209721252Y-76073000D01*
X209719815Y-75961524D01*
X209718528Y-75888603D01*
X209579029Y-75888603D01*
X209578245Y-75950499D01*
X209574760Y-75990997D01*
X209566876Y-76017708D01*
X209552895Y-76038244D01*
X209543403Y-76048260D01*
X209504596Y-76077567D01*
X209470237Y-76079952D01*
X209434784Y-76055750D01*
X209433886Y-76054857D01*
X209419461Y-76036153D01*
X209410687Y-76010732D01*
X209406261Y-75971584D01*
X209404882Y-75911697D01*
X209404857Y-75898430D01*
X209408188Y-75815901D01*
X209419031Y-75758691D01*
X209438660Y-75723766D01*
X209468350Y-75708094D01*
X209485509Y-75706514D01*
X209526234Y-75713926D01*
X209554168Y-75738330D01*
X209570983Y-75782980D01*
X209578350Y-75851130D01*
X209579029Y-75888603D01*
X209718528Y-75888603D01*
X209718292Y-75875245D01*
X209716323Y-75810333D01*
X209713550Y-75762958D01*
X209709612Y-75729290D01*
X209704151Y-75705498D01*
X209696808Y-75687753D01*
X209687223Y-75672224D01*
X209683113Y-75666381D01*
X209628595Y-75611185D01*
X209559664Y-75579890D01*
X209479928Y-75571165D01*
X209410256Y-75579918D01*
G37*
X209410256Y-75579918D02*
X209354799Y-75607568D01*
X209305852Y-75658480D01*
X209292371Y-75677338D01*
X209277686Y-75702015D01*
X209268158Y-75728816D01*
X209262707Y-75764587D01*
X209260253Y-75816169D01*
X209259714Y-75884267D01*
X209262148Y-75977588D01*
X209270606Y-76047657D01*
X209286826Y-76099931D01*
X209312546Y-76139869D01*
X209349503Y-76172929D01*
X209352218Y-76174886D01*
X209388640Y-76194908D01*
X209432498Y-76204815D01*
X209488276Y-76207257D01*
X209578952Y-76207257D01*
X209578990Y-76295283D01*
X209579834Y-76344308D01*
X209584976Y-76373065D01*
X209598413Y-76390311D01*
X209624142Y-76404808D01*
X209630321Y-76407769D01*
X209659236Y-76421648D01*
X209681624Y-76430414D01*
X209698271Y-76431171D01*
X209709964Y-76421023D01*
X209717490Y-76397073D01*
X209721634Y-76356426D01*
X209723185Y-76296186D01*
X209722929Y-76213455D01*
X209721651Y-76105339D01*
X209721252Y-76073000D01*
X209719815Y-75961524D01*
X209718528Y-75888603D01*
X209579029Y-75888603D01*
X209578245Y-75950499D01*
X209574760Y-75990997D01*
X209566876Y-76017708D01*
X209552895Y-76038244D01*
X209543403Y-76048260D01*
X209504596Y-76077567D01*
X209470237Y-76079952D01*
X209434784Y-76055750D01*
X209433886Y-76054857D01*
X209419461Y-76036153D01*
X209410687Y-76010732D01*
X209406261Y-75971584D01*
X209404882Y-75911697D01*
X209404857Y-75898430D01*
X209408188Y-75815901D01*
X209419031Y-75758691D01*
X209438660Y-75723766D01*
X209468350Y-75708094D01*
X209485509Y-75706514D01*
X209526234Y-75713926D01*
X209554168Y-75738330D01*
X209570983Y-75782980D01*
X209578350Y-75851130D01*
X209579029Y-75888603D01*
X209718528Y-75888603D01*
X209718292Y-75875245D01*
X209716323Y-75810333D01*
X209713550Y-75762958D01*
X209709612Y-75729290D01*
X209704151Y-75705498D01*
X209696808Y-75687753D01*
X209687223Y-75672224D01*
X209683113Y-75666381D01*
X209628595Y-75611185D01*
X209559664Y-75579890D01*
X209479928Y-75571165D01*
X209410256Y-75579918D01*
%TD*%
M02*
