%TF.GenerationSoftware,KiCad,Pcbnew,(5.1.9)-1*%
%TF.CreationDate,2021-12-31T02:05:00-06:00*%
%TF.ProjectId,BreadBoardPowerSupply,42726561-6442-46f6-9172-64506f776572,rev?*%
%TF.SameCoordinates,Original*%
%TF.FileFunction,Legend,Bot*%
%TF.FilePolarity,Positive*%
%FSLAX46Y46*%
G04 Gerber Fmt 4.6, Leading zero omitted, Abs format (unit mm)*
G04 Created by KiCad (PCBNEW (5.1.9)-1) date 2021-12-31 02:05:00*
%MOMM*%
%LPD*%
G01*
G04 APERTURE LIST*
%ADD10C,0.150000*%
%ADD11C,0.250000*%
%ADD12C,0.010000*%
G04 APERTURE END LIST*
D10*
X139104714Y-93258857D02*
X139914238Y-93258857D01*
X140009476Y-93211238D01*
X140057095Y-93163619D01*
X140104714Y-93068380D01*
X140104714Y-92925523D01*
X140057095Y-92830285D01*
X139723761Y-93258857D02*
X139771380Y-93163619D01*
X139771380Y-92973142D01*
X139723761Y-92877904D01*
X139676142Y-92830285D01*
X139580904Y-92782666D01*
X139295190Y-92782666D01*
X139199952Y-92830285D01*
X139152333Y-92877904D01*
X139104714Y-92973142D01*
X139104714Y-93163619D01*
X139152333Y-93258857D01*
X139771380Y-93735047D02*
X139104714Y-93735047D01*
X138771380Y-93735047D02*
X138819000Y-93687428D01*
X138866619Y-93735047D01*
X138819000Y-93782666D01*
X138771380Y-93735047D01*
X138866619Y-93735047D01*
X139104714Y-94068380D02*
X139104714Y-94449333D01*
X138771380Y-94211238D02*
X139628523Y-94211238D01*
X139723761Y-94258857D01*
X139771380Y-94354095D01*
X139771380Y-94449333D01*
X139771380Y-94782666D02*
X138771380Y-94782666D01*
X139771380Y-95211238D02*
X139247571Y-95211238D01*
X139152333Y-95163619D01*
X139104714Y-95068380D01*
X139104714Y-94925523D01*
X139152333Y-94830285D01*
X139199952Y-94782666D01*
X139104714Y-96116000D02*
X139771380Y-96116000D01*
X139104714Y-95687428D02*
X139628523Y-95687428D01*
X139723761Y-95735047D01*
X139771380Y-95830285D01*
X139771380Y-95973142D01*
X139723761Y-96068380D01*
X139676142Y-96116000D01*
X139771380Y-96592190D02*
X138771380Y-96592190D01*
X139152333Y-96592190D02*
X139104714Y-96687428D01*
X139104714Y-96877904D01*
X139152333Y-96973142D01*
X139199952Y-97020761D01*
X139295190Y-97068380D01*
X139580904Y-97068380D01*
X139676142Y-97020761D01*
X139723761Y-96973142D01*
X139771380Y-96877904D01*
X139771380Y-96687428D01*
X139723761Y-96592190D01*
X139676142Y-97496952D02*
X139723761Y-97544571D01*
X139771380Y-97496952D01*
X139723761Y-97449333D01*
X139676142Y-97496952D01*
X139771380Y-97496952D01*
X139723761Y-98401714D02*
X139771380Y-98306476D01*
X139771380Y-98116000D01*
X139723761Y-98020761D01*
X139676142Y-97973142D01*
X139580904Y-97925523D01*
X139295190Y-97925523D01*
X139199952Y-97973142D01*
X139152333Y-98020761D01*
X139104714Y-98116000D01*
X139104714Y-98306476D01*
X139152333Y-98401714D01*
X139771380Y-98973142D02*
X139723761Y-98877904D01*
X139676142Y-98830285D01*
X139580904Y-98782666D01*
X139295190Y-98782666D01*
X139199952Y-98830285D01*
X139152333Y-98877904D01*
X139104714Y-98973142D01*
X139104714Y-99116000D01*
X139152333Y-99211238D01*
X139199952Y-99258857D01*
X139295190Y-99306476D01*
X139580904Y-99306476D01*
X139676142Y-99258857D01*
X139723761Y-99211238D01*
X139771380Y-99116000D01*
X139771380Y-98973142D01*
X139771380Y-99735047D02*
X139104714Y-99735047D01*
X139199952Y-99735047D02*
X139152333Y-99782666D01*
X139104714Y-99877904D01*
X139104714Y-100020761D01*
X139152333Y-100116000D01*
X139247571Y-100163619D01*
X139771380Y-100163619D01*
X139247571Y-100163619D02*
X139152333Y-100211238D01*
X139104714Y-100306476D01*
X139104714Y-100449333D01*
X139152333Y-100544571D01*
X139247571Y-100592190D01*
X139771380Y-100592190D01*
X138723761Y-101782666D02*
X140009476Y-100925523D01*
X139771380Y-102116000D02*
X138771380Y-102116000D01*
X139485666Y-102449333D01*
X138771380Y-102782666D01*
X139771380Y-102782666D01*
X139771380Y-103258857D02*
X139104714Y-103258857D01*
X138771380Y-103258857D02*
X138819000Y-103211238D01*
X138866619Y-103258857D01*
X138819000Y-103306476D01*
X138771380Y-103258857D01*
X138866619Y-103258857D01*
X139723761Y-104163619D02*
X139771380Y-104068380D01*
X139771380Y-103877904D01*
X139723761Y-103782666D01*
X139676142Y-103735047D01*
X139580904Y-103687428D01*
X139295190Y-103687428D01*
X139199952Y-103735047D01*
X139152333Y-103782666D01*
X139104714Y-103877904D01*
X139104714Y-104068380D01*
X139152333Y-104163619D01*
X139771380Y-104592190D02*
X138771380Y-104592190D01*
X139771380Y-105020761D02*
X139247571Y-105020761D01*
X139152333Y-104973142D01*
X139104714Y-104877904D01*
X139104714Y-104735047D01*
X139152333Y-104639809D01*
X139199952Y-104592190D01*
X139771380Y-105925523D02*
X139247571Y-105925523D01*
X139152333Y-105877904D01*
X139104714Y-105782666D01*
X139104714Y-105592190D01*
X139152333Y-105496952D01*
X139723761Y-105925523D02*
X139771380Y-105830285D01*
X139771380Y-105592190D01*
X139723761Y-105496952D01*
X139628523Y-105449333D01*
X139533285Y-105449333D01*
X139438047Y-105496952D01*
X139390428Y-105592190D01*
X139390428Y-105830285D01*
X139342809Y-105925523D01*
X139723761Y-106782666D02*
X139771380Y-106687428D01*
X139771380Y-106496952D01*
X139723761Y-106401714D01*
X139628523Y-106354095D01*
X139247571Y-106354095D01*
X139152333Y-106401714D01*
X139104714Y-106496952D01*
X139104714Y-106687428D01*
X139152333Y-106782666D01*
X139247571Y-106830285D01*
X139342809Y-106830285D01*
X139438047Y-106354095D01*
X139771380Y-107401714D02*
X139723761Y-107306476D01*
X139628523Y-107258857D01*
X138771380Y-107258857D01*
X139390428Y-107782666D02*
X139390428Y-108544571D01*
X139866619Y-109687428D02*
X139819000Y-109592190D01*
X139723761Y-109496952D01*
X139580904Y-109354095D01*
X139533285Y-109258857D01*
X139533285Y-109163619D01*
X139771380Y-109211238D02*
X139723761Y-109116000D01*
X139628523Y-109020761D01*
X139438047Y-108973142D01*
X139104714Y-108973142D01*
X138914238Y-109020761D01*
X138819000Y-109116000D01*
X138771380Y-109211238D01*
X138771380Y-109401714D01*
X138819000Y-109496952D01*
X138914238Y-109592190D01*
X139104714Y-109639809D01*
X139438047Y-109639809D01*
X139628523Y-109592190D01*
X139723761Y-109496952D01*
X139771380Y-109401714D01*
X139771380Y-109211238D01*
X139390428Y-110068380D02*
X139390428Y-110830285D01*
X139771380Y-111782666D02*
X139771380Y-111306476D01*
X138771380Y-111306476D01*
X139104714Y-112020761D02*
X139771380Y-112258857D01*
X139104714Y-112496952D02*
X139771380Y-112258857D01*
X140009476Y-112163619D01*
X140057095Y-112116000D01*
X140104714Y-112020761D01*
D11*
X124797571Y-114271928D02*
X124845190Y-114414785D01*
X124892809Y-114462404D01*
X124988047Y-114510023D01*
X125130904Y-114510023D01*
X125226142Y-114462404D01*
X125273761Y-114414785D01*
X125321380Y-114319547D01*
X125321380Y-113938595D01*
X124321380Y-113938595D01*
X124321380Y-114271928D01*
X124369000Y-114367166D01*
X124416619Y-114414785D01*
X124511857Y-114462404D01*
X124607095Y-114462404D01*
X124702333Y-114414785D01*
X124749952Y-114367166D01*
X124797571Y-114271928D01*
X124797571Y-113938595D01*
X125321380Y-114938595D02*
X124654714Y-114938595D01*
X124845190Y-114938595D02*
X124749952Y-114986214D01*
X124702333Y-115033833D01*
X124654714Y-115129071D01*
X124654714Y-115224309D01*
X125273761Y-115938595D02*
X125321380Y-115843357D01*
X125321380Y-115652880D01*
X125273761Y-115557642D01*
X125178523Y-115510023D01*
X124797571Y-115510023D01*
X124702333Y-115557642D01*
X124654714Y-115652880D01*
X124654714Y-115843357D01*
X124702333Y-115938595D01*
X124797571Y-115986214D01*
X124892809Y-115986214D01*
X124988047Y-115510023D01*
X125321380Y-116843357D02*
X124797571Y-116843357D01*
X124702333Y-116795738D01*
X124654714Y-116700500D01*
X124654714Y-116510023D01*
X124702333Y-116414785D01*
X125273761Y-116843357D02*
X125321380Y-116748119D01*
X125321380Y-116510023D01*
X125273761Y-116414785D01*
X125178523Y-116367166D01*
X125083285Y-116367166D01*
X124988047Y-116414785D01*
X124940428Y-116510023D01*
X124940428Y-116748119D01*
X124892809Y-116843357D01*
X125321380Y-117748119D02*
X124321380Y-117748119D01*
X125273761Y-117748119D02*
X125321380Y-117652880D01*
X125321380Y-117462404D01*
X125273761Y-117367166D01*
X125226142Y-117319547D01*
X125130904Y-117271928D01*
X124845190Y-117271928D01*
X124749952Y-117319547D01*
X124702333Y-117367166D01*
X124654714Y-117462404D01*
X124654714Y-117652880D01*
X124702333Y-117748119D01*
X125321380Y-118224309D02*
X124321380Y-118224309D01*
X124702333Y-118224309D02*
X124654714Y-118319547D01*
X124654714Y-118510023D01*
X124702333Y-118605261D01*
X124749952Y-118652880D01*
X124845190Y-118700500D01*
X125130904Y-118700500D01*
X125226142Y-118652880D01*
X125273761Y-118605261D01*
X125321380Y-118510023D01*
X125321380Y-118319547D01*
X125273761Y-118224309D01*
X125321380Y-119271928D02*
X125273761Y-119176690D01*
X125226142Y-119129071D01*
X125130904Y-119081452D01*
X124845190Y-119081452D01*
X124749952Y-119129071D01*
X124702333Y-119176690D01*
X124654714Y-119271928D01*
X124654714Y-119414785D01*
X124702333Y-119510023D01*
X124749952Y-119557642D01*
X124845190Y-119605261D01*
X125130904Y-119605261D01*
X125226142Y-119557642D01*
X125273761Y-119510023D01*
X125321380Y-119414785D01*
X125321380Y-119271928D01*
X125321380Y-120462404D02*
X124797571Y-120462404D01*
X124702333Y-120414785D01*
X124654714Y-120319547D01*
X124654714Y-120129071D01*
X124702333Y-120033833D01*
X125273761Y-120462404D02*
X125321380Y-120367166D01*
X125321380Y-120129071D01*
X125273761Y-120033833D01*
X125178523Y-119986214D01*
X125083285Y-119986214D01*
X124988047Y-120033833D01*
X124940428Y-120129071D01*
X124940428Y-120367166D01*
X124892809Y-120462404D01*
X125321380Y-120938595D02*
X124654714Y-120938595D01*
X124845190Y-120938595D02*
X124749952Y-120986214D01*
X124702333Y-121033833D01*
X124654714Y-121129071D01*
X124654714Y-121224309D01*
X125321380Y-121986214D02*
X124321380Y-121986214D01*
X125273761Y-121986214D02*
X125321380Y-121890976D01*
X125321380Y-121700500D01*
X125273761Y-121605261D01*
X125226142Y-121557642D01*
X125130904Y-121510023D01*
X124845190Y-121510023D01*
X124749952Y-121557642D01*
X124702333Y-121605261D01*
X124654714Y-121700500D01*
X124654714Y-121890976D01*
X124702333Y-121986214D01*
X127071380Y-113938595D02*
X126071380Y-113938595D01*
X126071380Y-114319547D01*
X126119000Y-114414785D01*
X126166619Y-114462404D01*
X126261857Y-114510023D01*
X126404714Y-114510023D01*
X126499952Y-114462404D01*
X126547571Y-114414785D01*
X126595190Y-114319547D01*
X126595190Y-113938595D01*
X127071380Y-115081452D02*
X127023761Y-114986214D01*
X126976142Y-114938595D01*
X126880904Y-114890976D01*
X126595190Y-114890976D01*
X126499952Y-114938595D01*
X126452333Y-114986214D01*
X126404714Y-115081452D01*
X126404714Y-115224309D01*
X126452333Y-115319547D01*
X126499952Y-115367166D01*
X126595190Y-115414785D01*
X126880904Y-115414785D01*
X126976142Y-115367166D01*
X127023761Y-115319547D01*
X127071380Y-115224309D01*
X127071380Y-115081452D01*
X126404714Y-115748119D02*
X127071380Y-115938595D01*
X126595190Y-116129071D01*
X127071380Y-116319547D01*
X126404714Y-116510023D01*
X127023761Y-117271928D02*
X127071380Y-117176690D01*
X127071380Y-116986214D01*
X127023761Y-116890976D01*
X126928523Y-116843357D01*
X126547571Y-116843357D01*
X126452333Y-116890976D01*
X126404714Y-116986214D01*
X126404714Y-117176690D01*
X126452333Y-117271928D01*
X126547571Y-117319547D01*
X126642809Y-117319547D01*
X126738047Y-116843357D01*
X127071380Y-117748119D02*
X126404714Y-117748119D01*
X126595190Y-117748119D02*
X126499952Y-117795738D01*
X126452333Y-117843357D01*
X126404714Y-117938595D01*
X126404714Y-118033833D01*
X127023761Y-119081452D02*
X127071380Y-119224309D01*
X127071380Y-119462404D01*
X127023761Y-119557642D01*
X126976142Y-119605261D01*
X126880904Y-119652880D01*
X126785666Y-119652880D01*
X126690428Y-119605261D01*
X126642809Y-119557642D01*
X126595190Y-119462404D01*
X126547571Y-119271928D01*
X126499952Y-119176690D01*
X126452333Y-119129071D01*
X126357095Y-119081452D01*
X126261857Y-119081452D01*
X126166619Y-119129071D01*
X126119000Y-119176690D01*
X126071380Y-119271928D01*
X126071380Y-119510023D01*
X126119000Y-119652880D01*
X126404714Y-120510023D02*
X127071380Y-120510023D01*
X126404714Y-120081452D02*
X126928523Y-120081452D01*
X127023761Y-120129071D01*
X127071380Y-120224309D01*
X127071380Y-120367166D01*
X127023761Y-120462404D01*
X126976142Y-120510023D01*
X126404714Y-120986214D02*
X127404714Y-120986214D01*
X126452333Y-120986214D02*
X126404714Y-121081452D01*
X126404714Y-121271928D01*
X126452333Y-121367166D01*
X126499952Y-121414785D01*
X126595190Y-121462404D01*
X126880904Y-121462404D01*
X126976142Y-121414785D01*
X127023761Y-121367166D01*
X127071380Y-121271928D01*
X127071380Y-121081452D01*
X127023761Y-120986214D01*
X126404714Y-121890976D02*
X127404714Y-121890976D01*
X126452333Y-121890976D02*
X126404714Y-121986214D01*
X126404714Y-122176690D01*
X126452333Y-122271928D01*
X126499952Y-122319547D01*
X126595190Y-122367166D01*
X126880904Y-122367166D01*
X126976142Y-122319547D01*
X127023761Y-122271928D01*
X127071380Y-122176690D01*
X127071380Y-121986214D01*
X127023761Y-121890976D01*
X127071380Y-122938595D02*
X127023761Y-122843357D01*
X126928523Y-122795738D01*
X126071380Y-122795738D01*
X126404714Y-123224309D02*
X127071380Y-123462404D01*
X126404714Y-123700500D02*
X127071380Y-123462404D01*
X127309476Y-123367166D01*
X127357095Y-123319547D01*
X127404714Y-123224309D01*
X127821380Y-113795738D02*
X128821380Y-114129071D01*
X127821380Y-114462404D01*
X128821380Y-115319547D02*
X128821380Y-114748119D01*
X128821380Y-115033833D02*
X127821380Y-115033833D01*
X127964238Y-114938595D01*
X128059476Y-114843357D01*
X128107095Y-114748119D01*
X128726142Y-115748119D02*
X128773761Y-115795738D01*
X128821380Y-115748119D01*
X128773761Y-115700500D01*
X128726142Y-115748119D01*
X128821380Y-115748119D01*
X127821380Y-116414785D02*
X127821380Y-116510023D01*
X127869000Y-116605261D01*
X127916619Y-116652880D01*
X128011857Y-116700500D01*
X128202333Y-116748119D01*
X128440428Y-116748119D01*
X128630904Y-116700500D01*
X128726142Y-116652880D01*
X128773761Y-116605261D01*
X128821380Y-116510023D01*
X128821380Y-116414785D01*
X128773761Y-116319547D01*
X128726142Y-116271928D01*
X128630904Y-116224309D01*
X128440428Y-116176690D01*
X128202333Y-116176690D01*
X128011857Y-116224309D01*
X127916619Y-116271928D01*
X127869000Y-116319547D01*
X127821380Y-116414785D01*
D12*
%TO.C,REF\u002A\u002A*%
G36*
X135394744Y-84440082D02*
G01*
X135450201Y-84412432D01*
X135499148Y-84361520D01*
X135512629Y-84342662D01*
X135527314Y-84317985D01*
X135536842Y-84291184D01*
X135542293Y-84255413D01*
X135544747Y-84203831D01*
X135545286Y-84135733D01*
X135542852Y-84042412D01*
X135534394Y-83972343D01*
X135518174Y-83920069D01*
X135492454Y-83880131D01*
X135455497Y-83847071D01*
X135452782Y-83845114D01*
X135416360Y-83825092D01*
X135372502Y-83815185D01*
X135316724Y-83812743D01*
X135226048Y-83812743D01*
X135226010Y-83724717D01*
X135225166Y-83675692D01*
X135220024Y-83646935D01*
X135206587Y-83629689D01*
X135180858Y-83615192D01*
X135174679Y-83612231D01*
X135145764Y-83598352D01*
X135123376Y-83589586D01*
X135106729Y-83588829D01*
X135095036Y-83598977D01*
X135087510Y-83622927D01*
X135083366Y-83663574D01*
X135081815Y-83723814D01*
X135082071Y-83806545D01*
X135083349Y-83914661D01*
X135083748Y-83947000D01*
X135085185Y-84058476D01*
X135086472Y-84131397D01*
X135225971Y-84131397D01*
X135226755Y-84069501D01*
X135230240Y-84029003D01*
X135238124Y-84002292D01*
X135252105Y-83981756D01*
X135261597Y-83971740D01*
X135300404Y-83942433D01*
X135334763Y-83940048D01*
X135370216Y-83964250D01*
X135371114Y-83965143D01*
X135385539Y-83983847D01*
X135394313Y-84009268D01*
X135398739Y-84048416D01*
X135400118Y-84108303D01*
X135400143Y-84121570D01*
X135396812Y-84204099D01*
X135385969Y-84261309D01*
X135366340Y-84296234D01*
X135336650Y-84311906D01*
X135319491Y-84313486D01*
X135278766Y-84306074D01*
X135250832Y-84281670D01*
X135234017Y-84237020D01*
X135226650Y-84168870D01*
X135225971Y-84131397D01*
X135086472Y-84131397D01*
X135086708Y-84144755D01*
X135088677Y-84209667D01*
X135091450Y-84257042D01*
X135095388Y-84290710D01*
X135100849Y-84314502D01*
X135108192Y-84332247D01*
X135117777Y-84347776D01*
X135121887Y-84353619D01*
X135176405Y-84408815D01*
X135245336Y-84440110D01*
X135325072Y-84448835D01*
X135394744Y-84440082D01*
G37*
X135394744Y-84440082D02*
X135450201Y-84412432D01*
X135499148Y-84361520D01*
X135512629Y-84342662D01*
X135527314Y-84317985D01*
X135536842Y-84291184D01*
X135542293Y-84255413D01*
X135544747Y-84203831D01*
X135545286Y-84135733D01*
X135542852Y-84042412D01*
X135534394Y-83972343D01*
X135518174Y-83920069D01*
X135492454Y-83880131D01*
X135455497Y-83847071D01*
X135452782Y-83845114D01*
X135416360Y-83825092D01*
X135372502Y-83815185D01*
X135316724Y-83812743D01*
X135226048Y-83812743D01*
X135226010Y-83724717D01*
X135225166Y-83675692D01*
X135220024Y-83646935D01*
X135206587Y-83629689D01*
X135180858Y-83615192D01*
X135174679Y-83612231D01*
X135145764Y-83598352D01*
X135123376Y-83589586D01*
X135106729Y-83588829D01*
X135095036Y-83598977D01*
X135087510Y-83622927D01*
X135083366Y-83663574D01*
X135081815Y-83723814D01*
X135082071Y-83806545D01*
X135083349Y-83914661D01*
X135083748Y-83947000D01*
X135085185Y-84058476D01*
X135086472Y-84131397D01*
X135225971Y-84131397D01*
X135226755Y-84069501D01*
X135230240Y-84029003D01*
X135238124Y-84002292D01*
X135252105Y-83981756D01*
X135261597Y-83971740D01*
X135300404Y-83942433D01*
X135334763Y-83940048D01*
X135370216Y-83964250D01*
X135371114Y-83965143D01*
X135385539Y-83983847D01*
X135394313Y-84009268D01*
X135398739Y-84048416D01*
X135400118Y-84108303D01*
X135400143Y-84121570D01*
X135396812Y-84204099D01*
X135385969Y-84261309D01*
X135366340Y-84296234D01*
X135336650Y-84311906D01*
X135319491Y-84313486D01*
X135278766Y-84306074D01*
X135250832Y-84281670D01*
X135234017Y-84237020D01*
X135226650Y-84168870D01*
X135225971Y-84131397D01*
X135086472Y-84131397D01*
X135086708Y-84144755D01*
X135088677Y-84209667D01*
X135091450Y-84257042D01*
X135095388Y-84290710D01*
X135100849Y-84314502D01*
X135108192Y-84332247D01*
X135117777Y-84347776D01*
X135121887Y-84353619D01*
X135176405Y-84408815D01*
X135245336Y-84440110D01*
X135325072Y-84448835D01*
X135394744Y-84440082D01*
G36*
X136511093Y-84432220D02*
G01*
X136557672Y-84405277D01*
X136590057Y-84378534D01*
X136613742Y-84350516D01*
X136630059Y-84316252D01*
X136640339Y-84270773D01*
X136645914Y-84209108D01*
X136648116Y-84126289D01*
X136648371Y-84066754D01*
X136648371Y-83847609D01*
X136586686Y-83819956D01*
X136525000Y-83792303D01*
X136517743Y-84032330D01*
X136514744Y-84121972D01*
X136511598Y-84187038D01*
X136507701Y-84231974D01*
X136502447Y-84261230D01*
X136495231Y-84279252D01*
X136485450Y-84290489D01*
X136482312Y-84292921D01*
X136434761Y-84311917D01*
X136386697Y-84304400D01*
X136358086Y-84284457D01*
X136346447Y-84270325D01*
X136338391Y-84251780D01*
X136333271Y-84223666D01*
X136330441Y-84180827D01*
X136329256Y-84118105D01*
X136329057Y-84052739D01*
X136329018Y-83970732D01*
X136327614Y-83912684D01*
X136322914Y-83873535D01*
X136312987Y-83848220D01*
X136295903Y-83831677D01*
X136269732Y-83818844D01*
X136234775Y-83805509D01*
X136196596Y-83790993D01*
X136201141Y-84048611D01*
X136202971Y-84141481D01*
X136205112Y-84210111D01*
X136208181Y-84259289D01*
X136212794Y-84293802D01*
X136219568Y-84318438D01*
X136229119Y-84337984D01*
X136240634Y-84355230D01*
X136296190Y-84410320D01*
X136363980Y-84442178D01*
X136437713Y-84449809D01*
X136511093Y-84432220D01*
G37*
X136511093Y-84432220D02*
X136557672Y-84405277D01*
X136590057Y-84378534D01*
X136613742Y-84350516D01*
X136630059Y-84316252D01*
X136640339Y-84270773D01*
X136645914Y-84209108D01*
X136648116Y-84126289D01*
X136648371Y-84066754D01*
X136648371Y-83847609D01*
X136586686Y-83819956D01*
X136525000Y-83792303D01*
X136517743Y-84032330D01*
X136514744Y-84121972D01*
X136511598Y-84187038D01*
X136507701Y-84231974D01*
X136502447Y-84261230D01*
X136495231Y-84279252D01*
X136485450Y-84290489D01*
X136482312Y-84292921D01*
X136434761Y-84311917D01*
X136386697Y-84304400D01*
X136358086Y-84284457D01*
X136346447Y-84270325D01*
X136338391Y-84251780D01*
X136333271Y-84223666D01*
X136330441Y-84180827D01*
X136329256Y-84118105D01*
X136329057Y-84052739D01*
X136329018Y-83970732D01*
X136327614Y-83912684D01*
X136322914Y-83873535D01*
X136312987Y-83848220D01*
X136295903Y-83831677D01*
X136269732Y-83818844D01*
X136234775Y-83805509D01*
X136196596Y-83790993D01*
X136201141Y-84048611D01*
X136202971Y-84141481D01*
X136205112Y-84210111D01*
X136208181Y-84259289D01*
X136212794Y-84293802D01*
X136219568Y-84318438D01*
X136229119Y-84337984D01*
X136240634Y-84355230D01*
X136296190Y-84410320D01*
X136363980Y-84442178D01*
X136437713Y-84449809D01*
X136511093Y-84432220D01*
G36*
X134836115Y-84438038D02*
G01*
X134904145Y-84402267D01*
X134954351Y-84344699D01*
X134972185Y-84307688D01*
X134986063Y-84252118D01*
X134993167Y-84181904D01*
X134993840Y-84105273D01*
X134988427Y-84030448D01*
X134977270Y-83965658D01*
X134960714Y-83919127D01*
X134955626Y-83911113D01*
X134895355Y-83851293D01*
X134823769Y-83815465D01*
X134746092Y-83804980D01*
X134667548Y-83821190D01*
X134645689Y-83830908D01*
X134603122Y-83860857D01*
X134565763Y-83900567D01*
X134562232Y-83905603D01*
X134547881Y-83929876D01*
X134538394Y-83955822D01*
X134532790Y-83989978D01*
X134530086Y-84038881D01*
X134529299Y-84109065D01*
X134529286Y-84124800D01*
X134529322Y-84129808D01*
X134674429Y-84129808D01*
X134675273Y-84063570D01*
X134678596Y-84019614D01*
X134685583Y-83991221D01*
X134697416Y-83971675D01*
X134703457Y-83965143D01*
X134738186Y-83940320D01*
X134771903Y-83941452D01*
X134805995Y-83962984D01*
X134826329Y-83985971D01*
X134838371Y-84019522D01*
X134845134Y-84072431D01*
X134845598Y-84078601D01*
X134846752Y-84174487D01*
X134834688Y-84245701D01*
X134809570Y-84291806D01*
X134771560Y-84312365D01*
X134757992Y-84313486D01*
X134722364Y-84307848D01*
X134697994Y-84288314D01*
X134683093Y-84250958D01*
X134675875Y-84191850D01*
X134674429Y-84129808D01*
X134529322Y-84129808D01*
X134529826Y-84199587D01*
X134532096Y-84251841D01*
X134537068Y-84288051D01*
X134545713Y-84314701D01*
X134559005Y-84338278D01*
X134561943Y-84342662D01*
X134611313Y-84401751D01*
X134665109Y-84436053D01*
X134730602Y-84449669D01*
X134752842Y-84450335D01*
X134836115Y-84438038D01*
G37*
X134836115Y-84438038D02*
X134904145Y-84402267D01*
X134954351Y-84344699D01*
X134972185Y-84307688D01*
X134986063Y-84252118D01*
X134993167Y-84181904D01*
X134993840Y-84105273D01*
X134988427Y-84030448D01*
X134977270Y-83965658D01*
X134960714Y-83919127D01*
X134955626Y-83911113D01*
X134895355Y-83851293D01*
X134823769Y-83815465D01*
X134746092Y-83804980D01*
X134667548Y-83821190D01*
X134645689Y-83830908D01*
X134603122Y-83860857D01*
X134565763Y-83900567D01*
X134562232Y-83905603D01*
X134547881Y-83929876D01*
X134538394Y-83955822D01*
X134532790Y-83989978D01*
X134530086Y-84038881D01*
X134529299Y-84109065D01*
X134529286Y-84124800D01*
X134529322Y-84129808D01*
X134674429Y-84129808D01*
X134675273Y-84063570D01*
X134678596Y-84019614D01*
X134685583Y-83991221D01*
X134697416Y-83971675D01*
X134703457Y-83965143D01*
X134738186Y-83940320D01*
X134771903Y-83941452D01*
X134805995Y-83962984D01*
X134826329Y-83985971D01*
X134838371Y-84019522D01*
X134845134Y-84072431D01*
X134845598Y-84078601D01*
X134846752Y-84174487D01*
X134834688Y-84245701D01*
X134809570Y-84291806D01*
X134771560Y-84312365D01*
X134757992Y-84313486D01*
X134722364Y-84307848D01*
X134697994Y-84288314D01*
X134683093Y-84250958D01*
X134675875Y-84191850D01*
X134674429Y-84129808D01*
X134529322Y-84129808D01*
X134529826Y-84199587D01*
X134532096Y-84251841D01*
X134537068Y-84288051D01*
X134545713Y-84314701D01*
X134559005Y-84338278D01*
X134561943Y-84342662D01*
X134611313Y-84401751D01*
X134665109Y-84436053D01*
X134730602Y-84449669D01*
X134752842Y-84450335D01*
X134836115Y-84438038D01*
G36*
X135963303Y-84428761D02*
G01*
X136020527Y-84390265D01*
X136064749Y-84334665D01*
X136091167Y-84263914D01*
X136096510Y-84211838D01*
X136095903Y-84190107D01*
X136090822Y-84173469D01*
X136076855Y-84158563D01*
X136049589Y-84142027D01*
X136004612Y-84120502D01*
X135937511Y-84090626D01*
X135937171Y-84090476D01*
X135875407Y-84062187D01*
X135824759Y-84037067D01*
X135790404Y-84017821D01*
X135777518Y-84007152D01*
X135777514Y-84007066D01*
X135788872Y-83983834D01*
X135815431Y-83958226D01*
X135845923Y-83939779D01*
X135861370Y-83936114D01*
X135903515Y-83948788D01*
X135939808Y-83980529D01*
X135957517Y-84015428D01*
X135974552Y-84041155D01*
X136007922Y-84070454D01*
X136047149Y-84095765D01*
X136081756Y-84109529D01*
X136088993Y-84110286D01*
X136097139Y-84097840D01*
X136097630Y-84066028D01*
X136091643Y-84023134D01*
X136080357Y-83977442D01*
X136064950Y-83937239D01*
X136064171Y-83935678D01*
X136017804Y-83870938D01*
X135957711Y-83826903D01*
X135889465Y-83805289D01*
X135818638Y-83807815D01*
X135750804Y-83836196D01*
X135747788Y-83838192D01*
X135694427Y-83886552D01*
X135659340Y-83949648D01*
X135639922Y-84032613D01*
X135637316Y-84055922D01*
X135632701Y-84165945D01*
X135638233Y-84217252D01*
X135777514Y-84217252D01*
X135779324Y-84185247D01*
X135789222Y-84175907D01*
X135813898Y-84182895D01*
X135852795Y-84199413D01*
X135896275Y-84220119D01*
X135897356Y-84220667D01*
X135934209Y-84240051D01*
X135949000Y-84252987D01*
X135945353Y-84266549D01*
X135929995Y-84284368D01*
X135890923Y-84310155D01*
X135848846Y-84312050D01*
X135811103Y-84293283D01*
X135785034Y-84257085D01*
X135777514Y-84217252D01*
X135638233Y-84217252D01*
X135642194Y-84253973D01*
X135666550Y-84323788D01*
X135700456Y-84372698D01*
X135761653Y-84422122D01*
X135829063Y-84446641D01*
X135897880Y-84448203D01*
X135963303Y-84428761D01*
G37*
X135963303Y-84428761D02*
X136020527Y-84390265D01*
X136064749Y-84334665D01*
X136091167Y-84263914D01*
X136096510Y-84211838D01*
X136095903Y-84190107D01*
X136090822Y-84173469D01*
X136076855Y-84158563D01*
X136049589Y-84142027D01*
X136004612Y-84120502D01*
X135937511Y-84090626D01*
X135937171Y-84090476D01*
X135875407Y-84062187D01*
X135824759Y-84037067D01*
X135790404Y-84017821D01*
X135777518Y-84007152D01*
X135777514Y-84007066D01*
X135788872Y-83983834D01*
X135815431Y-83958226D01*
X135845923Y-83939779D01*
X135861370Y-83936114D01*
X135903515Y-83948788D01*
X135939808Y-83980529D01*
X135957517Y-84015428D01*
X135974552Y-84041155D01*
X136007922Y-84070454D01*
X136047149Y-84095765D01*
X136081756Y-84109529D01*
X136088993Y-84110286D01*
X136097139Y-84097840D01*
X136097630Y-84066028D01*
X136091643Y-84023134D01*
X136080357Y-83977442D01*
X136064950Y-83937239D01*
X136064171Y-83935678D01*
X136017804Y-83870938D01*
X135957711Y-83826903D01*
X135889465Y-83805289D01*
X135818638Y-83807815D01*
X135750804Y-83836196D01*
X135747788Y-83838192D01*
X135694427Y-83886552D01*
X135659340Y-83949648D01*
X135639922Y-84032613D01*
X135637316Y-84055922D01*
X135632701Y-84165945D01*
X135638233Y-84217252D01*
X135777514Y-84217252D01*
X135779324Y-84185247D01*
X135789222Y-84175907D01*
X135813898Y-84182895D01*
X135852795Y-84199413D01*
X135896275Y-84220119D01*
X135897356Y-84220667D01*
X135934209Y-84240051D01*
X135949000Y-84252987D01*
X135945353Y-84266549D01*
X135929995Y-84284368D01*
X135890923Y-84310155D01*
X135848846Y-84312050D01*
X135811103Y-84293283D01*
X135785034Y-84257085D01*
X135777514Y-84217252D01*
X135638233Y-84217252D01*
X135642194Y-84253973D01*
X135666550Y-84323788D01*
X135700456Y-84372698D01*
X135761653Y-84422122D01*
X135829063Y-84446641D01*
X135897880Y-84448203D01*
X135963303Y-84428761D01*
G36*
X137170886Y-84508711D02*
G01*
X137175139Y-84449387D01*
X137180025Y-84414428D01*
X137186795Y-84399180D01*
X137196702Y-84398985D01*
X137199914Y-84400805D01*
X137242644Y-84413985D01*
X137298227Y-84413215D01*
X137354737Y-84399667D01*
X137390082Y-84382139D01*
X137426321Y-84354139D01*
X137452813Y-84322451D01*
X137470999Y-84282187D01*
X137482322Y-84228457D01*
X137488222Y-84156374D01*
X137490143Y-84061049D01*
X137490177Y-84042763D01*
X137490200Y-83837354D01*
X137444491Y-83821420D01*
X137412027Y-83810580D01*
X137394215Y-83805532D01*
X137393691Y-83805486D01*
X137391937Y-83819172D01*
X137390444Y-83856924D01*
X137389326Y-83913776D01*
X137388697Y-83984766D01*
X137388600Y-84027927D01*
X137388398Y-84113027D01*
X137387358Y-84174019D01*
X137384831Y-84215823D01*
X137380164Y-84243358D01*
X137372707Y-84261544D01*
X137361811Y-84275302D01*
X137355007Y-84281927D01*
X137308272Y-84308625D01*
X137257272Y-84310625D01*
X137211001Y-84288045D01*
X137202444Y-84279893D01*
X137189893Y-84264564D01*
X137181188Y-84246382D01*
X137175631Y-84220091D01*
X137172526Y-84180438D01*
X137171176Y-84122168D01*
X137170886Y-84041827D01*
X137170886Y-83837354D01*
X137125177Y-83821420D01*
X137092713Y-83810580D01*
X137074901Y-83805532D01*
X137074377Y-83805486D01*
X137073037Y-83819377D01*
X137071828Y-83858561D01*
X137070801Y-83919300D01*
X137070002Y-83997859D01*
X137069481Y-84090502D01*
X137069286Y-84193491D01*
X137069286Y-84590658D01*
X137116457Y-84610556D01*
X137163629Y-84630453D01*
X137170886Y-84508711D01*
G37*
X137170886Y-84508711D02*
X137175139Y-84449387D01*
X137180025Y-84414428D01*
X137186795Y-84399180D01*
X137196702Y-84398985D01*
X137199914Y-84400805D01*
X137242644Y-84413985D01*
X137298227Y-84413215D01*
X137354737Y-84399667D01*
X137390082Y-84382139D01*
X137426321Y-84354139D01*
X137452813Y-84322451D01*
X137470999Y-84282187D01*
X137482322Y-84228457D01*
X137488222Y-84156374D01*
X137490143Y-84061049D01*
X137490177Y-84042763D01*
X137490200Y-83837354D01*
X137444491Y-83821420D01*
X137412027Y-83810580D01*
X137394215Y-83805532D01*
X137393691Y-83805486D01*
X137391937Y-83819172D01*
X137390444Y-83856924D01*
X137389326Y-83913776D01*
X137388697Y-83984766D01*
X137388600Y-84027927D01*
X137388398Y-84113027D01*
X137387358Y-84174019D01*
X137384831Y-84215823D01*
X137380164Y-84243358D01*
X137372707Y-84261544D01*
X137361811Y-84275302D01*
X137355007Y-84281927D01*
X137308272Y-84308625D01*
X137257272Y-84310625D01*
X137211001Y-84288045D01*
X137202444Y-84279893D01*
X137189893Y-84264564D01*
X137181188Y-84246382D01*
X137175631Y-84220091D01*
X137172526Y-84180438D01*
X137171176Y-84122168D01*
X137170886Y-84041827D01*
X137170886Y-83837354D01*
X137125177Y-83821420D01*
X137092713Y-83810580D01*
X137074901Y-83805532D01*
X137074377Y-83805486D01*
X137073037Y-83819377D01*
X137071828Y-83858561D01*
X137070801Y-83919300D01*
X137070002Y-83997859D01*
X137069481Y-84090502D01*
X137069286Y-84193491D01*
X137069286Y-84590658D01*
X137116457Y-84610556D01*
X137163629Y-84630453D01*
X137170886Y-84508711D01*
G36*
X137834744Y-84409032D02*
G01*
X137891616Y-84387913D01*
X137892267Y-84387507D01*
X137927440Y-84361620D01*
X137953407Y-84331367D01*
X137971670Y-84291942D01*
X137983732Y-84238538D01*
X137991096Y-84166349D01*
X137995264Y-84070568D01*
X137995629Y-84056922D01*
X138000876Y-83851158D01*
X137956716Y-83828322D01*
X137924763Y-83812890D01*
X137905470Y-83805577D01*
X137904578Y-83805486D01*
X137901239Y-83818978D01*
X137898587Y-83855374D01*
X137896956Y-83908548D01*
X137896600Y-83951607D01*
X137896592Y-84021359D01*
X137893403Y-84065163D01*
X137882288Y-84086056D01*
X137858501Y-84087075D01*
X137817296Y-84071259D01*
X137755086Y-84042185D01*
X137709341Y-84018037D01*
X137685813Y-83997087D01*
X137678896Y-83974253D01*
X137678886Y-83973123D01*
X137690299Y-83933788D01*
X137724092Y-83912538D01*
X137775809Y-83909461D01*
X137813061Y-83909994D01*
X137832703Y-83899265D01*
X137844952Y-83873495D01*
X137852002Y-83840663D01*
X137841842Y-83822034D01*
X137838017Y-83819368D01*
X137802001Y-83808660D01*
X137751566Y-83807144D01*
X137699626Y-83814241D01*
X137662822Y-83827212D01*
X137611938Y-83870415D01*
X137583014Y-83930554D01*
X137577286Y-83977538D01*
X137581657Y-84019918D01*
X137597475Y-84054512D01*
X137628797Y-84085237D01*
X137679678Y-84116010D01*
X137754176Y-84150748D01*
X137758714Y-84152712D01*
X137825821Y-84183713D01*
X137867232Y-84209138D01*
X137884981Y-84231986D01*
X137881107Y-84255255D01*
X137857643Y-84281944D01*
X137850627Y-84288086D01*
X137803630Y-84311900D01*
X137754933Y-84310897D01*
X137712522Y-84287549D01*
X137684384Y-84244325D01*
X137681769Y-84235840D01*
X137656308Y-84194692D01*
X137624001Y-84174872D01*
X137577286Y-84155230D01*
X137577286Y-84206050D01*
X137591496Y-84279918D01*
X137633675Y-84347673D01*
X137655624Y-84370339D01*
X137705517Y-84399431D01*
X137768967Y-84412600D01*
X137834744Y-84409032D01*
G37*
X137834744Y-84409032D02*
X137891616Y-84387913D01*
X137892267Y-84387507D01*
X137927440Y-84361620D01*
X137953407Y-84331367D01*
X137971670Y-84291942D01*
X137983732Y-84238538D01*
X137991096Y-84166349D01*
X137995264Y-84070568D01*
X137995629Y-84056922D01*
X138000876Y-83851158D01*
X137956716Y-83828322D01*
X137924763Y-83812890D01*
X137905470Y-83805577D01*
X137904578Y-83805486D01*
X137901239Y-83818978D01*
X137898587Y-83855374D01*
X137896956Y-83908548D01*
X137896600Y-83951607D01*
X137896592Y-84021359D01*
X137893403Y-84065163D01*
X137882288Y-84086056D01*
X137858501Y-84087075D01*
X137817296Y-84071259D01*
X137755086Y-84042185D01*
X137709341Y-84018037D01*
X137685813Y-83997087D01*
X137678896Y-83974253D01*
X137678886Y-83973123D01*
X137690299Y-83933788D01*
X137724092Y-83912538D01*
X137775809Y-83909461D01*
X137813061Y-83909994D01*
X137832703Y-83899265D01*
X137844952Y-83873495D01*
X137852002Y-83840663D01*
X137841842Y-83822034D01*
X137838017Y-83819368D01*
X137802001Y-83808660D01*
X137751566Y-83807144D01*
X137699626Y-83814241D01*
X137662822Y-83827212D01*
X137611938Y-83870415D01*
X137583014Y-83930554D01*
X137577286Y-83977538D01*
X137581657Y-84019918D01*
X137597475Y-84054512D01*
X137628797Y-84085237D01*
X137679678Y-84116010D01*
X137754176Y-84150748D01*
X137758714Y-84152712D01*
X137825821Y-84183713D01*
X137867232Y-84209138D01*
X137884981Y-84231986D01*
X137881107Y-84255255D01*
X137857643Y-84281944D01*
X137850627Y-84288086D01*
X137803630Y-84311900D01*
X137754933Y-84310897D01*
X137712522Y-84287549D01*
X137684384Y-84244325D01*
X137681769Y-84235840D01*
X137656308Y-84194692D01*
X137624001Y-84174872D01*
X137577286Y-84155230D01*
X137577286Y-84206050D01*
X137591496Y-84279918D01*
X137633675Y-84347673D01*
X137655624Y-84370339D01*
X137705517Y-84399431D01*
X137768967Y-84412600D01*
X137834744Y-84409032D01*
G36*
X138324926Y-84410245D02*
G01*
X138390858Y-84385916D01*
X138444273Y-84342883D01*
X138465164Y-84312591D01*
X138487939Y-84257006D01*
X138487466Y-84216814D01*
X138463562Y-84189783D01*
X138454717Y-84185187D01*
X138416530Y-84170856D01*
X138397028Y-84174528D01*
X138390422Y-84198593D01*
X138390086Y-84211886D01*
X138377992Y-84260790D01*
X138346471Y-84295001D01*
X138302659Y-84311524D01*
X138253695Y-84307366D01*
X138213894Y-84285773D01*
X138200450Y-84273456D01*
X138190921Y-84258513D01*
X138184485Y-84235925D01*
X138180317Y-84200672D01*
X138177597Y-84147734D01*
X138175502Y-84072093D01*
X138174960Y-84048143D01*
X138172981Y-83966210D01*
X138170731Y-83908545D01*
X138167357Y-83870392D01*
X138162006Y-83846996D01*
X138153824Y-83833602D01*
X138141959Y-83825455D01*
X138134362Y-83821856D01*
X138102102Y-83809548D01*
X138083111Y-83805486D01*
X138076836Y-83819052D01*
X138073006Y-83860066D01*
X138071600Y-83929001D01*
X138072598Y-84026331D01*
X138072908Y-84041343D01*
X138075101Y-84130141D01*
X138077693Y-84194981D01*
X138081382Y-84240933D01*
X138086864Y-84273065D01*
X138094835Y-84296447D01*
X138105993Y-84316148D01*
X138111830Y-84324590D01*
X138145296Y-84361943D01*
X138182727Y-84390997D01*
X138187309Y-84393533D01*
X138254426Y-84413557D01*
X138324926Y-84410245D01*
G37*
X138324926Y-84410245D02*
X138390858Y-84385916D01*
X138444273Y-84342883D01*
X138465164Y-84312591D01*
X138487939Y-84257006D01*
X138487466Y-84216814D01*
X138463562Y-84189783D01*
X138454717Y-84185187D01*
X138416530Y-84170856D01*
X138397028Y-84174528D01*
X138390422Y-84198593D01*
X138390086Y-84211886D01*
X138377992Y-84260790D01*
X138346471Y-84295001D01*
X138302659Y-84311524D01*
X138253695Y-84307366D01*
X138213894Y-84285773D01*
X138200450Y-84273456D01*
X138190921Y-84258513D01*
X138184485Y-84235925D01*
X138180317Y-84200672D01*
X138177597Y-84147734D01*
X138175502Y-84072093D01*
X138174960Y-84048143D01*
X138172981Y-83966210D01*
X138170731Y-83908545D01*
X138167357Y-83870392D01*
X138162006Y-83846996D01*
X138153824Y-83833602D01*
X138141959Y-83825455D01*
X138134362Y-83821856D01*
X138102102Y-83809548D01*
X138083111Y-83805486D01*
X138076836Y-83819052D01*
X138073006Y-83860066D01*
X138071600Y-83929001D01*
X138072598Y-84026331D01*
X138072908Y-84041343D01*
X138075101Y-84130141D01*
X138077693Y-84194981D01*
X138081382Y-84240933D01*
X138086864Y-84273065D01*
X138094835Y-84296447D01*
X138105993Y-84316148D01*
X138111830Y-84324590D01*
X138145296Y-84361943D01*
X138182727Y-84390997D01*
X138187309Y-84393533D01*
X138254426Y-84413557D01*
X138324926Y-84410245D01*
G36*
X138985117Y-84294642D02*
G01*
X138984933Y-84186163D01*
X138984219Y-84102713D01*
X138982675Y-84040296D01*
X138980001Y-83994915D01*
X138975894Y-83962571D01*
X138970055Y-83939267D01*
X138962182Y-83921005D01*
X138956221Y-83910582D01*
X138906855Y-83854055D01*
X138844264Y-83818623D01*
X138775013Y-83805910D01*
X138705668Y-83817537D01*
X138664375Y-83838432D01*
X138621025Y-83874578D01*
X138591481Y-83918724D01*
X138573655Y-83976538D01*
X138565463Y-84053687D01*
X138564302Y-84110286D01*
X138564458Y-84114353D01*
X138665857Y-84114353D01*
X138666476Y-84049450D01*
X138669314Y-84006486D01*
X138675840Y-83978378D01*
X138687523Y-83958047D01*
X138701483Y-83942712D01*
X138748365Y-83913110D01*
X138798701Y-83910581D01*
X138846276Y-83935295D01*
X138849979Y-83938644D01*
X138865783Y-83956065D01*
X138875693Y-83976791D01*
X138881058Y-84007638D01*
X138883228Y-84055423D01*
X138883571Y-84108252D01*
X138882827Y-84174619D01*
X138879748Y-84218894D01*
X138873061Y-84247991D01*
X138861496Y-84268827D01*
X138852013Y-84279893D01*
X138807960Y-84307802D01*
X138757224Y-84311157D01*
X138708796Y-84289841D01*
X138699450Y-84281927D01*
X138683540Y-84264353D01*
X138673610Y-84243413D01*
X138668278Y-84212218D01*
X138666163Y-84163878D01*
X138665857Y-84114353D01*
X138564458Y-84114353D01*
X138567810Y-84201432D01*
X138579726Y-84269914D01*
X138602135Y-84321400D01*
X138637124Y-84361557D01*
X138664375Y-84382139D01*
X138713907Y-84404375D01*
X138771316Y-84414696D01*
X138824682Y-84411933D01*
X138854543Y-84400788D01*
X138866261Y-84397617D01*
X138874037Y-84409443D01*
X138879465Y-84441134D01*
X138883571Y-84489407D01*
X138888067Y-84543171D01*
X138894313Y-84575518D01*
X138905676Y-84594015D01*
X138925528Y-84606230D01*
X138938000Y-84611638D01*
X138985171Y-84631399D01*
X138985117Y-84294642D01*
G37*
X138985117Y-84294642D02*
X138984933Y-84186163D01*
X138984219Y-84102713D01*
X138982675Y-84040296D01*
X138980001Y-83994915D01*
X138975894Y-83962571D01*
X138970055Y-83939267D01*
X138962182Y-83921005D01*
X138956221Y-83910582D01*
X138906855Y-83854055D01*
X138844264Y-83818623D01*
X138775013Y-83805910D01*
X138705668Y-83817537D01*
X138664375Y-83838432D01*
X138621025Y-83874578D01*
X138591481Y-83918724D01*
X138573655Y-83976538D01*
X138565463Y-84053687D01*
X138564302Y-84110286D01*
X138564458Y-84114353D01*
X138665857Y-84114353D01*
X138666476Y-84049450D01*
X138669314Y-84006486D01*
X138675840Y-83978378D01*
X138687523Y-83958047D01*
X138701483Y-83942712D01*
X138748365Y-83913110D01*
X138798701Y-83910581D01*
X138846276Y-83935295D01*
X138849979Y-83938644D01*
X138865783Y-83956065D01*
X138875693Y-83976791D01*
X138881058Y-84007638D01*
X138883228Y-84055423D01*
X138883571Y-84108252D01*
X138882827Y-84174619D01*
X138879748Y-84218894D01*
X138873061Y-84247991D01*
X138861496Y-84268827D01*
X138852013Y-84279893D01*
X138807960Y-84307802D01*
X138757224Y-84311157D01*
X138708796Y-84289841D01*
X138699450Y-84281927D01*
X138683540Y-84264353D01*
X138673610Y-84243413D01*
X138668278Y-84212218D01*
X138666163Y-84163878D01*
X138665857Y-84114353D01*
X138564458Y-84114353D01*
X138567810Y-84201432D01*
X138579726Y-84269914D01*
X138602135Y-84321400D01*
X138637124Y-84361557D01*
X138664375Y-84382139D01*
X138713907Y-84404375D01*
X138771316Y-84414696D01*
X138824682Y-84411933D01*
X138854543Y-84400788D01*
X138866261Y-84397617D01*
X138874037Y-84409443D01*
X138879465Y-84441134D01*
X138883571Y-84489407D01*
X138888067Y-84543171D01*
X138894313Y-84575518D01*
X138905676Y-84594015D01*
X138925528Y-84606230D01*
X138938000Y-84611638D01*
X138985171Y-84631399D01*
X138985117Y-84294642D01*
G36*
X139574833Y-84401337D02*
G01*
X139577048Y-84363150D01*
X139578784Y-84305114D01*
X139579899Y-84231820D01*
X139580257Y-84154945D01*
X139580257Y-83894804D01*
X139534326Y-83848873D01*
X139502675Y-83820571D01*
X139474890Y-83809107D01*
X139436915Y-83809832D01*
X139421840Y-83811679D01*
X139374726Y-83817052D01*
X139335756Y-83820131D01*
X139326257Y-83820415D01*
X139294233Y-83818555D01*
X139248432Y-83813886D01*
X139230674Y-83811679D01*
X139187057Y-83808265D01*
X139157745Y-83815680D01*
X139128680Y-83838573D01*
X139118188Y-83848873D01*
X139072257Y-83894804D01*
X139072257Y-84381398D01*
X139109226Y-84398242D01*
X139141059Y-84410718D01*
X139159683Y-84415086D01*
X139164458Y-84401282D01*
X139168921Y-84362714D01*
X139172775Y-84303644D01*
X139175722Y-84228337D01*
X139177143Y-84164714D01*
X139181114Y-83914343D01*
X139215759Y-83909444D01*
X139247268Y-83912869D01*
X139262708Y-83923959D01*
X139267023Y-83944692D01*
X139270708Y-83988855D01*
X139273469Y-84050854D01*
X139275012Y-84125091D01*
X139275235Y-84163294D01*
X139275457Y-84383217D01*
X139321166Y-84399151D01*
X139353518Y-84409985D01*
X139371115Y-84415038D01*
X139371623Y-84415086D01*
X139373388Y-84401352D01*
X139375329Y-84363270D01*
X139377282Y-84305518D01*
X139379084Y-84232773D01*
X139380343Y-84164714D01*
X139384314Y-83914343D01*
X139471400Y-83914343D01*
X139475396Y-84142760D01*
X139479392Y-84371178D01*
X139521847Y-84393132D01*
X139553192Y-84408207D01*
X139571744Y-84415049D01*
X139572279Y-84415086D01*
X139574833Y-84401337D01*
G37*
X139574833Y-84401337D02*
X139577048Y-84363150D01*
X139578784Y-84305114D01*
X139579899Y-84231820D01*
X139580257Y-84154945D01*
X139580257Y-83894804D01*
X139534326Y-83848873D01*
X139502675Y-83820571D01*
X139474890Y-83809107D01*
X139436915Y-83809832D01*
X139421840Y-83811679D01*
X139374726Y-83817052D01*
X139335756Y-83820131D01*
X139326257Y-83820415D01*
X139294233Y-83818555D01*
X139248432Y-83813886D01*
X139230674Y-83811679D01*
X139187057Y-83808265D01*
X139157745Y-83815680D01*
X139128680Y-83838573D01*
X139118188Y-83848873D01*
X139072257Y-83894804D01*
X139072257Y-84381398D01*
X139109226Y-84398242D01*
X139141059Y-84410718D01*
X139159683Y-84415086D01*
X139164458Y-84401282D01*
X139168921Y-84362714D01*
X139172775Y-84303644D01*
X139175722Y-84228337D01*
X139177143Y-84164714D01*
X139181114Y-83914343D01*
X139215759Y-83909444D01*
X139247268Y-83912869D01*
X139262708Y-83923959D01*
X139267023Y-83944692D01*
X139270708Y-83988855D01*
X139273469Y-84050854D01*
X139275012Y-84125091D01*
X139275235Y-84163294D01*
X139275457Y-84383217D01*
X139321166Y-84399151D01*
X139353518Y-84409985D01*
X139371115Y-84415038D01*
X139371623Y-84415086D01*
X139373388Y-84401352D01*
X139375329Y-84363270D01*
X139377282Y-84305518D01*
X139379084Y-84232773D01*
X139380343Y-84164714D01*
X139384314Y-83914343D01*
X139471400Y-83914343D01*
X139475396Y-84142760D01*
X139479392Y-84371178D01*
X139521847Y-84393132D01*
X139553192Y-84408207D01*
X139571744Y-84415049D01*
X139572279Y-84415086D01*
X139574833Y-84401337D01*
G36*
X139939876Y-84403665D02*
G01*
X139981667Y-84384656D01*
X140014469Y-84361622D01*
X140038503Y-84335867D01*
X140055097Y-84302642D01*
X140065577Y-84257200D01*
X140071271Y-84194793D01*
X140073507Y-84110673D01*
X140073743Y-84055279D01*
X140073743Y-83839174D01*
X140036774Y-83822330D01*
X140007656Y-83810019D01*
X139993231Y-83805486D01*
X139990472Y-83818975D01*
X139988282Y-83855347D01*
X139986942Y-83908458D01*
X139986657Y-83950628D01*
X139985434Y-84011553D01*
X139982136Y-84059885D01*
X139977321Y-84089482D01*
X139973496Y-84095771D01*
X139947783Y-84089348D01*
X139907418Y-84072875D01*
X139860679Y-84050542D01*
X139815845Y-84026543D01*
X139781193Y-84005070D01*
X139765002Y-83990315D01*
X139764938Y-83990155D01*
X139766330Y-83962848D01*
X139778818Y-83936781D01*
X139800743Y-83915608D01*
X139832743Y-83908526D01*
X139860092Y-83909351D01*
X139898826Y-83909958D01*
X139919158Y-83900884D01*
X139931369Y-83876908D01*
X139932909Y-83872387D01*
X139938203Y-83838194D01*
X139924047Y-83817432D01*
X139887148Y-83807538D01*
X139847289Y-83805708D01*
X139775562Y-83819273D01*
X139738432Y-83838645D01*
X139692576Y-83884155D01*
X139668256Y-83940017D01*
X139666073Y-83999043D01*
X139686629Y-84054047D01*
X139717549Y-84088514D01*
X139748420Y-84107811D01*
X139796942Y-84132241D01*
X139853485Y-84157015D01*
X139862910Y-84160801D01*
X139925019Y-84188209D01*
X139960822Y-84212366D01*
X139972337Y-84236381D01*
X139961580Y-84263365D01*
X139943114Y-84284457D01*
X139899469Y-84310428D01*
X139851446Y-84312376D01*
X139807406Y-84292363D01*
X139775709Y-84252449D01*
X139771549Y-84242152D01*
X139747327Y-84204276D01*
X139711965Y-84176158D01*
X139667343Y-84153083D01*
X139667343Y-84218515D01*
X139669969Y-84258494D01*
X139681230Y-84290003D01*
X139706199Y-84323622D01*
X139730169Y-84349516D01*
X139767441Y-84386183D01*
X139796401Y-84405879D01*
X139827505Y-84413780D01*
X139862713Y-84415086D01*
X139939876Y-84403665D01*
G37*
X139939876Y-84403665D02*
X139981667Y-84384656D01*
X140014469Y-84361622D01*
X140038503Y-84335867D01*
X140055097Y-84302642D01*
X140065577Y-84257200D01*
X140071271Y-84194793D01*
X140073507Y-84110673D01*
X140073743Y-84055279D01*
X140073743Y-83839174D01*
X140036774Y-83822330D01*
X140007656Y-83810019D01*
X139993231Y-83805486D01*
X139990472Y-83818975D01*
X139988282Y-83855347D01*
X139986942Y-83908458D01*
X139986657Y-83950628D01*
X139985434Y-84011553D01*
X139982136Y-84059885D01*
X139977321Y-84089482D01*
X139973496Y-84095771D01*
X139947783Y-84089348D01*
X139907418Y-84072875D01*
X139860679Y-84050542D01*
X139815845Y-84026543D01*
X139781193Y-84005070D01*
X139765002Y-83990315D01*
X139764938Y-83990155D01*
X139766330Y-83962848D01*
X139778818Y-83936781D01*
X139800743Y-83915608D01*
X139832743Y-83908526D01*
X139860092Y-83909351D01*
X139898826Y-83909958D01*
X139919158Y-83900884D01*
X139931369Y-83876908D01*
X139932909Y-83872387D01*
X139938203Y-83838194D01*
X139924047Y-83817432D01*
X139887148Y-83807538D01*
X139847289Y-83805708D01*
X139775562Y-83819273D01*
X139738432Y-83838645D01*
X139692576Y-83884155D01*
X139668256Y-83940017D01*
X139666073Y-83999043D01*
X139686629Y-84054047D01*
X139717549Y-84088514D01*
X139748420Y-84107811D01*
X139796942Y-84132241D01*
X139853485Y-84157015D01*
X139862910Y-84160801D01*
X139925019Y-84188209D01*
X139960822Y-84212366D01*
X139972337Y-84236381D01*
X139961580Y-84263365D01*
X139943114Y-84284457D01*
X139899469Y-84310428D01*
X139851446Y-84312376D01*
X139807406Y-84292363D01*
X139775709Y-84252449D01*
X139771549Y-84242152D01*
X139747327Y-84204276D01*
X139711965Y-84176158D01*
X139667343Y-84153083D01*
X139667343Y-84218515D01*
X139669969Y-84258494D01*
X139681230Y-84290003D01*
X139706199Y-84323622D01*
X139730169Y-84349516D01*
X139767441Y-84386183D01*
X139796401Y-84405879D01*
X139827505Y-84413780D01*
X139862713Y-84415086D01*
X139939876Y-84403665D01*
G36*
X140447600Y-84401248D02*
G01*
X140464948Y-84393666D01*
X140506356Y-84360872D01*
X140541765Y-84313453D01*
X140563664Y-84262849D01*
X140567229Y-84237902D01*
X140555279Y-84203073D01*
X140529067Y-84184643D01*
X140500964Y-84173484D01*
X140488095Y-84171428D01*
X140481829Y-84186351D01*
X140469456Y-84218825D01*
X140464028Y-84233498D01*
X140433590Y-84284256D01*
X140389520Y-84309573D01*
X140333010Y-84308794D01*
X140328825Y-84307797D01*
X140298655Y-84293493D01*
X140276476Y-84265607D01*
X140261327Y-84220713D01*
X140252250Y-84155385D01*
X140248286Y-84066196D01*
X140247914Y-84018739D01*
X140247730Y-83943929D01*
X140246522Y-83892931D01*
X140243309Y-83860529D01*
X140237109Y-83841505D01*
X140226940Y-83830644D01*
X140211819Y-83822728D01*
X140210946Y-83822330D01*
X140181828Y-83810019D01*
X140167403Y-83805486D01*
X140165186Y-83819191D01*
X140163289Y-83857075D01*
X140161847Y-83914285D01*
X140160998Y-83985973D01*
X140160829Y-84038435D01*
X140161692Y-84139953D01*
X140165070Y-84216968D01*
X140172142Y-84273977D01*
X140184088Y-84315474D01*
X140202090Y-84345957D01*
X140227327Y-84369920D01*
X140252247Y-84386645D01*
X140312171Y-84408903D01*
X140381911Y-84413924D01*
X140447600Y-84401248D01*
G37*
X140447600Y-84401248D02*
X140464948Y-84393666D01*
X140506356Y-84360872D01*
X140541765Y-84313453D01*
X140563664Y-84262849D01*
X140567229Y-84237902D01*
X140555279Y-84203073D01*
X140529067Y-84184643D01*
X140500964Y-84173484D01*
X140488095Y-84171428D01*
X140481829Y-84186351D01*
X140469456Y-84218825D01*
X140464028Y-84233498D01*
X140433590Y-84284256D01*
X140389520Y-84309573D01*
X140333010Y-84308794D01*
X140328825Y-84307797D01*
X140298655Y-84293493D01*
X140276476Y-84265607D01*
X140261327Y-84220713D01*
X140252250Y-84155385D01*
X140248286Y-84066196D01*
X140247914Y-84018739D01*
X140247730Y-83943929D01*
X140246522Y-83892931D01*
X140243309Y-83860529D01*
X140237109Y-83841505D01*
X140226940Y-83830644D01*
X140211819Y-83822728D01*
X140210946Y-83822330D01*
X140181828Y-83810019D01*
X140167403Y-83805486D01*
X140165186Y-83819191D01*
X140163289Y-83857075D01*
X140161847Y-83914285D01*
X140160998Y-83985973D01*
X140160829Y-84038435D01*
X140161692Y-84139953D01*
X140165070Y-84216968D01*
X140172142Y-84273977D01*
X140184088Y-84315474D01*
X140202090Y-84345957D01*
X140227327Y-84369920D01*
X140252247Y-84386645D01*
X140312171Y-84408903D01*
X140381911Y-84413924D01*
X140447600Y-84401248D01*
G36*
X140948595Y-84393034D02*
G01*
X141006021Y-84355503D01*
X141033719Y-84321904D01*
X141055662Y-84260936D01*
X141057405Y-84212692D01*
X141053457Y-84148184D01*
X140904686Y-84083066D01*
X140832349Y-84049798D01*
X140785084Y-84023036D01*
X140760507Y-83999856D01*
X140756237Y-83977333D01*
X140769889Y-83952545D01*
X140784943Y-83936114D01*
X140828746Y-83909765D01*
X140876389Y-83907919D01*
X140920145Y-83928454D01*
X140952289Y-83969248D01*
X140958038Y-83983653D01*
X140985576Y-84028644D01*
X141017258Y-84047818D01*
X141060714Y-84064221D01*
X141060714Y-84002034D01*
X141056872Y-83959717D01*
X141041823Y-83924031D01*
X141010280Y-83883057D01*
X141005592Y-83877733D01*
X140970506Y-83841280D01*
X140940347Y-83821717D01*
X140902615Y-83812717D01*
X140871335Y-83809770D01*
X140815385Y-83809035D01*
X140775555Y-83818340D01*
X140750708Y-83832154D01*
X140711656Y-83862533D01*
X140684625Y-83895387D01*
X140667517Y-83936706D01*
X140658238Y-83992479D01*
X140654693Y-84068695D01*
X140654410Y-84107378D01*
X140655372Y-84153753D01*
X140743007Y-84153753D01*
X140744023Y-84128874D01*
X140746556Y-84124800D01*
X140763274Y-84130335D01*
X140799249Y-84144983D01*
X140847331Y-84165810D01*
X140857386Y-84170286D01*
X140918152Y-84201186D01*
X140951632Y-84228343D01*
X140958990Y-84253780D01*
X140941391Y-84279519D01*
X140926856Y-84290891D01*
X140874410Y-84313636D01*
X140825322Y-84309878D01*
X140784227Y-84282116D01*
X140755758Y-84232848D01*
X140746631Y-84193743D01*
X140743007Y-84153753D01*
X140655372Y-84153753D01*
X140656285Y-84197751D01*
X140663196Y-84264616D01*
X140676884Y-84313305D01*
X140699096Y-84349151D01*
X140731574Y-84377487D01*
X140745733Y-84386645D01*
X140810053Y-84410493D01*
X140880473Y-84411994D01*
X140948595Y-84393034D01*
G37*
X140948595Y-84393034D02*
X141006021Y-84355503D01*
X141033719Y-84321904D01*
X141055662Y-84260936D01*
X141057405Y-84212692D01*
X141053457Y-84148184D01*
X140904686Y-84083066D01*
X140832349Y-84049798D01*
X140785084Y-84023036D01*
X140760507Y-83999856D01*
X140756237Y-83977333D01*
X140769889Y-83952545D01*
X140784943Y-83936114D01*
X140828746Y-83909765D01*
X140876389Y-83907919D01*
X140920145Y-83928454D01*
X140952289Y-83969248D01*
X140958038Y-83983653D01*
X140985576Y-84028644D01*
X141017258Y-84047818D01*
X141060714Y-84064221D01*
X141060714Y-84002034D01*
X141056872Y-83959717D01*
X141041823Y-83924031D01*
X141010280Y-83883057D01*
X141005592Y-83877733D01*
X140970506Y-83841280D01*
X140940347Y-83821717D01*
X140902615Y-83812717D01*
X140871335Y-83809770D01*
X140815385Y-83809035D01*
X140775555Y-83818340D01*
X140750708Y-83832154D01*
X140711656Y-83862533D01*
X140684625Y-83895387D01*
X140667517Y-83936706D01*
X140658238Y-83992479D01*
X140654693Y-84068695D01*
X140654410Y-84107378D01*
X140655372Y-84153753D01*
X140743007Y-84153753D01*
X140744023Y-84128874D01*
X140746556Y-84124800D01*
X140763274Y-84130335D01*
X140799249Y-84144983D01*
X140847331Y-84165810D01*
X140857386Y-84170286D01*
X140918152Y-84201186D01*
X140951632Y-84228343D01*
X140958990Y-84253780D01*
X140941391Y-84279519D01*
X140926856Y-84290891D01*
X140874410Y-84313636D01*
X140825322Y-84309878D01*
X140784227Y-84282116D01*
X140755758Y-84232848D01*
X140746631Y-84193743D01*
X140743007Y-84153753D01*
X140655372Y-84153753D01*
X140656285Y-84197751D01*
X140663196Y-84264616D01*
X140676884Y-84313305D01*
X140699096Y-84349151D01*
X140731574Y-84377487D01*
X140745733Y-84386645D01*
X140810053Y-84410493D01*
X140880473Y-84411994D01*
X140948595Y-84393034D01*
G36*
X137898910Y-89117652D02*
G01*
X137977454Y-89117222D01*
X138034298Y-89116058D01*
X138073105Y-89113793D01*
X138097538Y-89110060D01*
X138111262Y-89104494D01*
X138117940Y-89096727D01*
X138121236Y-89086395D01*
X138121556Y-89085057D01*
X138126562Y-89060921D01*
X138135829Y-89013299D01*
X138148392Y-88947259D01*
X138163287Y-88867872D01*
X138179551Y-88780204D01*
X138180119Y-88777125D01*
X138196410Y-88691211D01*
X138211652Y-88615304D01*
X138224861Y-88553955D01*
X138235054Y-88511718D01*
X138241248Y-88493145D01*
X138241543Y-88492816D01*
X138259788Y-88483747D01*
X138297405Y-88468633D01*
X138346271Y-88450738D01*
X138346543Y-88450642D01*
X138408093Y-88427507D01*
X138480657Y-88398035D01*
X138549057Y-88368403D01*
X138552294Y-88366938D01*
X138663702Y-88316374D01*
X138910399Y-88484840D01*
X138986077Y-88536197D01*
X139054631Y-88582111D01*
X139112088Y-88619970D01*
X139154476Y-88647163D01*
X139177825Y-88661079D01*
X139180042Y-88662111D01*
X139197010Y-88657516D01*
X139228701Y-88635345D01*
X139276352Y-88594553D01*
X139341198Y-88534095D01*
X139407397Y-88469773D01*
X139471214Y-88406388D01*
X139528329Y-88348549D01*
X139575305Y-88299825D01*
X139608703Y-88263790D01*
X139625085Y-88244016D01*
X139625694Y-88242998D01*
X139627505Y-88229428D01*
X139620683Y-88207267D01*
X139603540Y-88173522D01*
X139574393Y-88125200D01*
X139531555Y-88059308D01*
X139474448Y-87974483D01*
X139423766Y-87899823D01*
X139378461Y-87832860D01*
X139341150Y-87777484D01*
X139314452Y-87737580D01*
X139300985Y-87717038D01*
X139300137Y-87715644D01*
X139301781Y-87695962D01*
X139314245Y-87657707D01*
X139335048Y-87608111D01*
X139342462Y-87592272D01*
X139374814Y-87521710D01*
X139409328Y-87441647D01*
X139437365Y-87372371D01*
X139457568Y-87320955D01*
X139473615Y-87281881D01*
X139482888Y-87261459D01*
X139484041Y-87259886D01*
X139501096Y-87257279D01*
X139541298Y-87250137D01*
X139599302Y-87239477D01*
X139669763Y-87226315D01*
X139747335Y-87211667D01*
X139826672Y-87196551D01*
X139902431Y-87181982D01*
X139969264Y-87168978D01*
X140021828Y-87158555D01*
X140054776Y-87151730D01*
X140062857Y-87149801D01*
X140071205Y-87145038D01*
X140077506Y-87134282D01*
X140082045Y-87113902D01*
X140085104Y-87080266D01*
X140086967Y-87029745D01*
X140087918Y-86958708D01*
X140088240Y-86863524D01*
X140088257Y-86824508D01*
X140088257Y-86507201D01*
X140012057Y-86492161D01*
X139969663Y-86484005D01*
X139906400Y-86472101D01*
X139829962Y-86457884D01*
X139748043Y-86442790D01*
X139725400Y-86438645D01*
X139649806Y-86423947D01*
X139583953Y-86409495D01*
X139533366Y-86396625D01*
X139503574Y-86386678D01*
X139498612Y-86383713D01*
X139486426Y-86362717D01*
X139468953Y-86322033D01*
X139449577Y-86269678D01*
X139445734Y-86258400D01*
X139420339Y-86188477D01*
X139388817Y-86109582D01*
X139357969Y-86038734D01*
X139357817Y-86038405D01*
X139306447Y-85927267D01*
X139475399Y-85678747D01*
X139644352Y-85430228D01*
X139427429Y-85212942D01*
X139361819Y-85148274D01*
X139301979Y-85091267D01*
X139251267Y-85044967D01*
X139213046Y-85012416D01*
X139190675Y-84996657D01*
X139187466Y-84995657D01*
X139168626Y-85003531D01*
X139130180Y-85025422D01*
X139076330Y-85058733D01*
X139011276Y-85100869D01*
X138940940Y-85148057D01*
X138869555Y-85196190D01*
X138805908Y-85238072D01*
X138754041Y-85271129D01*
X138717995Y-85292782D01*
X138701867Y-85300457D01*
X138682189Y-85293963D01*
X138644875Y-85276850D01*
X138597621Y-85252674D01*
X138592612Y-85249987D01*
X138528977Y-85218073D01*
X138485341Y-85202421D01*
X138458202Y-85202255D01*
X138444057Y-85216796D01*
X138443975Y-85217000D01*
X138436905Y-85234221D01*
X138420042Y-85275101D01*
X138394695Y-85336475D01*
X138362171Y-85415181D01*
X138323778Y-85508053D01*
X138280822Y-85611928D01*
X138239222Y-85712498D01*
X138193504Y-85823484D01*
X138151526Y-85926297D01*
X138114548Y-86017785D01*
X138083827Y-86094799D01*
X138060622Y-86154185D01*
X138046190Y-86192791D01*
X138041743Y-86207200D01*
X138052896Y-86223728D01*
X138082069Y-86250070D01*
X138120971Y-86279113D01*
X138231757Y-86370961D01*
X138318351Y-86476241D01*
X138379716Y-86592734D01*
X138414815Y-86718224D01*
X138422608Y-86850493D01*
X138416943Y-86911543D01*
X138386078Y-87038205D01*
X138332920Y-87150059D01*
X138260767Y-87245999D01*
X138172917Y-87324924D01*
X138072665Y-87385730D01*
X137963310Y-87427313D01*
X137848147Y-87448572D01*
X137730475Y-87448401D01*
X137613590Y-87425699D01*
X137500789Y-87379362D01*
X137395369Y-87308287D01*
X137351368Y-87268089D01*
X137266979Y-87164871D01*
X137208222Y-87052075D01*
X137174704Y-86932990D01*
X137166035Y-86810905D01*
X137181823Y-86689107D01*
X137221678Y-86570884D01*
X137285207Y-86459525D01*
X137372021Y-86358316D01*
X137469029Y-86279113D01*
X137509437Y-86248838D01*
X137537982Y-86222781D01*
X137548257Y-86207175D01*
X137542877Y-86190157D01*
X137527575Y-86149500D01*
X137503612Y-86088358D01*
X137472244Y-86009881D01*
X137434732Y-85917220D01*
X137392333Y-85813528D01*
X137350663Y-85712474D01*
X137304690Y-85601393D01*
X137262107Y-85498459D01*
X137224221Y-85406835D01*
X137192340Y-85329684D01*
X137167771Y-85270169D01*
X137151820Y-85231456D01*
X137145910Y-85217000D01*
X137131948Y-85202315D01*
X137104940Y-85202358D01*
X137061413Y-85217901D01*
X136997890Y-85249716D01*
X136997388Y-85249987D01*
X136949560Y-85274677D01*
X136910897Y-85292662D01*
X136889095Y-85300386D01*
X136888133Y-85300457D01*
X136871721Y-85292622D01*
X136835487Y-85270835D01*
X136783474Y-85237672D01*
X136719725Y-85195709D01*
X136649060Y-85148057D01*
X136577116Y-85099809D01*
X136512274Y-85057849D01*
X136458735Y-85024773D01*
X136420697Y-85003179D01*
X136402533Y-84995657D01*
X136385808Y-85005543D01*
X136352180Y-85033174D01*
X136305010Y-85075505D01*
X136247658Y-85129495D01*
X136183484Y-85192101D01*
X136162497Y-85213017D01*
X135945499Y-85430377D01*
X136110668Y-85672780D01*
X136160864Y-85747219D01*
X136204919Y-85814028D01*
X136240362Y-85869335D01*
X136264719Y-85909271D01*
X136275522Y-85929964D01*
X136275838Y-85931437D01*
X136270143Y-85950942D01*
X136254826Y-85990178D01*
X136232537Y-86042570D01*
X136216893Y-86077645D01*
X136187641Y-86144799D01*
X136160094Y-86212642D01*
X136138737Y-86269966D01*
X136132935Y-86287428D01*
X136116452Y-86334062D01*
X136100340Y-86370095D01*
X136091490Y-86383713D01*
X136071960Y-86392048D01*
X136029334Y-86403863D01*
X135969145Y-86417819D01*
X135896922Y-86432578D01*
X135864600Y-86438645D01*
X135782522Y-86453727D01*
X135703795Y-86468331D01*
X135636109Y-86481020D01*
X135587160Y-86490358D01*
X135577943Y-86492161D01*
X135501743Y-86507201D01*
X135501743Y-86824508D01*
X135501914Y-86928846D01*
X135502616Y-87007787D01*
X135504134Y-87064962D01*
X135506749Y-87104001D01*
X135510746Y-87128535D01*
X135516409Y-87142195D01*
X135524020Y-87148611D01*
X135527143Y-87149801D01*
X135545978Y-87154020D01*
X135587588Y-87162438D01*
X135646630Y-87174039D01*
X135717757Y-87187805D01*
X135795625Y-87202720D01*
X135874887Y-87217768D01*
X135950198Y-87231931D01*
X136016213Y-87244194D01*
X136067587Y-87253539D01*
X136098975Y-87258950D01*
X136105959Y-87259886D01*
X136112285Y-87272404D01*
X136126290Y-87305754D01*
X136145355Y-87353623D01*
X136152634Y-87372371D01*
X136181996Y-87444805D01*
X136216571Y-87524830D01*
X136247537Y-87592272D01*
X136270323Y-87643841D01*
X136285482Y-87686215D01*
X136290542Y-87712166D01*
X136289736Y-87715644D01*
X136279041Y-87732064D01*
X136254620Y-87768583D01*
X136219095Y-87821313D01*
X136175087Y-87886365D01*
X136125217Y-87959849D01*
X136115356Y-87974355D01*
X136057492Y-88060296D01*
X136014956Y-88125739D01*
X135986054Y-88173696D01*
X135969090Y-88207180D01*
X135962367Y-88229205D01*
X135964190Y-88242783D01*
X135964236Y-88242869D01*
X135978586Y-88260703D01*
X136010323Y-88295183D01*
X136056010Y-88342732D01*
X136112204Y-88399778D01*
X136175468Y-88462745D01*
X136182602Y-88469773D01*
X136262330Y-88546980D01*
X136323857Y-88603670D01*
X136368421Y-88640890D01*
X136397257Y-88659685D01*
X136409958Y-88662111D01*
X136428494Y-88651529D01*
X136466961Y-88627084D01*
X136521386Y-88591388D01*
X136587798Y-88547053D01*
X136662225Y-88496689D01*
X136679601Y-88484840D01*
X136926297Y-88316374D01*
X137037706Y-88366938D01*
X137105457Y-88396405D01*
X137178183Y-88426041D01*
X137240703Y-88449670D01*
X137243457Y-88450642D01*
X137292360Y-88468543D01*
X137330057Y-88483680D01*
X137348425Y-88492790D01*
X137348456Y-88492816D01*
X137354285Y-88509283D01*
X137364192Y-88549781D01*
X137377195Y-88609758D01*
X137392309Y-88684660D01*
X137408552Y-88769936D01*
X137409881Y-88777125D01*
X137426175Y-88864986D01*
X137441133Y-88944740D01*
X137453791Y-89011319D01*
X137463186Y-89059653D01*
X137468354Y-89084675D01*
X137468444Y-89085057D01*
X137471589Y-89095701D01*
X137477704Y-89103738D01*
X137490453Y-89109533D01*
X137513500Y-89113453D01*
X137550509Y-89115865D01*
X137605144Y-89117135D01*
X137681067Y-89117629D01*
X137781944Y-89117714D01*
X137795000Y-89117714D01*
X137898910Y-89117652D01*
G37*
X137898910Y-89117652D02*
X137977454Y-89117222D01*
X138034298Y-89116058D01*
X138073105Y-89113793D01*
X138097538Y-89110060D01*
X138111262Y-89104494D01*
X138117940Y-89096727D01*
X138121236Y-89086395D01*
X138121556Y-89085057D01*
X138126562Y-89060921D01*
X138135829Y-89013299D01*
X138148392Y-88947259D01*
X138163287Y-88867872D01*
X138179551Y-88780204D01*
X138180119Y-88777125D01*
X138196410Y-88691211D01*
X138211652Y-88615304D01*
X138224861Y-88553955D01*
X138235054Y-88511718D01*
X138241248Y-88493145D01*
X138241543Y-88492816D01*
X138259788Y-88483747D01*
X138297405Y-88468633D01*
X138346271Y-88450738D01*
X138346543Y-88450642D01*
X138408093Y-88427507D01*
X138480657Y-88398035D01*
X138549057Y-88368403D01*
X138552294Y-88366938D01*
X138663702Y-88316374D01*
X138910399Y-88484840D01*
X138986077Y-88536197D01*
X139054631Y-88582111D01*
X139112088Y-88619970D01*
X139154476Y-88647163D01*
X139177825Y-88661079D01*
X139180042Y-88662111D01*
X139197010Y-88657516D01*
X139228701Y-88635345D01*
X139276352Y-88594553D01*
X139341198Y-88534095D01*
X139407397Y-88469773D01*
X139471214Y-88406388D01*
X139528329Y-88348549D01*
X139575305Y-88299825D01*
X139608703Y-88263790D01*
X139625085Y-88244016D01*
X139625694Y-88242998D01*
X139627505Y-88229428D01*
X139620683Y-88207267D01*
X139603540Y-88173522D01*
X139574393Y-88125200D01*
X139531555Y-88059308D01*
X139474448Y-87974483D01*
X139423766Y-87899823D01*
X139378461Y-87832860D01*
X139341150Y-87777484D01*
X139314452Y-87737580D01*
X139300985Y-87717038D01*
X139300137Y-87715644D01*
X139301781Y-87695962D01*
X139314245Y-87657707D01*
X139335048Y-87608111D01*
X139342462Y-87592272D01*
X139374814Y-87521710D01*
X139409328Y-87441647D01*
X139437365Y-87372371D01*
X139457568Y-87320955D01*
X139473615Y-87281881D01*
X139482888Y-87261459D01*
X139484041Y-87259886D01*
X139501096Y-87257279D01*
X139541298Y-87250137D01*
X139599302Y-87239477D01*
X139669763Y-87226315D01*
X139747335Y-87211667D01*
X139826672Y-87196551D01*
X139902431Y-87181982D01*
X139969264Y-87168978D01*
X140021828Y-87158555D01*
X140054776Y-87151730D01*
X140062857Y-87149801D01*
X140071205Y-87145038D01*
X140077506Y-87134282D01*
X140082045Y-87113902D01*
X140085104Y-87080266D01*
X140086967Y-87029745D01*
X140087918Y-86958708D01*
X140088240Y-86863524D01*
X140088257Y-86824508D01*
X140088257Y-86507201D01*
X140012057Y-86492161D01*
X139969663Y-86484005D01*
X139906400Y-86472101D01*
X139829962Y-86457884D01*
X139748043Y-86442790D01*
X139725400Y-86438645D01*
X139649806Y-86423947D01*
X139583953Y-86409495D01*
X139533366Y-86396625D01*
X139503574Y-86386678D01*
X139498612Y-86383713D01*
X139486426Y-86362717D01*
X139468953Y-86322033D01*
X139449577Y-86269678D01*
X139445734Y-86258400D01*
X139420339Y-86188477D01*
X139388817Y-86109582D01*
X139357969Y-86038734D01*
X139357817Y-86038405D01*
X139306447Y-85927267D01*
X139475399Y-85678747D01*
X139644352Y-85430228D01*
X139427429Y-85212942D01*
X139361819Y-85148274D01*
X139301979Y-85091267D01*
X139251267Y-85044967D01*
X139213046Y-85012416D01*
X139190675Y-84996657D01*
X139187466Y-84995657D01*
X139168626Y-85003531D01*
X139130180Y-85025422D01*
X139076330Y-85058733D01*
X139011276Y-85100869D01*
X138940940Y-85148057D01*
X138869555Y-85196190D01*
X138805908Y-85238072D01*
X138754041Y-85271129D01*
X138717995Y-85292782D01*
X138701867Y-85300457D01*
X138682189Y-85293963D01*
X138644875Y-85276850D01*
X138597621Y-85252674D01*
X138592612Y-85249987D01*
X138528977Y-85218073D01*
X138485341Y-85202421D01*
X138458202Y-85202255D01*
X138444057Y-85216796D01*
X138443975Y-85217000D01*
X138436905Y-85234221D01*
X138420042Y-85275101D01*
X138394695Y-85336475D01*
X138362171Y-85415181D01*
X138323778Y-85508053D01*
X138280822Y-85611928D01*
X138239222Y-85712498D01*
X138193504Y-85823484D01*
X138151526Y-85926297D01*
X138114548Y-86017785D01*
X138083827Y-86094799D01*
X138060622Y-86154185D01*
X138046190Y-86192791D01*
X138041743Y-86207200D01*
X138052896Y-86223728D01*
X138082069Y-86250070D01*
X138120971Y-86279113D01*
X138231757Y-86370961D01*
X138318351Y-86476241D01*
X138379716Y-86592734D01*
X138414815Y-86718224D01*
X138422608Y-86850493D01*
X138416943Y-86911543D01*
X138386078Y-87038205D01*
X138332920Y-87150059D01*
X138260767Y-87245999D01*
X138172917Y-87324924D01*
X138072665Y-87385730D01*
X137963310Y-87427313D01*
X137848147Y-87448572D01*
X137730475Y-87448401D01*
X137613590Y-87425699D01*
X137500789Y-87379362D01*
X137395369Y-87308287D01*
X137351368Y-87268089D01*
X137266979Y-87164871D01*
X137208222Y-87052075D01*
X137174704Y-86932990D01*
X137166035Y-86810905D01*
X137181823Y-86689107D01*
X137221678Y-86570884D01*
X137285207Y-86459525D01*
X137372021Y-86358316D01*
X137469029Y-86279113D01*
X137509437Y-86248838D01*
X137537982Y-86222781D01*
X137548257Y-86207175D01*
X137542877Y-86190157D01*
X137527575Y-86149500D01*
X137503612Y-86088358D01*
X137472244Y-86009881D01*
X137434732Y-85917220D01*
X137392333Y-85813528D01*
X137350663Y-85712474D01*
X137304690Y-85601393D01*
X137262107Y-85498459D01*
X137224221Y-85406835D01*
X137192340Y-85329684D01*
X137167771Y-85270169D01*
X137151820Y-85231456D01*
X137145910Y-85217000D01*
X137131948Y-85202315D01*
X137104940Y-85202358D01*
X137061413Y-85217901D01*
X136997890Y-85249716D01*
X136997388Y-85249987D01*
X136949560Y-85274677D01*
X136910897Y-85292662D01*
X136889095Y-85300386D01*
X136888133Y-85300457D01*
X136871721Y-85292622D01*
X136835487Y-85270835D01*
X136783474Y-85237672D01*
X136719725Y-85195709D01*
X136649060Y-85148057D01*
X136577116Y-85099809D01*
X136512274Y-85057849D01*
X136458735Y-85024773D01*
X136420697Y-85003179D01*
X136402533Y-84995657D01*
X136385808Y-85005543D01*
X136352180Y-85033174D01*
X136305010Y-85075505D01*
X136247658Y-85129495D01*
X136183484Y-85192101D01*
X136162497Y-85213017D01*
X135945499Y-85430377D01*
X136110668Y-85672780D01*
X136160864Y-85747219D01*
X136204919Y-85814028D01*
X136240362Y-85869335D01*
X136264719Y-85909271D01*
X136275522Y-85929964D01*
X136275838Y-85931437D01*
X136270143Y-85950942D01*
X136254826Y-85990178D01*
X136232537Y-86042570D01*
X136216893Y-86077645D01*
X136187641Y-86144799D01*
X136160094Y-86212642D01*
X136138737Y-86269966D01*
X136132935Y-86287428D01*
X136116452Y-86334062D01*
X136100340Y-86370095D01*
X136091490Y-86383713D01*
X136071960Y-86392048D01*
X136029334Y-86403863D01*
X135969145Y-86417819D01*
X135896922Y-86432578D01*
X135864600Y-86438645D01*
X135782522Y-86453727D01*
X135703795Y-86468331D01*
X135636109Y-86481020D01*
X135587160Y-86490358D01*
X135577943Y-86492161D01*
X135501743Y-86507201D01*
X135501743Y-86824508D01*
X135501914Y-86928846D01*
X135502616Y-87007787D01*
X135504134Y-87064962D01*
X135506749Y-87104001D01*
X135510746Y-87128535D01*
X135516409Y-87142195D01*
X135524020Y-87148611D01*
X135527143Y-87149801D01*
X135545978Y-87154020D01*
X135587588Y-87162438D01*
X135646630Y-87174039D01*
X135717757Y-87187805D01*
X135795625Y-87202720D01*
X135874887Y-87217768D01*
X135950198Y-87231931D01*
X136016213Y-87244194D01*
X136067587Y-87253539D01*
X136098975Y-87258950D01*
X136105959Y-87259886D01*
X136112285Y-87272404D01*
X136126290Y-87305754D01*
X136145355Y-87353623D01*
X136152634Y-87372371D01*
X136181996Y-87444805D01*
X136216571Y-87524830D01*
X136247537Y-87592272D01*
X136270323Y-87643841D01*
X136285482Y-87686215D01*
X136290542Y-87712166D01*
X136289736Y-87715644D01*
X136279041Y-87732064D01*
X136254620Y-87768583D01*
X136219095Y-87821313D01*
X136175087Y-87886365D01*
X136125217Y-87959849D01*
X136115356Y-87974355D01*
X136057492Y-88060296D01*
X136014956Y-88125739D01*
X135986054Y-88173696D01*
X135969090Y-88207180D01*
X135962367Y-88229205D01*
X135964190Y-88242783D01*
X135964236Y-88242869D01*
X135978586Y-88260703D01*
X136010323Y-88295183D01*
X136056010Y-88342732D01*
X136112204Y-88399778D01*
X136175468Y-88462745D01*
X136182602Y-88469773D01*
X136262330Y-88546980D01*
X136323857Y-88603670D01*
X136368421Y-88640890D01*
X136397257Y-88659685D01*
X136409958Y-88662111D01*
X136428494Y-88651529D01*
X136466961Y-88627084D01*
X136521386Y-88591388D01*
X136587798Y-88547053D01*
X136662225Y-88496689D01*
X136679601Y-88484840D01*
X136926297Y-88316374D01*
X137037706Y-88366938D01*
X137105457Y-88396405D01*
X137178183Y-88426041D01*
X137240703Y-88449670D01*
X137243457Y-88450642D01*
X137292360Y-88468543D01*
X137330057Y-88483680D01*
X137348425Y-88492790D01*
X137348456Y-88492816D01*
X137354285Y-88509283D01*
X137364192Y-88549781D01*
X137377195Y-88609758D01*
X137392309Y-88684660D01*
X137408552Y-88769936D01*
X137409881Y-88777125D01*
X137426175Y-88864986D01*
X137441133Y-88944740D01*
X137453791Y-89011319D01*
X137463186Y-89059653D01*
X137468354Y-89084675D01*
X137468444Y-89085057D01*
X137471589Y-89095701D01*
X137477704Y-89103738D01*
X137490453Y-89109533D01*
X137513500Y-89113453D01*
X137550509Y-89115865D01*
X137605144Y-89117135D01*
X137681067Y-89117629D01*
X137781944Y-89117714D01*
X137795000Y-89117714D01*
X137898910Y-89117652D01*
G36*
X127384911Y-82078340D02*
G01*
X127734460Y-82078293D01*
X127897170Y-82078286D01*
X130501571Y-82078285D01*
X130501571Y-81924762D01*
X130517957Y-81737937D01*
X130567412Y-81565633D01*
X130650380Y-81406825D01*
X130767305Y-81260490D01*
X130806864Y-81220968D01*
X130949170Y-81108862D01*
X131106078Y-81027101D01*
X131272928Y-80975647D01*
X131445061Y-80954463D01*
X131617815Y-80963513D01*
X131786530Y-81002758D01*
X131946546Y-81072162D01*
X132093202Y-81171689D01*
X132159068Y-81231735D01*
X132281808Y-81378957D01*
X132371812Y-81540853D01*
X132428294Y-81715573D01*
X132450471Y-81901265D01*
X132450766Y-81919533D01*
X132451928Y-82078280D01*
X132521700Y-82078283D01*
X132583595Y-82069882D01*
X132640135Y-82049444D01*
X132643872Y-82047333D01*
X132656642Y-82040707D01*
X132668368Y-82035546D01*
X132679094Y-82030349D01*
X132688861Y-82023610D01*
X132697712Y-82013829D01*
X132705689Y-81999500D01*
X132712835Y-81979122D01*
X132719192Y-81951192D01*
X132724802Y-81914205D01*
X132729707Y-81866660D01*
X132733951Y-81807053D01*
X132737576Y-81733881D01*
X132740623Y-81645641D01*
X132743136Y-81540830D01*
X132745156Y-81417945D01*
X132746726Y-81275483D01*
X132747888Y-81111940D01*
X132748686Y-80925814D01*
X132749160Y-80715602D01*
X132749354Y-80479800D01*
X132749310Y-80216906D01*
X132749070Y-79925416D01*
X132748677Y-79603828D01*
X132748173Y-79250638D01*
X132747600Y-78864343D01*
X132747001Y-78443440D01*
X132746932Y-78392160D01*
X132746395Y-77968574D01*
X132745939Y-77579770D01*
X132745516Y-77224247D01*
X132745079Y-76900502D01*
X132744578Y-76607034D01*
X132743965Y-76342339D01*
X132743192Y-76104915D01*
X132742211Y-75893260D01*
X132740974Y-75705871D01*
X132739432Y-75541246D01*
X132737537Y-75397883D01*
X132735241Y-75274280D01*
X132732496Y-75168933D01*
X132729253Y-75080341D01*
X132725464Y-75007000D01*
X132721081Y-74947410D01*
X132716055Y-74900067D01*
X132710339Y-74863469D01*
X132703884Y-74836114D01*
X132696641Y-74816498D01*
X132688563Y-74803121D01*
X132679602Y-74794479D01*
X132669708Y-74789070D01*
X132658835Y-74785392D01*
X132646933Y-74781942D01*
X132633954Y-74777218D01*
X132630783Y-74775780D01*
X132620819Y-74772549D01*
X132604141Y-74769580D01*
X132579293Y-74766863D01*
X132544820Y-74764387D01*
X132499264Y-74762142D01*
X132441170Y-74760117D01*
X132369081Y-74758302D01*
X132281542Y-74756685D01*
X132177095Y-74755257D01*
X132054285Y-74754007D01*
X131911655Y-74752924D01*
X131747749Y-74751998D01*
X131561110Y-74751218D01*
X131350284Y-74750574D01*
X131113812Y-74750054D01*
X130850239Y-74749649D01*
X130558110Y-74749348D01*
X130235966Y-74749140D01*
X129882353Y-74749015D01*
X129495814Y-74748962D01*
X129074892Y-74748971D01*
X128938544Y-74748984D01*
X128508284Y-74749053D01*
X128112836Y-74749166D01*
X127750727Y-74749335D01*
X127420483Y-74749570D01*
X127120629Y-74749884D01*
X126849692Y-74750287D01*
X126606200Y-74750793D01*
X126388677Y-74751411D01*
X126195650Y-74752154D01*
X126025646Y-74753032D01*
X125877190Y-74754059D01*
X125748810Y-74755244D01*
X125639031Y-74756600D01*
X125546380Y-74758138D01*
X125469383Y-74759870D01*
X125406566Y-74761806D01*
X125356456Y-74763960D01*
X125317579Y-74766341D01*
X125288462Y-74768963D01*
X125267629Y-74771835D01*
X125253609Y-74774970D01*
X125245966Y-74777841D01*
X125232382Y-74783570D01*
X125219910Y-74787794D01*
X125208502Y-74792015D01*
X125198111Y-74797732D01*
X125188691Y-74806445D01*
X125180192Y-74819655D01*
X125172570Y-74838863D01*
X125165775Y-74865567D01*
X125159762Y-74901270D01*
X125154483Y-74947470D01*
X125149890Y-75005668D01*
X125145936Y-75077365D01*
X125142575Y-75164060D01*
X125139759Y-75267254D01*
X125137440Y-75388447D01*
X125135572Y-75529140D01*
X125135084Y-75583143D01*
X125619296Y-75583143D01*
X127330744Y-75583143D01*
X127297813Y-75633036D01*
X127265053Y-75684307D01*
X127237311Y-75733131D01*
X127214193Y-75782924D01*
X127195303Y-75837102D01*
X127180249Y-75899084D01*
X127168633Y-75972285D01*
X127160064Y-76060122D01*
X127154144Y-76166012D01*
X127150481Y-76293372D01*
X127148679Y-76445619D01*
X127148344Y-76626168D01*
X127149081Y-76838438D01*
X127149499Y-76917245D01*
X127154214Y-77762089D01*
X127689428Y-77033443D01*
X127841054Y-76826735D01*
X127972419Y-76646740D01*
X128084943Y-76491075D01*
X128180043Y-76357353D01*
X128259138Y-76243191D01*
X128323647Y-76146203D01*
X128374988Y-76064006D01*
X128414580Y-75994214D01*
X128443840Y-75934442D01*
X128464188Y-75882307D01*
X128477042Y-75835424D01*
X128483819Y-75791407D01*
X128485940Y-75747873D01*
X128484821Y-75702436D01*
X128484536Y-75696725D01*
X128478643Y-75583067D01*
X130354229Y-75583143D01*
X130214722Y-75723811D01*
X130176865Y-75762285D01*
X130140953Y-75799721D01*
X130105407Y-75838186D01*
X130068653Y-75879742D01*
X130029114Y-75926455D01*
X129985214Y-75980390D01*
X129935377Y-76043610D01*
X129878028Y-76118182D01*
X129811589Y-76206168D01*
X129734485Y-76309635D01*
X129645139Y-76430646D01*
X129541976Y-76571266D01*
X129423420Y-76733560D01*
X129287895Y-76919593D01*
X129133823Y-77131429D01*
X129007538Y-77305196D01*
X128849046Y-77523499D01*
X128710784Y-77714371D01*
X128591501Y-77879626D01*
X128489943Y-78021074D01*
X128404859Y-78140529D01*
X128334995Y-78239802D01*
X128279100Y-78320705D01*
X128235920Y-78385051D01*
X128204203Y-78434653D01*
X128182698Y-78471321D01*
X128170150Y-78496868D01*
X128165308Y-78513107D01*
X128166763Y-78521645D01*
X128184401Y-78544365D01*
X128222534Y-78592457D01*
X128278862Y-78663062D01*
X128351084Y-78753322D01*
X128436899Y-78860379D01*
X128534006Y-78981373D01*
X128640104Y-79113446D01*
X128752891Y-79253740D01*
X128870068Y-79399397D01*
X128989333Y-79547556D01*
X129054933Y-79629000D01*
X130683686Y-79629000D01*
X130751379Y-79506535D01*
X130819071Y-79384071D01*
X130819071Y-75828071D01*
X130751379Y-75705607D01*
X130683686Y-75583143D01*
X131484441Y-75583143D01*
X131675602Y-75583198D01*
X131833499Y-75583449D01*
X131961152Y-75584021D01*
X132061581Y-75585041D01*
X132137807Y-75586635D01*
X132192852Y-75588930D01*
X132229736Y-75592050D01*
X132251479Y-75596123D01*
X132261102Y-75601275D01*
X132261627Y-75607633D01*
X132256074Y-75615321D01*
X132256016Y-75615385D01*
X132233140Y-75648476D01*
X132202849Y-75702281D01*
X132176097Y-75755992D01*
X132125357Y-75864357D01*
X132120182Y-77746678D01*
X132115007Y-79629000D01*
X130683686Y-79629000D01*
X129054933Y-79629000D01*
X129108385Y-79695361D01*
X129224923Y-79839953D01*
X129336646Y-79978472D01*
X129441254Y-80108061D01*
X129536444Y-80225860D01*
X129619917Y-80329012D01*
X129689371Y-80414657D01*
X129742506Y-80479938D01*
X129773715Y-80518000D01*
X129894903Y-80660330D01*
X130011493Y-80788770D01*
X130119397Y-80899114D01*
X130214530Y-80987159D01*
X130282043Y-81041138D01*
X130361873Y-81098571D01*
X128525892Y-81098571D01*
X128526408Y-80990835D01*
X128521276Y-80911628D01*
X128501985Y-80838195D01*
X128472123Y-80768585D01*
X128452712Y-80729259D01*
X128431841Y-80690293D01*
X128407604Y-80649099D01*
X128378094Y-80603092D01*
X128341406Y-80549683D01*
X128295632Y-80486286D01*
X128238865Y-80410315D01*
X128169200Y-80319183D01*
X128084730Y-80210302D01*
X127983547Y-80081086D01*
X127863747Y-79928948D01*
X127723421Y-79751302D01*
X127707571Y-79731258D01*
X127154214Y-79031492D01*
X127148857Y-79806496D01*
X127147779Y-80038632D01*
X127148008Y-80235154D01*
X127149557Y-80396708D01*
X127152437Y-80523944D01*
X127156659Y-80617508D01*
X127162234Y-80678048D01*
X127164107Y-80689532D01*
X127193505Y-80810501D01*
X127232022Y-80919554D01*
X127275974Y-81007237D01*
X127302379Y-81044426D01*
X127347940Y-81098571D01*
X126483470Y-81098571D01*
X126277255Y-81098395D01*
X126104812Y-81097821D01*
X125963627Y-81096783D01*
X125851188Y-81095213D01*
X125764983Y-81093046D01*
X125702498Y-81090212D01*
X125661221Y-81086647D01*
X125638640Y-81082282D01*
X125632241Y-81077051D01*
X125632683Y-81075893D01*
X125651009Y-81048231D01*
X125681604Y-81004385D01*
X125697433Y-80982209D01*
X125713798Y-80960080D01*
X125728508Y-80940291D01*
X125741656Y-80920894D01*
X125753333Y-80899942D01*
X125763632Y-80875488D01*
X125772646Y-80845584D01*
X125780468Y-80808283D01*
X125787191Y-80761637D01*
X125792906Y-80703699D01*
X125797707Y-80632521D01*
X125801685Y-80546156D01*
X125804935Y-80442656D01*
X125807548Y-80320075D01*
X125809617Y-80176463D01*
X125811234Y-80009875D01*
X125812493Y-79818363D01*
X125813485Y-79599978D01*
X125814304Y-79352774D01*
X125815042Y-79074804D01*
X125815791Y-78764119D01*
X125816492Y-78478700D01*
X125817153Y-78160508D01*
X125817497Y-77856923D01*
X125817532Y-77569885D01*
X125817268Y-77301331D01*
X125816715Y-77053202D01*
X125815880Y-76827437D01*
X125814773Y-76625974D01*
X125813404Y-76450754D01*
X125811781Y-76303714D01*
X125809913Y-76186794D01*
X125807811Y-76101933D01*
X125805482Y-76051071D01*
X125805041Y-76045696D01*
X125788992Y-75922387D01*
X125763936Y-75823356D01*
X125725779Y-75736930D01*
X125670428Y-75651435D01*
X125663504Y-75642107D01*
X125619296Y-75583143D01*
X125135084Y-75583143D01*
X125134108Y-75690832D01*
X125132999Y-75875024D01*
X125132199Y-76083216D01*
X125131661Y-76316909D01*
X125131338Y-76577602D01*
X125131183Y-76866796D01*
X125131146Y-77185991D01*
X125131183Y-77536687D01*
X125131245Y-77920386D01*
X125131285Y-78338586D01*
X125131286Y-78421607D01*
X125131309Y-78844211D01*
X125131388Y-79232019D01*
X125131533Y-79586520D01*
X125131756Y-79909203D01*
X125132069Y-80201558D01*
X125132483Y-80465073D01*
X125133009Y-80701238D01*
X125133660Y-80911542D01*
X125134447Y-81097474D01*
X125135381Y-81260525D01*
X125136474Y-81402182D01*
X125137737Y-81523936D01*
X125139183Y-81627275D01*
X125140821Y-81713689D01*
X125142666Y-81784667D01*
X125144726Y-81841699D01*
X125147015Y-81886273D01*
X125149544Y-81919879D01*
X125152324Y-81944007D01*
X125155367Y-81960144D01*
X125158684Y-81969782D01*
X125158807Y-81970022D01*
X125165640Y-81984745D01*
X125171330Y-81998074D01*
X125177626Y-82010078D01*
X125186272Y-82020827D01*
X125199014Y-82030389D01*
X125217600Y-82038833D01*
X125243774Y-82046229D01*
X125279284Y-82052646D01*
X125325875Y-82058152D01*
X125385293Y-82062817D01*
X125459285Y-82066709D01*
X125549597Y-82069898D01*
X125657975Y-82072453D01*
X125786165Y-82074442D01*
X125935913Y-82075935D01*
X126108966Y-82077002D01*
X126307069Y-82077709D01*
X126531969Y-82078128D01*
X126785412Y-82078327D01*
X127069144Y-82078374D01*
X127384911Y-82078340D01*
G37*
X127384911Y-82078340D02*
X127734460Y-82078293D01*
X127897170Y-82078286D01*
X130501571Y-82078285D01*
X130501571Y-81924762D01*
X130517957Y-81737937D01*
X130567412Y-81565633D01*
X130650380Y-81406825D01*
X130767305Y-81260490D01*
X130806864Y-81220968D01*
X130949170Y-81108862D01*
X131106078Y-81027101D01*
X131272928Y-80975647D01*
X131445061Y-80954463D01*
X131617815Y-80963513D01*
X131786530Y-81002758D01*
X131946546Y-81072162D01*
X132093202Y-81171689D01*
X132159068Y-81231735D01*
X132281808Y-81378957D01*
X132371812Y-81540853D01*
X132428294Y-81715573D01*
X132450471Y-81901265D01*
X132450766Y-81919533D01*
X132451928Y-82078280D01*
X132521700Y-82078283D01*
X132583595Y-82069882D01*
X132640135Y-82049444D01*
X132643872Y-82047333D01*
X132656642Y-82040707D01*
X132668368Y-82035546D01*
X132679094Y-82030349D01*
X132688861Y-82023610D01*
X132697712Y-82013829D01*
X132705689Y-81999500D01*
X132712835Y-81979122D01*
X132719192Y-81951192D01*
X132724802Y-81914205D01*
X132729707Y-81866660D01*
X132733951Y-81807053D01*
X132737576Y-81733881D01*
X132740623Y-81645641D01*
X132743136Y-81540830D01*
X132745156Y-81417945D01*
X132746726Y-81275483D01*
X132747888Y-81111940D01*
X132748686Y-80925814D01*
X132749160Y-80715602D01*
X132749354Y-80479800D01*
X132749310Y-80216906D01*
X132749070Y-79925416D01*
X132748677Y-79603828D01*
X132748173Y-79250638D01*
X132747600Y-78864343D01*
X132747001Y-78443440D01*
X132746932Y-78392160D01*
X132746395Y-77968574D01*
X132745939Y-77579770D01*
X132745516Y-77224247D01*
X132745079Y-76900502D01*
X132744578Y-76607034D01*
X132743965Y-76342339D01*
X132743192Y-76104915D01*
X132742211Y-75893260D01*
X132740974Y-75705871D01*
X132739432Y-75541246D01*
X132737537Y-75397883D01*
X132735241Y-75274280D01*
X132732496Y-75168933D01*
X132729253Y-75080341D01*
X132725464Y-75007000D01*
X132721081Y-74947410D01*
X132716055Y-74900067D01*
X132710339Y-74863469D01*
X132703884Y-74836114D01*
X132696641Y-74816498D01*
X132688563Y-74803121D01*
X132679602Y-74794479D01*
X132669708Y-74789070D01*
X132658835Y-74785392D01*
X132646933Y-74781942D01*
X132633954Y-74777218D01*
X132630783Y-74775780D01*
X132620819Y-74772549D01*
X132604141Y-74769580D01*
X132579293Y-74766863D01*
X132544820Y-74764387D01*
X132499264Y-74762142D01*
X132441170Y-74760117D01*
X132369081Y-74758302D01*
X132281542Y-74756685D01*
X132177095Y-74755257D01*
X132054285Y-74754007D01*
X131911655Y-74752924D01*
X131747749Y-74751998D01*
X131561110Y-74751218D01*
X131350284Y-74750574D01*
X131113812Y-74750054D01*
X130850239Y-74749649D01*
X130558110Y-74749348D01*
X130235966Y-74749140D01*
X129882353Y-74749015D01*
X129495814Y-74748962D01*
X129074892Y-74748971D01*
X128938544Y-74748984D01*
X128508284Y-74749053D01*
X128112836Y-74749166D01*
X127750727Y-74749335D01*
X127420483Y-74749570D01*
X127120629Y-74749884D01*
X126849692Y-74750287D01*
X126606200Y-74750793D01*
X126388677Y-74751411D01*
X126195650Y-74752154D01*
X126025646Y-74753032D01*
X125877190Y-74754059D01*
X125748810Y-74755244D01*
X125639031Y-74756600D01*
X125546380Y-74758138D01*
X125469383Y-74759870D01*
X125406566Y-74761806D01*
X125356456Y-74763960D01*
X125317579Y-74766341D01*
X125288462Y-74768963D01*
X125267629Y-74771835D01*
X125253609Y-74774970D01*
X125245966Y-74777841D01*
X125232382Y-74783570D01*
X125219910Y-74787794D01*
X125208502Y-74792015D01*
X125198111Y-74797732D01*
X125188691Y-74806445D01*
X125180192Y-74819655D01*
X125172570Y-74838863D01*
X125165775Y-74865567D01*
X125159762Y-74901270D01*
X125154483Y-74947470D01*
X125149890Y-75005668D01*
X125145936Y-75077365D01*
X125142575Y-75164060D01*
X125139759Y-75267254D01*
X125137440Y-75388447D01*
X125135572Y-75529140D01*
X125135084Y-75583143D01*
X125619296Y-75583143D01*
X127330744Y-75583143D01*
X127297813Y-75633036D01*
X127265053Y-75684307D01*
X127237311Y-75733131D01*
X127214193Y-75782924D01*
X127195303Y-75837102D01*
X127180249Y-75899084D01*
X127168633Y-75972285D01*
X127160064Y-76060122D01*
X127154144Y-76166012D01*
X127150481Y-76293372D01*
X127148679Y-76445619D01*
X127148344Y-76626168D01*
X127149081Y-76838438D01*
X127149499Y-76917245D01*
X127154214Y-77762089D01*
X127689428Y-77033443D01*
X127841054Y-76826735D01*
X127972419Y-76646740D01*
X128084943Y-76491075D01*
X128180043Y-76357353D01*
X128259138Y-76243191D01*
X128323647Y-76146203D01*
X128374988Y-76064006D01*
X128414580Y-75994214D01*
X128443840Y-75934442D01*
X128464188Y-75882307D01*
X128477042Y-75835424D01*
X128483819Y-75791407D01*
X128485940Y-75747873D01*
X128484821Y-75702436D01*
X128484536Y-75696725D01*
X128478643Y-75583067D01*
X130354229Y-75583143D01*
X130214722Y-75723811D01*
X130176865Y-75762285D01*
X130140953Y-75799721D01*
X130105407Y-75838186D01*
X130068653Y-75879742D01*
X130029114Y-75926455D01*
X129985214Y-75980390D01*
X129935377Y-76043610D01*
X129878028Y-76118182D01*
X129811589Y-76206168D01*
X129734485Y-76309635D01*
X129645139Y-76430646D01*
X129541976Y-76571266D01*
X129423420Y-76733560D01*
X129287895Y-76919593D01*
X129133823Y-77131429D01*
X129007538Y-77305196D01*
X128849046Y-77523499D01*
X128710784Y-77714371D01*
X128591501Y-77879626D01*
X128489943Y-78021074D01*
X128404859Y-78140529D01*
X128334995Y-78239802D01*
X128279100Y-78320705D01*
X128235920Y-78385051D01*
X128204203Y-78434653D01*
X128182698Y-78471321D01*
X128170150Y-78496868D01*
X128165308Y-78513107D01*
X128166763Y-78521645D01*
X128184401Y-78544365D01*
X128222534Y-78592457D01*
X128278862Y-78663062D01*
X128351084Y-78753322D01*
X128436899Y-78860379D01*
X128534006Y-78981373D01*
X128640104Y-79113446D01*
X128752891Y-79253740D01*
X128870068Y-79399397D01*
X128989333Y-79547556D01*
X129054933Y-79629000D01*
X130683686Y-79629000D01*
X130751379Y-79506535D01*
X130819071Y-79384071D01*
X130819071Y-75828071D01*
X130751379Y-75705607D01*
X130683686Y-75583143D01*
X131484441Y-75583143D01*
X131675602Y-75583198D01*
X131833499Y-75583449D01*
X131961152Y-75584021D01*
X132061581Y-75585041D01*
X132137807Y-75586635D01*
X132192852Y-75588930D01*
X132229736Y-75592050D01*
X132251479Y-75596123D01*
X132261102Y-75601275D01*
X132261627Y-75607633D01*
X132256074Y-75615321D01*
X132256016Y-75615385D01*
X132233140Y-75648476D01*
X132202849Y-75702281D01*
X132176097Y-75755992D01*
X132125357Y-75864357D01*
X132120182Y-77746678D01*
X132115007Y-79629000D01*
X130683686Y-79629000D01*
X129054933Y-79629000D01*
X129108385Y-79695361D01*
X129224923Y-79839953D01*
X129336646Y-79978472D01*
X129441254Y-80108061D01*
X129536444Y-80225860D01*
X129619917Y-80329012D01*
X129689371Y-80414657D01*
X129742506Y-80479938D01*
X129773715Y-80518000D01*
X129894903Y-80660330D01*
X130011493Y-80788770D01*
X130119397Y-80899114D01*
X130214530Y-80987159D01*
X130282043Y-81041138D01*
X130361873Y-81098571D01*
X128525892Y-81098571D01*
X128526408Y-80990835D01*
X128521276Y-80911628D01*
X128501985Y-80838195D01*
X128472123Y-80768585D01*
X128452712Y-80729259D01*
X128431841Y-80690293D01*
X128407604Y-80649099D01*
X128378094Y-80603092D01*
X128341406Y-80549683D01*
X128295632Y-80486286D01*
X128238865Y-80410315D01*
X128169200Y-80319183D01*
X128084730Y-80210302D01*
X127983547Y-80081086D01*
X127863747Y-79928948D01*
X127723421Y-79751302D01*
X127707571Y-79731258D01*
X127154214Y-79031492D01*
X127148857Y-79806496D01*
X127147779Y-80038632D01*
X127148008Y-80235154D01*
X127149557Y-80396708D01*
X127152437Y-80523944D01*
X127156659Y-80617508D01*
X127162234Y-80678048D01*
X127164107Y-80689532D01*
X127193505Y-80810501D01*
X127232022Y-80919554D01*
X127275974Y-81007237D01*
X127302379Y-81044426D01*
X127347940Y-81098571D01*
X126483470Y-81098571D01*
X126277255Y-81098395D01*
X126104812Y-81097821D01*
X125963627Y-81096783D01*
X125851188Y-81095213D01*
X125764983Y-81093046D01*
X125702498Y-81090212D01*
X125661221Y-81086647D01*
X125638640Y-81082282D01*
X125632241Y-81077051D01*
X125632683Y-81075893D01*
X125651009Y-81048231D01*
X125681604Y-81004385D01*
X125697433Y-80982209D01*
X125713798Y-80960080D01*
X125728508Y-80940291D01*
X125741656Y-80920894D01*
X125753333Y-80899942D01*
X125763632Y-80875488D01*
X125772646Y-80845584D01*
X125780468Y-80808283D01*
X125787191Y-80761637D01*
X125792906Y-80703699D01*
X125797707Y-80632521D01*
X125801685Y-80546156D01*
X125804935Y-80442656D01*
X125807548Y-80320075D01*
X125809617Y-80176463D01*
X125811234Y-80009875D01*
X125812493Y-79818363D01*
X125813485Y-79599978D01*
X125814304Y-79352774D01*
X125815042Y-79074804D01*
X125815791Y-78764119D01*
X125816492Y-78478700D01*
X125817153Y-78160508D01*
X125817497Y-77856923D01*
X125817532Y-77569885D01*
X125817268Y-77301331D01*
X125816715Y-77053202D01*
X125815880Y-76827437D01*
X125814773Y-76625974D01*
X125813404Y-76450754D01*
X125811781Y-76303714D01*
X125809913Y-76186794D01*
X125807811Y-76101933D01*
X125805482Y-76051071D01*
X125805041Y-76045696D01*
X125788992Y-75922387D01*
X125763936Y-75823356D01*
X125725779Y-75736930D01*
X125670428Y-75651435D01*
X125663504Y-75642107D01*
X125619296Y-75583143D01*
X125135084Y-75583143D01*
X125134108Y-75690832D01*
X125132999Y-75875024D01*
X125132199Y-76083216D01*
X125131661Y-76316909D01*
X125131338Y-76577602D01*
X125131183Y-76866796D01*
X125131146Y-77185991D01*
X125131183Y-77536687D01*
X125131245Y-77920386D01*
X125131285Y-78338586D01*
X125131286Y-78421607D01*
X125131309Y-78844211D01*
X125131388Y-79232019D01*
X125131533Y-79586520D01*
X125131756Y-79909203D01*
X125132069Y-80201558D01*
X125132483Y-80465073D01*
X125133009Y-80701238D01*
X125133660Y-80911542D01*
X125134447Y-81097474D01*
X125135381Y-81260525D01*
X125136474Y-81402182D01*
X125137737Y-81523936D01*
X125139183Y-81627275D01*
X125140821Y-81713689D01*
X125142666Y-81784667D01*
X125144726Y-81841699D01*
X125147015Y-81886273D01*
X125149544Y-81919879D01*
X125152324Y-81944007D01*
X125155367Y-81960144D01*
X125158684Y-81969782D01*
X125158807Y-81970022D01*
X125165640Y-81984745D01*
X125171330Y-81998074D01*
X125177626Y-82010078D01*
X125186272Y-82020827D01*
X125199014Y-82030389D01*
X125217600Y-82038833D01*
X125243774Y-82046229D01*
X125279284Y-82052646D01*
X125325875Y-82058152D01*
X125385293Y-82062817D01*
X125459285Y-82066709D01*
X125549597Y-82069898D01*
X125657975Y-82072453D01*
X125786165Y-82074442D01*
X125935913Y-82075935D01*
X126108966Y-82077002D01*
X126307069Y-82077709D01*
X126531969Y-82078128D01*
X126785412Y-82078327D01*
X127069144Y-82078374D01*
X127384911Y-82078340D01*
G36*
X135836378Y-81170769D02*
G01*
X136032019Y-81149351D01*
X136221562Y-81111015D01*
X136412717Y-81053762D01*
X136613196Y-80975591D01*
X136830708Y-80874504D01*
X136869880Y-80854924D01*
X136959772Y-80810638D01*
X137044553Y-80770761D01*
X137115855Y-80739102D01*
X137165310Y-80719468D01*
X137172908Y-80716996D01*
X137245714Y-80695183D01*
X136919803Y-80221056D01*
X136840123Y-80105177D01*
X136767272Y-79999306D01*
X136703730Y-79907038D01*
X136651972Y-79831967D01*
X136614477Y-79777687D01*
X136593723Y-79747793D01*
X136590351Y-79743059D01*
X136576655Y-79752958D01*
X136542943Y-79782715D01*
X136495244Y-79826927D01*
X136468920Y-79851916D01*
X136319772Y-79970544D01*
X136152268Y-80060687D01*
X136007928Y-80110064D01*
X135921283Y-80125571D01*
X135812796Y-80135021D01*
X135695227Y-80138239D01*
X135581334Y-80135049D01*
X135483879Y-80125276D01*
X135444990Y-80117791D01*
X135269712Y-80057488D01*
X135111765Y-79965410D01*
X134971268Y-79841727D01*
X134848335Y-79686607D01*
X134743085Y-79500219D01*
X134655635Y-79282730D01*
X134586100Y-79034308D01*
X134544775Y-78821643D01*
X134533994Y-78727759D01*
X134526648Y-78606476D01*
X134522667Y-78466507D01*
X134521979Y-78316569D01*
X134524514Y-78165378D01*
X134530200Y-78021649D01*
X134538967Y-77894097D01*
X134550744Y-77791438D01*
X134553293Y-77775599D01*
X134609481Y-77520464D01*
X134686036Y-77294658D01*
X134783426Y-77097169D01*
X134902114Y-76926986D01*
X134986363Y-76834978D01*
X135137770Y-76710057D01*
X135303817Y-76617460D01*
X135481701Y-76557691D01*
X135668622Y-76531254D01*
X135861778Y-76538652D01*
X136058369Y-76580389D01*
X136174597Y-76621229D01*
X136335438Y-76703010D01*
X136501213Y-76820322D01*
X136594073Y-76899655D01*
X136646214Y-76945571D01*
X136687180Y-76979258D01*
X136710498Y-76995490D01*
X136713393Y-76995985D01*
X136723800Y-76979399D01*
X136750767Y-76935568D01*
X136791996Y-76868252D01*
X136845189Y-76781206D01*
X136908050Y-76678190D01*
X136978281Y-76562959D01*
X137017372Y-76498769D01*
X137315964Y-76008323D01*
X136943161Y-75824085D01*
X136808369Y-75757907D01*
X136699175Y-75705722D01*
X136608907Y-75664940D01*
X136530888Y-75632967D01*
X136458444Y-75607213D01*
X136384901Y-75585086D01*
X136303584Y-75563993D01*
X136225643Y-75545470D01*
X136156366Y-75531137D01*
X136083917Y-75520306D01*
X136001042Y-75512374D01*
X135900488Y-75506742D01*
X135775003Y-75502808D01*
X135690428Y-75501109D01*
X135569754Y-75499950D01*
X135454042Y-75500535D01*
X135350951Y-75502696D01*
X135268138Y-75506268D01*
X135213260Y-75511083D01*
X135210008Y-75511563D01*
X134925043Y-75573214D01*
X134657442Y-75666715D01*
X134407297Y-75792007D01*
X134174704Y-75949026D01*
X133959757Y-76137711D01*
X133762550Y-76358000D01*
X133619727Y-76553786D01*
X133467680Y-76810051D01*
X133344773Y-77080683D01*
X133250410Y-77367851D01*
X133183999Y-77673724D01*
X133144944Y-78000472D01*
X133132640Y-78332261D01*
X133142759Y-78653221D01*
X133174561Y-78949354D01*
X133229054Y-79225655D01*
X133307250Y-79487119D01*
X133410159Y-79738742D01*
X133422447Y-79764810D01*
X133557820Y-80008493D01*
X133724089Y-80240382D01*
X133916541Y-80455677D01*
X134130466Y-80649578D01*
X134361155Y-80817285D01*
X134576109Y-80940304D01*
X134793258Y-81036655D01*
X135010868Y-81106449D01*
X135237362Y-81151587D01*
X135481166Y-81173969D01*
X135626928Y-81177269D01*
X135836378Y-81170769D01*
G37*
X135836378Y-81170769D02*
X136032019Y-81149351D01*
X136221562Y-81111015D01*
X136412717Y-81053762D01*
X136613196Y-80975591D01*
X136830708Y-80874504D01*
X136869880Y-80854924D01*
X136959772Y-80810638D01*
X137044553Y-80770761D01*
X137115855Y-80739102D01*
X137165310Y-80719468D01*
X137172908Y-80716996D01*
X137245714Y-80695183D01*
X136919803Y-80221056D01*
X136840123Y-80105177D01*
X136767272Y-79999306D01*
X136703730Y-79907038D01*
X136651972Y-79831967D01*
X136614477Y-79777687D01*
X136593723Y-79747793D01*
X136590351Y-79743059D01*
X136576655Y-79752958D01*
X136542943Y-79782715D01*
X136495244Y-79826927D01*
X136468920Y-79851916D01*
X136319772Y-79970544D01*
X136152268Y-80060687D01*
X136007928Y-80110064D01*
X135921283Y-80125571D01*
X135812796Y-80135021D01*
X135695227Y-80138239D01*
X135581334Y-80135049D01*
X135483879Y-80125276D01*
X135444990Y-80117791D01*
X135269712Y-80057488D01*
X135111765Y-79965410D01*
X134971268Y-79841727D01*
X134848335Y-79686607D01*
X134743085Y-79500219D01*
X134655635Y-79282730D01*
X134586100Y-79034308D01*
X134544775Y-78821643D01*
X134533994Y-78727759D01*
X134526648Y-78606476D01*
X134522667Y-78466507D01*
X134521979Y-78316569D01*
X134524514Y-78165378D01*
X134530200Y-78021649D01*
X134538967Y-77894097D01*
X134550744Y-77791438D01*
X134553293Y-77775599D01*
X134609481Y-77520464D01*
X134686036Y-77294658D01*
X134783426Y-77097169D01*
X134902114Y-76926986D01*
X134986363Y-76834978D01*
X135137770Y-76710057D01*
X135303817Y-76617460D01*
X135481701Y-76557691D01*
X135668622Y-76531254D01*
X135861778Y-76538652D01*
X136058369Y-76580389D01*
X136174597Y-76621229D01*
X136335438Y-76703010D01*
X136501213Y-76820322D01*
X136594073Y-76899655D01*
X136646214Y-76945571D01*
X136687180Y-76979258D01*
X136710498Y-76995490D01*
X136713393Y-76995985D01*
X136723800Y-76979399D01*
X136750767Y-76935568D01*
X136791996Y-76868252D01*
X136845189Y-76781206D01*
X136908050Y-76678190D01*
X136978281Y-76562959D01*
X137017372Y-76498769D01*
X137315964Y-76008323D01*
X136943161Y-75824085D01*
X136808369Y-75757907D01*
X136699175Y-75705722D01*
X136608907Y-75664940D01*
X136530888Y-75632967D01*
X136458444Y-75607213D01*
X136384901Y-75585086D01*
X136303584Y-75563993D01*
X136225643Y-75545470D01*
X136156366Y-75531137D01*
X136083917Y-75520306D01*
X136001042Y-75512374D01*
X135900488Y-75506742D01*
X135775003Y-75502808D01*
X135690428Y-75501109D01*
X135569754Y-75499950D01*
X135454042Y-75500535D01*
X135350951Y-75502696D01*
X135268138Y-75506268D01*
X135213260Y-75511083D01*
X135210008Y-75511563D01*
X134925043Y-75573214D01*
X134657442Y-75666715D01*
X134407297Y-75792007D01*
X134174704Y-75949026D01*
X133959757Y-76137711D01*
X133762550Y-76358000D01*
X133619727Y-76553786D01*
X133467680Y-76810051D01*
X133344773Y-77080683D01*
X133250410Y-77367851D01*
X133183999Y-77673724D01*
X133144944Y-78000472D01*
X133132640Y-78332261D01*
X133142759Y-78653221D01*
X133174561Y-78949354D01*
X133229054Y-79225655D01*
X133307250Y-79487119D01*
X133410159Y-79738742D01*
X133422447Y-79764810D01*
X133557820Y-80008493D01*
X133724089Y-80240382D01*
X133916541Y-80455677D01*
X134130466Y-80649578D01*
X134361155Y-80817285D01*
X134576109Y-80940304D01*
X134793258Y-81036655D01*
X135010868Y-81106449D01*
X135237362Y-81151587D01*
X135481166Y-81173969D01*
X135626928Y-81177269D01*
X135836378Y-81170769D01*
G36*
X139440632Y-79712270D02*
G01*
X139530523Y-79705465D01*
X139787715Y-79671247D01*
X140015485Y-79616669D01*
X140214943Y-79540980D01*
X140387197Y-79443430D01*
X140533359Y-79323268D01*
X140654536Y-79179742D01*
X140751839Y-79012102D01*
X140822891Y-78830714D01*
X140840927Y-78772854D01*
X140856632Y-78718671D01*
X140870192Y-78665248D01*
X140881792Y-78609667D01*
X140891617Y-78549012D01*
X140899853Y-78480365D01*
X140906684Y-78400810D01*
X140912295Y-78307428D01*
X140916872Y-78197304D01*
X140920600Y-78067519D01*
X140923665Y-77915158D01*
X140926250Y-77737302D01*
X140928542Y-77531035D01*
X140930725Y-77293439D01*
X140932286Y-77107143D01*
X140942785Y-75828071D01*
X141010821Y-75704982D01*
X141043038Y-75645683D01*
X141067012Y-75599623D01*
X141078450Y-75575107D01*
X141078857Y-75573447D01*
X141061375Y-75571546D01*
X141011574Y-75569795D01*
X140933421Y-75568242D01*
X140830882Y-75566938D01*
X140707922Y-75565930D01*
X140568510Y-75565269D01*
X140416611Y-75565003D01*
X140398500Y-75565000D01*
X139718143Y-75565000D01*
X139718143Y-75719214D01*
X139716982Y-75788906D01*
X139713887Y-75842206D01*
X139709432Y-75870783D01*
X139707463Y-75873428D01*
X139689455Y-75862347D01*
X139652393Y-75833264D01*
X139604222Y-75792421D01*
X139603141Y-75791476D01*
X139515235Y-75726029D01*
X139404217Y-75660312D01*
X139282631Y-75600781D01*
X139163021Y-75553891D01*
X139110357Y-75537867D01*
X139005551Y-75517515D01*
X138876950Y-75504528D01*
X138736325Y-75499091D01*
X138595448Y-75501389D01*
X138466093Y-75511608D01*
X138375571Y-75526311D01*
X138153580Y-75591501D01*
X137953729Y-75684406D01*
X137777319Y-75803874D01*
X137625650Y-75948753D01*
X137500024Y-76117890D01*
X137401741Y-76310133D01*
X137359341Y-76426786D01*
X137332768Y-76540167D01*
X137315158Y-76676278D01*
X137307010Y-76822563D01*
X137307278Y-76843849D01*
X138534321Y-76843849D01*
X138544496Y-76735150D01*
X138578378Y-76644815D01*
X138641000Y-76561005D01*
X138665052Y-76536429D01*
X138750551Y-76469989D01*
X138849373Y-76427426D01*
X138967768Y-76406823D01*
X139092445Y-76405306D01*
X139210698Y-76415323D01*
X139301239Y-76434915D01*
X139340560Y-76449630D01*
X139411432Y-76489735D01*
X139486525Y-76546137D01*
X139555038Y-76609439D01*
X139606172Y-76670245D01*
X139619750Y-76692551D01*
X139630305Y-76723788D01*
X139637810Y-76773493D01*
X139642613Y-76846413D01*
X139645065Y-76947297D01*
X139645571Y-77043311D01*
X139645228Y-77155250D01*
X139643843Y-77236191D01*
X139640881Y-77291415D01*
X139635808Y-77326206D01*
X139628090Y-77345846D01*
X139617192Y-77355620D01*
X139613821Y-77357176D01*
X139584529Y-77361971D01*
X139526756Y-77365892D01*
X139448304Y-77368586D01*
X139356974Y-77369701D01*
X139337143Y-77369702D01*
X139215063Y-77367754D01*
X139120749Y-77361959D01*
X139045807Y-77351525D01*
X138983903Y-77336286D01*
X138830349Y-77278216D01*
X138709932Y-77206821D01*
X138621610Y-77120961D01*
X138564339Y-77019493D01*
X138537078Y-76901275D01*
X138534321Y-76843849D01*
X137307278Y-76843849D01*
X137308823Y-76966467D01*
X137321096Y-77095435D01*
X137330670Y-77147540D01*
X137391801Y-77341003D01*
X137484757Y-77519007D01*
X137607783Y-77679845D01*
X137759124Y-77821810D01*
X137937025Y-77943194D01*
X138139732Y-78042291D01*
X138312071Y-78102467D01*
X138427253Y-78134081D01*
X138537423Y-78158646D01*
X138649719Y-78176961D01*
X138771275Y-78189822D01*
X138909229Y-78198028D01*
X139070715Y-78202376D01*
X139216715Y-78203600D01*
X139649645Y-78204785D01*
X139641351Y-78334920D01*
X139617801Y-78476117D01*
X139567703Y-78597482D01*
X139493191Y-78695983D01*
X139396399Y-78768591D01*
X139311171Y-78804021D01*
X139189056Y-78826350D01*
X139043683Y-78829557D01*
X138881867Y-78814823D01*
X138710422Y-78783330D01*
X138536163Y-78736260D01*
X138365904Y-78674797D01*
X138242176Y-78618583D01*
X138182647Y-78589717D01*
X138137242Y-78569557D01*
X138114150Y-78561690D01*
X138112897Y-78561942D01*
X138104929Y-78579563D01*
X138085031Y-78626267D01*
X138055077Y-78697582D01*
X138016939Y-78789031D01*
X137972488Y-78896141D01*
X137927305Y-79005451D01*
X137746667Y-79443260D01*
X137875155Y-79464364D01*
X137930846Y-79474953D01*
X138014564Y-79492737D01*
X138119139Y-79516102D01*
X138237399Y-79543435D01*
X138362172Y-79573119D01*
X138411857Y-79585182D01*
X138626807Y-79635038D01*
X138814995Y-79672416D01*
X138983446Y-79698073D01*
X139139186Y-79712765D01*
X139289240Y-79717245D01*
X139440632Y-79712270D01*
G37*
X139440632Y-79712270D02*
X139530523Y-79705465D01*
X139787715Y-79671247D01*
X140015485Y-79616669D01*
X140214943Y-79540980D01*
X140387197Y-79443430D01*
X140533359Y-79323268D01*
X140654536Y-79179742D01*
X140751839Y-79012102D01*
X140822891Y-78830714D01*
X140840927Y-78772854D01*
X140856632Y-78718671D01*
X140870192Y-78665248D01*
X140881792Y-78609667D01*
X140891617Y-78549012D01*
X140899853Y-78480365D01*
X140906684Y-78400810D01*
X140912295Y-78307428D01*
X140916872Y-78197304D01*
X140920600Y-78067519D01*
X140923665Y-77915158D01*
X140926250Y-77737302D01*
X140928542Y-77531035D01*
X140930725Y-77293439D01*
X140932286Y-77107143D01*
X140942785Y-75828071D01*
X141010821Y-75704982D01*
X141043038Y-75645683D01*
X141067012Y-75599623D01*
X141078450Y-75575107D01*
X141078857Y-75573447D01*
X141061375Y-75571546D01*
X141011574Y-75569795D01*
X140933421Y-75568242D01*
X140830882Y-75566938D01*
X140707922Y-75565930D01*
X140568510Y-75565269D01*
X140416611Y-75565003D01*
X140398500Y-75565000D01*
X139718143Y-75565000D01*
X139718143Y-75719214D01*
X139716982Y-75788906D01*
X139713887Y-75842206D01*
X139709432Y-75870783D01*
X139707463Y-75873428D01*
X139689455Y-75862347D01*
X139652393Y-75833264D01*
X139604222Y-75792421D01*
X139603141Y-75791476D01*
X139515235Y-75726029D01*
X139404217Y-75660312D01*
X139282631Y-75600781D01*
X139163021Y-75553891D01*
X139110357Y-75537867D01*
X139005551Y-75517515D01*
X138876950Y-75504528D01*
X138736325Y-75499091D01*
X138595448Y-75501389D01*
X138466093Y-75511608D01*
X138375571Y-75526311D01*
X138153580Y-75591501D01*
X137953729Y-75684406D01*
X137777319Y-75803874D01*
X137625650Y-75948753D01*
X137500024Y-76117890D01*
X137401741Y-76310133D01*
X137359341Y-76426786D01*
X137332768Y-76540167D01*
X137315158Y-76676278D01*
X137307010Y-76822563D01*
X137307278Y-76843849D01*
X138534321Y-76843849D01*
X138544496Y-76735150D01*
X138578378Y-76644815D01*
X138641000Y-76561005D01*
X138665052Y-76536429D01*
X138750551Y-76469989D01*
X138849373Y-76427426D01*
X138967768Y-76406823D01*
X139092445Y-76405306D01*
X139210698Y-76415323D01*
X139301239Y-76434915D01*
X139340560Y-76449630D01*
X139411432Y-76489735D01*
X139486525Y-76546137D01*
X139555038Y-76609439D01*
X139606172Y-76670245D01*
X139619750Y-76692551D01*
X139630305Y-76723788D01*
X139637810Y-76773493D01*
X139642613Y-76846413D01*
X139645065Y-76947297D01*
X139645571Y-77043311D01*
X139645228Y-77155250D01*
X139643843Y-77236191D01*
X139640881Y-77291415D01*
X139635808Y-77326206D01*
X139628090Y-77345846D01*
X139617192Y-77355620D01*
X139613821Y-77357176D01*
X139584529Y-77361971D01*
X139526756Y-77365892D01*
X139448304Y-77368586D01*
X139356974Y-77369701D01*
X139337143Y-77369702D01*
X139215063Y-77367754D01*
X139120749Y-77361959D01*
X139045807Y-77351525D01*
X138983903Y-77336286D01*
X138830349Y-77278216D01*
X138709932Y-77206821D01*
X138621610Y-77120961D01*
X138564339Y-77019493D01*
X138537078Y-76901275D01*
X138534321Y-76843849D01*
X137307278Y-76843849D01*
X137308823Y-76966467D01*
X137321096Y-77095435D01*
X137330670Y-77147540D01*
X137391801Y-77341003D01*
X137484757Y-77519007D01*
X137607783Y-77679845D01*
X137759124Y-77821810D01*
X137937025Y-77943194D01*
X138139732Y-78042291D01*
X138312071Y-78102467D01*
X138427253Y-78134081D01*
X138537423Y-78158646D01*
X138649719Y-78176961D01*
X138771275Y-78189822D01*
X138909229Y-78198028D01*
X139070715Y-78202376D01*
X139216715Y-78203600D01*
X139649645Y-78204785D01*
X139641351Y-78334920D01*
X139617801Y-78476117D01*
X139567703Y-78597482D01*
X139493191Y-78695983D01*
X139396399Y-78768591D01*
X139311171Y-78804021D01*
X139189056Y-78826350D01*
X139043683Y-78829557D01*
X138881867Y-78814823D01*
X138710422Y-78783330D01*
X138536163Y-78736260D01*
X138365904Y-78674797D01*
X138242176Y-78618583D01*
X138182647Y-78589717D01*
X138137242Y-78569557D01*
X138114150Y-78561690D01*
X138112897Y-78561942D01*
X138104929Y-78579563D01*
X138085031Y-78626267D01*
X138055077Y-78697582D01*
X138016939Y-78789031D01*
X137972488Y-78896141D01*
X137927305Y-79005451D01*
X137746667Y-79443260D01*
X137875155Y-79464364D01*
X137930846Y-79474953D01*
X138014564Y-79492737D01*
X138119139Y-79516102D01*
X138237399Y-79543435D01*
X138362172Y-79573119D01*
X138411857Y-79585182D01*
X138626807Y-79635038D01*
X138814995Y-79672416D01*
X138983446Y-79698073D01*
X139139186Y-79712765D01*
X139289240Y-79717245D01*
X139440632Y-79712270D01*
G36*
X144296571Y-81439911D02*
G01*
X144450876Y-81439277D01*
X144503321Y-81438958D01*
X145224500Y-81434214D01*
X145233571Y-78667428D01*
X145234769Y-78292244D01*
X145235832Y-77951583D01*
X145236827Y-77643682D01*
X145237823Y-77366779D01*
X145238888Y-77119112D01*
X145240091Y-76898919D01*
X145241499Y-76704438D01*
X145243182Y-76533906D01*
X145245206Y-76385560D01*
X145247641Y-76257639D01*
X145250554Y-76148380D01*
X145254015Y-76056021D01*
X145258090Y-75978800D01*
X145262849Y-75914954D01*
X145268360Y-75862722D01*
X145274691Y-75820340D01*
X145281910Y-75786047D01*
X145290085Y-75758080D01*
X145299285Y-75734676D01*
X145309577Y-75714075D01*
X145321031Y-75694513D01*
X145333715Y-75674228D01*
X145347695Y-75651457D01*
X145350561Y-75646607D01*
X145398640Y-75564567D01*
X144008928Y-75574071D01*
X143999857Y-75726705D01*
X143994918Y-75799955D01*
X143989771Y-75842304D01*
X143982786Y-75859108D01*
X143972337Y-75855723D01*
X143963571Y-75846040D01*
X143925388Y-75810771D01*
X143863155Y-75765437D01*
X143785641Y-75715454D01*
X143701613Y-75666239D01*
X143619839Y-75623209D01*
X143557052Y-75594899D01*
X143409954Y-75548376D01*
X143241180Y-75515421D01*
X143063191Y-75497293D01*
X142888447Y-75495250D01*
X142729407Y-75510553D01*
X142726788Y-75510991D01*
X142509168Y-75565598D01*
X142305455Y-75652599D01*
X142117613Y-75770124D01*
X141947607Y-75916303D01*
X141797402Y-76089266D01*
X141668964Y-76287143D01*
X141564257Y-76508064D01*
X141507246Y-76671714D01*
X141469651Y-76808625D01*
X141441771Y-76941202D01*
X141422753Y-77077498D01*
X141411745Y-77225567D01*
X141407895Y-77393463D01*
X141409600Y-77530560D01*
X142748359Y-77530560D01*
X142754694Y-77300671D01*
X142774679Y-77102889D01*
X142808927Y-76935461D01*
X142858055Y-76796631D01*
X142922676Y-76684642D01*
X143003405Y-76597741D01*
X143096591Y-76536308D01*
X143145080Y-76513374D01*
X143187134Y-76499625D01*
X143234020Y-76493334D01*
X143297004Y-76492778D01*
X143364857Y-76495227D01*
X143498295Y-76506996D01*
X143603832Y-76530045D01*
X143637000Y-76541590D01*
X143712735Y-76575689D01*
X143792614Y-76618509D01*
X143827500Y-76639943D01*
X143918214Y-76699444D01*
X143918214Y-78585416D01*
X143818428Y-78645229D01*
X143679267Y-78712815D01*
X143537087Y-78752786D01*
X143397090Y-78765378D01*
X143264474Y-78750827D01*
X143144440Y-78709368D01*
X143042188Y-78641237D01*
X143009195Y-78608534D01*
X142929667Y-78501381D01*
X142865299Y-78371673D01*
X142815553Y-78217186D01*
X142779891Y-78035698D01*
X142757775Y-77824985D01*
X142748667Y-77582825D01*
X142748359Y-77530560D01*
X141409600Y-77530560D01*
X141410310Y-77587626D01*
X141425605Y-77886287D01*
X141456358Y-78155675D01*
X141503381Y-78399715D01*
X141567482Y-78622330D01*
X141649472Y-78827444D01*
X141678730Y-78888254D01*
X141796581Y-79086560D01*
X141938996Y-79262788D01*
X142102629Y-79414092D01*
X142284131Y-79537629D01*
X142480153Y-79630553D01*
X142597655Y-79668885D01*
X142713054Y-79691641D01*
X142851907Y-79705180D01*
X143002574Y-79709508D01*
X143153413Y-79704632D01*
X143292785Y-79690556D01*
X143404691Y-79668475D01*
X143537884Y-79625172D01*
X143666979Y-79569489D01*
X143779928Y-79507064D01*
X143840043Y-79464697D01*
X143881510Y-79433193D01*
X143910545Y-79414010D01*
X143917150Y-79411286D01*
X143919198Y-79428837D01*
X143921107Y-79479125D01*
X143922836Y-79558600D01*
X143924341Y-79663714D01*
X143925581Y-79790917D01*
X143926513Y-79936661D01*
X143927095Y-80097397D01*
X143927286Y-80261116D01*
X143927179Y-80470812D01*
X143926658Y-80647604D01*
X143925416Y-80794874D01*
X143923148Y-80916003D01*
X143919550Y-81014373D01*
X143914317Y-81093366D01*
X143907144Y-81156362D01*
X143897726Y-81206745D01*
X143885758Y-81247895D01*
X143870935Y-81283194D01*
X143852952Y-81316023D01*
X143831505Y-81349765D01*
X143828745Y-81353943D01*
X143801083Y-81397644D01*
X143784382Y-81427695D01*
X143782143Y-81434033D01*
X143799643Y-81436033D01*
X143849574Y-81437660D01*
X143928085Y-81438888D01*
X144031323Y-81439689D01*
X144155436Y-81440039D01*
X144296571Y-81439911D01*
G37*
X144296571Y-81439911D02*
X144450876Y-81439277D01*
X144503321Y-81438958D01*
X145224500Y-81434214D01*
X145233571Y-78667428D01*
X145234769Y-78292244D01*
X145235832Y-77951583D01*
X145236827Y-77643682D01*
X145237823Y-77366779D01*
X145238888Y-77119112D01*
X145240091Y-76898919D01*
X145241499Y-76704438D01*
X145243182Y-76533906D01*
X145245206Y-76385560D01*
X145247641Y-76257639D01*
X145250554Y-76148380D01*
X145254015Y-76056021D01*
X145258090Y-75978800D01*
X145262849Y-75914954D01*
X145268360Y-75862722D01*
X145274691Y-75820340D01*
X145281910Y-75786047D01*
X145290085Y-75758080D01*
X145299285Y-75734676D01*
X145309577Y-75714075D01*
X145321031Y-75694513D01*
X145333715Y-75674228D01*
X145347695Y-75651457D01*
X145350561Y-75646607D01*
X145398640Y-75564567D01*
X144008928Y-75574071D01*
X143999857Y-75726705D01*
X143994918Y-75799955D01*
X143989771Y-75842304D01*
X143982786Y-75859108D01*
X143972337Y-75855723D01*
X143963571Y-75846040D01*
X143925388Y-75810771D01*
X143863155Y-75765437D01*
X143785641Y-75715454D01*
X143701613Y-75666239D01*
X143619839Y-75623209D01*
X143557052Y-75594899D01*
X143409954Y-75548376D01*
X143241180Y-75515421D01*
X143063191Y-75497293D01*
X142888447Y-75495250D01*
X142729407Y-75510553D01*
X142726788Y-75510991D01*
X142509168Y-75565598D01*
X142305455Y-75652599D01*
X142117613Y-75770124D01*
X141947607Y-75916303D01*
X141797402Y-76089266D01*
X141668964Y-76287143D01*
X141564257Y-76508064D01*
X141507246Y-76671714D01*
X141469651Y-76808625D01*
X141441771Y-76941202D01*
X141422753Y-77077498D01*
X141411745Y-77225567D01*
X141407895Y-77393463D01*
X141409600Y-77530560D01*
X142748359Y-77530560D01*
X142754694Y-77300671D01*
X142774679Y-77102889D01*
X142808927Y-76935461D01*
X142858055Y-76796631D01*
X142922676Y-76684642D01*
X143003405Y-76597741D01*
X143096591Y-76536308D01*
X143145080Y-76513374D01*
X143187134Y-76499625D01*
X143234020Y-76493334D01*
X143297004Y-76492778D01*
X143364857Y-76495227D01*
X143498295Y-76506996D01*
X143603832Y-76530045D01*
X143637000Y-76541590D01*
X143712735Y-76575689D01*
X143792614Y-76618509D01*
X143827500Y-76639943D01*
X143918214Y-76699444D01*
X143918214Y-78585416D01*
X143818428Y-78645229D01*
X143679267Y-78712815D01*
X143537087Y-78752786D01*
X143397090Y-78765378D01*
X143264474Y-78750827D01*
X143144440Y-78709368D01*
X143042188Y-78641237D01*
X143009195Y-78608534D01*
X142929667Y-78501381D01*
X142865299Y-78371673D01*
X142815553Y-78217186D01*
X142779891Y-78035698D01*
X142757775Y-77824985D01*
X142748667Y-77582825D01*
X142748359Y-77530560D01*
X141409600Y-77530560D01*
X141410310Y-77587626D01*
X141425605Y-77886287D01*
X141456358Y-78155675D01*
X141503381Y-78399715D01*
X141567482Y-78622330D01*
X141649472Y-78827444D01*
X141678730Y-78888254D01*
X141796581Y-79086560D01*
X141938996Y-79262788D01*
X142102629Y-79414092D01*
X142284131Y-79537629D01*
X142480153Y-79630553D01*
X142597655Y-79668885D01*
X142713054Y-79691641D01*
X142851907Y-79705180D01*
X143002574Y-79709508D01*
X143153413Y-79704632D01*
X143292785Y-79690556D01*
X143404691Y-79668475D01*
X143537884Y-79625172D01*
X143666979Y-79569489D01*
X143779928Y-79507064D01*
X143840043Y-79464697D01*
X143881510Y-79433193D01*
X143910545Y-79414010D01*
X143917150Y-79411286D01*
X143919198Y-79428837D01*
X143921107Y-79479125D01*
X143922836Y-79558600D01*
X143924341Y-79663714D01*
X143925581Y-79790917D01*
X143926513Y-79936661D01*
X143927095Y-80097397D01*
X143927286Y-80261116D01*
X143927179Y-80470812D01*
X143926658Y-80647604D01*
X143925416Y-80794874D01*
X143923148Y-80916003D01*
X143919550Y-81014373D01*
X143914317Y-81093366D01*
X143907144Y-81156362D01*
X143897726Y-81206745D01*
X143885758Y-81247895D01*
X143870935Y-81283194D01*
X143852952Y-81316023D01*
X143831505Y-81349765D01*
X143828745Y-81353943D01*
X143801083Y-81397644D01*
X143784382Y-81427695D01*
X143782143Y-81434033D01*
X143799643Y-81436033D01*
X143849574Y-81437660D01*
X143928085Y-81438888D01*
X144031323Y-81439689D01*
X144155436Y-81440039D01*
X144296571Y-81439911D01*
G36*
X131652682Y-82656067D02*
G01*
X131788929Y-82608828D01*
X131915779Y-82534473D01*
X132029067Y-82433013D01*
X132124628Y-82304457D01*
X132167554Y-82223428D01*
X132204705Y-82110092D01*
X132222712Y-81979249D01*
X132220717Y-81844735D01*
X132198577Y-81722842D01*
X132138064Y-81573893D01*
X132050314Y-81444691D01*
X131939788Y-81337777D01*
X131810946Y-81255694D01*
X131668247Y-81200984D01*
X131516151Y-81176190D01*
X131359119Y-81183853D01*
X131281714Y-81200228D01*
X131130859Y-81258911D01*
X130996875Y-81348457D01*
X130882994Y-81466107D01*
X130792448Y-81609098D01*
X130784788Y-81624714D01*
X130758306Y-81683314D01*
X130741678Y-81732666D01*
X130732650Y-81784730D01*
X130728968Y-81851461D01*
X130728357Y-81924071D01*
X130729367Y-82011309D01*
X130733928Y-82074376D01*
X130744334Y-82125364D01*
X130762879Y-82176367D01*
X130785770Y-82226687D01*
X130871154Y-82369530D01*
X130976301Y-82485190D01*
X131097045Y-82573675D01*
X131229221Y-82634995D01*
X131368663Y-82669161D01*
X131511205Y-82676182D01*
X131652682Y-82656067D01*
G37*
X131652682Y-82656067D02*
X131788929Y-82608828D01*
X131915779Y-82534473D01*
X132029067Y-82433013D01*
X132124628Y-82304457D01*
X132167554Y-82223428D01*
X132204705Y-82110092D01*
X132222712Y-81979249D01*
X132220717Y-81844735D01*
X132198577Y-81722842D01*
X132138064Y-81573893D01*
X132050314Y-81444691D01*
X131939788Y-81337777D01*
X131810946Y-81255694D01*
X131668247Y-81200984D01*
X131516151Y-81176190D01*
X131359119Y-81183853D01*
X131281714Y-81200228D01*
X131130859Y-81258911D01*
X130996875Y-81348457D01*
X130882994Y-81466107D01*
X130792448Y-81609098D01*
X130784788Y-81624714D01*
X130758306Y-81683314D01*
X130741678Y-81732666D01*
X130732650Y-81784730D01*
X130728968Y-81851461D01*
X130728357Y-81924071D01*
X130729367Y-82011309D01*
X130733928Y-82074376D01*
X130744334Y-82125364D01*
X130762879Y-82176367D01*
X130785770Y-82226687D01*
X130871154Y-82369530D01*
X130976301Y-82485190D01*
X131097045Y-82573675D01*
X131229221Y-82634995D01*
X131368663Y-82669161D01*
X131511205Y-82676182D01*
X131652682Y-82656067D01*
G36*
X143722859Y-74126312D02*
G01*
X143764635Y-74096699D01*
X143801525Y-74059808D01*
X143801525Y-73647838D01*
X143801429Y-73525514D01*
X143800972Y-73429602D01*
X143799903Y-73356456D01*
X143797971Y-73302430D01*
X143794923Y-73263877D01*
X143790509Y-73237152D01*
X143784476Y-73218606D01*
X143776574Y-73204595D01*
X143770375Y-73196267D01*
X143729461Y-73163551D01*
X143682482Y-73160000D01*
X143639544Y-73180063D01*
X143625356Y-73191908D01*
X143615872Y-73207642D01*
X143610151Y-73232978D01*
X143607253Y-73273630D01*
X143606238Y-73335312D01*
X143606141Y-73382962D01*
X143606141Y-73562465D01*
X142944839Y-73562465D01*
X142944839Y-73399167D01*
X142944155Y-73324495D01*
X142941419Y-73273176D01*
X142935604Y-73238523D01*
X142925684Y-73213845D01*
X142913689Y-73196267D01*
X142872546Y-73163643D01*
X142826017Y-73159780D01*
X142781473Y-73182968D01*
X142769312Y-73195124D01*
X142760723Y-73211239D01*
X142755058Y-73236340D01*
X142751669Y-73275456D01*
X142749908Y-73333614D01*
X142749128Y-73415842D01*
X142749036Y-73434714D01*
X142748392Y-73589643D01*
X142748060Y-73717326D01*
X142748168Y-73820573D01*
X142748845Y-73902197D01*
X142750218Y-73965008D01*
X142752416Y-74011819D01*
X142755566Y-74045441D01*
X142759798Y-74068685D01*
X142765238Y-74084364D01*
X142772015Y-74095289D01*
X142779514Y-74103530D01*
X142821933Y-74129893D01*
X142866172Y-74126312D01*
X142907948Y-74096699D01*
X142924853Y-74077593D01*
X142935629Y-74056489D01*
X142941641Y-74026432D01*
X142944256Y-73980467D01*
X142944839Y-73911640D01*
X142944839Y-73757850D01*
X143606141Y-73757850D01*
X143606141Y-73915661D01*
X143606816Y-73988364D01*
X143609526Y-74037455D01*
X143615301Y-74069364D01*
X143625169Y-74090522D01*
X143636200Y-74103530D01*
X143678619Y-74129893D01*
X143722859Y-74126312D01*
G37*
X143722859Y-74126312D02*
X143764635Y-74096699D01*
X143801525Y-74059808D01*
X143801525Y-73647838D01*
X143801429Y-73525514D01*
X143800972Y-73429602D01*
X143799903Y-73356456D01*
X143797971Y-73302430D01*
X143794923Y-73263877D01*
X143790509Y-73237152D01*
X143784476Y-73218606D01*
X143776574Y-73204595D01*
X143770375Y-73196267D01*
X143729461Y-73163551D01*
X143682482Y-73160000D01*
X143639544Y-73180063D01*
X143625356Y-73191908D01*
X143615872Y-73207642D01*
X143610151Y-73232978D01*
X143607253Y-73273630D01*
X143606238Y-73335312D01*
X143606141Y-73382962D01*
X143606141Y-73562465D01*
X142944839Y-73562465D01*
X142944839Y-73399167D01*
X142944155Y-73324495D01*
X142941419Y-73273176D01*
X142935604Y-73238523D01*
X142925684Y-73213845D01*
X142913689Y-73196267D01*
X142872546Y-73163643D01*
X142826017Y-73159780D01*
X142781473Y-73182968D01*
X142769312Y-73195124D01*
X142760723Y-73211239D01*
X142755058Y-73236340D01*
X142751669Y-73275456D01*
X142749908Y-73333614D01*
X142749128Y-73415842D01*
X142749036Y-73434714D01*
X142748392Y-73589643D01*
X142748060Y-73717326D01*
X142748168Y-73820573D01*
X142748845Y-73902197D01*
X142750218Y-73965008D01*
X142752416Y-74011819D01*
X142755566Y-74045441D01*
X142759798Y-74068685D01*
X142765238Y-74084364D01*
X142772015Y-74095289D01*
X142779514Y-74103530D01*
X142821933Y-74129893D01*
X142866172Y-74126312D01*
X142907948Y-74096699D01*
X142924853Y-74077593D01*
X142935629Y-74056489D01*
X142941641Y-74026432D01*
X142944256Y-73980467D01*
X142944839Y-73911640D01*
X142944839Y-73757850D01*
X143606141Y-73757850D01*
X143606141Y-73915661D01*
X143606816Y-73988364D01*
X143609526Y-74037455D01*
X143615301Y-74069364D01*
X143625169Y-74090522D01*
X143636200Y-74103530D01*
X143678619Y-74129893D01*
X143722859Y-74126312D01*
G36*
X142037677Y-74133461D02*
G01*
X142142465Y-74132957D01*
X142223799Y-74131904D01*
X142284980Y-74130124D01*
X142329311Y-74127443D01*
X142360094Y-74123686D01*
X142380631Y-74118675D01*
X142394225Y-74112237D01*
X142400803Y-74107288D01*
X142434944Y-74063971D01*
X142439074Y-74018997D01*
X142417976Y-73978140D01*
X142404179Y-73961814D01*
X142389332Y-73950682D01*
X142367815Y-73943750D01*
X142334008Y-73940023D01*
X142282292Y-73938506D01*
X142207047Y-73938206D01*
X142192269Y-73938205D01*
X141997975Y-73938205D01*
X141997975Y-73577495D01*
X141997847Y-73463799D01*
X141997266Y-73376315D01*
X141995936Y-73311198D01*
X141993560Y-73264602D01*
X141989844Y-73232681D01*
X141984492Y-73211588D01*
X141977207Y-73197477D01*
X141967916Y-73186726D01*
X141924071Y-73160304D01*
X141878300Y-73162386D01*
X141836790Y-73192531D01*
X141833741Y-73196267D01*
X141823812Y-73210390D01*
X141816248Y-73226914D01*
X141810729Y-73249854D01*
X141806933Y-73283227D01*
X141804542Y-73331045D01*
X141803234Y-73397326D01*
X141802691Y-73486082D01*
X141802591Y-73587037D01*
X141802591Y-73938205D01*
X141617050Y-73938205D01*
X141537427Y-73938744D01*
X141482304Y-73940843D01*
X141446132Y-73945229D01*
X141423362Y-73952624D01*
X141408447Y-73963755D01*
X141406636Y-73965690D01*
X141384858Y-74009943D01*
X141386784Y-74059971D01*
X141411821Y-74103530D01*
X141421504Y-74111980D01*
X141433988Y-74118679D01*
X141452603Y-74123831D01*
X141480677Y-74127639D01*
X141521541Y-74130303D01*
X141578522Y-74132028D01*
X141654952Y-74133016D01*
X141754157Y-74133468D01*
X141879469Y-74133588D01*
X141906133Y-74133590D01*
X142037677Y-74133461D01*
G37*
X142037677Y-74133461D02*
X142142465Y-74132957D01*
X142223799Y-74131904D01*
X142284980Y-74130124D01*
X142329311Y-74127443D01*
X142360094Y-74123686D01*
X142380631Y-74118675D01*
X142394225Y-74112237D01*
X142400803Y-74107288D01*
X142434944Y-74063971D01*
X142439074Y-74018997D01*
X142417976Y-73978140D01*
X142404179Y-73961814D01*
X142389332Y-73950682D01*
X142367815Y-73943750D01*
X142334008Y-73940023D01*
X142282292Y-73938506D01*
X142207047Y-73938206D01*
X142192269Y-73938205D01*
X141997975Y-73938205D01*
X141997975Y-73577495D01*
X141997847Y-73463799D01*
X141997266Y-73376315D01*
X141995936Y-73311198D01*
X141993560Y-73264602D01*
X141989844Y-73232681D01*
X141984492Y-73211588D01*
X141977207Y-73197477D01*
X141967916Y-73186726D01*
X141924071Y-73160304D01*
X141878300Y-73162386D01*
X141836790Y-73192531D01*
X141833741Y-73196267D01*
X141823812Y-73210390D01*
X141816248Y-73226914D01*
X141810729Y-73249854D01*
X141806933Y-73283227D01*
X141804542Y-73331045D01*
X141803234Y-73397326D01*
X141802691Y-73486082D01*
X141802591Y-73587037D01*
X141802591Y-73938205D01*
X141617050Y-73938205D01*
X141537427Y-73938744D01*
X141482304Y-73940843D01*
X141446132Y-73945229D01*
X141423362Y-73952624D01*
X141408447Y-73963755D01*
X141406636Y-73965690D01*
X141384858Y-74009943D01*
X141386784Y-74059971D01*
X141411821Y-74103530D01*
X141421504Y-74111980D01*
X141433988Y-74118679D01*
X141452603Y-74123831D01*
X141480677Y-74127639D01*
X141521541Y-74130303D01*
X141578522Y-74132028D01*
X141654952Y-74133016D01*
X141754157Y-74133468D01*
X141879469Y-74133588D01*
X141906133Y-74133590D01*
X142037677Y-74133461D01*
G36*
X141006604Y-74124523D02*
G01*
X141038174Y-74104858D01*
X141073656Y-74076127D01*
X141073656Y-73648034D01*
X141073543Y-73522810D01*
X141073059Y-73424153D01*
X141071986Y-73348570D01*
X141070108Y-73292567D01*
X141067206Y-73252653D01*
X141063063Y-73225334D01*
X141057462Y-73207119D01*
X141050185Y-73194514D01*
X141045024Y-73188304D01*
X141003168Y-73161020D01*
X140955505Y-73162133D01*
X140913753Y-73185398D01*
X140878271Y-73214129D01*
X140878271Y-74076127D01*
X140913753Y-74104858D01*
X140947998Y-74125758D01*
X140975963Y-74133590D01*
X141006604Y-74124523D01*
G37*
X141006604Y-74124523D02*
X141038174Y-74104858D01*
X141073656Y-74076127D01*
X141073656Y-73648034D01*
X141073543Y-73522810D01*
X141073059Y-73424153D01*
X141071986Y-73348570D01*
X141070108Y-73292567D01*
X141067206Y-73252653D01*
X141063063Y-73225334D01*
X141057462Y-73207119D01*
X141050185Y-73194514D01*
X141045024Y-73188304D01*
X141003168Y-73161020D01*
X140955505Y-73162133D01*
X140913753Y-73185398D01*
X140878271Y-73214129D01*
X140878271Y-74076127D01*
X140913753Y-74104858D01*
X140947998Y-74125758D01*
X140975963Y-74133590D01*
X141006604Y-74124523D01*
G36*
X140415547Y-74130970D02*
G01*
X140441628Y-74121650D01*
X140442634Y-74121194D01*
X140478052Y-74094166D01*
X140497566Y-74066364D01*
X140501384Y-74053328D01*
X140501195Y-74036008D01*
X140495822Y-74011333D01*
X140484088Y-73976236D01*
X140464813Y-73927647D01*
X140436822Y-73862498D01*
X140398936Y-73777719D01*
X140349978Y-73670241D01*
X140323031Y-73611497D01*
X140274370Y-73506627D01*
X140228690Y-73410186D01*
X140187734Y-73325702D01*
X140153246Y-73256700D01*
X140126969Y-73206706D01*
X140110646Y-73179246D01*
X140107416Y-73175453D01*
X140066089Y-73158720D01*
X140019409Y-73160961D01*
X139981970Y-73181313D01*
X139980444Y-73182968D01*
X139965551Y-73205514D01*
X139940569Y-73249429D01*
X139908579Y-73309060D01*
X139872660Y-73378754D01*
X139859752Y-73404437D01*
X139762314Y-73599603D01*
X139656106Y-73387593D01*
X139618197Y-73314339D01*
X139583027Y-73250810D01*
X139553468Y-73201869D01*
X139532394Y-73172378D01*
X139525252Y-73166124D01*
X139469738Y-73157655D01*
X139423929Y-73175453D01*
X139410454Y-73194475D01*
X139387136Y-73236751D01*
X139355877Y-73298120D01*
X139318580Y-73374424D01*
X139277146Y-73461501D01*
X139233478Y-73555193D01*
X139189478Y-73651339D01*
X139147048Y-73745779D01*
X139108090Y-73834355D01*
X139074507Y-73912904D01*
X139048201Y-73977269D01*
X139031074Y-74023289D01*
X139025029Y-74046803D01*
X139025091Y-74047655D01*
X139039800Y-74077244D01*
X139069202Y-74107380D01*
X139070933Y-74108692D01*
X139107070Y-74129118D01*
X139140494Y-74128920D01*
X139153022Y-74125069D01*
X139168287Y-74116747D01*
X139184498Y-74100375D01*
X139203599Y-74072558D01*
X139227535Y-74029900D01*
X139258251Y-73969005D01*
X139297691Y-73886475D01*
X139333258Y-73810293D01*
X139374177Y-73721986D01*
X139410844Y-73642574D01*
X139441354Y-73576204D01*
X139463802Y-73527025D01*
X139476283Y-73499187D01*
X139478103Y-73494832D01*
X139486290Y-73501951D01*
X139505105Y-73531759D01*
X139532046Y-73579904D01*
X139564608Y-73642037D01*
X139577566Y-73667672D01*
X139621460Y-73754235D01*
X139655311Y-73817275D01*
X139681897Y-73860458D01*
X139703995Y-73887448D01*
X139724384Y-73901912D01*
X139745840Y-73907513D01*
X139759823Y-73908146D01*
X139784488Y-73905960D01*
X139806102Y-73896921D01*
X139827578Y-73877303D01*
X139851830Y-73843383D01*
X139881770Y-73791438D01*
X139920313Y-73717742D01*
X139941578Y-73675820D01*
X139976072Y-73609006D01*
X140006156Y-73553599D01*
X140029177Y-73514273D01*
X140042480Y-73495704D01*
X140044289Y-73494931D01*
X140052880Y-73509545D01*
X140072114Y-73547493D01*
X140100065Y-73604804D01*
X140134807Y-73677504D01*
X140174413Y-73761624D01*
X140193896Y-73803406D01*
X140244580Y-73911237D01*
X140285393Y-73994210D01*
X140318454Y-74055034D01*
X140345881Y-74096415D01*
X140369792Y-74121060D01*
X140392308Y-74131676D01*
X140415547Y-74130970D01*
G37*
X140415547Y-74130970D02*
X140441628Y-74121650D01*
X140442634Y-74121194D01*
X140478052Y-74094166D01*
X140497566Y-74066364D01*
X140501384Y-74053328D01*
X140501195Y-74036008D01*
X140495822Y-74011333D01*
X140484088Y-73976236D01*
X140464813Y-73927647D01*
X140436822Y-73862498D01*
X140398936Y-73777719D01*
X140349978Y-73670241D01*
X140323031Y-73611497D01*
X140274370Y-73506627D01*
X140228690Y-73410186D01*
X140187734Y-73325702D01*
X140153246Y-73256700D01*
X140126969Y-73206706D01*
X140110646Y-73179246D01*
X140107416Y-73175453D01*
X140066089Y-73158720D01*
X140019409Y-73160961D01*
X139981970Y-73181313D01*
X139980444Y-73182968D01*
X139965551Y-73205514D01*
X139940569Y-73249429D01*
X139908579Y-73309060D01*
X139872660Y-73378754D01*
X139859752Y-73404437D01*
X139762314Y-73599603D01*
X139656106Y-73387593D01*
X139618197Y-73314339D01*
X139583027Y-73250810D01*
X139553468Y-73201869D01*
X139532394Y-73172378D01*
X139525252Y-73166124D01*
X139469738Y-73157655D01*
X139423929Y-73175453D01*
X139410454Y-73194475D01*
X139387136Y-73236751D01*
X139355877Y-73298120D01*
X139318580Y-73374424D01*
X139277146Y-73461501D01*
X139233478Y-73555193D01*
X139189478Y-73651339D01*
X139147048Y-73745779D01*
X139108090Y-73834355D01*
X139074507Y-73912904D01*
X139048201Y-73977269D01*
X139031074Y-74023289D01*
X139025029Y-74046803D01*
X139025091Y-74047655D01*
X139039800Y-74077244D01*
X139069202Y-74107380D01*
X139070933Y-74108692D01*
X139107070Y-74129118D01*
X139140494Y-74128920D01*
X139153022Y-74125069D01*
X139168287Y-74116747D01*
X139184498Y-74100375D01*
X139203599Y-74072558D01*
X139227535Y-74029900D01*
X139258251Y-73969005D01*
X139297691Y-73886475D01*
X139333258Y-73810293D01*
X139374177Y-73721986D01*
X139410844Y-73642574D01*
X139441354Y-73576204D01*
X139463802Y-73527025D01*
X139476283Y-73499187D01*
X139478103Y-73494832D01*
X139486290Y-73501951D01*
X139505105Y-73531759D01*
X139532046Y-73579904D01*
X139564608Y-73642037D01*
X139577566Y-73667672D01*
X139621460Y-73754235D01*
X139655311Y-73817275D01*
X139681897Y-73860458D01*
X139703995Y-73887448D01*
X139724384Y-73901912D01*
X139745840Y-73907513D01*
X139759823Y-73908146D01*
X139784488Y-73905960D01*
X139806102Y-73896921D01*
X139827578Y-73877303D01*
X139851830Y-73843383D01*
X139881770Y-73791438D01*
X139920313Y-73717742D01*
X139941578Y-73675820D01*
X139976072Y-73609006D01*
X140006156Y-73553599D01*
X140029177Y-73514273D01*
X140042480Y-73495704D01*
X140044289Y-73494931D01*
X140052880Y-73509545D01*
X140072114Y-73547493D01*
X140100065Y-73604804D01*
X140134807Y-73677504D01*
X140174413Y-73761624D01*
X140193896Y-73803406D01*
X140244580Y-73911237D01*
X140285393Y-73994210D01*
X140318454Y-74055034D01*
X140345881Y-74096415D01*
X140369792Y-74121060D01*
X140392308Y-74131676D01*
X140415547Y-74130970D01*
G36*
X136785783Y-74133313D02*
G01*
X136957501Y-74127507D01*
X137103555Y-74109899D01*
X137226353Y-74079437D01*
X137328303Y-74035065D01*
X137411814Y-73975729D01*
X137479293Y-73900376D01*
X137533149Y-73807950D01*
X137534208Y-73805696D01*
X137566349Y-73722976D01*
X137577801Y-73649716D01*
X137568520Y-73575988D01*
X137538461Y-73491865D01*
X137532761Y-73479063D01*
X137493885Y-73404138D01*
X137450195Y-73346243D01*
X137393806Y-73297028D01*
X137316838Y-73248143D01*
X137312366Y-73245591D01*
X137245363Y-73213405D01*
X137169631Y-73189368D01*
X137080304Y-73172649D01*
X136972515Y-73162421D01*
X136841398Y-73157854D01*
X136795072Y-73157457D01*
X136574476Y-73156666D01*
X136543326Y-73196267D01*
X136534086Y-73209289D01*
X136526878Y-73224496D01*
X136521450Y-73245534D01*
X136517551Y-73276050D01*
X136514929Y-73319689D01*
X136514074Y-73352051D01*
X136722591Y-73352051D01*
X136847582Y-73352051D01*
X136920723Y-73354190D01*
X136995807Y-73359819D01*
X137057430Y-73367757D01*
X137061149Y-73368425D01*
X137170599Y-73397788D01*
X137255494Y-73441903D01*
X137318518Y-73502817D01*
X137362360Y-73582576D01*
X137369983Y-73603716D01*
X137377456Y-73636638D01*
X137374221Y-73669164D01*
X137358479Y-73712436D01*
X137348990Y-73733693D01*
X137317917Y-73790180D01*
X137280479Y-73829809D01*
X137239287Y-73857406D01*
X137156776Y-73893318D01*
X137051179Y-73919332D01*
X136928164Y-73934312D01*
X136839070Y-73937608D01*
X136722591Y-73938205D01*
X136722591Y-73352051D01*
X136514074Y-73352051D01*
X136513332Y-73380100D01*
X136512510Y-73460928D01*
X136512210Y-73565819D01*
X136512176Y-73647838D01*
X136512176Y-74059808D01*
X136549067Y-74096699D01*
X136565440Y-74111652D01*
X136583143Y-74121892D01*
X136607865Y-74128299D01*
X136645294Y-74131753D01*
X136701119Y-74133133D01*
X136781028Y-74133319D01*
X136785783Y-74133313D01*
G37*
X136785783Y-74133313D02*
X136957501Y-74127507D01*
X137103555Y-74109899D01*
X137226353Y-74079437D01*
X137328303Y-74035065D01*
X137411814Y-73975729D01*
X137479293Y-73900376D01*
X137533149Y-73807950D01*
X137534208Y-73805696D01*
X137566349Y-73722976D01*
X137577801Y-73649716D01*
X137568520Y-73575988D01*
X137538461Y-73491865D01*
X137532761Y-73479063D01*
X137493885Y-73404138D01*
X137450195Y-73346243D01*
X137393806Y-73297028D01*
X137316838Y-73248143D01*
X137312366Y-73245591D01*
X137245363Y-73213405D01*
X137169631Y-73189368D01*
X137080304Y-73172649D01*
X136972515Y-73162421D01*
X136841398Y-73157854D01*
X136795072Y-73157457D01*
X136574476Y-73156666D01*
X136543326Y-73196267D01*
X136534086Y-73209289D01*
X136526878Y-73224496D01*
X136521450Y-73245534D01*
X136517551Y-73276050D01*
X136514929Y-73319689D01*
X136514074Y-73352051D01*
X136722591Y-73352051D01*
X136847582Y-73352051D01*
X136920723Y-73354190D01*
X136995807Y-73359819D01*
X137057430Y-73367757D01*
X137061149Y-73368425D01*
X137170599Y-73397788D01*
X137255494Y-73441903D01*
X137318518Y-73502817D01*
X137362360Y-73582576D01*
X137369983Y-73603716D01*
X137377456Y-73636638D01*
X137374221Y-73669164D01*
X137358479Y-73712436D01*
X137348990Y-73733693D01*
X137317917Y-73790180D01*
X137280479Y-73829809D01*
X137239287Y-73857406D01*
X137156776Y-73893318D01*
X137051179Y-73919332D01*
X136928164Y-73934312D01*
X136839070Y-73937608D01*
X136722591Y-73938205D01*
X136722591Y-73352051D01*
X136514074Y-73352051D01*
X136513332Y-73380100D01*
X136512510Y-73460928D01*
X136512210Y-73565819D01*
X136512176Y-73647838D01*
X136512176Y-74059808D01*
X136549067Y-74096699D01*
X136565440Y-74111652D01*
X136583143Y-74121892D01*
X136607865Y-74128299D01*
X136645294Y-74131753D01*
X136701119Y-74133133D01*
X136781028Y-74133319D01*
X136785783Y-74133313D01*
G36*
X135736716Y-74133333D02*
G01*
X135838377Y-74132116D01*
X135916282Y-74129270D01*
X135973581Y-74124126D01*
X136013427Y-74116016D01*
X136038968Y-74104269D01*
X136053357Y-74088218D01*
X136059745Y-74067192D01*
X136061281Y-74040524D01*
X136061289Y-74037374D01*
X136059955Y-74007210D01*
X136053651Y-73983897D01*
X136038922Y-73966494D01*
X136012315Y-73954060D01*
X135970374Y-73945655D01*
X135909646Y-73940335D01*
X135826676Y-73937161D01*
X135718011Y-73935191D01*
X135684705Y-73934755D01*
X135362413Y-73930690D01*
X135357906Y-73844270D01*
X135353398Y-73757850D01*
X135577263Y-73757850D01*
X135664721Y-73757527D01*
X135727169Y-73756163D01*
X135769654Y-73753161D01*
X135797223Y-73747927D01*
X135814922Y-73739865D01*
X135827797Y-73728380D01*
X135827880Y-73728289D01*
X135851230Y-73683529D01*
X135850386Y-73635153D01*
X135825879Y-73593914D01*
X135821029Y-73589675D01*
X135803815Y-73578751D01*
X135780226Y-73571151D01*
X135745007Y-73566303D01*
X135692900Y-73563634D01*
X135618650Y-73562572D01*
X135571162Y-73562465D01*
X135354898Y-73562465D01*
X135354898Y-73352051D01*
X135683220Y-73352051D01*
X135791618Y-73351861D01*
X135873935Y-73351086D01*
X135934149Y-73349416D01*
X135976235Y-73346542D01*
X136004171Y-73342153D01*
X136021934Y-73335941D01*
X136033500Y-73327596D01*
X136036415Y-73324566D01*
X136057936Y-73282566D01*
X136059510Y-73234786D01*
X136041855Y-73193358D01*
X136027885Y-73180063D01*
X136013354Y-73172744D01*
X135990838Y-73167081D01*
X135956776Y-73162877D01*
X135907607Y-73159932D01*
X135839768Y-73158049D01*
X135749698Y-73157030D01*
X135633837Y-73156675D01*
X135607643Y-73156666D01*
X135489839Y-73156744D01*
X135398396Y-73157169D01*
X135329614Y-73158234D01*
X135279796Y-73160231D01*
X135245240Y-73163450D01*
X135222250Y-73168184D01*
X135207126Y-73174723D01*
X135196169Y-73183359D01*
X135190158Y-73189560D01*
X135181110Y-73200543D01*
X135174042Y-73214148D01*
X135168709Y-73233944D01*
X135164868Y-73263498D01*
X135162275Y-73306379D01*
X135160687Y-73366155D01*
X135159861Y-73446393D01*
X135159552Y-73550661D01*
X135159514Y-73638420D01*
X135159608Y-73761392D01*
X135160057Y-73857931D01*
X135161108Y-73931661D01*
X135163010Y-73986210D01*
X135166009Y-74025201D01*
X135170355Y-74052261D01*
X135176294Y-74071016D01*
X135184075Y-74085090D01*
X135190664Y-74093989D01*
X135221814Y-74133590D01*
X135608148Y-74133590D01*
X135736716Y-74133333D01*
G37*
X135736716Y-74133333D02*
X135838377Y-74132116D01*
X135916282Y-74129270D01*
X135973581Y-74124126D01*
X136013427Y-74116016D01*
X136038968Y-74104269D01*
X136053357Y-74088218D01*
X136059745Y-74067192D01*
X136061281Y-74040524D01*
X136061289Y-74037374D01*
X136059955Y-74007210D01*
X136053651Y-73983897D01*
X136038922Y-73966494D01*
X136012315Y-73954060D01*
X135970374Y-73945655D01*
X135909646Y-73940335D01*
X135826676Y-73937161D01*
X135718011Y-73935191D01*
X135684705Y-73934755D01*
X135362413Y-73930690D01*
X135357906Y-73844270D01*
X135353398Y-73757850D01*
X135577263Y-73757850D01*
X135664721Y-73757527D01*
X135727169Y-73756163D01*
X135769654Y-73753161D01*
X135797223Y-73747927D01*
X135814922Y-73739865D01*
X135827797Y-73728380D01*
X135827880Y-73728289D01*
X135851230Y-73683529D01*
X135850386Y-73635153D01*
X135825879Y-73593914D01*
X135821029Y-73589675D01*
X135803815Y-73578751D01*
X135780226Y-73571151D01*
X135745007Y-73566303D01*
X135692900Y-73563634D01*
X135618650Y-73562572D01*
X135571162Y-73562465D01*
X135354898Y-73562465D01*
X135354898Y-73352051D01*
X135683220Y-73352051D01*
X135791618Y-73351861D01*
X135873935Y-73351086D01*
X135934149Y-73349416D01*
X135976235Y-73346542D01*
X136004171Y-73342153D01*
X136021934Y-73335941D01*
X136033500Y-73327596D01*
X136036415Y-73324566D01*
X136057936Y-73282566D01*
X136059510Y-73234786D01*
X136041855Y-73193358D01*
X136027885Y-73180063D01*
X136013354Y-73172744D01*
X135990838Y-73167081D01*
X135956776Y-73162877D01*
X135907607Y-73159932D01*
X135839768Y-73158049D01*
X135749698Y-73157030D01*
X135633837Y-73156675D01*
X135607643Y-73156666D01*
X135489839Y-73156744D01*
X135398396Y-73157169D01*
X135329614Y-73158234D01*
X135279796Y-73160231D01*
X135245240Y-73163450D01*
X135222250Y-73168184D01*
X135207126Y-73174723D01*
X135196169Y-73183359D01*
X135190158Y-73189560D01*
X135181110Y-73200543D01*
X135174042Y-73214148D01*
X135168709Y-73233944D01*
X135164868Y-73263498D01*
X135162275Y-73306379D01*
X135160687Y-73366155D01*
X135159861Y-73446393D01*
X135159552Y-73550661D01*
X135159514Y-73638420D01*
X135159608Y-73761392D01*
X135160057Y-73857931D01*
X135161108Y-73931661D01*
X135163010Y-73986210D01*
X135166009Y-74025201D01*
X135170355Y-74052261D01*
X135176294Y-74071016D01*
X135184075Y-74085090D01*
X135190664Y-74093989D01*
X135221814Y-74133590D01*
X135608148Y-74133590D01*
X135736716Y-74133333D01*
G36*
X133699126Y-74127756D02*
G01*
X133730501Y-74109351D01*
X133771524Y-74079251D01*
X133824322Y-74036040D01*
X133891021Y-73978298D01*
X133973747Y-73904608D01*
X134074626Y-73813552D01*
X134190105Y-73708862D01*
X134430579Y-73490793D01*
X134438094Y-73783492D01*
X134440807Y-73884246D01*
X134443424Y-73959278D01*
X134446526Y-74012916D01*
X134450690Y-74049490D01*
X134456495Y-74073329D01*
X134464522Y-74088762D01*
X134475349Y-74100118D01*
X134481090Y-74104890D01*
X134527063Y-74130123D01*
X134570809Y-74126434D01*
X134605511Y-74104877D01*
X134640993Y-74076165D01*
X134645406Y-73656850D01*
X134646627Y-73533529D01*
X134647249Y-73436652D01*
X134647056Y-73362606D01*
X134645832Y-73307779D01*
X134643362Y-73268557D01*
X134639432Y-73241327D01*
X134633826Y-73222477D01*
X134626328Y-73208395D01*
X134618013Y-73197101D01*
X134600024Y-73176154D01*
X134582125Y-73162269D01*
X134561834Y-73156940D01*
X134536668Y-73161660D01*
X134504146Y-73177923D01*
X134461783Y-73207223D01*
X134407098Y-73251054D01*
X134337609Y-73310909D01*
X134250831Y-73388282D01*
X134152531Y-73477186D01*
X133799336Y-73797565D01*
X133791821Y-73505823D01*
X133789103Y-73405253D01*
X133786479Y-73330396D01*
X133783367Y-73276916D01*
X133779184Y-73240474D01*
X133773349Y-73216732D01*
X133765280Y-73201354D01*
X133754395Y-73190000D01*
X133748825Y-73185374D01*
X133699590Y-73159958D01*
X133653069Y-73163791D01*
X133612557Y-73196267D01*
X133603290Y-73209333D01*
X133596067Y-73224591D01*
X133590634Y-73245704D01*
X133586738Y-73276331D01*
X133584125Y-73320134D01*
X133582539Y-73380773D01*
X133581728Y-73461909D01*
X133581438Y-73567203D01*
X133581407Y-73645128D01*
X133581505Y-73767012D01*
X133581967Y-73862497D01*
X133583049Y-73935245D01*
X133585003Y-73988917D01*
X133588084Y-74027173D01*
X133592546Y-74053673D01*
X133598643Y-74072080D01*
X133606629Y-74086052D01*
X133612557Y-74093989D01*
X133627584Y-74112788D01*
X133641628Y-74126983D01*
X133656816Y-74135154D01*
X133675273Y-74135884D01*
X133699126Y-74127756D01*
G37*
X133699126Y-74127756D02*
X133730501Y-74109351D01*
X133771524Y-74079251D01*
X133824322Y-74036040D01*
X133891021Y-73978298D01*
X133973747Y-73904608D01*
X134074626Y-73813552D01*
X134190105Y-73708862D01*
X134430579Y-73490793D01*
X134438094Y-73783492D01*
X134440807Y-73884246D01*
X134443424Y-73959278D01*
X134446526Y-74012916D01*
X134450690Y-74049490D01*
X134456495Y-74073329D01*
X134464522Y-74088762D01*
X134475349Y-74100118D01*
X134481090Y-74104890D01*
X134527063Y-74130123D01*
X134570809Y-74126434D01*
X134605511Y-74104877D01*
X134640993Y-74076165D01*
X134645406Y-73656850D01*
X134646627Y-73533529D01*
X134647249Y-73436652D01*
X134647056Y-73362606D01*
X134645832Y-73307779D01*
X134643362Y-73268557D01*
X134639432Y-73241327D01*
X134633826Y-73222477D01*
X134626328Y-73208395D01*
X134618013Y-73197101D01*
X134600024Y-73176154D01*
X134582125Y-73162269D01*
X134561834Y-73156940D01*
X134536668Y-73161660D01*
X134504146Y-73177923D01*
X134461783Y-73207223D01*
X134407098Y-73251054D01*
X134337609Y-73310909D01*
X134250831Y-73388282D01*
X134152531Y-73477186D01*
X133799336Y-73797565D01*
X133791821Y-73505823D01*
X133789103Y-73405253D01*
X133786479Y-73330396D01*
X133783367Y-73276916D01*
X133779184Y-73240474D01*
X133773349Y-73216732D01*
X133765280Y-73201354D01*
X133754395Y-73190000D01*
X133748825Y-73185374D01*
X133699590Y-73159958D01*
X133653069Y-73163791D01*
X133612557Y-73196267D01*
X133603290Y-73209333D01*
X133596067Y-73224591D01*
X133590634Y-73245704D01*
X133586738Y-73276331D01*
X133584125Y-73320134D01*
X133582539Y-73380773D01*
X133581728Y-73461909D01*
X133581438Y-73567203D01*
X133581407Y-73645128D01*
X133581505Y-73767012D01*
X133581967Y-73862497D01*
X133583049Y-73935245D01*
X133585003Y-73988917D01*
X133588084Y-74027173D01*
X133592546Y-74053673D01*
X133598643Y-74072080D01*
X133606629Y-74086052D01*
X133612557Y-74093989D01*
X133627584Y-74112788D01*
X133641628Y-74126983D01*
X133656816Y-74135154D01*
X133675273Y-74135884D01*
X133699126Y-74127756D01*
G36*
X132833784Y-74126224D02*
G01*
X132925005Y-74110918D01*
X132995064Y-74087125D01*
X133040642Y-74055796D01*
X133053062Y-74037922D01*
X133065692Y-73996351D01*
X133057193Y-73958744D01*
X133030361Y-73923081D01*
X132988670Y-73906397D01*
X132928176Y-73907752D01*
X132881387Y-73916791D01*
X132777418Y-73934013D01*
X132671166Y-73935649D01*
X132552237Y-73921671D01*
X132519386Y-73915748D01*
X132408801Y-73884569D01*
X132322287Y-73838190D01*
X132260793Y-73777401D01*
X132225268Y-73702992D01*
X132217921Y-73664522D01*
X132222730Y-73586473D01*
X132253780Y-73517419D01*
X132308240Y-73458707D01*
X132383282Y-73411683D01*
X132476076Y-73377693D01*
X132583794Y-73358082D01*
X132703605Y-73354195D01*
X132832681Y-73367380D01*
X132839969Y-73368624D01*
X132891308Y-73378186D01*
X132919774Y-73387422D01*
X132932112Y-73401127D01*
X132935068Y-73424094D01*
X132935135Y-73436257D01*
X132935135Y-73487317D01*
X132843969Y-73487317D01*
X132763464Y-73492832D01*
X132708525Y-73510406D01*
X132676560Y-73541583D01*
X132664974Y-73587906D01*
X132664833Y-73593952D01*
X132671611Y-73633547D01*
X132694855Y-73661819D01*
X132738116Y-73680529D01*
X132804945Y-73691436D01*
X132869676Y-73695446D01*
X132963759Y-73697747D01*
X133032002Y-73694236D01*
X133078545Y-73681281D01*
X133107528Y-73655250D01*
X133123091Y-73612509D01*
X133129375Y-73549426D01*
X133130520Y-73466572D01*
X133128644Y-73374090D01*
X133123000Y-73311182D01*
X133113564Y-73277597D01*
X133111733Y-73274967D01*
X133059921Y-73233002D01*
X132983956Y-73199768D01*
X132888654Y-73175977D01*
X132778830Y-73162337D01*
X132659300Y-73159558D01*
X132534880Y-73168351D01*
X132461703Y-73179151D01*
X132346926Y-73211638D01*
X132240250Y-73264750D01*
X132150935Y-73333681D01*
X132137360Y-73347458D01*
X132093254Y-73405378D01*
X132053457Y-73477160D01*
X132022619Y-73552417D01*
X132005389Y-73620759D01*
X132003312Y-73647007D01*
X132012153Y-73701759D01*
X132035651Y-73769881D01*
X132069297Y-73841586D01*
X132108582Y-73907087D01*
X132143291Y-73950838D01*
X132224443Y-74015917D01*
X132329348Y-74067715D01*
X132454246Y-74105062D01*
X132595379Y-74126783D01*
X132724721Y-74132091D01*
X132833784Y-74126224D01*
G37*
X132833784Y-74126224D02*
X132925005Y-74110918D01*
X132995064Y-74087125D01*
X133040642Y-74055796D01*
X133053062Y-74037922D01*
X133065692Y-73996351D01*
X133057193Y-73958744D01*
X133030361Y-73923081D01*
X132988670Y-73906397D01*
X132928176Y-73907752D01*
X132881387Y-73916791D01*
X132777418Y-73934013D01*
X132671166Y-73935649D01*
X132552237Y-73921671D01*
X132519386Y-73915748D01*
X132408801Y-73884569D01*
X132322287Y-73838190D01*
X132260793Y-73777401D01*
X132225268Y-73702992D01*
X132217921Y-73664522D01*
X132222730Y-73586473D01*
X132253780Y-73517419D01*
X132308240Y-73458707D01*
X132383282Y-73411683D01*
X132476076Y-73377693D01*
X132583794Y-73358082D01*
X132703605Y-73354195D01*
X132832681Y-73367380D01*
X132839969Y-73368624D01*
X132891308Y-73378186D01*
X132919774Y-73387422D01*
X132932112Y-73401127D01*
X132935068Y-73424094D01*
X132935135Y-73436257D01*
X132935135Y-73487317D01*
X132843969Y-73487317D01*
X132763464Y-73492832D01*
X132708525Y-73510406D01*
X132676560Y-73541583D01*
X132664974Y-73587906D01*
X132664833Y-73593952D01*
X132671611Y-73633547D01*
X132694855Y-73661819D01*
X132738116Y-73680529D01*
X132804945Y-73691436D01*
X132869676Y-73695446D01*
X132963759Y-73697747D01*
X133032002Y-73694236D01*
X133078545Y-73681281D01*
X133107528Y-73655250D01*
X133123091Y-73612509D01*
X133129375Y-73549426D01*
X133130520Y-73466572D01*
X133128644Y-73374090D01*
X133123000Y-73311182D01*
X133113564Y-73277597D01*
X133111733Y-73274967D01*
X133059921Y-73233002D01*
X132983956Y-73199768D01*
X132888654Y-73175977D01*
X132778830Y-73162337D01*
X132659300Y-73159558D01*
X132534880Y-73168351D01*
X132461703Y-73179151D01*
X132346926Y-73211638D01*
X132240250Y-73264750D01*
X132150935Y-73333681D01*
X132137360Y-73347458D01*
X132093254Y-73405378D01*
X132053457Y-73477160D01*
X132022619Y-73552417D01*
X132005389Y-73620759D01*
X132003312Y-73647007D01*
X132012153Y-73701759D01*
X132035651Y-73769881D01*
X132069297Y-73841586D01*
X132108582Y-73907087D01*
X132143291Y-73950838D01*
X132224443Y-74015917D01*
X132329348Y-74067715D01*
X132454246Y-74105062D01*
X132595379Y-74126783D01*
X132724721Y-74132091D01*
X132833784Y-74126224D01*
G36*
X131537383Y-74103530D02*
G01*
X131546145Y-74093448D01*
X131553018Y-74080441D01*
X131558231Y-74061025D01*
X131562012Y-74031716D01*
X131564590Y-73989029D01*
X131566193Y-73929481D01*
X131567051Y-73849586D01*
X131567390Y-73745860D01*
X131567443Y-73645128D01*
X131567350Y-73520184D01*
X131566919Y-73421815D01*
X131565923Y-73346535D01*
X131564131Y-73290862D01*
X131561317Y-73251310D01*
X131557250Y-73224395D01*
X131551704Y-73206633D01*
X131544449Y-73194539D01*
X131537383Y-73186726D01*
X131493444Y-73160524D01*
X131446626Y-73162875D01*
X131404737Y-73191452D01*
X131395112Y-73202609D01*
X131387591Y-73215553D01*
X131381912Y-73233864D01*
X131377819Y-73261118D01*
X131375051Y-73300896D01*
X131373350Y-73356774D01*
X131372457Y-73432332D01*
X131372113Y-73531148D01*
X131372058Y-73643022D01*
X131372058Y-74059808D01*
X131408949Y-74096699D01*
X131454421Y-74127736D01*
X131498530Y-74128855D01*
X131537383Y-74103530D01*
G37*
X131537383Y-74103530D02*
X131546145Y-74093448D01*
X131553018Y-74080441D01*
X131558231Y-74061025D01*
X131562012Y-74031716D01*
X131564590Y-73989029D01*
X131566193Y-73929481D01*
X131567051Y-73849586D01*
X131567390Y-73745860D01*
X131567443Y-73645128D01*
X131567350Y-73520184D01*
X131566919Y-73421815D01*
X131565923Y-73346535D01*
X131564131Y-73290862D01*
X131561317Y-73251310D01*
X131557250Y-73224395D01*
X131551704Y-73206633D01*
X131544449Y-73194539D01*
X131537383Y-73186726D01*
X131493444Y-73160524D01*
X131446626Y-73162875D01*
X131404737Y-73191452D01*
X131395112Y-73202609D01*
X131387591Y-73215553D01*
X131381912Y-73233864D01*
X131377819Y-73261118D01*
X131375051Y-73300896D01*
X131373350Y-73356774D01*
X131372457Y-73432332D01*
X131372113Y-73531148D01*
X131372058Y-73643022D01*
X131372058Y-74059808D01*
X131408949Y-74096699D01*
X131454421Y-74127736D01*
X131498530Y-74128855D01*
X131537383Y-74103530D01*
G36*
X130515058Y-74131879D02*
G01*
X130614663Y-74124916D01*
X130707302Y-74114041D01*
X130787588Y-74099662D01*
X130850138Y-74082190D01*
X130889565Y-74062034D01*
X130895617Y-74056101D01*
X130916662Y-74010061D01*
X130910280Y-73962796D01*
X130877639Y-73922358D01*
X130876082Y-73921199D01*
X130856883Y-73908739D01*
X130836841Y-73902187D01*
X130808886Y-73901392D01*
X130765947Y-73906200D01*
X130700955Y-73916461D01*
X130695727Y-73917325D01*
X130598885Y-73929222D01*
X130494402Y-73935091D01*
X130389611Y-73935148D01*
X130291844Y-73929609D01*
X130208434Y-73918691D01*
X130146713Y-73902611D01*
X130142658Y-73900995D01*
X130097882Y-73875907D01*
X130082150Y-73850518D01*
X130094466Y-73825549D01*
X130133831Y-73801720D01*
X130199248Y-73779754D01*
X130289720Y-73760370D01*
X130350046Y-73751038D01*
X130475446Y-73733087D01*
X130575181Y-73716677D01*
X130653500Y-73700388D01*
X130714653Y-73682798D01*
X130762887Y-73662487D01*
X130802451Y-73638033D01*
X130837594Y-73608016D01*
X130865835Y-73578540D01*
X130899338Y-73537469D01*
X130915827Y-73502154D01*
X130920983Y-73458643D01*
X130921170Y-73442708D01*
X130917298Y-73389831D01*
X130901819Y-73350493D01*
X130875031Y-73315576D01*
X130820587Y-73262202D01*
X130759876Y-73221498D01*
X130688388Y-73192136D01*
X130601610Y-73172789D01*
X130495032Y-73162130D01*
X130364143Y-73158831D01*
X130342531Y-73158887D01*
X130255248Y-73160696D01*
X130168687Y-73164807D01*
X130092284Y-73170630D01*
X130035476Y-73177575D01*
X130030882Y-73178372D01*
X129974401Y-73191752D01*
X129926494Y-73208654D01*
X129899373Y-73224105D01*
X129874135Y-73264870D01*
X129872377Y-73312338D01*
X129894134Y-73354641D01*
X129899002Y-73359424D01*
X129919124Y-73373637D01*
X129944288Y-73379760D01*
X129983233Y-73378718D01*
X130030511Y-73373302D01*
X130083341Y-73368463D01*
X130157398Y-73364381D01*
X130243855Y-73361418D01*
X130333883Y-73359939D01*
X130357561Y-73359842D01*
X130447924Y-73360206D01*
X130514057Y-73361960D01*
X130561779Y-73365713D01*
X130596908Y-73372073D01*
X130625264Y-73381649D01*
X130642305Y-73389625D01*
X130679750Y-73411771D01*
X130703625Y-73431828D01*
X130707114Y-73437513D01*
X130699753Y-73460991D01*
X130664759Y-73483719D01*
X130604558Y-73504666D01*
X130521575Y-73522800D01*
X130497126Y-73526839D01*
X130369424Y-73546897D01*
X130267506Y-73563662D01*
X130187440Y-73578353D01*
X130125292Y-73592188D01*
X130077128Y-73606385D01*
X130039014Y-73622163D01*
X130007016Y-73640740D01*
X129977202Y-73663334D01*
X129945636Y-73691163D01*
X129935014Y-73700920D01*
X129897773Y-73737334D01*
X129878059Y-73766184D01*
X129870347Y-73799198D01*
X129869099Y-73840801D01*
X129882831Y-73922385D01*
X129923868Y-73991702D01*
X129991976Y-74048528D01*
X130086919Y-74092639D01*
X130154662Y-74112424D01*
X130228287Y-74125203D01*
X130316485Y-74132432D01*
X130413870Y-74134521D01*
X130515058Y-74131879D01*
G37*
X130515058Y-74131879D02*
X130614663Y-74124916D01*
X130707302Y-74114041D01*
X130787588Y-74099662D01*
X130850138Y-74082190D01*
X130889565Y-74062034D01*
X130895617Y-74056101D01*
X130916662Y-74010061D01*
X130910280Y-73962796D01*
X130877639Y-73922358D01*
X130876082Y-73921199D01*
X130856883Y-73908739D01*
X130836841Y-73902187D01*
X130808886Y-73901392D01*
X130765947Y-73906200D01*
X130700955Y-73916461D01*
X130695727Y-73917325D01*
X130598885Y-73929222D01*
X130494402Y-73935091D01*
X130389611Y-73935148D01*
X130291844Y-73929609D01*
X130208434Y-73918691D01*
X130146713Y-73902611D01*
X130142658Y-73900995D01*
X130097882Y-73875907D01*
X130082150Y-73850518D01*
X130094466Y-73825549D01*
X130133831Y-73801720D01*
X130199248Y-73779754D01*
X130289720Y-73760370D01*
X130350046Y-73751038D01*
X130475446Y-73733087D01*
X130575181Y-73716677D01*
X130653500Y-73700388D01*
X130714653Y-73682798D01*
X130762887Y-73662487D01*
X130802451Y-73638033D01*
X130837594Y-73608016D01*
X130865835Y-73578540D01*
X130899338Y-73537469D01*
X130915827Y-73502154D01*
X130920983Y-73458643D01*
X130921170Y-73442708D01*
X130917298Y-73389831D01*
X130901819Y-73350493D01*
X130875031Y-73315576D01*
X130820587Y-73262202D01*
X130759876Y-73221498D01*
X130688388Y-73192136D01*
X130601610Y-73172789D01*
X130495032Y-73162130D01*
X130364143Y-73158831D01*
X130342531Y-73158887D01*
X130255248Y-73160696D01*
X130168687Y-73164807D01*
X130092284Y-73170630D01*
X130035476Y-73177575D01*
X130030882Y-73178372D01*
X129974401Y-73191752D01*
X129926494Y-73208654D01*
X129899373Y-73224105D01*
X129874135Y-73264870D01*
X129872377Y-73312338D01*
X129894134Y-73354641D01*
X129899002Y-73359424D01*
X129919124Y-73373637D01*
X129944288Y-73379760D01*
X129983233Y-73378718D01*
X130030511Y-73373302D01*
X130083341Y-73368463D01*
X130157398Y-73364381D01*
X130243855Y-73361418D01*
X130333883Y-73359939D01*
X130357561Y-73359842D01*
X130447924Y-73360206D01*
X130514057Y-73361960D01*
X130561779Y-73365713D01*
X130596908Y-73372073D01*
X130625264Y-73381649D01*
X130642305Y-73389625D01*
X130679750Y-73411771D01*
X130703625Y-73431828D01*
X130707114Y-73437513D01*
X130699753Y-73460991D01*
X130664759Y-73483719D01*
X130604558Y-73504666D01*
X130521575Y-73522800D01*
X130497126Y-73526839D01*
X130369424Y-73546897D01*
X130267506Y-73563662D01*
X130187440Y-73578353D01*
X130125292Y-73592188D01*
X130077128Y-73606385D01*
X130039014Y-73622163D01*
X130007016Y-73640740D01*
X129977202Y-73663334D01*
X129945636Y-73691163D01*
X129935014Y-73700920D01*
X129897773Y-73737334D01*
X129878059Y-73766184D01*
X129870347Y-73799198D01*
X129869099Y-73840801D01*
X129882831Y-73922385D01*
X129923868Y-73991702D01*
X129991976Y-74048528D01*
X130086919Y-74092639D01*
X130154662Y-74112424D01*
X130228287Y-74125203D01*
X130316485Y-74132432D01*
X130413870Y-74134521D01*
X130515058Y-74131879D01*
G36*
X129155616Y-74133484D02*
G01*
X129248024Y-74132988D01*
X129317773Y-74131835D01*
X129368563Y-74129756D01*
X129404095Y-74126485D01*
X129428068Y-74121753D01*
X129444182Y-74115293D01*
X129456137Y-74106837D01*
X129460467Y-74102945D01*
X129486795Y-74061596D01*
X129491535Y-74014084D01*
X129474216Y-73971905D01*
X129466207Y-73963380D01*
X129453254Y-73955115D01*
X129432398Y-73948739D01*
X129399770Y-73943941D01*
X129351504Y-73940412D01*
X129283732Y-73937842D01*
X129192586Y-73935919D01*
X129109255Y-73934749D01*
X128779454Y-73930690D01*
X128770440Y-73757850D01*
X128994304Y-73757850D01*
X129091492Y-73757011D01*
X129162643Y-73753504D01*
X129211755Y-73745841D01*
X129242829Y-73732533D01*
X129259862Y-73712095D01*
X129266854Y-73683037D01*
X129267916Y-73656069D01*
X129264616Y-73622979D01*
X129252163Y-73598596D01*
X129226726Y-73581647D01*
X129184475Y-73570857D01*
X129121580Y-73564952D01*
X129034211Y-73562659D01*
X128986525Y-73562465D01*
X128771940Y-73562465D01*
X128771940Y-73352051D01*
X129102591Y-73352051D01*
X129210976Y-73351900D01*
X129293349Y-73351222D01*
X129353757Y-73349680D01*
X129396247Y-73346937D01*
X129424865Y-73342655D01*
X129443658Y-73336497D01*
X129456672Y-73328127D01*
X129463301Y-73321992D01*
X129486039Y-73286187D01*
X129493360Y-73254359D01*
X129482907Y-73215482D01*
X129463301Y-73186726D01*
X129452841Y-73177673D01*
X129439338Y-73170643D01*
X129419160Y-73165382D01*
X129388675Y-73161635D01*
X129344251Y-73159146D01*
X129282255Y-73157661D01*
X129199055Y-73156925D01*
X129091019Y-73156682D01*
X129034957Y-73156666D01*
X128914902Y-73156773D01*
X128821272Y-73157261D01*
X128750437Y-73158387D01*
X128698765Y-73160405D01*
X128662623Y-73163570D01*
X128638378Y-73168137D01*
X128622399Y-73174360D01*
X128611053Y-73182496D01*
X128606614Y-73186726D01*
X128597829Y-73196840D01*
X128590942Y-73209888D01*
X128585725Y-73229366D01*
X128581947Y-73258772D01*
X128579376Y-73301602D01*
X128577782Y-73361352D01*
X128576935Y-73441519D01*
X128576604Y-73545599D01*
X128576555Y-73642508D01*
X128576600Y-73766613D01*
X128576912Y-73864170D01*
X128577758Y-73938690D01*
X128579404Y-73993685D01*
X128582117Y-74032666D01*
X128586163Y-74059143D01*
X128591809Y-74076630D01*
X128599320Y-74088636D01*
X128608964Y-74098673D01*
X128611340Y-74100910D01*
X128622871Y-74110817D01*
X128636268Y-74118488D01*
X128655250Y-74124210D01*
X128683531Y-74128268D01*
X128724828Y-74130948D01*
X128782858Y-74132534D01*
X128861337Y-74133312D01*
X128963980Y-74133568D01*
X129036850Y-74133590D01*
X129155616Y-74133484D01*
G37*
X129155616Y-74133484D02*
X129248024Y-74132988D01*
X129317773Y-74131835D01*
X129368563Y-74129756D01*
X129404095Y-74126485D01*
X129428068Y-74121753D01*
X129444182Y-74115293D01*
X129456137Y-74106837D01*
X129460467Y-74102945D01*
X129486795Y-74061596D01*
X129491535Y-74014084D01*
X129474216Y-73971905D01*
X129466207Y-73963380D01*
X129453254Y-73955115D01*
X129432398Y-73948739D01*
X129399770Y-73943941D01*
X129351504Y-73940412D01*
X129283732Y-73937842D01*
X129192586Y-73935919D01*
X129109255Y-73934749D01*
X128779454Y-73930690D01*
X128770440Y-73757850D01*
X128994304Y-73757850D01*
X129091492Y-73757011D01*
X129162643Y-73753504D01*
X129211755Y-73745841D01*
X129242829Y-73732533D01*
X129259862Y-73712095D01*
X129266854Y-73683037D01*
X129267916Y-73656069D01*
X129264616Y-73622979D01*
X129252163Y-73598596D01*
X129226726Y-73581647D01*
X129184475Y-73570857D01*
X129121580Y-73564952D01*
X129034211Y-73562659D01*
X128986525Y-73562465D01*
X128771940Y-73562465D01*
X128771940Y-73352051D01*
X129102591Y-73352051D01*
X129210976Y-73351900D01*
X129293349Y-73351222D01*
X129353757Y-73349680D01*
X129396247Y-73346937D01*
X129424865Y-73342655D01*
X129443658Y-73336497D01*
X129456672Y-73328127D01*
X129463301Y-73321992D01*
X129486039Y-73286187D01*
X129493360Y-73254359D01*
X129482907Y-73215482D01*
X129463301Y-73186726D01*
X129452841Y-73177673D01*
X129439338Y-73170643D01*
X129419160Y-73165382D01*
X129388675Y-73161635D01*
X129344251Y-73159146D01*
X129282255Y-73157661D01*
X129199055Y-73156925D01*
X129091019Y-73156682D01*
X129034957Y-73156666D01*
X128914902Y-73156773D01*
X128821272Y-73157261D01*
X128750437Y-73158387D01*
X128698765Y-73160405D01*
X128662623Y-73163570D01*
X128638378Y-73168137D01*
X128622399Y-73174360D01*
X128611053Y-73182496D01*
X128606614Y-73186726D01*
X128597829Y-73196840D01*
X128590942Y-73209888D01*
X128585725Y-73229366D01*
X128581947Y-73258772D01*
X128579376Y-73301602D01*
X128577782Y-73361352D01*
X128576935Y-73441519D01*
X128576604Y-73545599D01*
X128576555Y-73642508D01*
X128576600Y-73766613D01*
X128576912Y-73864170D01*
X128577758Y-73938690D01*
X128579404Y-73993685D01*
X128582117Y-74032666D01*
X128586163Y-74059143D01*
X128591809Y-74076630D01*
X128599320Y-74088636D01*
X128608964Y-74098673D01*
X128611340Y-74100910D01*
X128622871Y-74110817D01*
X128636268Y-74118488D01*
X128655250Y-74124210D01*
X128683531Y-74128268D01*
X128724828Y-74130948D01*
X128782858Y-74132534D01*
X128861337Y-74133312D01*
X128963980Y-74133568D01*
X129036850Y-74133590D01*
X129155616Y-74133484D01*
G36*
X127280292Y-74133591D02*
G01*
X127332857Y-74133056D01*
X127486881Y-74129340D01*
X127615875Y-74118301D01*
X127724237Y-74098754D01*
X127816362Y-74069517D01*
X127896647Y-74029403D01*
X127969488Y-73977231D01*
X127995505Y-73954567D01*
X128038663Y-73901538D01*
X128077579Y-73829579D01*
X128107573Y-73749816D01*
X128123965Y-73673375D01*
X128125668Y-73645128D01*
X128114995Y-73566826D01*
X128086393Y-73481295D01*
X128044989Y-73400337D01*
X127995905Y-73335754D01*
X127987933Y-73327962D01*
X127920400Y-73273192D01*
X127846448Y-73230437D01*
X127761812Y-73198577D01*
X127662229Y-73176492D01*
X127543434Y-73163062D01*
X127401166Y-73157166D01*
X127336000Y-73156666D01*
X127253145Y-73157065D01*
X127194877Y-73158734D01*
X127155730Y-73162378D01*
X127130237Y-73168707D01*
X127112932Y-73178426D01*
X127103656Y-73186726D01*
X127094894Y-73196808D01*
X127088021Y-73209815D01*
X127082808Y-73229231D01*
X127079027Y-73258540D01*
X127076449Y-73301227D01*
X127074846Y-73360775D01*
X127073989Y-73440670D01*
X127073649Y-73544395D01*
X127073597Y-73645128D01*
X127073266Y-73779481D01*
X127073338Y-73886808D01*
X127074616Y-73938205D01*
X127268981Y-73938205D01*
X127268981Y-73352051D01*
X127392975Y-73352165D01*
X127467585Y-73354304D01*
X127545728Y-73359817D01*
X127610926Y-73367528D01*
X127612910Y-73367845D01*
X127718283Y-73393322D01*
X127800014Y-73433000D01*
X127862184Y-73489462D01*
X127901686Y-73550594D01*
X127926026Y-73618407D01*
X127924139Y-73682081D01*
X127895891Y-73750335D01*
X127840638Y-73820944D01*
X127764073Y-73873265D01*
X127664551Y-73908237D01*
X127598039Y-73920614D01*
X127522539Y-73929306D01*
X127442521Y-73935596D01*
X127374462Y-73938212D01*
X127370431Y-73938224D01*
X127268981Y-73938205D01*
X127074616Y-73938205D01*
X127075410Y-73970119D01*
X127081085Y-74032421D01*
X127091959Y-74076725D01*
X127109632Y-74106040D01*
X127135703Y-74123375D01*
X127171771Y-74131739D01*
X127219434Y-74134141D01*
X127280292Y-74133591D01*
G37*
X127280292Y-74133591D02*
X127332857Y-74133056D01*
X127486881Y-74129340D01*
X127615875Y-74118301D01*
X127724237Y-74098754D01*
X127816362Y-74069517D01*
X127896647Y-74029403D01*
X127969488Y-73977231D01*
X127995505Y-73954567D01*
X128038663Y-73901538D01*
X128077579Y-73829579D01*
X128107573Y-73749816D01*
X128123965Y-73673375D01*
X128125668Y-73645128D01*
X128114995Y-73566826D01*
X128086393Y-73481295D01*
X128044989Y-73400337D01*
X127995905Y-73335754D01*
X127987933Y-73327962D01*
X127920400Y-73273192D01*
X127846448Y-73230437D01*
X127761812Y-73198577D01*
X127662229Y-73176492D01*
X127543434Y-73163062D01*
X127401166Y-73157166D01*
X127336000Y-73156666D01*
X127253145Y-73157065D01*
X127194877Y-73158734D01*
X127155730Y-73162378D01*
X127130237Y-73168707D01*
X127112932Y-73178426D01*
X127103656Y-73186726D01*
X127094894Y-73196808D01*
X127088021Y-73209815D01*
X127082808Y-73229231D01*
X127079027Y-73258540D01*
X127076449Y-73301227D01*
X127074846Y-73360775D01*
X127073989Y-73440670D01*
X127073649Y-73544395D01*
X127073597Y-73645128D01*
X127073266Y-73779481D01*
X127073338Y-73886808D01*
X127074616Y-73938205D01*
X127268981Y-73938205D01*
X127268981Y-73352051D01*
X127392975Y-73352165D01*
X127467585Y-73354304D01*
X127545728Y-73359817D01*
X127610926Y-73367528D01*
X127612910Y-73367845D01*
X127718283Y-73393322D01*
X127800014Y-73433000D01*
X127862184Y-73489462D01*
X127901686Y-73550594D01*
X127926026Y-73618407D01*
X127924139Y-73682081D01*
X127895891Y-73750335D01*
X127840638Y-73820944D01*
X127764073Y-73873265D01*
X127664551Y-73908237D01*
X127598039Y-73920614D01*
X127522539Y-73929306D01*
X127442521Y-73935596D01*
X127374462Y-73938212D01*
X127370431Y-73938224D01*
X127268981Y-73938205D01*
X127074616Y-73938205D01*
X127075410Y-73970119D01*
X127081085Y-74032421D01*
X127091959Y-74076725D01*
X127109632Y-74106040D01*
X127135703Y-74123375D01*
X127171771Y-74131739D01*
X127219434Y-74134141D01*
X127280292Y-74133591D01*
%TD*%
M02*
