%TF.GenerationSoftware,KiCad,Pcbnew,(5.1.9)-1*%
%TF.CreationDate,2021-12-31T02:05:00-06:00*%
%TF.ProjectId,BreadBoardPowerSupply,42726561-6442-46f6-9172-64506f776572,rev?*%
%TF.SameCoordinates,Original*%
%TF.FileFunction,Copper,L2,Bot*%
%TF.FilePolarity,Positive*%
%FSLAX46Y46*%
G04 Gerber Fmt 4.6, Leading zero omitted, Abs format (unit mm)*
G04 Created by KiCad (PCBNEW (5.1.9)-1) date 2021-12-31 02:05:00*
%MOMM*%
%LPD*%
G01*
G04 APERTURE LIST*
%TA.AperFunction,ComponentPad*%
%ADD10C,1.600000*%
%TD*%
%TA.AperFunction,ComponentPad*%
%ADD11O,1.600000X1.600000*%
%TD*%
%TA.AperFunction,ComponentPad*%
%ADD12C,2.000000*%
%TD*%
%TA.AperFunction,ComponentPad*%
%ADD13R,2.000000X2.000000*%
%TD*%
%TA.AperFunction,ComponentPad*%
%ADD14R,1.600000X1.600000*%
%TD*%
%TA.AperFunction,ComponentPad*%
%ADD15O,2.200000X2.200000*%
%TD*%
%TA.AperFunction,ComponentPad*%
%ADD16R,2.200000X2.200000*%
%TD*%
%TA.AperFunction,ComponentPad*%
%ADD17C,1.800000*%
%TD*%
%TA.AperFunction,ComponentPad*%
%ADD18R,1.800000X1.800000*%
%TD*%
%TA.AperFunction,ComponentPad*%
%ADD19C,2.600000*%
%TD*%
%TA.AperFunction,ComponentPad*%
%ADD20R,2.600000X2.600000*%
%TD*%
%TA.AperFunction,ComponentPad*%
%ADD21R,1.700000X1.700000*%
%TD*%
%TA.AperFunction,ComponentPad*%
%ADD22O,1.700000X1.700000*%
%TD*%
%TA.AperFunction,ComponentPad*%
%ADD23C,1.900000*%
%TD*%
%TA.AperFunction,ComponentPad*%
%ADD24R,1.900000X1.900000*%
%TD*%
%TA.AperFunction,ComponentPad*%
%ADD25O,1.905000X2.000000*%
%TD*%
%TA.AperFunction,ComponentPad*%
%ADD26R,1.905000X2.000000*%
%TD*%
%TA.AperFunction,Conductor*%
%ADD27C,0.300000*%
%TD*%
%TA.AperFunction,Conductor*%
%ADD28C,0.254000*%
%TD*%
%TA.AperFunction,Conductor*%
%ADD29C,0.100000*%
%TD*%
G04 APERTURE END LIST*
D10*
%TO.P,R2,1*%
%TO.N,/Vout2*%
X137795000Y-82677000D03*
D11*
%TO.P,R2,2*%
%TO.N,Net-(D6-Pad2)*%
X137795000Y-90297000D03*
%TD*%
D12*
%TO.P,C1,2*%
%TO.N,/V-*%
X131492000Y-78486000D03*
D13*
%TO.P,C1,1*%
%TO.N,/Vin*%
X126492000Y-78486000D03*
%TD*%
D10*
%TO.P,C2,2*%
%TO.N,/V-*%
X139152000Y-76200000D03*
D14*
%TO.P,C2,1*%
%TO.N,/Vout1*%
X136652000Y-76200000D03*
%TD*%
D15*
%TO.P,D1,2*%
%TO.N,Net-(D1-Pad2)*%
X135741001Y-103929334D03*
D16*
%TO.P,D1,1*%
%TO.N,/Vin*%
X125581001Y-103929334D03*
%TD*%
D15*
%TO.P,D2,2*%
%TO.N,/V-*%
X135741001Y-94742000D03*
D16*
%TO.P,D2,1*%
%TO.N,Net-(D1-Pad2)*%
X125581001Y-94742000D03*
%TD*%
%TO.P,D3,1*%
%TO.N,/Vin*%
X125581001Y-108523001D03*
D15*
%TO.P,D3,2*%
%TO.N,Net-(D3-Pad2)*%
X135741001Y-108523001D03*
%TD*%
%TO.P,D4,2*%
%TO.N,/V-*%
X135741001Y-99335667D03*
D16*
%TO.P,D4,1*%
%TO.N,Net-(D3-Pad2)*%
X125581001Y-99335667D03*
%TD*%
D17*
%TO.P,D5,2*%
%TO.N,Net-(D5-Pad2)*%
X144943000Y-109474000D03*
D18*
%TO.P,D5,1*%
%TO.N,/V-*%
X142403000Y-109474000D03*
%TD*%
%TO.P,D6,1*%
%TO.N,/V-*%
X142403000Y-87884000D03*
D17*
%TO.P,D6,2*%
%TO.N,Net-(D6-Pad2)*%
X144943000Y-87884000D03*
%TD*%
D19*
%TO.P,J1,3*%
%TO.N,Net-(J1-Pad3)*%
X134668000Y-122683000D03*
%TO.P,J1,2*%
%TO.N,Net-(D3-Pad2)*%
X131668000Y-117983000D03*
D20*
%TO.P,J1,1*%
%TO.N,Net-(D1-Pad2)*%
X137668000Y-117983000D03*
%TD*%
D21*
%TO.P,J2,1*%
%TO.N,/Vout2*%
X148971000Y-74803000D03*
D22*
%TO.P,J2,2*%
X151511000Y-74803000D03*
%TO.P,J2,3*%
%TO.N,/V-*%
X148971000Y-77343000D03*
%TO.P,J2,4*%
X151511000Y-77343000D03*
%TD*%
D21*
%TO.P,J3,1*%
%TO.N,/Vout2*%
X148971000Y-119761000D03*
D22*
%TO.P,J3,2*%
X151511000Y-119761000D03*
%TO.P,J3,3*%
%TO.N,/V-*%
X148971000Y-122301000D03*
%TO.P,J3,4*%
X151511000Y-122301000D03*
%TD*%
D11*
%TO.P,R1,2*%
%TO.N,/Vout1*%
X143764000Y-115189000D03*
D10*
%TO.P,R1,1*%
%TO.N,Net-(D5-Pad2)*%
X143764000Y-122809000D03*
%TD*%
D23*
%TO.P,SW1,3*%
%TO.N,Net-(SW1-Pad3)*%
X143383000Y-95965000D03*
%TO.P,SW1,2*%
%TO.N,/Vout1*%
X143383000Y-98465000D03*
D24*
%TO.P,SW1,1*%
%TO.N,/Vout2*%
X143383000Y-100965000D03*
%TD*%
D25*
%TO.P,U1,3*%
%TO.N,/Vout1*%
X131953000Y-89154000D03*
%TO.P,U1,2*%
%TO.N,/V-*%
X129413000Y-89154000D03*
D26*
%TO.P,U1,1*%
%TO.N,/Vin*%
X126873000Y-89154000D03*
%TD*%
D27*
%TO.N,/V-*%
X142345001Y-87757000D02*
X142403000Y-87757000D01*
X129254502Y-89154000D02*
X129032000Y-89154000D01*
X135741001Y-94742000D02*
X135223502Y-94742000D01*
X129032000Y-80946000D02*
X131492000Y-78486000D01*
X129032000Y-89154000D02*
X129032000Y-80946000D01*
X139062002Y-76200000D02*
X139152000Y-76200000D01*
X136776002Y-78486000D02*
X139062002Y-76200000D01*
X131492000Y-78486000D02*
X136776002Y-78486000D01*
X147828000Y-76200000D02*
X148971000Y-77343000D01*
X139152000Y-76200000D02*
X147828000Y-76200000D01*
X148971000Y-77343000D02*
X151511000Y-77343000D01*
X148971000Y-122301000D02*
X151511000Y-122301000D01*
X146667990Y-113738990D02*
X142403000Y-109474000D01*
X146667990Y-119997990D02*
X146667990Y-113738990D01*
X148971000Y-122301000D02*
X146667990Y-119997990D01*
X142218001Y-87884000D02*
X142403000Y-87884000D01*
X142403000Y-105997666D02*
X135741001Y-99335667D01*
X142403000Y-109474000D02*
X142403000Y-105997666D01*
X135741001Y-99335667D02*
X135741001Y-94742000D01*
X129413000Y-89969633D02*
X129413000Y-89154000D01*
X134185367Y-94742000D02*
X129413000Y-89969633D01*
X135741001Y-94742000D02*
X134185367Y-94742000D01*
X142403000Y-88080001D02*
X135741001Y-94742000D01*
X142403000Y-87884000D02*
X142403000Y-88080001D01*
%TO.N,Net-(D3-Pad2)*%
X126553667Y-99335667D02*
X125581001Y-99335667D01*
X135741001Y-108523001D02*
X126553667Y-99335667D01*
X131668000Y-112596002D02*
X135741001Y-108523001D01*
X131668000Y-117983000D02*
X131668000Y-112596002D01*
%TD*%
D28*
%TO.N,/V-*%
X152706001Y-73918516D02*
X152664475Y-73856368D01*
X152457632Y-73649525D01*
X152214411Y-73487010D01*
X151944158Y-73375068D01*
X151657260Y-73318000D01*
X151364740Y-73318000D01*
X151077842Y-73375068D01*
X150807589Y-73487010D01*
X150564368Y-73649525D01*
X150432513Y-73781380D01*
X150410502Y-73708820D01*
X150351537Y-73598506D01*
X150272185Y-73501815D01*
X150175494Y-73422463D01*
X150065180Y-73363498D01*
X149945482Y-73327188D01*
X149821000Y-73314928D01*
X148121000Y-73314928D01*
X147996518Y-73327188D01*
X147876820Y-73363498D01*
X147766506Y-73422463D01*
X147669815Y-73501815D01*
X147590463Y-73598506D01*
X147531498Y-73708820D01*
X147495188Y-73828518D01*
X147482928Y-73953000D01*
X147482928Y-75653000D01*
X147495188Y-75777482D01*
X147531498Y-75897180D01*
X147590463Y-76007494D01*
X147669815Y-76104185D01*
X147766506Y-76183537D01*
X147876820Y-76242502D01*
X147957466Y-76266966D01*
X147873412Y-76342731D01*
X147699359Y-76576080D01*
X147574175Y-76838901D01*
X147529524Y-76986110D01*
X147650845Y-77216000D01*
X148844000Y-77216000D01*
X148844000Y-77196000D01*
X149098000Y-77196000D01*
X149098000Y-77216000D01*
X151384000Y-77216000D01*
X151384000Y-77196000D01*
X151638000Y-77196000D01*
X151638000Y-77216000D01*
X151658000Y-77216000D01*
X151658000Y-77470000D01*
X151638000Y-77470000D01*
X151638000Y-77490000D01*
X151384000Y-77490000D01*
X151384000Y-77470000D01*
X149098000Y-77470000D01*
X149098000Y-77490000D01*
X148844000Y-77490000D01*
X148844000Y-77470000D01*
X147650845Y-77470000D01*
X147529524Y-77699890D01*
X147574175Y-77847099D01*
X147699359Y-78109920D01*
X147873412Y-78343269D01*
X148089645Y-78538178D01*
X148339748Y-78687157D01*
X148614109Y-78784481D01*
X148843998Y-78663815D01*
X148843998Y-78792000D01*
X147227877Y-78792000D01*
X147193000Y-78788565D01*
X147158123Y-78792000D01*
X147053816Y-78802273D01*
X146919980Y-78842872D01*
X146796637Y-78908800D01*
X146688525Y-78997525D01*
X146599800Y-79105637D01*
X146533872Y-79228980D01*
X146493273Y-79362816D01*
X146479565Y-79502000D01*
X146483001Y-79536887D01*
X146483000Y-117567123D01*
X146479565Y-117602000D01*
X146493273Y-117741184D01*
X146533872Y-117875020D01*
X146599800Y-117998363D01*
X146688525Y-118106475D01*
X146770294Y-118173581D01*
X146796637Y-118195200D01*
X146919980Y-118261128D01*
X147053816Y-118301727D01*
X147193000Y-118315435D01*
X147227877Y-118312000D01*
X147908131Y-118312000D01*
X147876820Y-118321498D01*
X147766506Y-118380463D01*
X147669815Y-118459815D01*
X147590463Y-118556506D01*
X147531498Y-118666820D01*
X147495188Y-118786518D01*
X147482928Y-118911000D01*
X147482928Y-120611000D01*
X147495188Y-120735482D01*
X147531498Y-120855180D01*
X147590463Y-120965494D01*
X147669815Y-121062185D01*
X147766506Y-121141537D01*
X147876820Y-121200502D01*
X147957466Y-121224966D01*
X147873412Y-121300731D01*
X147699359Y-121534080D01*
X147574175Y-121796901D01*
X147529524Y-121944110D01*
X147650845Y-122174000D01*
X148844000Y-122174000D01*
X148844000Y-122154000D01*
X149098000Y-122154000D01*
X149098000Y-122174000D01*
X151384000Y-122174000D01*
X151384000Y-122154000D01*
X151638000Y-122154000D01*
X151638000Y-122174000D01*
X151658000Y-122174000D01*
X151658000Y-122428000D01*
X151638000Y-122428000D01*
X151638000Y-123621814D01*
X151867891Y-123742481D01*
X152142252Y-123645157D01*
X152392355Y-123496178D01*
X152608588Y-123301269D01*
X152706000Y-123170671D01*
X152706000Y-123877000D01*
X144725396Y-123877000D01*
X144878637Y-123723759D01*
X145035680Y-123488727D01*
X145143853Y-123227574D01*
X145199000Y-122950335D01*
X145199000Y-122667665D01*
X145197056Y-122657890D01*
X147529524Y-122657890D01*
X147574175Y-122805099D01*
X147699359Y-123067920D01*
X147873412Y-123301269D01*
X148089645Y-123496178D01*
X148339748Y-123645157D01*
X148614109Y-123742481D01*
X148844000Y-123621814D01*
X148844000Y-122428000D01*
X149098000Y-122428000D01*
X149098000Y-123621814D01*
X149327891Y-123742481D01*
X149602252Y-123645157D01*
X149852355Y-123496178D01*
X150068588Y-123301269D01*
X150241000Y-123070120D01*
X150413412Y-123301269D01*
X150629645Y-123496178D01*
X150879748Y-123645157D01*
X151154109Y-123742481D01*
X151384000Y-123621814D01*
X151384000Y-122428000D01*
X149098000Y-122428000D01*
X148844000Y-122428000D01*
X147650845Y-122428000D01*
X147529524Y-122657890D01*
X145197056Y-122657890D01*
X145143853Y-122390426D01*
X145035680Y-122129273D01*
X144878637Y-121894241D01*
X144678759Y-121694363D01*
X144443727Y-121537320D01*
X144182574Y-121429147D01*
X143905335Y-121374000D01*
X143622665Y-121374000D01*
X143345426Y-121429147D01*
X143084273Y-121537320D01*
X142849241Y-121694363D01*
X142649363Y-121894241D01*
X142492320Y-122129273D01*
X142384147Y-122390426D01*
X142329000Y-122667665D01*
X142329000Y-122950335D01*
X142384147Y-123227574D01*
X142492320Y-123488727D01*
X142649363Y-123723759D01*
X142802604Y-123877000D01*
X136197400Y-123877000D01*
X136382775Y-123599566D01*
X136528639Y-123247419D01*
X136603000Y-122873581D01*
X136603000Y-122492419D01*
X136528639Y-122118581D01*
X136382775Y-121766434D01*
X136171013Y-121449509D01*
X135901491Y-121179987D01*
X135584566Y-120968225D01*
X135232419Y-120822361D01*
X134858581Y-120748000D01*
X134477419Y-120748000D01*
X134103581Y-120822361D01*
X133751434Y-120968225D01*
X133434509Y-121179987D01*
X133164987Y-121449509D01*
X132953225Y-121766434D01*
X132807361Y-122118581D01*
X132733000Y-122492419D01*
X132733000Y-122873581D01*
X132807361Y-123247419D01*
X132953225Y-123599566D01*
X133138600Y-123877000D01*
X124027000Y-123877000D01*
X124027000Y-110070755D01*
X124029816Y-110074186D01*
X124126507Y-110153538D01*
X124236821Y-110212503D01*
X124356519Y-110248813D01*
X124481001Y-110261073D01*
X126681001Y-110261073D01*
X126805483Y-110248813D01*
X126925181Y-110212503D01*
X127035495Y-110153538D01*
X127132186Y-110074186D01*
X127211538Y-109977495D01*
X127270503Y-109867181D01*
X127306813Y-109747483D01*
X127319073Y-109623001D01*
X127319073Y-107423001D01*
X127306813Y-107298519D01*
X127270503Y-107178821D01*
X127211538Y-107068507D01*
X127132186Y-106971816D01*
X127035495Y-106892464D01*
X126925181Y-106833499D01*
X126805483Y-106797189D01*
X126681001Y-106784929D01*
X124481001Y-106784929D01*
X124356519Y-106797189D01*
X124236821Y-106833499D01*
X124126507Y-106892464D01*
X124029816Y-106971816D01*
X124027000Y-106975247D01*
X124027000Y-105477088D01*
X124029816Y-105480519D01*
X124126507Y-105559871D01*
X124236821Y-105618836D01*
X124356519Y-105655146D01*
X124481001Y-105667406D01*
X126681001Y-105667406D01*
X126805483Y-105655146D01*
X126925181Y-105618836D01*
X127035495Y-105559871D01*
X127132186Y-105480519D01*
X127211538Y-105383828D01*
X127270503Y-105273514D01*
X127306813Y-105153816D01*
X127319073Y-105029334D01*
X127319073Y-102829334D01*
X127306813Y-102704852D01*
X127270503Y-102585154D01*
X127211538Y-102474840D01*
X127132186Y-102378149D01*
X127035495Y-102298797D01*
X126925181Y-102239832D01*
X126805483Y-102203522D01*
X126681001Y-102191262D01*
X124481001Y-102191262D01*
X124356519Y-102203522D01*
X124236821Y-102239832D01*
X124126507Y-102298797D01*
X124029816Y-102378149D01*
X124027000Y-102381580D01*
X124027000Y-100883421D01*
X124029816Y-100886852D01*
X124126507Y-100966204D01*
X124236821Y-101025169D01*
X124356519Y-101061479D01*
X124481001Y-101073739D01*
X126681001Y-101073739D01*
X126805483Y-101061479D01*
X126925181Y-101025169D01*
X127035495Y-100966204D01*
X127056669Y-100948827D01*
X134087932Y-107980090D01*
X134072676Y-108016920D01*
X134006001Y-108352118D01*
X134006001Y-108693884D01*
X134072676Y-109029082D01*
X134087932Y-109065913D01*
X131140185Y-112013660D01*
X131110237Y-112038238D01*
X131085659Y-112068186D01*
X131085655Y-112068190D01*
X131052690Y-112108358D01*
X131012139Y-112157769D01*
X130973177Y-112230662D01*
X130939246Y-112294143D01*
X130894359Y-112442116D01*
X130879203Y-112596002D01*
X130883001Y-112634565D01*
X130883000Y-116213728D01*
X130751434Y-116268225D01*
X130434509Y-116479987D01*
X130164987Y-116749509D01*
X129953225Y-117066434D01*
X129807361Y-117418581D01*
X129733000Y-117792419D01*
X129733000Y-118173581D01*
X129807361Y-118547419D01*
X129953225Y-118899566D01*
X130164987Y-119216491D01*
X130434509Y-119486013D01*
X130751434Y-119697775D01*
X131103581Y-119843639D01*
X131477419Y-119918000D01*
X131858581Y-119918000D01*
X132232419Y-119843639D01*
X132584566Y-119697775D01*
X132901491Y-119486013D01*
X133171013Y-119216491D01*
X133382775Y-118899566D01*
X133528639Y-118547419D01*
X133603000Y-118173581D01*
X133603000Y-117792419D01*
X133528639Y-117418581D01*
X133382775Y-117066434D01*
X133171013Y-116749509D01*
X133104504Y-116683000D01*
X135729928Y-116683000D01*
X135729928Y-119283000D01*
X135742188Y-119407482D01*
X135778498Y-119527180D01*
X135837463Y-119637494D01*
X135916815Y-119734185D01*
X136013506Y-119813537D01*
X136123820Y-119872502D01*
X136243518Y-119908812D01*
X136368000Y-119921072D01*
X138968000Y-119921072D01*
X139092482Y-119908812D01*
X139212180Y-119872502D01*
X139322494Y-119813537D01*
X139419185Y-119734185D01*
X139498537Y-119637494D01*
X139557502Y-119527180D01*
X139593812Y-119407482D01*
X139606072Y-119283000D01*
X139606072Y-116683000D01*
X139593812Y-116558518D01*
X139557502Y-116438820D01*
X139498537Y-116328506D01*
X139419185Y-116231815D01*
X139322494Y-116152463D01*
X139212180Y-116093498D01*
X139092482Y-116057188D01*
X138968000Y-116044928D01*
X136368000Y-116044928D01*
X136243518Y-116057188D01*
X136123820Y-116093498D01*
X136013506Y-116152463D01*
X135916815Y-116231815D01*
X135837463Y-116328506D01*
X135778498Y-116438820D01*
X135742188Y-116558518D01*
X135729928Y-116683000D01*
X133104504Y-116683000D01*
X132901491Y-116479987D01*
X132584566Y-116268225D01*
X132453000Y-116213729D01*
X132453000Y-115047665D01*
X142329000Y-115047665D01*
X142329000Y-115330335D01*
X142384147Y-115607574D01*
X142492320Y-115868727D01*
X142649363Y-116103759D01*
X142849241Y-116303637D01*
X143084273Y-116460680D01*
X143345426Y-116568853D01*
X143622665Y-116624000D01*
X143905335Y-116624000D01*
X144182574Y-116568853D01*
X144443727Y-116460680D01*
X144678759Y-116303637D01*
X144878637Y-116103759D01*
X145035680Y-115868727D01*
X145143853Y-115607574D01*
X145199000Y-115330335D01*
X145199000Y-115047665D01*
X145143853Y-114770426D01*
X145035680Y-114509273D01*
X144878637Y-114274241D01*
X144678759Y-114074363D01*
X144443727Y-113917320D01*
X144182574Y-113809147D01*
X143905335Y-113754000D01*
X143622665Y-113754000D01*
X143345426Y-113809147D01*
X143084273Y-113917320D01*
X142849241Y-114074363D01*
X142649363Y-114274241D01*
X142492320Y-114509273D01*
X142384147Y-114770426D01*
X142329000Y-115047665D01*
X132453000Y-115047665D01*
X132453000Y-112921159D01*
X135000159Y-110374000D01*
X140864928Y-110374000D01*
X140877188Y-110498482D01*
X140913498Y-110618180D01*
X140972463Y-110728494D01*
X141051815Y-110825185D01*
X141148506Y-110904537D01*
X141258820Y-110963502D01*
X141378518Y-110999812D01*
X141503000Y-111012072D01*
X142117250Y-111009000D01*
X142276000Y-110850250D01*
X142276000Y-109601000D01*
X141026750Y-109601000D01*
X140868000Y-109759750D01*
X140864928Y-110374000D01*
X135000159Y-110374000D01*
X135198089Y-110176070D01*
X135234920Y-110191326D01*
X135570118Y-110258001D01*
X135911884Y-110258001D01*
X136247082Y-110191326D01*
X136562832Y-110060538D01*
X136846999Y-109870664D01*
X137088664Y-109628999D01*
X137278538Y-109344832D01*
X137409326Y-109029082D01*
X137476001Y-108693884D01*
X137476001Y-108574000D01*
X140864928Y-108574000D01*
X140868000Y-109188250D01*
X141026750Y-109347000D01*
X142276000Y-109347000D01*
X142276000Y-108097750D01*
X142530000Y-108097750D01*
X142530000Y-109347000D01*
X142550000Y-109347000D01*
X142550000Y-109601000D01*
X142530000Y-109601000D01*
X142530000Y-110850250D01*
X142688750Y-111009000D01*
X143303000Y-111012072D01*
X143427482Y-110999812D01*
X143547180Y-110963502D01*
X143657494Y-110904537D01*
X143754185Y-110825185D01*
X143833537Y-110728494D01*
X143892502Y-110618180D01*
X143898056Y-110599873D01*
X143964495Y-110666312D01*
X144215905Y-110834299D01*
X144495257Y-110950011D01*
X144791816Y-111009000D01*
X145094184Y-111009000D01*
X145390743Y-110950011D01*
X145670095Y-110834299D01*
X145921505Y-110666312D01*
X146135312Y-110452505D01*
X146303299Y-110201095D01*
X146419011Y-109921743D01*
X146478000Y-109625184D01*
X146478000Y-109322816D01*
X146419011Y-109026257D01*
X146303299Y-108746905D01*
X146135312Y-108495495D01*
X145921505Y-108281688D01*
X145670095Y-108113701D01*
X145390743Y-107997989D01*
X145094184Y-107939000D01*
X144791816Y-107939000D01*
X144495257Y-107997989D01*
X144215905Y-108113701D01*
X143964495Y-108281688D01*
X143898056Y-108348127D01*
X143892502Y-108329820D01*
X143833537Y-108219506D01*
X143754185Y-108122815D01*
X143657494Y-108043463D01*
X143547180Y-107984498D01*
X143427482Y-107948188D01*
X143303000Y-107935928D01*
X142688750Y-107939000D01*
X142530000Y-108097750D01*
X142276000Y-108097750D01*
X142117250Y-107939000D01*
X141503000Y-107935928D01*
X141378518Y-107948188D01*
X141258820Y-107984498D01*
X141148506Y-108043463D01*
X141051815Y-108122815D01*
X140972463Y-108219506D01*
X140913498Y-108329820D01*
X140877188Y-108449518D01*
X140864928Y-108574000D01*
X137476001Y-108574000D01*
X137476001Y-108352118D01*
X137409326Y-108016920D01*
X137278538Y-107701170D01*
X137088664Y-107417003D01*
X136846999Y-107175338D01*
X136562832Y-106985464D01*
X136247082Y-106854676D01*
X135911884Y-106788001D01*
X135570118Y-106788001D01*
X135234920Y-106854676D01*
X135198090Y-106869932D01*
X132086609Y-103758451D01*
X134006001Y-103758451D01*
X134006001Y-104100217D01*
X134072676Y-104435415D01*
X134203464Y-104751165D01*
X134393338Y-105035332D01*
X134635003Y-105276997D01*
X134919170Y-105466871D01*
X135234920Y-105597659D01*
X135570118Y-105664334D01*
X135911884Y-105664334D01*
X136247082Y-105597659D01*
X136562832Y-105466871D01*
X136846999Y-105276997D01*
X137088664Y-105035332D01*
X137278538Y-104751165D01*
X137409326Y-104435415D01*
X137476001Y-104100217D01*
X137476001Y-103758451D01*
X137409326Y-103423253D01*
X137278538Y-103107503D01*
X137088664Y-102823336D01*
X136846999Y-102581671D01*
X136562832Y-102391797D01*
X136247082Y-102261009D01*
X135911884Y-102194334D01*
X135570118Y-102194334D01*
X135234920Y-102261009D01*
X134919170Y-102391797D01*
X134635003Y-102581671D01*
X134393338Y-102823336D01*
X134203464Y-103107503D01*
X134072676Y-103423253D01*
X134006001Y-103758451D01*
X132086609Y-103758451D01*
X128059947Y-99731789D01*
X134051826Y-99731789D01*
X134116426Y-99944761D01*
X134266470Y-100249996D01*
X134473179Y-100520094D01*
X134728610Y-100744675D01*
X135022947Y-100915109D01*
X135344878Y-101024846D01*
X135614001Y-100907267D01*
X135614001Y-99462667D01*
X135868001Y-99462667D01*
X135868001Y-100907267D01*
X136137124Y-101024846D01*
X136459055Y-100915109D01*
X136753392Y-100744675D01*
X137008823Y-100520094D01*
X137215532Y-100249996D01*
X137331048Y-100015000D01*
X141794928Y-100015000D01*
X141794928Y-101915000D01*
X141807188Y-102039482D01*
X141843498Y-102159180D01*
X141902463Y-102269494D01*
X141981815Y-102366185D01*
X142078506Y-102445537D01*
X142188820Y-102504502D01*
X142308518Y-102540812D01*
X142433000Y-102553072D01*
X144333000Y-102553072D01*
X144457482Y-102540812D01*
X144577180Y-102504502D01*
X144687494Y-102445537D01*
X144784185Y-102366185D01*
X144863537Y-102269494D01*
X144922502Y-102159180D01*
X144958812Y-102039482D01*
X144971072Y-101915000D01*
X144971072Y-100015000D01*
X144958812Y-99890518D01*
X144922502Y-99770820D01*
X144863537Y-99660506D01*
X144784185Y-99563815D01*
X144687494Y-99484463D01*
X144628979Y-99453186D01*
X144787609Y-99215779D01*
X144907089Y-98927327D01*
X144968000Y-98621109D01*
X144968000Y-98308891D01*
X144907089Y-98002673D01*
X144787609Y-97714221D01*
X144614150Y-97454621D01*
X144393379Y-97233850D01*
X144365168Y-97215000D01*
X144393379Y-97196150D01*
X144614150Y-96975379D01*
X144787609Y-96715779D01*
X144907089Y-96427327D01*
X144968000Y-96121109D01*
X144968000Y-95808891D01*
X144907089Y-95502673D01*
X144787609Y-95214221D01*
X144614150Y-94954621D01*
X144393379Y-94733850D01*
X144133779Y-94560391D01*
X143845327Y-94440911D01*
X143539109Y-94380000D01*
X143226891Y-94380000D01*
X142920673Y-94440911D01*
X142632221Y-94560391D01*
X142372621Y-94733850D01*
X142151850Y-94954621D01*
X141978391Y-95214221D01*
X141858911Y-95502673D01*
X141798000Y-95808891D01*
X141798000Y-96121109D01*
X141858911Y-96427327D01*
X141978391Y-96715779D01*
X142151850Y-96975379D01*
X142372621Y-97196150D01*
X142400832Y-97215000D01*
X142372621Y-97233850D01*
X142151850Y-97454621D01*
X141978391Y-97714221D01*
X141858911Y-98002673D01*
X141798000Y-98308891D01*
X141798000Y-98621109D01*
X141858911Y-98927327D01*
X141978391Y-99215779D01*
X142137021Y-99453186D01*
X142078506Y-99484463D01*
X141981815Y-99563815D01*
X141902463Y-99660506D01*
X141843498Y-99770820D01*
X141807188Y-99890518D01*
X141794928Y-100015000D01*
X137331048Y-100015000D01*
X137365576Y-99944761D01*
X137430176Y-99731789D01*
X137312126Y-99462667D01*
X135868001Y-99462667D01*
X135614001Y-99462667D01*
X134169876Y-99462667D01*
X134051826Y-99731789D01*
X128059947Y-99731789D01*
X127319073Y-98990916D01*
X127319073Y-98939545D01*
X134051826Y-98939545D01*
X134169876Y-99208667D01*
X135614001Y-99208667D01*
X135614001Y-97764067D01*
X135868001Y-97764067D01*
X135868001Y-99208667D01*
X137312126Y-99208667D01*
X137430176Y-98939545D01*
X137365576Y-98726573D01*
X137215532Y-98421338D01*
X137008823Y-98151240D01*
X136753392Y-97926659D01*
X136459055Y-97756225D01*
X136137124Y-97646488D01*
X135868001Y-97764067D01*
X135614001Y-97764067D01*
X135344878Y-97646488D01*
X135022947Y-97756225D01*
X134728610Y-97926659D01*
X134473179Y-98151240D01*
X134266470Y-98421338D01*
X134116426Y-98726573D01*
X134051826Y-98939545D01*
X127319073Y-98939545D01*
X127319073Y-98235667D01*
X127306813Y-98111185D01*
X127270503Y-97991487D01*
X127211538Y-97881173D01*
X127132186Y-97784482D01*
X127035495Y-97705130D01*
X126925181Y-97646165D01*
X126805483Y-97609855D01*
X126681001Y-97597595D01*
X124481001Y-97597595D01*
X124356519Y-97609855D01*
X124236821Y-97646165D01*
X124126507Y-97705130D01*
X124029816Y-97784482D01*
X124027000Y-97787913D01*
X124027000Y-96289754D01*
X124029816Y-96293185D01*
X124126507Y-96372537D01*
X124236821Y-96431502D01*
X124356519Y-96467812D01*
X124481001Y-96480072D01*
X126681001Y-96480072D01*
X126805483Y-96467812D01*
X126925181Y-96431502D01*
X127035495Y-96372537D01*
X127132186Y-96293185D01*
X127211538Y-96196494D01*
X127270503Y-96086180D01*
X127306813Y-95966482D01*
X127319073Y-95842000D01*
X127319073Y-95138122D01*
X134051826Y-95138122D01*
X134116426Y-95351094D01*
X134266470Y-95656329D01*
X134473179Y-95926427D01*
X134728610Y-96151008D01*
X135022947Y-96321442D01*
X135344878Y-96431179D01*
X135614001Y-96313600D01*
X135614001Y-94869000D01*
X135868001Y-94869000D01*
X135868001Y-96313600D01*
X136137124Y-96431179D01*
X136459055Y-96321442D01*
X136753392Y-96151008D01*
X137008823Y-95926427D01*
X137215532Y-95656329D01*
X137365576Y-95351094D01*
X137430176Y-95138122D01*
X137312126Y-94869000D01*
X135868001Y-94869000D01*
X135614001Y-94869000D01*
X134169876Y-94869000D01*
X134051826Y-95138122D01*
X127319073Y-95138122D01*
X127319073Y-94345878D01*
X134051826Y-94345878D01*
X134169876Y-94615000D01*
X135614001Y-94615000D01*
X135614001Y-93170400D01*
X135868001Y-93170400D01*
X135868001Y-94615000D01*
X137312126Y-94615000D01*
X137430176Y-94345878D01*
X137365576Y-94132906D01*
X137215532Y-93827671D01*
X137008823Y-93557573D01*
X136753392Y-93332992D01*
X136459055Y-93162558D01*
X136137124Y-93052821D01*
X135868001Y-93170400D01*
X135614001Y-93170400D01*
X135344878Y-93052821D01*
X135022947Y-93162558D01*
X134728610Y-93332992D01*
X134473179Y-93557573D01*
X134266470Y-93827671D01*
X134116426Y-94132906D01*
X134051826Y-94345878D01*
X127319073Y-94345878D01*
X127319073Y-93642000D01*
X127306813Y-93517518D01*
X127270503Y-93397820D01*
X127211538Y-93287506D01*
X127132186Y-93190815D01*
X127035495Y-93111463D01*
X126925181Y-93052498D01*
X126805483Y-93016188D01*
X126681001Y-93003928D01*
X124481001Y-93003928D01*
X124356519Y-93016188D01*
X124236821Y-93052498D01*
X124126507Y-93111463D01*
X124029816Y-93190815D01*
X124027000Y-93194246D01*
X124027000Y-88154000D01*
X125282428Y-88154000D01*
X125282428Y-90154000D01*
X125294688Y-90278482D01*
X125330998Y-90398180D01*
X125389963Y-90508494D01*
X125469315Y-90605185D01*
X125566006Y-90684537D01*
X125676320Y-90743502D01*
X125796018Y-90779812D01*
X125920500Y-90792072D01*
X127825500Y-90792072D01*
X127949982Y-90779812D01*
X128069680Y-90743502D01*
X128179994Y-90684537D01*
X128276685Y-90605185D01*
X128356037Y-90508494D01*
X128405059Y-90416781D01*
X128546077Y-90529969D01*
X128821906Y-90673571D01*
X129040020Y-90744563D01*
X129286000Y-90624594D01*
X129286000Y-89281000D01*
X129266000Y-89281000D01*
X129266000Y-89027000D01*
X129286000Y-89027000D01*
X129286000Y-87683406D01*
X129540000Y-87683406D01*
X129540000Y-89027000D01*
X129560000Y-89027000D01*
X129560000Y-89281000D01*
X129540000Y-89281000D01*
X129540000Y-90624594D01*
X129785980Y-90744563D01*
X130004094Y-90673571D01*
X130279923Y-90529969D01*
X130522437Y-90335315D01*
X130677837Y-90150101D01*
X130825037Y-90329463D01*
X131066766Y-90527845D01*
X131342552Y-90675255D01*
X131641797Y-90766030D01*
X131953000Y-90796681D01*
X132264204Y-90766030D01*
X132563449Y-90675255D01*
X132839235Y-90527845D01*
X133080963Y-90329463D01*
X133223595Y-90155665D01*
X136360000Y-90155665D01*
X136360000Y-90438335D01*
X136415147Y-90715574D01*
X136523320Y-90976727D01*
X136680363Y-91211759D01*
X136880241Y-91411637D01*
X137115273Y-91568680D01*
X137376426Y-91676853D01*
X137653665Y-91732000D01*
X137936335Y-91732000D01*
X138213574Y-91676853D01*
X138474727Y-91568680D01*
X138709759Y-91411637D01*
X138909637Y-91211759D01*
X139066680Y-90976727D01*
X139174853Y-90715574D01*
X139230000Y-90438335D01*
X139230000Y-90155665D01*
X139174853Y-89878426D01*
X139066680Y-89617273D01*
X138909637Y-89382241D01*
X138709759Y-89182363D01*
X138474727Y-89025320D01*
X138213574Y-88917147D01*
X137936335Y-88862000D01*
X137653665Y-88862000D01*
X137376426Y-88917147D01*
X137115273Y-89025320D01*
X136880241Y-89182363D01*
X136680363Y-89382241D01*
X136523320Y-89617273D01*
X136415147Y-89878426D01*
X136360000Y-90155665D01*
X133223595Y-90155665D01*
X133279345Y-90087734D01*
X133426755Y-89811948D01*
X133517530Y-89512703D01*
X133540500Y-89279485D01*
X133540500Y-89028514D01*
X133517530Y-88795296D01*
X133514104Y-88784000D01*
X140864928Y-88784000D01*
X140877188Y-88908482D01*
X140913498Y-89028180D01*
X140972463Y-89138494D01*
X141051815Y-89235185D01*
X141148506Y-89314537D01*
X141258820Y-89373502D01*
X141378518Y-89409812D01*
X141503000Y-89422072D01*
X142117250Y-89419000D01*
X142276000Y-89260250D01*
X142276000Y-88011000D01*
X141026750Y-88011000D01*
X140868000Y-88169750D01*
X140864928Y-88784000D01*
X133514104Y-88784000D01*
X133426755Y-88496051D01*
X133279345Y-88220265D01*
X133080963Y-87978537D01*
X132839234Y-87780155D01*
X132563448Y-87632745D01*
X132264203Y-87541970D01*
X131953000Y-87511319D01*
X131641796Y-87541970D01*
X131342551Y-87632745D01*
X131066765Y-87780155D01*
X130825037Y-87978537D01*
X130677838Y-88157900D01*
X130522437Y-87972685D01*
X130279923Y-87778031D01*
X130004094Y-87634429D01*
X129785980Y-87563437D01*
X129540000Y-87683406D01*
X129286000Y-87683406D01*
X129040020Y-87563437D01*
X128821906Y-87634429D01*
X128546077Y-87778031D01*
X128405059Y-87891219D01*
X128356037Y-87799506D01*
X128276685Y-87702815D01*
X128179994Y-87623463D01*
X128069680Y-87564498D01*
X127949982Y-87528188D01*
X127825500Y-87515928D01*
X125920500Y-87515928D01*
X125796018Y-87528188D01*
X125676320Y-87564498D01*
X125566006Y-87623463D01*
X125469315Y-87702815D01*
X125389963Y-87799506D01*
X125330998Y-87909820D01*
X125294688Y-88029518D01*
X125282428Y-88154000D01*
X124027000Y-88154000D01*
X124027000Y-86984000D01*
X140864928Y-86984000D01*
X140868000Y-87598250D01*
X141026750Y-87757000D01*
X142276000Y-87757000D01*
X142276000Y-86507750D01*
X142530000Y-86507750D01*
X142530000Y-87757000D01*
X142550000Y-87757000D01*
X142550000Y-88011000D01*
X142530000Y-88011000D01*
X142530000Y-89260250D01*
X142688750Y-89419000D01*
X143303000Y-89422072D01*
X143427482Y-89409812D01*
X143547180Y-89373502D01*
X143657494Y-89314537D01*
X143754185Y-89235185D01*
X143833537Y-89138494D01*
X143892502Y-89028180D01*
X143898056Y-89009873D01*
X143964495Y-89076312D01*
X144215905Y-89244299D01*
X144495257Y-89360011D01*
X144791816Y-89419000D01*
X145094184Y-89419000D01*
X145390743Y-89360011D01*
X145670095Y-89244299D01*
X145921505Y-89076312D01*
X146135312Y-88862505D01*
X146303299Y-88611095D01*
X146419011Y-88331743D01*
X146478000Y-88035184D01*
X146478000Y-87732816D01*
X146419011Y-87436257D01*
X146303299Y-87156905D01*
X146135312Y-86905495D01*
X145921505Y-86691688D01*
X145670095Y-86523701D01*
X145390743Y-86407989D01*
X145094184Y-86349000D01*
X144791816Y-86349000D01*
X144495257Y-86407989D01*
X144215905Y-86523701D01*
X143964495Y-86691688D01*
X143898056Y-86758127D01*
X143892502Y-86739820D01*
X143833537Y-86629506D01*
X143754185Y-86532815D01*
X143657494Y-86453463D01*
X143547180Y-86394498D01*
X143427482Y-86358188D01*
X143303000Y-86345928D01*
X142688750Y-86349000D01*
X142530000Y-86507750D01*
X142276000Y-86507750D01*
X142117250Y-86349000D01*
X141503000Y-86345928D01*
X141378518Y-86358188D01*
X141258820Y-86394498D01*
X141148506Y-86453463D01*
X141051815Y-86532815D01*
X140972463Y-86629506D01*
X140913498Y-86739820D01*
X140877188Y-86859518D01*
X140864928Y-86984000D01*
X124027000Y-86984000D01*
X124027000Y-82535665D01*
X136360000Y-82535665D01*
X136360000Y-82818335D01*
X136415147Y-83095574D01*
X136523320Y-83356727D01*
X136680363Y-83591759D01*
X136880241Y-83791637D01*
X137115273Y-83948680D01*
X137376426Y-84056853D01*
X137653665Y-84112000D01*
X137936335Y-84112000D01*
X138213574Y-84056853D01*
X138474727Y-83948680D01*
X138709759Y-83791637D01*
X138909637Y-83591759D01*
X139066680Y-83356727D01*
X139174853Y-83095574D01*
X139230000Y-82818335D01*
X139230000Y-82535665D01*
X139174853Y-82258426D01*
X139066680Y-81997273D01*
X138909637Y-81762241D01*
X138709759Y-81562363D01*
X138474727Y-81405320D01*
X138213574Y-81297147D01*
X137936335Y-81242000D01*
X137653665Y-81242000D01*
X137376426Y-81297147D01*
X137115273Y-81405320D01*
X136880241Y-81562363D01*
X136680363Y-81762241D01*
X136523320Y-81997273D01*
X136415147Y-82258426D01*
X136360000Y-82535665D01*
X124027000Y-82535665D01*
X124027000Y-77486000D01*
X124853928Y-77486000D01*
X124853928Y-79486000D01*
X124866188Y-79610482D01*
X124902498Y-79730180D01*
X124961463Y-79840494D01*
X125040815Y-79937185D01*
X125137506Y-80016537D01*
X125247820Y-80075502D01*
X125367518Y-80111812D01*
X125492000Y-80124072D01*
X127492000Y-80124072D01*
X127616482Y-80111812D01*
X127736180Y-80075502D01*
X127846494Y-80016537D01*
X127943185Y-79937185D01*
X128022537Y-79840494D01*
X128081502Y-79730180D01*
X128114496Y-79621413D01*
X130536192Y-79621413D01*
X130631956Y-79885814D01*
X130921571Y-80026704D01*
X131233108Y-80108384D01*
X131554595Y-80127718D01*
X131873675Y-80083961D01*
X132178088Y-79978795D01*
X132352044Y-79885814D01*
X132447808Y-79621413D01*
X131492000Y-78665605D01*
X130536192Y-79621413D01*
X128114496Y-79621413D01*
X128117812Y-79610482D01*
X128130072Y-79486000D01*
X128130072Y-78548595D01*
X129850282Y-78548595D01*
X129894039Y-78867675D01*
X129999205Y-79172088D01*
X130092186Y-79346044D01*
X130356587Y-79441808D01*
X131312395Y-78486000D01*
X131671605Y-78486000D01*
X132627413Y-79441808D01*
X132891814Y-79346044D01*
X133032704Y-79056429D01*
X133114384Y-78744892D01*
X133133718Y-78423405D01*
X133089961Y-78104325D01*
X132984795Y-77799912D01*
X132891814Y-77625956D01*
X132627413Y-77530192D01*
X131671605Y-78486000D01*
X131312395Y-78486000D01*
X130356587Y-77530192D01*
X130092186Y-77625956D01*
X129951296Y-77915571D01*
X129869616Y-78227108D01*
X129850282Y-78548595D01*
X128130072Y-78548595D01*
X128130072Y-77486000D01*
X128117812Y-77361518D01*
X128114497Y-77350587D01*
X130536192Y-77350587D01*
X131492000Y-78306395D01*
X132447808Y-77350587D01*
X132352044Y-77086186D01*
X132062429Y-76945296D01*
X131750892Y-76863616D01*
X131429405Y-76844282D01*
X131110325Y-76888039D01*
X130805912Y-76993205D01*
X130631956Y-77086186D01*
X130536192Y-77350587D01*
X128114497Y-77350587D01*
X128081502Y-77241820D01*
X128022537Y-77131506D01*
X127943185Y-77034815D01*
X127846494Y-76955463D01*
X127736180Y-76896498D01*
X127616482Y-76860188D01*
X127492000Y-76847928D01*
X125492000Y-76847928D01*
X125367518Y-76860188D01*
X125247820Y-76896498D01*
X125137506Y-76955463D01*
X125040815Y-77034815D01*
X124961463Y-77131506D01*
X124902498Y-77241820D01*
X124866188Y-77361518D01*
X124853928Y-77486000D01*
X124027000Y-77486000D01*
X124027000Y-75400000D01*
X135213928Y-75400000D01*
X135213928Y-77000000D01*
X135226188Y-77124482D01*
X135262498Y-77244180D01*
X135321463Y-77354494D01*
X135400815Y-77451185D01*
X135497506Y-77530537D01*
X135607820Y-77589502D01*
X135727518Y-77625812D01*
X135852000Y-77638072D01*
X137452000Y-77638072D01*
X137576482Y-77625812D01*
X137696180Y-77589502D01*
X137806494Y-77530537D01*
X137903185Y-77451185D01*
X137982537Y-77354494D01*
X138041502Y-77244180D01*
X138057117Y-77192702D01*
X138338903Y-77192702D01*
X138410486Y-77436671D01*
X138665996Y-77557571D01*
X138940184Y-77626300D01*
X139222512Y-77640217D01*
X139502130Y-77598787D01*
X139768292Y-77503603D01*
X139893514Y-77436671D01*
X139965097Y-77192702D01*
X139152000Y-76379605D01*
X138338903Y-77192702D01*
X138057117Y-77192702D01*
X138077812Y-77124482D01*
X138090072Y-77000000D01*
X138090072Y-76992785D01*
X138159298Y-77013097D01*
X138972395Y-76200000D01*
X139331605Y-76200000D01*
X140144702Y-77013097D01*
X140388671Y-76941514D01*
X140509571Y-76686004D01*
X140578300Y-76411816D01*
X140592217Y-76129488D01*
X140550787Y-75849870D01*
X140455603Y-75583708D01*
X140388671Y-75458486D01*
X140144702Y-75386903D01*
X139331605Y-76200000D01*
X138972395Y-76200000D01*
X138159298Y-75386903D01*
X138090072Y-75407215D01*
X138090072Y-75400000D01*
X138077812Y-75275518D01*
X138057118Y-75207298D01*
X138338903Y-75207298D01*
X139152000Y-76020395D01*
X139965097Y-75207298D01*
X139893514Y-74963329D01*
X139638004Y-74842429D01*
X139363816Y-74773700D01*
X139081488Y-74759783D01*
X138801870Y-74801213D01*
X138535708Y-74896397D01*
X138410486Y-74963329D01*
X138338903Y-75207298D01*
X138057118Y-75207298D01*
X138041502Y-75155820D01*
X137982537Y-75045506D01*
X137903185Y-74948815D01*
X137806494Y-74869463D01*
X137696180Y-74810498D01*
X137576482Y-74774188D01*
X137452000Y-74761928D01*
X135852000Y-74761928D01*
X135727518Y-74774188D01*
X135607820Y-74810498D01*
X135497506Y-74869463D01*
X135400815Y-74948815D01*
X135321463Y-75045506D01*
X135262498Y-75155820D01*
X135226188Y-75275518D01*
X135213928Y-75400000D01*
X124027000Y-75400000D01*
X124027000Y-73227000D01*
X152706001Y-73227000D01*
X152706001Y-73918516D01*
%TA.AperFunction,Conductor*%
D29*
G36*
X152706001Y-73918516D02*
G01*
X152664475Y-73856368D01*
X152457632Y-73649525D01*
X152214411Y-73487010D01*
X151944158Y-73375068D01*
X151657260Y-73318000D01*
X151364740Y-73318000D01*
X151077842Y-73375068D01*
X150807589Y-73487010D01*
X150564368Y-73649525D01*
X150432513Y-73781380D01*
X150410502Y-73708820D01*
X150351537Y-73598506D01*
X150272185Y-73501815D01*
X150175494Y-73422463D01*
X150065180Y-73363498D01*
X149945482Y-73327188D01*
X149821000Y-73314928D01*
X148121000Y-73314928D01*
X147996518Y-73327188D01*
X147876820Y-73363498D01*
X147766506Y-73422463D01*
X147669815Y-73501815D01*
X147590463Y-73598506D01*
X147531498Y-73708820D01*
X147495188Y-73828518D01*
X147482928Y-73953000D01*
X147482928Y-75653000D01*
X147495188Y-75777482D01*
X147531498Y-75897180D01*
X147590463Y-76007494D01*
X147669815Y-76104185D01*
X147766506Y-76183537D01*
X147876820Y-76242502D01*
X147957466Y-76266966D01*
X147873412Y-76342731D01*
X147699359Y-76576080D01*
X147574175Y-76838901D01*
X147529524Y-76986110D01*
X147650845Y-77216000D01*
X148844000Y-77216000D01*
X148844000Y-77196000D01*
X149098000Y-77196000D01*
X149098000Y-77216000D01*
X151384000Y-77216000D01*
X151384000Y-77196000D01*
X151638000Y-77196000D01*
X151638000Y-77216000D01*
X151658000Y-77216000D01*
X151658000Y-77470000D01*
X151638000Y-77470000D01*
X151638000Y-77490000D01*
X151384000Y-77490000D01*
X151384000Y-77470000D01*
X149098000Y-77470000D01*
X149098000Y-77490000D01*
X148844000Y-77490000D01*
X148844000Y-77470000D01*
X147650845Y-77470000D01*
X147529524Y-77699890D01*
X147574175Y-77847099D01*
X147699359Y-78109920D01*
X147873412Y-78343269D01*
X148089645Y-78538178D01*
X148339748Y-78687157D01*
X148614109Y-78784481D01*
X148843998Y-78663815D01*
X148843998Y-78792000D01*
X147227877Y-78792000D01*
X147193000Y-78788565D01*
X147158123Y-78792000D01*
X147053816Y-78802273D01*
X146919980Y-78842872D01*
X146796637Y-78908800D01*
X146688525Y-78997525D01*
X146599800Y-79105637D01*
X146533872Y-79228980D01*
X146493273Y-79362816D01*
X146479565Y-79502000D01*
X146483001Y-79536887D01*
X146483000Y-117567123D01*
X146479565Y-117602000D01*
X146493273Y-117741184D01*
X146533872Y-117875020D01*
X146599800Y-117998363D01*
X146688525Y-118106475D01*
X146770294Y-118173581D01*
X146796637Y-118195200D01*
X146919980Y-118261128D01*
X147053816Y-118301727D01*
X147193000Y-118315435D01*
X147227877Y-118312000D01*
X147908131Y-118312000D01*
X147876820Y-118321498D01*
X147766506Y-118380463D01*
X147669815Y-118459815D01*
X147590463Y-118556506D01*
X147531498Y-118666820D01*
X147495188Y-118786518D01*
X147482928Y-118911000D01*
X147482928Y-120611000D01*
X147495188Y-120735482D01*
X147531498Y-120855180D01*
X147590463Y-120965494D01*
X147669815Y-121062185D01*
X147766506Y-121141537D01*
X147876820Y-121200502D01*
X147957466Y-121224966D01*
X147873412Y-121300731D01*
X147699359Y-121534080D01*
X147574175Y-121796901D01*
X147529524Y-121944110D01*
X147650845Y-122174000D01*
X148844000Y-122174000D01*
X148844000Y-122154000D01*
X149098000Y-122154000D01*
X149098000Y-122174000D01*
X151384000Y-122174000D01*
X151384000Y-122154000D01*
X151638000Y-122154000D01*
X151638000Y-122174000D01*
X151658000Y-122174000D01*
X151658000Y-122428000D01*
X151638000Y-122428000D01*
X151638000Y-123621814D01*
X151867891Y-123742481D01*
X152142252Y-123645157D01*
X152392355Y-123496178D01*
X152608588Y-123301269D01*
X152706000Y-123170671D01*
X152706000Y-123877000D01*
X144725396Y-123877000D01*
X144878637Y-123723759D01*
X145035680Y-123488727D01*
X145143853Y-123227574D01*
X145199000Y-122950335D01*
X145199000Y-122667665D01*
X145197056Y-122657890D01*
X147529524Y-122657890D01*
X147574175Y-122805099D01*
X147699359Y-123067920D01*
X147873412Y-123301269D01*
X148089645Y-123496178D01*
X148339748Y-123645157D01*
X148614109Y-123742481D01*
X148844000Y-123621814D01*
X148844000Y-122428000D01*
X149098000Y-122428000D01*
X149098000Y-123621814D01*
X149327891Y-123742481D01*
X149602252Y-123645157D01*
X149852355Y-123496178D01*
X150068588Y-123301269D01*
X150241000Y-123070120D01*
X150413412Y-123301269D01*
X150629645Y-123496178D01*
X150879748Y-123645157D01*
X151154109Y-123742481D01*
X151384000Y-123621814D01*
X151384000Y-122428000D01*
X149098000Y-122428000D01*
X148844000Y-122428000D01*
X147650845Y-122428000D01*
X147529524Y-122657890D01*
X145197056Y-122657890D01*
X145143853Y-122390426D01*
X145035680Y-122129273D01*
X144878637Y-121894241D01*
X144678759Y-121694363D01*
X144443727Y-121537320D01*
X144182574Y-121429147D01*
X143905335Y-121374000D01*
X143622665Y-121374000D01*
X143345426Y-121429147D01*
X143084273Y-121537320D01*
X142849241Y-121694363D01*
X142649363Y-121894241D01*
X142492320Y-122129273D01*
X142384147Y-122390426D01*
X142329000Y-122667665D01*
X142329000Y-122950335D01*
X142384147Y-123227574D01*
X142492320Y-123488727D01*
X142649363Y-123723759D01*
X142802604Y-123877000D01*
X136197400Y-123877000D01*
X136382775Y-123599566D01*
X136528639Y-123247419D01*
X136603000Y-122873581D01*
X136603000Y-122492419D01*
X136528639Y-122118581D01*
X136382775Y-121766434D01*
X136171013Y-121449509D01*
X135901491Y-121179987D01*
X135584566Y-120968225D01*
X135232419Y-120822361D01*
X134858581Y-120748000D01*
X134477419Y-120748000D01*
X134103581Y-120822361D01*
X133751434Y-120968225D01*
X133434509Y-121179987D01*
X133164987Y-121449509D01*
X132953225Y-121766434D01*
X132807361Y-122118581D01*
X132733000Y-122492419D01*
X132733000Y-122873581D01*
X132807361Y-123247419D01*
X132953225Y-123599566D01*
X133138600Y-123877000D01*
X124027000Y-123877000D01*
X124027000Y-110070755D01*
X124029816Y-110074186D01*
X124126507Y-110153538D01*
X124236821Y-110212503D01*
X124356519Y-110248813D01*
X124481001Y-110261073D01*
X126681001Y-110261073D01*
X126805483Y-110248813D01*
X126925181Y-110212503D01*
X127035495Y-110153538D01*
X127132186Y-110074186D01*
X127211538Y-109977495D01*
X127270503Y-109867181D01*
X127306813Y-109747483D01*
X127319073Y-109623001D01*
X127319073Y-107423001D01*
X127306813Y-107298519D01*
X127270503Y-107178821D01*
X127211538Y-107068507D01*
X127132186Y-106971816D01*
X127035495Y-106892464D01*
X126925181Y-106833499D01*
X126805483Y-106797189D01*
X126681001Y-106784929D01*
X124481001Y-106784929D01*
X124356519Y-106797189D01*
X124236821Y-106833499D01*
X124126507Y-106892464D01*
X124029816Y-106971816D01*
X124027000Y-106975247D01*
X124027000Y-105477088D01*
X124029816Y-105480519D01*
X124126507Y-105559871D01*
X124236821Y-105618836D01*
X124356519Y-105655146D01*
X124481001Y-105667406D01*
X126681001Y-105667406D01*
X126805483Y-105655146D01*
X126925181Y-105618836D01*
X127035495Y-105559871D01*
X127132186Y-105480519D01*
X127211538Y-105383828D01*
X127270503Y-105273514D01*
X127306813Y-105153816D01*
X127319073Y-105029334D01*
X127319073Y-102829334D01*
X127306813Y-102704852D01*
X127270503Y-102585154D01*
X127211538Y-102474840D01*
X127132186Y-102378149D01*
X127035495Y-102298797D01*
X126925181Y-102239832D01*
X126805483Y-102203522D01*
X126681001Y-102191262D01*
X124481001Y-102191262D01*
X124356519Y-102203522D01*
X124236821Y-102239832D01*
X124126507Y-102298797D01*
X124029816Y-102378149D01*
X124027000Y-102381580D01*
X124027000Y-100883421D01*
X124029816Y-100886852D01*
X124126507Y-100966204D01*
X124236821Y-101025169D01*
X124356519Y-101061479D01*
X124481001Y-101073739D01*
X126681001Y-101073739D01*
X126805483Y-101061479D01*
X126925181Y-101025169D01*
X127035495Y-100966204D01*
X127056669Y-100948827D01*
X134087932Y-107980090D01*
X134072676Y-108016920D01*
X134006001Y-108352118D01*
X134006001Y-108693884D01*
X134072676Y-109029082D01*
X134087932Y-109065913D01*
X131140185Y-112013660D01*
X131110237Y-112038238D01*
X131085659Y-112068186D01*
X131085655Y-112068190D01*
X131052690Y-112108358D01*
X131012139Y-112157769D01*
X130973177Y-112230662D01*
X130939246Y-112294143D01*
X130894359Y-112442116D01*
X130879203Y-112596002D01*
X130883001Y-112634565D01*
X130883000Y-116213728D01*
X130751434Y-116268225D01*
X130434509Y-116479987D01*
X130164987Y-116749509D01*
X129953225Y-117066434D01*
X129807361Y-117418581D01*
X129733000Y-117792419D01*
X129733000Y-118173581D01*
X129807361Y-118547419D01*
X129953225Y-118899566D01*
X130164987Y-119216491D01*
X130434509Y-119486013D01*
X130751434Y-119697775D01*
X131103581Y-119843639D01*
X131477419Y-119918000D01*
X131858581Y-119918000D01*
X132232419Y-119843639D01*
X132584566Y-119697775D01*
X132901491Y-119486013D01*
X133171013Y-119216491D01*
X133382775Y-118899566D01*
X133528639Y-118547419D01*
X133603000Y-118173581D01*
X133603000Y-117792419D01*
X133528639Y-117418581D01*
X133382775Y-117066434D01*
X133171013Y-116749509D01*
X133104504Y-116683000D01*
X135729928Y-116683000D01*
X135729928Y-119283000D01*
X135742188Y-119407482D01*
X135778498Y-119527180D01*
X135837463Y-119637494D01*
X135916815Y-119734185D01*
X136013506Y-119813537D01*
X136123820Y-119872502D01*
X136243518Y-119908812D01*
X136368000Y-119921072D01*
X138968000Y-119921072D01*
X139092482Y-119908812D01*
X139212180Y-119872502D01*
X139322494Y-119813537D01*
X139419185Y-119734185D01*
X139498537Y-119637494D01*
X139557502Y-119527180D01*
X139593812Y-119407482D01*
X139606072Y-119283000D01*
X139606072Y-116683000D01*
X139593812Y-116558518D01*
X139557502Y-116438820D01*
X139498537Y-116328506D01*
X139419185Y-116231815D01*
X139322494Y-116152463D01*
X139212180Y-116093498D01*
X139092482Y-116057188D01*
X138968000Y-116044928D01*
X136368000Y-116044928D01*
X136243518Y-116057188D01*
X136123820Y-116093498D01*
X136013506Y-116152463D01*
X135916815Y-116231815D01*
X135837463Y-116328506D01*
X135778498Y-116438820D01*
X135742188Y-116558518D01*
X135729928Y-116683000D01*
X133104504Y-116683000D01*
X132901491Y-116479987D01*
X132584566Y-116268225D01*
X132453000Y-116213729D01*
X132453000Y-115047665D01*
X142329000Y-115047665D01*
X142329000Y-115330335D01*
X142384147Y-115607574D01*
X142492320Y-115868727D01*
X142649363Y-116103759D01*
X142849241Y-116303637D01*
X143084273Y-116460680D01*
X143345426Y-116568853D01*
X143622665Y-116624000D01*
X143905335Y-116624000D01*
X144182574Y-116568853D01*
X144443727Y-116460680D01*
X144678759Y-116303637D01*
X144878637Y-116103759D01*
X145035680Y-115868727D01*
X145143853Y-115607574D01*
X145199000Y-115330335D01*
X145199000Y-115047665D01*
X145143853Y-114770426D01*
X145035680Y-114509273D01*
X144878637Y-114274241D01*
X144678759Y-114074363D01*
X144443727Y-113917320D01*
X144182574Y-113809147D01*
X143905335Y-113754000D01*
X143622665Y-113754000D01*
X143345426Y-113809147D01*
X143084273Y-113917320D01*
X142849241Y-114074363D01*
X142649363Y-114274241D01*
X142492320Y-114509273D01*
X142384147Y-114770426D01*
X142329000Y-115047665D01*
X132453000Y-115047665D01*
X132453000Y-112921159D01*
X135000159Y-110374000D01*
X140864928Y-110374000D01*
X140877188Y-110498482D01*
X140913498Y-110618180D01*
X140972463Y-110728494D01*
X141051815Y-110825185D01*
X141148506Y-110904537D01*
X141258820Y-110963502D01*
X141378518Y-110999812D01*
X141503000Y-111012072D01*
X142117250Y-111009000D01*
X142276000Y-110850250D01*
X142276000Y-109601000D01*
X141026750Y-109601000D01*
X140868000Y-109759750D01*
X140864928Y-110374000D01*
X135000159Y-110374000D01*
X135198089Y-110176070D01*
X135234920Y-110191326D01*
X135570118Y-110258001D01*
X135911884Y-110258001D01*
X136247082Y-110191326D01*
X136562832Y-110060538D01*
X136846999Y-109870664D01*
X137088664Y-109628999D01*
X137278538Y-109344832D01*
X137409326Y-109029082D01*
X137476001Y-108693884D01*
X137476001Y-108574000D01*
X140864928Y-108574000D01*
X140868000Y-109188250D01*
X141026750Y-109347000D01*
X142276000Y-109347000D01*
X142276000Y-108097750D01*
X142530000Y-108097750D01*
X142530000Y-109347000D01*
X142550000Y-109347000D01*
X142550000Y-109601000D01*
X142530000Y-109601000D01*
X142530000Y-110850250D01*
X142688750Y-111009000D01*
X143303000Y-111012072D01*
X143427482Y-110999812D01*
X143547180Y-110963502D01*
X143657494Y-110904537D01*
X143754185Y-110825185D01*
X143833537Y-110728494D01*
X143892502Y-110618180D01*
X143898056Y-110599873D01*
X143964495Y-110666312D01*
X144215905Y-110834299D01*
X144495257Y-110950011D01*
X144791816Y-111009000D01*
X145094184Y-111009000D01*
X145390743Y-110950011D01*
X145670095Y-110834299D01*
X145921505Y-110666312D01*
X146135312Y-110452505D01*
X146303299Y-110201095D01*
X146419011Y-109921743D01*
X146478000Y-109625184D01*
X146478000Y-109322816D01*
X146419011Y-109026257D01*
X146303299Y-108746905D01*
X146135312Y-108495495D01*
X145921505Y-108281688D01*
X145670095Y-108113701D01*
X145390743Y-107997989D01*
X145094184Y-107939000D01*
X144791816Y-107939000D01*
X144495257Y-107997989D01*
X144215905Y-108113701D01*
X143964495Y-108281688D01*
X143898056Y-108348127D01*
X143892502Y-108329820D01*
X143833537Y-108219506D01*
X143754185Y-108122815D01*
X143657494Y-108043463D01*
X143547180Y-107984498D01*
X143427482Y-107948188D01*
X143303000Y-107935928D01*
X142688750Y-107939000D01*
X142530000Y-108097750D01*
X142276000Y-108097750D01*
X142117250Y-107939000D01*
X141503000Y-107935928D01*
X141378518Y-107948188D01*
X141258820Y-107984498D01*
X141148506Y-108043463D01*
X141051815Y-108122815D01*
X140972463Y-108219506D01*
X140913498Y-108329820D01*
X140877188Y-108449518D01*
X140864928Y-108574000D01*
X137476001Y-108574000D01*
X137476001Y-108352118D01*
X137409326Y-108016920D01*
X137278538Y-107701170D01*
X137088664Y-107417003D01*
X136846999Y-107175338D01*
X136562832Y-106985464D01*
X136247082Y-106854676D01*
X135911884Y-106788001D01*
X135570118Y-106788001D01*
X135234920Y-106854676D01*
X135198090Y-106869932D01*
X132086609Y-103758451D01*
X134006001Y-103758451D01*
X134006001Y-104100217D01*
X134072676Y-104435415D01*
X134203464Y-104751165D01*
X134393338Y-105035332D01*
X134635003Y-105276997D01*
X134919170Y-105466871D01*
X135234920Y-105597659D01*
X135570118Y-105664334D01*
X135911884Y-105664334D01*
X136247082Y-105597659D01*
X136562832Y-105466871D01*
X136846999Y-105276997D01*
X137088664Y-105035332D01*
X137278538Y-104751165D01*
X137409326Y-104435415D01*
X137476001Y-104100217D01*
X137476001Y-103758451D01*
X137409326Y-103423253D01*
X137278538Y-103107503D01*
X137088664Y-102823336D01*
X136846999Y-102581671D01*
X136562832Y-102391797D01*
X136247082Y-102261009D01*
X135911884Y-102194334D01*
X135570118Y-102194334D01*
X135234920Y-102261009D01*
X134919170Y-102391797D01*
X134635003Y-102581671D01*
X134393338Y-102823336D01*
X134203464Y-103107503D01*
X134072676Y-103423253D01*
X134006001Y-103758451D01*
X132086609Y-103758451D01*
X128059947Y-99731789D01*
X134051826Y-99731789D01*
X134116426Y-99944761D01*
X134266470Y-100249996D01*
X134473179Y-100520094D01*
X134728610Y-100744675D01*
X135022947Y-100915109D01*
X135344878Y-101024846D01*
X135614001Y-100907267D01*
X135614001Y-99462667D01*
X135868001Y-99462667D01*
X135868001Y-100907267D01*
X136137124Y-101024846D01*
X136459055Y-100915109D01*
X136753392Y-100744675D01*
X137008823Y-100520094D01*
X137215532Y-100249996D01*
X137331048Y-100015000D01*
X141794928Y-100015000D01*
X141794928Y-101915000D01*
X141807188Y-102039482D01*
X141843498Y-102159180D01*
X141902463Y-102269494D01*
X141981815Y-102366185D01*
X142078506Y-102445537D01*
X142188820Y-102504502D01*
X142308518Y-102540812D01*
X142433000Y-102553072D01*
X144333000Y-102553072D01*
X144457482Y-102540812D01*
X144577180Y-102504502D01*
X144687494Y-102445537D01*
X144784185Y-102366185D01*
X144863537Y-102269494D01*
X144922502Y-102159180D01*
X144958812Y-102039482D01*
X144971072Y-101915000D01*
X144971072Y-100015000D01*
X144958812Y-99890518D01*
X144922502Y-99770820D01*
X144863537Y-99660506D01*
X144784185Y-99563815D01*
X144687494Y-99484463D01*
X144628979Y-99453186D01*
X144787609Y-99215779D01*
X144907089Y-98927327D01*
X144968000Y-98621109D01*
X144968000Y-98308891D01*
X144907089Y-98002673D01*
X144787609Y-97714221D01*
X144614150Y-97454621D01*
X144393379Y-97233850D01*
X144365168Y-97215000D01*
X144393379Y-97196150D01*
X144614150Y-96975379D01*
X144787609Y-96715779D01*
X144907089Y-96427327D01*
X144968000Y-96121109D01*
X144968000Y-95808891D01*
X144907089Y-95502673D01*
X144787609Y-95214221D01*
X144614150Y-94954621D01*
X144393379Y-94733850D01*
X144133779Y-94560391D01*
X143845327Y-94440911D01*
X143539109Y-94380000D01*
X143226891Y-94380000D01*
X142920673Y-94440911D01*
X142632221Y-94560391D01*
X142372621Y-94733850D01*
X142151850Y-94954621D01*
X141978391Y-95214221D01*
X141858911Y-95502673D01*
X141798000Y-95808891D01*
X141798000Y-96121109D01*
X141858911Y-96427327D01*
X141978391Y-96715779D01*
X142151850Y-96975379D01*
X142372621Y-97196150D01*
X142400832Y-97215000D01*
X142372621Y-97233850D01*
X142151850Y-97454621D01*
X141978391Y-97714221D01*
X141858911Y-98002673D01*
X141798000Y-98308891D01*
X141798000Y-98621109D01*
X141858911Y-98927327D01*
X141978391Y-99215779D01*
X142137021Y-99453186D01*
X142078506Y-99484463D01*
X141981815Y-99563815D01*
X141902463Y-99660506D01*
X141843498Y-99770820D01*
X141807188Y-99890518D01*
X141794928Y-100015000D01*
X137331048Y-100015000D01*
X137365576Y-99944761D01*
X137430176Y-99731789D01*
X137312126Y-99462667D01*
X135868001Y-99462667D01*
X135614001Y-99462667D01*
X134169876Y-99462667D01*
X134051826Y-99731789D01*
X128059947Y-99731789D01*
X127319073Y-98990916D01*
X127319073Y-98939545D01*
X134051826Y-98939545D01*
X134169876Y-99208667D01*
X135614001Y-99208667D01*
X135614001Y-97764067D01*
X135868001Y-97764067D01*
X135868001Y-99208667D01*
X137312126Y-99208667D01*
X137430176Y-98939545D01*
X137365576Y-98726573D01*
X137215532Y-98421338D01*
X137008823Y-98151240D01*
X136753392Y-97926659D01*
X136459055Y-97756225D01*
X136137124Y-97646488D01*
X135868001Y-97764067D01*
X135614001Y-97764067D01*
X135344878Y-97646488D01*
X135022947Y-97756225D01*
X134728610Y-97926659D01*
X134473179Y-98151240D01*
X134266470Y-98421338D01*
X134116426Y-98726573D01*
X134051826Y-98939545D01*
X127319073Y-98939545D01*
X127319073Y-98235667D01*
X127306813Y-98111185D01*
X127270503Y-97991487D01*
X127211538Y-97881173D01*
X127132186Y-97784482D01*
X127035495Y-97705130D01*
X126925181Y-97646165D01*
X126805483Y-97609855D01*
X126681001Y-97597595D01*
X124481001Y-97597595D01*
X124356519Y-97609855D01*
X124236821Y-97646165D01*
X124126507Y-97705130D01*
X124029816Y-97784482D01*
X124027000Y-97787913D01*
X124027000Y-96289754D01*
X124029816Y-96293185D01*
X124126507Y-96372537D01*
X124236821Y-96431502D01*
X124356519Y-96467812D01*
X124481001Y-96480072D01*
X126681001Y-96480072D01*
X126805483Y-96467812D01*
X126925181Y-96431502D01*
X127035495Y-96372537D01*
X127132186Y-96293185D01*
X127211538Y-96196494D01*
X127270503Y-96086180D01*
X127306813Y-95966482D01*
X127319073Y-95842000D01*
X127319073Y-95138122D01*
X134051826Y-95138122D01*
X134116426Y-95351094D01*
X134266470Y-95656329D01*
X134473179Y-95926427D01*
X134728610Y-96151008D01*
X135022947Y-96321442D01*
X135344878Y-96431179D01*
X135614001Y-96313600D01*
X135614001Y-94869000D01*
X135868001Y-94869000D01*
X135868001Y-96313600D01*
X136137124Y-96431179D01*
X136459055Y-96321442D01*
X136753392Y-96151008D01*
X137008823Y-95926427D01*
X137215532Y-95656329D01*
X137365576Y-95351094D01*
X137430176Y-95138122D01*
X137312126Y-94869000D01*
X135868001Y-94869000D01*
X135614001Y-94869000D01*
X134169876Y-94869000D01*
X134051826Y-95138122D01*
X127319073Y-95138122D01*
X127319073Y-94345878D01*
X134051826Y-94345878D01*
X134169876Y-94615000D01*
X135614001Y-94615000D01*
X135614001Y-93170400D01*
X135868001Y-93170400D01*
X135868001Y-94615000D01*
X137312126Y-94615000D01*
X137430176Y-94345878D01*
X137365576Y-94132906D01*
X137215532Y-93827671D01*
X137008823Y-93557573D01*
X136753392Y-93332992D01*
X136459055Y-93162558D01*
X136137124Y-93052821D01*
X135868001Y-93170400D01*
X135614001Y-93170400D01*
X135344878Y-93052821D01*
X135022947Y-93162558D01*
X134728610Y-93332992D01*
X134473179Y-93557573D01*
X134266470Y-93827671D01*
X134116426Y-94132906D01*
X134051826Y-94345878D01*
X127319073Y-94345878D01*
X127319073Y-93642000D01*
X127306813Y-93517518D01*
X127270503Y-93397820D01*
X127211538Y-93287506D01*
X127132186Y-93190815D01*
X127035495Y-93111463D01*
X126925181Y-93052498D01*
X126805483Y-93016188D01*
X126681001Y-93003928D01*
X124481001Y-93003928D01*
X124356519Y-93016188D01*
X124236821Y-93052498D01*
X124126507Y-93111463D01*
X124029816Y-93190815D01*
X124027000Y-93194246D01*
X124027000Y-88154000D01*
X125282428Y-88154000D01*
X125282428Y-90154000D01*
X125294688Y-90278482D01*
X125330998Y-90398180D01*
X125389963Y-90508494D01*
X125469315Y-90605185D01*
X125566006Y-90684537D01*
X125676320Y-90743502D01*
X125796018Y-90779812D01*
X125920500Y-90792072D01*
X127825500Y-90792072D01*
X127949982Y-90779812D01*
X128069680Y-90743502D01*
X128179994Y-90684537D01*
X128276685Y-90605185D01*
X128356037Y-90508494D01*
X128405059Y-90416781D01*
X128546077Y-90529969D01*
X128821906Y-90673571D01*
X129040020Y-90744563D01*
X129286000Y-90624594D01*
X129286000Y-89281000D01*
X129266000Y-89281000D01*
X129266000Y-89027000D01*
X129286000Y-89027000D01*
X129286000Y-87683406D01*
X129540000Y-87683406D01*
X129540000Y-89027000D01*
X129560000Y-89027000D01*
X129560000Y-89281000D01*
X129540000Y-89281000D01*
X129540000Y-90624594D01*
X129785980Y-90744563D01*
X130004094Y-90673571D01*
X130279923Y-90529969D01*
X130522437Y-90335315D01*
X130677837Y-90150101D01*
X130825037Y-90329463D01*
X131066766Y-90527845D01*
X131342552Y-90675255D01*
X131641797Y-90766030D01*
X131953000Y-90796681D01*
X132264204Y-90766030D01*
X132563449Y-90675255D01*
X132839235Y-90527845D01*
X133080963Y-90329463D01*
X133223595Y-90155665D01*
X136360000Y-90155665D01*
X136360000Y-90438335D01*
X136415147Y-90715574D01*
X136523320Y-90976727D01*
X136680363Y-91211759D01*
X136880241Y-91411637D01*
X137115273Y-91568680D01*
X137376426Y-91676853D01*
X137653665Y-91732000D01*
X137936335Y-91732000D01*
X138213574Y-91676853D01*
X138474727Y-91568680D01*
X138709759Y-91411637D01*
X138909637Y-91211759D01*
X139066680Y-90976727D01*
X139174853Y-90715574D01*
X139230000Y-90438335D01*
X139230000Y-90155665D01*
X139174853Y-89878426D01*
X139066680Y-89617273D01*
X138909637Y-89382241D01*
X138709759Y-89182363D01*
X138474727Y-89025320D01*
X138213574Y-88917147D01*
X137936335Y-88862000D01*
X137653665Y-88862000D01*
X137376426Y-88917147D01*
X137115273Y-89025320D01*
X136880241Y-89182363D01*
X136680363Y-89382241D01*
X136523320Y-89617273D01*
X136415147Y-89878426D01*
X136360000Y-90155665D01*
X133223595Y-90155665D01*
X133279345Y-90087734D01*
X133426755Y-89811948D01*
X133517530Y-89512703D01*
X133540500Y-89279485D01*
X133540500Y-89028514D01*
X133517530Y-88795296D01*
X133514104Y-88784000D01*
X140864928Y-88784000D01*
X140877188Y-88908482D01*
X140913498Y-89028180D01*
X140972463Y-89138494D01*
X141051815Y-89235185D01*
X141148506Y-89314537D01*
X141258820Y-89373502D01*
X141378518Y-89409812D01*
X141503000Y-89422072D01*
X142117250Y-89419000D01*
X142276000Y-89260250D01*
X142276000Y-88011000D01*
X141026750Y-88011000D01*
X140868000Y-88169750D01*
X140864928Y-88784000D01*
X133514104Y-88784000D01*
X133426755Y-88496051D01*
X133279345Y-88220265D01*
X133080963Y-87978537D01*
X132839234Y-87780155D01*
X132563448Y-87632745D01*
X132264203Y-87541970D01*
X131953000Y-87511319D01*
X131641796Y-87541970D01*
X131342551Y-87632745D01*
X131066765Y-87780155D01*
X130825037Y-87978537D01*
X130677838Y-88157900D01*
X130522437Y-87972685D01*
X130279923Y-87778031D01*
X130004094Y-87634429D01*
X129785980Y-87563437D01*
X129540000Y-87683406D01*
X129286000Y-87683406D01*
X129040020Y-87563437D01*
X128821906Y-87634429D01*
X128546077Y-87778031D01*
X128405059Y-87891219D01*
X128356037Y-87799506D01*
X128276685Y-87702815D01*
X128179994Y-87623463D01*
X128069680Y-87564498D01*
X127949982Y-87528188D01*
X127825500Y-87515928D01*
X125920500Y-87515928D01*
X125796018Y-87528188D01*
X125676320Y-87564498D01*
X125566006Y-87623463D01*
X125469315Y-87702815D01*
X125389963Y-87799506D01*
X125330998Y-87909820D01*
X125294688Y-88029518D01*
X125282428Y-88154000D01*
X124027000Y-88154000D01*
X124027000Y-86984000D01*
X140864928Y-86984000D01*
X140868000Y-87598250D01*
X141026750Y-87757000D01*
X142276000Y-87757000D01*
X142276000Y-86507750D01*
X142530000Y-86507750D01*
X142530000Y-87757000D01*
X142550000Y-87757000D01*
X142550000Y-88011000D01*
X142530000Y-88011000D01*
X142530000Y-89260250D01*
X142688750Y-89419000D01*
X143303000Y-89422072D01*
X143427482Y-89409812D01*
X143547180Y-89373502D01*
X143657494Y-89314537D01*
X143754185Y-89235185D01*
X143833537Y-89138494D01*
X143892502Y-89028180D01*
X143898056Y-89009873D01*
X143964495Y-89076312D01*
X144215905Y-89244299D01*
X144495257Y-89360011D01*
X144791816Y-89419000D01*
X145094184Y-89419000D01*
X145390743Y-89360011D01*
X145670095Y-89244299D01*
X145921505Y-89076312D01*
X146135312Y-88862505D01*
X146303299Y-88611095D01*
X146419011Y-88331743D01*
X146478000Y-88035184D01*
X146478000Y-87732816D01*
X146419011Y-87436257D01*
X146303299Y-87156905D01*
X146135312Y-86905495D01*
X145921505Y-86691688D01*
X145670095Y-86523701D01*
X145390743Y-86407989D01*
X145094184Y-86349000D01*
X144791816Y-86349000D01*
X144495257Y-86407989D01*
X144215905Y-86523701D01*
X143964495Y-86691688D01*
X143898056Y-86758127D01*
X143892502Y-86739820D01*
X143833537Y-86629506D01*
X143754185Y-86532815D01*
X143657494Y-86453463D01*
X143547180Y-86394498D01*
X143427482Y-86358188D01*
X143303000Y-86345928D01*
X142688750Y-86349000D01*
X142530000Y-86507750D01*
X142276000Y-86507750D01*
X142117250Y-86349000D01*
X141503000Y-86345928D01*
X141378518Y-86358188D01*
X141258820Y-86394498D01*
X141148506Y-86453463D01*
X141051815Y-86532815D01*
X140972463Y-86629506D01*
X140913498Y-86739820D01*
X140877188Y-86859518D01*
X140864928Y-86984000D01*
X124027000Y-86984000D01*
X124027000Y-82535665D01*
X136360000Y-82535665D01*
X136360000Y-82818335D01*
X136415147Y-83095574D01*
X136523320Y-83356727D01*
X136680363Y-83591759D01*
X136880241Y-83791637D01*
X137115273Y-83948680D01*
X137376426Y-84056853D01*
X137653665Y-84112000D01*
X137936335Y-84112000D01*
X138213574Y-84056853D01*
X138474727Y-83948680D01*
X138709759Y-83791637D01*
X138909637Y-83591759D01*
X139066680Y-83356727D01*
X139174853Y-83095574D01*
X139230000Y-82818335D01*
X139230000Y-82535665D01*
X139174853Y-82258426D01*
X139066680Y-81997273D01*
X138909637Y-81762241D01*
X138709759Y-81562363D01*
X138474727Y-81405320D01*
X138213574Y-81297147D01*
X137936335Y-81242000D01*
X137653665Y-81242000D01*
X137376426Y-81297147D01*
X137115273Y-81405320D01*
X136880241Y-81562363D01*
X136680363Y-81762241D01*
X136523320Y-81997273D01*
X136415147Y-82258426D01*
X136360000Y-82535665D01*
X124027000Y-82535665D01*
X124027000Y-77486000D01*
X124853928Y-77486000D01*
X124853928Y-79486000D01*
X124866188Y-79610482D01*
X124902498Y-79730180D01*
X124961463Y-79840494D01*
X125040815Y-79937185D01*
X125137506Y-80016537D01*
X125247820Y-80075502D01*
X125367518Y-80111812D01*
X125492000Y-80124072D01*
X127492000Y-80124072D01*
X127616482Y-80111812D01*
X127736180Y-80075502D01*
X127846494Y-80016537D01*
X127943185Y-79937185D01*
X128022537Y-79840494D01*
X128081502Y-79730180D01*
X128114496Y-79621413D01*
X130536192Y-79621413D01*
X130631956Y-79885814D01*
X130921571Y-80026704D01*
X131233108Y-80108384D01*
X131554595Y-80127718D01*
X131873675Y-80083961D01*
X132178088Y-79978795D01*
X132352044Y-79885814D01*
X132447808Y-79621413D01*
X131492000Y-78665605D01*
X130536192Y-79621413D01*
X128114496Y-79621413D01*
X128117812Y-79610482D01*
X128130072Y-79486000D01*
X128130072Y-78548595D01*
X129850282Y-78548595D01*
X129894039Y-78867675D01*
X129999205Y-79172088D01*
X130092186Y-79346044D01*
X130356587Y-79441808D01*
X131312395Y-78486000D01*
X131671605Y-78486000D01*
X132627413Y-79441808D01*
X132891814Y-79346044D01*
X133032704Y-79056429D01*
X133114384Y-78744892D01*
X133133718Y-78423405D01*
X133089961Y-78104325D01*
X132984795Y-77799912D01*
X132891814Y-77625956D01*
X132627413Y-77530192D01*
X131671605Y-78486000D01*
X131312395Y-78486000D01*
X130356587Y-77530192D01*
X130092186Y-77625956D01*
X129951296Y-77915571D01*
X129869616Y-78227108D01*
X129850282Y-78548595D01*
X128130072Y-78548595D01*
X128130072Y-77486000D01*
X128117812Y-77361518D01*
X128114497Y-77350587D01*
X130536192Y-77350587D01*
X131492000Y-78306395D01*
X132447808Y-77350587D01*
X132352044Y-77086186D01*
X132062429Y-76945296D01*
X131750892Y-76863616D01*
X131429405Y-76844282D01*
X131110325Y-76888039D01*
X130805912Y-76993205D01*
X130631956Y-77086186D01*
X130536192Y-77350587D01*
X128114497Y-77350587D01*
X128081502Y-77241820D01*
X128022537Y-77131506D01*
X127943185Y-77034815D01*
X127846494Y-76955463D01*
X127736180Y-76896498D01*
X127616482Y-76860188D01*
X127492000Y-76847928D01*
X125492000Y-76847928D01*
X125367518Y-76860188D01*
X125247820Y-76896498D01*
X125137506Y-76955463D01*
X125040815Y-77034815D01*
X124961463Y-77131506D01*
X124902498Y-77241820D01*
X124866188Y-77361518D01*
X124853928Y-77486000D01*
X124027000Y-77486000D01*
X124027000Y-75400000D01*
X135213928Y-75400000D01*
X135213928Y-77000000D01*
X135226188Y-77124482D01*
X135262498Y-77244180D01*
X135321463Y-77354494D01*
X135400815Y-77451185D01*
X135497506Y-77530537D01*
X135607820Y-77589502D01*
X135727518Y-77625812D01*
X135852000Y-77638072D01*
X137452000Y-77638072D01*
X137576482Y-77625812D01*
X137696180Y-77589502D01*
X137806494Y-77530537D01*
X137903185Y-77451185D01*
X137982537Y-77354494D01*
X138041502Y-77244180D01*
X138057117Y-77192702D01*
X138338903Y-77192702D01*
X138410486Y-77436671D01*
X138665996Y-77557571D01*
X138940184Y-77626300D01*
X139222512Y-77640217D01*
X139502130Y-77598787D01*
X139768292Y-77503603D01*
X139893514Y-77436671D01*
X139965097Y-77192702D01*
X139152000Y-76379605D01*
X138338903Y-77192702D01*
X138057117Y-77192702D01*
X138077812Y-77124482D01*
X138090072Y-77000000D01*
X138090072Y-76992785D01*
X138159298Y-77013097D01*
X138972395Y-76200000D01*
X139331605Y-76200000D01*
X140144702Y-77013097D01*
X140388671Y-76941514D01*
X140509571Y-76686004D01*
X140578300Y-76411816D01*
X140592217Y-76129488D01*
X140550787Y-75849870D01*
X140455603Y-75583708D01*
X140388671Y-75458486D01*
X140144702Y-75386903D01*
X139331605Y-76200000D01*
X138972395Y-76200000D01*
X138159298Y-75386903D01*
X138090072Y-75407215D01*
X138090072Y-75400000D01*
X138077812Y-75275518D01*
X138057118Y-75207298D01*
X138338903Y-75207298D01*
X139152000Y-76020395D01*
X139965097Y-75207298D01*
X139893514Y-74963329D01*
X139638004Y-74842429D01*
X139363816Y-74773700D01*
X139081488Y-74759783D01*
X138801870Y-74801213D01*
X138535708Y-74896397D01*
X138410486Y-74963329D01*
X138338903Y-75207298D01*
X138057118Y-75207298D01*
X138041502Y-75155820D01*
X137982537Y-75045506D01*
X137903185Y-74948815D01*
X137806494Y-74869463D01*
X137696180Y-74810498D01*
X137576482Y-74774188D01*
X137452000Y-74761928D01*
X135852000Y-74761928D01*
X135727518Y-74774188D01*
X135607820Y-74810498D01*
X135497506Y-74869463D01*
X135400815Y-74948815D01*
X135321463Y-75045506D01*
X135262498Y-75155820D01*
X135226188Y-75275518D01*
X135213928Y-75400000D01*
X124027000Y-75400000D01*
X124027000Y-73227000D01*
X152706001Y-73227000D01*
X152706001Y-73918516D01*
G37*
%TD.AperFunction*%
%TD*%
M02*
