%TF.GenerationSoftware,KiCad,Pcbnew,(5.1.9)-1*%
%TF.CreationDate,2021-12-31T02:05:00-06:00*%
%TF.ProjectId,BreadBoardPowerSupply,42726561-6442-46f6-9172-64506f776572,rev?*%
%TF.SameCoordinates,Original*%
%TF.FileFunction,Copper,L1,Top*%
%TF.FilePolarity,Positive*%
%FSLAX46Y46*%
G04 Gerber Fmt 4.6, Leading zero omitted, Abs format (unit mm)*
G04 Created by KiCad (PCBNEW (5.1.9)-1) date 2021-12-31 02:05:00*
%MOMM*%
%LPD*%
G01*
G04 APERTURE LIST*
%TA.AperFunction,ComponentPad*%
%ADD10C,1.600000*%
%TD*%
%TA.AperFunction,ComponentPad*%
%ADD11O,1.600000X1.600000*%
%TD*%
%TA.AperFunction,ComponentPad*%
%ADD12C,2.000000*%
%TD*%
%TA.AperFunction,ComponentPad*%
%ADD13R,2.000000X2.000000*%
%TD*%
%TA.AperFunction,ComponentPad*%
%ADD14R,1.600000X1.600000*%
%TD*%
%TA.AperFunction,ComponentPad*%
%ADD15O,2.200000X2.200000*%
%TD*%
%TA.AperFunction,ComponentPad*%
%ADD16R,2.200000X2.200000*%
%TD*%
%TA.AperFunction,ComponentPad*%
%ADD17C,1.800000*%
%TD*%
%TA.AperFunction,ComponentPad*%
%ADD18R,1.800000X1.800000*%
%TD*%
%TA.AperFunction,ComponentPad*%
%ADD19C,2.600000*%
%TD*%
%TA.AperFunction,ComponentPad*%
%ADD20R,2.600000X2.600000*%
%TD*%
%TA.AperFunction,ComponentPad*%
%ADD21R,1.700000X1.700000*%
%TD*%
%TA.AperFunction,ComponentPad*%
%ADD22O,1.700000X1.700000*%
%TD*%
%TA.AperFunction,ComponentPad*%
%ADD23C,1.900000*%
%TD*%
%TA.AperFunction,ComponentPad*%
%ADD24R,1.900000X1.900000*%
%TD*%
%TA.AperFunction,ComponentPad*%
%ADD25O,1.905000X2.000000*%
%TD*%
%TA.AperFunction,ComponentPad*%
%ADD26R,1.905000X2.000000*%
%TD*%
%TA.AperFunction,Conductor*%
%ADD27C,0.300000*%
%TD*%
G04 APERTURE END LIST*
D10*
%TO.P,R2,1*%
%TO.N,/Vout2*%
X137795000Y-82677000D03*
D11*
%TO.P,R2,2*%
%TO.N,Net-(D6-Pad2)*%
X137795000Y-90297000D03*
%TD*%
D12*
%TO.P,C1,2*%
%TO.N,/V-*%
X131492000Y-78486000D03*
D13*
%TO.P,C1,1*%
%TO.N,/Vin*%
X126492000Y-78486000D03*
%TD*%
D10*
%TO.P,C2,2*%
%TO.N,/V-*%
X139152000Y-76200000D03*
D14*
%TO.P,C2,1*%
%TO.N,/Vout1*%
X136652000Y-76200000D03*
%TD*%
D15*
%TO.P,D1,2*%
%TO.N,Net-(D1-Pad2)*%
X135741001Y-103929334D03*
D16*
%TO.P,D1,1*%
%TO.N,/Vin*%
X125581001Y-103929334D03*
%TD*%
D15*
%TO.P,D2,2*%
%TO.N,/V-*%
X135741001Y-94742000D03*
D16*
%TO.P,D2,1*%
%TO.N,Net-(D1-Pad2)*%
X125581001Y-94742000D03*
%TD*%
%TO.P,D3,1*%
%TO.N,/Vin*%
X125581001Y-108523001D03*
D15*
%TO.P,D3,2*%
%TO.N,Net-(D3-Pad2)*%
X135741001Y-108523001D03*
%TD*%
%TO.P,D4,2*%
%TO.N,/V-*%
X135741001Y-99335667D03*
D16*
%TO.P,D4,1*%
%TO.N,Net-(D3-Pad2)*%
X125581001Y-99335667D03*
%TD*%
D17*
%TO.P,D5,2*%
%TO.N,Net-(D5-Pad2)*%
X144943000Y-109474000D03*
D18*
%TO.P,D5,1*%
%TO.N,/V-*%
X142403000Y-109474000D03*
%TD*%
%TO.P,D6,1*%
%TO.N,/V-*%
X142403000Y-87884000D03*
D17*
%TO.P,D6,2*%
%TO.N,Net-(D6-Pad2)*%
X144943000Y-87884000D03*
%TD*%
D19*
%TO.P,J1,3*%
%TO.N,Net-(J1-Pad3)*%
X134668000Y-122683000D03*
%TO.P,J1,2*%
%TO.N,Net-(D3-Pad2)*%
X131668000Y-117983000D03*
D20*
%TO.P,J1,1*%
%TO.N,Net-(D1-Pad2)*%
X137668000Y-117983000D03*
%TD*%
D21*
%TO.P,J2,1*%
%TO.N,/Vout2*%
X148971000Y-74803000D03*
D22*
%TO.P,J2,2*%
X151511000Y-74803000D03*
%TO.P,J2,3*%
%TO.N,/V-*%
X148971000Y-77343000D03*
%TO.P,J2,4*%
X151511000Y-77343000D03*
%TD*%
D21*
%TO.P,J3,1*%
%TO.N,/Vout2*%
X148971000Y-119761000D03*
D22*
%TO.P,J3,2*%
X151511000Y-119761000D03*
%TO.P,J3,3*%
%TO.N,/V-*%
X148971000Y-122301000D03*
%TO.P,J3,4*%
X151511000Y-122301000D03*
%TD*%
D11*
%TO.P,R1,2*%
%TO.N,/Vout1*%
X143764000Y-115189000D03*
D10*
%TO.P,R1,1*%
%TO.N,Net-(D5-Pad2)*%
X143764000Y-122809000D03*
%TD*%
D23*
%TO.P,SW1,3*%
%TO.N,Net-(SW1-Pad3)*%
X143383000Y-95965000D03*
%TO.P,SW1,2*%
%TO.N,/Vout1*%
X143383000Y-98465000D03*
D24*
%TO.P,SW1,1*%
%TO.N,/Vout2*%
X143383000Y-100965000D03*
%TD*%
D25*
%TO.P,U1,3*%
%TO.N,/Vout1*%
X131953000Y-89154000D03*
%TO.P,U1,2*%
%TO.N,/V-*%
X129413000Y-89154000D03*
D26*
%TO.P,U1,1*%
%TO.N,/Vin*%
X126873000Y-89154000D03*
%TD*%
D27*
%TO.N,/Vin*%
X126750002Y-89412002D02*
X126492000Y-89154000D01*
X125581001Y-108523001D02*
X125581001Y-103929334D01*
X127131002Y-89412002D02*
X126873000Y-89154000D01*
X127131002Y-102379333D02*
X127131002Y-89412002D01*
X125581001Y-103929334D02*
X127131002Y-102379333D01*
X126492000Y-88773000D02*
X126873000Y-89154000D01*
X126492000Y-78486000D02*
X126492000Y-88773000D01*
%TO.N,/Vout1*%
X141052999Y-112477999D02*
X143764000Y-115189000D01*
X141052999Y-99451499D02*
X141052999Y-112477999D01*
X142039498Y-98465000D02*
X141052999Y-99451499D01*
X143383000Y-98465000D02*
X142039498Y-98465000D01*
X134072000Y-89154000D02*
X131953000Y-89154000D01*
X143383000Y-98465000D02*
X134072000Y-89154000D01*
X131953000Y-80899000D02*
X131953000Y-89154000D01*
X136652000Y-76200000D02*
X131953000Y-80899000D01*
%TO.N,Net-(D1-Pad2)*%
X124031000Y-96292001D02*
X125581001Y-94742000D01*
X124031000Y-109983002D02*
X124031000Y-96292001D01*
X124121000Y-110073002D02*
X124031000Y-109983002D01*
X129597333Y-110073002D02*
X124121000Y-110073002D01*
X135741001Y-103929334D02*
X129597333Y-110073002D01*
X137668000Y-105856333D02*
X135741001Y-103929334D01*
X137668000Y-117983000D02*
X137668000Y-105856333D01*
%TO.N,Net-(D5-Pad2)*%
X145014001Y-121558999D02*
X145014001Y-109545001D01*
X145014001Y-109545001D02*
X144943000Y-109474000D01*
X143764000Y-122809000D02*
X145014001Y-121558999D01*
%TO.N,Net-(D6-Pad2)*%
X142530000Y-90297000D02*
X144943000Y-87884000D01*
X137795000Y-90297000D02*
X142530000Y-90297000D01*
%TO.N,/Vout2*%
X151511000Y-119761000D02*
X148971000Y-119761000D01*
X146293001Y-103875001D02*
X143383000Y-100965000D01*
X146293001Y-117444477D02*
X146293001Y-103875001D01*
X148609524Y-119761000D02*
X146293001Y-117444477D01*
X148971000Y-119761000D02*
X148609524Y-119761000D01*
X148971000Y-74803000D02*
X151511000Y-74803000D01*
X141734002Y-82677000D02*
X137795000Y-82677000D01*
X146293001Y-87235999D02*
X141734002Y-82677000D01*
X146293001Y-98054999D02*
X146293001Y-87235999D01*
X143383000Y-100965000D02*
X146293001Y-98054999D01*
X148971000Y-75418998D02*
X148971000Y-74803000D01*
X141734002Y-82655996D02*
X148971000Y-75418998D01*
X141734002Y-82677000D02*
X141734002Y-82655996D01*
%TD*%
M02*
