M48
; DRILL file {KiCad (5.1.9)-1} date 12/31/21 02:06:06
; FORMAT={2:4/ absolute / inch / suppress leading zeros}
; #@! TF.CreationDate,2021-12-31T02:06:06-06:00
; #@! TF.GenerationSoftware,Kicad,Pcbnew,(5.1.9)-1
; #@! TF.FileFunction,Plated,1,2,PTH
FMAT,2
INCH,TZ
T1C0.0315
T2C0.0354
T3C0.0394
T4C0.0433
T5C0.0630
%
G90
G05
T1
X53800Y-30000
X54250Y-32550
X54250Y-35550
X54784Y-30000
X56600Y-45350
X56600Y-48350
T2
X56064Y-34600
X56064Y-43100
X56450Y-37781
X56450Y-38766
X56450Y-39750
X57064Y-34600
X57064Y-43100
T3
X49800Y-30900
X51769Y-30900
X58650Y-29450
X58650Y-30450
X58650Y-47150
X58650Y-48150
X59650Y-29450
X59650Y-30450
X59650Y-47150
X59650Y-48150
T4
X49441Y-37300
X49441Y-39109
X49441Y-40917
X49441Y-42726
X49950Y-35100
X50950Y-35100
X51950Y-35100
X53441Y-37300
X53441Y-39109
X53441Y-40917
X53441Y-42726
T5
X51838Y-46450
X53019Y-48300
X54200Y-46450
T0
M30
