M48
; DRILL file {KiCad (5.1.9)-1} date 01/01/22 15:49:33
; FORMAT={2:4/ absolute / inch / suppress leading zeros}
; #@! TF.CreationDate,2022-01-01T15:49:33-06:00
; #@! TF.GenerationSoftware,Kicad,Pcbnew,(5.1.9)-1
; #@! TF.FileFunction,Plated,1,2,PTH
FMAT,2
INCH,TZ
T1C0.0315
T2C0.0394
T3C0.0400
%
G90
G05
T1
X83700Y-27900
X84255Y-29600
X85255Y-29600
X86255Y-29600
X86681Y-26881
X87255Y-29600
T2
X80750Y-23850
X80750Y-24850
X81750Y-23850
X81750Y-24850
X82750Y-23850
X82750Y-24850
X83750Y-23850
X83750Y-24850
X84750Y-23850
X84750Y-24850
X85750Y-23850
X85750Y-24850
X86750Y-23850
X86750Y-24850
X87750Y-23850
X87750Y-24850
T3
X80220Y-28661
X80220Y-30441
X82780Y-28661
X82780Y-30441
T0
M30
