%TF.GenerationSoftware,KiCad,Pcbnew,(5.1.9)-1*%
%TF.CreationDate,2022-01-01T15:49:24-06:00*%
%TF.ProjectId,RaspberryPiHAT,52617370-6265-4727-9279-50694841542e,1*%
%TF.SameCoordinates,Original*%
%TF.FileFunction,Copper,L2,Bot*%
%TF.FilePolarity,Positive*%
%FSLAX46Y46*%
G04 Gerber Fmt 4.6, Leading zero omitted, Abs format (unit mm)*
G04 Created by KiCad (PCBNEW (5.1.9)-1) date 2022-01-01 15:49:24*
%MOMM*%
%LPD*%
G01*
G04 APERTURE LIST*
%TA.AperFunction,ComponentPad*%
%ADD10O,1.700000X1.700000*%
%TD*%
%TA.AperFunction,ComponentPad*%
%ADD11R,1.700000X1.700000*%
%TD*%
%TA.AperFunction,ComponentPad*%
%ADD12O,1.524000X1.524000*%
%TD*%
%TA.AperFunction,ComponentPad*%
%ADD13R,1.500000X1.500000*%
%TD*%
%TA.AperFunction,ComponentPad*%
%ADD14C,1.500000*%
%TD*%
%TA.AperFunction,ViaPad*%
%ADD15C,1.000000*%
%TD*%
%TA.AperFunction,Conductor*%
%ADD16C,0.254000*%
%TD*%
%TA.AperFunction,Conductor*%
%ADD17C,0.100000*%
%TD*%
G04 APERTURE END LIST*
D10*
%TO.P,J1,16*%
%TO.N,Net-(J1-Pad16)*%
X222885000Y-60579000D03*
%TO.P,J1,15*%
%TO.N,Net-(J1-Pad15)*%
X222885000Y-63119000D03*
%TO.P,J1,14*%
%TO.N,Net-(J1-Pad14)*%
X220345000Y-60579000D03*
%TO.P,J1,13*%
%TO.N,Net-(J1-Pad13)*%
X220345000Y-63119000D03*
%TO.P,J1,12*%
%TO.N,Net-(J1-Pad12)*%
X217805000Y-60579000D03*
%TO.P,J1,11*%
%TO.N,Net-(J1-Pad11)*%
X217805000Y-63119000D03*
%TO.P,J1,10*%
%TO.N,Net-(J1-Pad10)*%
X215265000Y-60579000D03*
%TO.P,J1,9*%
%TO.N,GND*%
X215265000Y-63119000D03*
%TO.P,J1,8*%
%TO.N,/button_input*%
X212725000Y-60579000D03*
%TO.P,J1,7*%
%TO.N,Net-(J1-Pad7)*%
X212725000Y-63119000D03*
%TO.P,J1,6*%
%TO.N,GND*%
X210185000Y-60579000D03*
%TO.P,J1,5*%
%TO.N,Net-(J1-Pad5)*%
X210185000Y-63119000D03*
%TO.P,J1,4*%
%TO.N,Net-(J1-Pad4)*%
X207645000Y-60579000D03*
%TO.P,J1,3*%
%TO.N,Net-(J1-Pad3)*%
X207645000Y-63119000D03*
%TO.P,J1,2*%
%TO.N,Net-(J1-Pad2)*%
X205105000Y-60579000D03*
D11*
%TO.P,J1,1*%
%TO.N,/3V3*%
X205105000Y-63119000D03*
%TD*%
D12*
%TO.P,SW1,2*%
%TO.N,/button_input*%
X203758800Y-72798800D03*
X210261200Y-72798800D03*
%TO.P,SW1,1*%
%TO.N,/3V3*%
X203758800Y-77320000D03*
X210261200Y-77320000D03*
%TD*%
D13*
%TO.P,U1,1*%
%TO.N,/3V3*%
X221627500Y-75184000D03*
D14*
%TO.P,U1,2*%
%TO.N,Net-(J1-Pad11)*%
X219087500Y-75184000D03*
%TO.P,U1,3*%
%TO.N,Net-(U1-Pad3)*%
X216547500Y-75184000D03*
%TO.P,U1,4*%
%TO.N,GND*%
X214007500Y-75184000D03*
%TD*%
D15*
%TO.N,GND*%
X212598000Y-70866000D03*
X220169500Y-68277500D03*
%TD*%
D16*
%TO.N,GND*%
X224544893Y-58883078D02*
X224553452Y-58885662D01*
X224561343Y-58889858D01*
X224568268Y-58895506D01*
X224573964Y-58902391D01*
X224578215Y-58910253D01*
X224580859Y-58918794D01*
X224584001Y-58948688D01*
X224584000Y-78463497D01*
X224580921Y-78494896D01*
X224578337Y-78503454D01*
X224574144Y-78511341D01*
X224568494Y-78518268D01*
X224561609Y-78523964D01*
X224553747Y-78528215D01*
X224545206Y-78530859D01*
X224515322Y-78534000D01*
X202206503Y-78534000D01*
X202175104Y-78530921D01*
X202166546Y-78528337D01*
X202158659Y-78524144D01*
X202151732Y-78518494D01*
X202146036Y-78511609D01*
X202141785Y-78503747D01*
X202139141Y-78495206D01*
X202136000Y-78465322D01*
X202136000Y-77202106D01*
X202561800Y-77202106D01*
X202561800Y-77437894D01*
X202607800Y-77669152D01*
X202698032Y-77886992D01*
X202829029Y-78083043D01*
X202995757Y-78249771D01*
X203191808Y-78380768D01*
X203409648Y-78471000D01*
X203640906Y-78517000D01*
X203876694Y-78517000D01*
X204107952Y-78471000D01*
X204325792Y-78380768D01*
X204521843Y-78249771D01*
X204688571Y-78083043D01*
X204819568Y-77886992D01*
X204909800Y-77669152D01*
X204955800Y-77437894D01*
X204955800Y-77202106D01*
X209064200Y-77202106D01*
X209064200Y-77437894D01*
X209110200Y-77669152D01*
X209200432Y-77886992D01*
X209331429Y-78083043D01*
X209498157Y-78249771D01*
X209694208Y-78380768D01*
X209912048Y-78471000D01*
X210143306Y-78517000D01*
X210379094Y-78517000D01*
X210610352Y-78471000D01*
X210828192Y-78380768D01*
X211024243Y-78249771D01*
X211190971Y-78083043D01*
X211321968Y-77886992D01*
X211412200Y-77669152D01*
X211458200Y-77437894D01*
X211458200Y-77202106D01*
X211412200Y-76970848D01*
X211321968Y-76753008D01*
X211190971Y-76556957D01*
X211024243Y-76390229D01*
X210828192Y-76259232D01*
X210610352Y-76169000D01*
X210379094Y-76123000D01*
X210143306Y-76123000D01*
X209912048Y-76169000D01*
X209694208Y-76259232D01*
X209498157Y-76390229D01*
X209331429Y-76556957D01*
X209200432Y-76753008D01*
X209110200Y-76970848D01*
X209064200Y-77202106D01*
X204955800Y-77202106D01*
X204909800Y-76970848D01*
X204819568Y-76753008D01*
X204688571Y-76556957D01*
X204521843Y-76390229D01*
X204325792Y-76259232D01*
X204107952Y-76169000D01*
X203876694Y-76123000D01*
X203640906Y-76123000D01*
X203409648Y-76169000D01*
X203191808Y-76259232D01*
X202995757Y-76390229D01*
X202829029Y-76556957D01*
X202698032Y-76753008D01*
X202607800Y-76970848D01*
X202561800Y-77202106D01*
X202136000Y-77202106D01*
X202136000Y-76108573D01*
X213191821Y-76108573D01*
X213253026Y-76353444D01*
X213495670Y-76478165D01*
X213757984Y-76553150D01*
X214029886Y-76575520D01*
X214300928Y-76544415D01*
X214560694Y-76461031D01*
X214761974Y-76353444D01*
X214823179Y-76108573D01*
X214007500Y-75292894D01*
X213191821Y-76108573D01*
X202136000Y-76108573D01*
X202136000Y-75206386D01*
X212615980Y-75206386D01*
X212647085Y-75477428D01*
X212730469Y-75737194D01*
X212838056Y-75938474D01*
X213082927Y-75999679D01*
X213898606Y-75184000D01*
X214116394Y-75184000D01*
X214932073Y-75999679D01*
X215176944Y-75938474D01*
X215301665Y-75695830D01*
X215376650Y-75433516D01*
X215380239Y-75389892D01*
X215408039Y-75529652D01*
X215497366Y-75745308D01*
X215627050Y-75939394D01*
X215792106Y-76104450D01*
X215986192Y-76234134D01*
X216201848Y-76323461D01*
X216430788Y-76369000D01*
X216664212Y-76369000D01*
X216893152Y-76323461D01*
X217108808Y-76234134D01*
X217302894Y-76104450D01*
X217467950Y-75939394D01*
X217597634Y-75745308D01*
X217686961Y-75529652D01*
X217732500Y-75300712D01*
X217732500Y-75067288D01*
X217902500Y-75067288D01*
X217902500Y-75300712D01*
X217948039Y-75529652D01*
X218037366Y-75745308D01*
X218167050Y-75939394D01*
X218332106Y-76104450D01*
X218526192Y-76234134D01*
X218741848Y-76323461D01*
X218970788Y-76369000D01*
X219204212Y-76369000D01*
X219433152Y-76323461D01*
X219648808Y-76234134D01*
X219842894Y-76104450D01*
X220007950Y-75939394D01*
X220137634Y-75745308D01*
X220226961Y-75529652D01*
X220272500Y-75300712D01*
X220272500Y-75067288D01*
X220226961Y-74838348D01*
X220137634Y-74622692D01*
X220011555Y-74434000D01*
X220440396Y-74434000D01*
X220440396Y-75934000D01*
X220448795Y-76019275D01*
X220473669Y-76101272D01*
X220514061Y-76176842D01*
X220568421Y-76243079D01*
X220634658Y-76297439D01*
X220710228Y-76337831D01*
X220792225Y-76362705D01*
X220877500Y-76371104D01*
X222377500Y-76371104D01*
X222462775Y-76362705D01*
X222544772Y-76337831D01*
X222620342Y-76297439D01*
X222686579Y-76243079D01*
X222740939Y-76176842D01*
X222781331Y-76101272D01*
X222806205Y-76019275D01*
X222814604Y-75934000D01*
X222814604Y-74434000D01*
X222806205Y-74348725D01*
X222781331Y-74266728D01*
X222740939Y-74191158D01*
X222686579Y-74124921D01*
X222620342Y-74070561D01*
X222544772Y-74030169D01*
X222462775Y-74005295D01*
X222377500Y-73996896D01*
X220877500Y-73996896D01*
X220792225Y-74005295D01*
X220710228Y-74030169D01*
X220634658Y-74070561D01*
X220568421Y-74124921D01*
X220514061Y-74191158D01*
X220473669Y-74266728D01*
X220448795Y-74348725D01*
X220440396Y-74434000D01*
X220011555Y-74434000D01*
X220007950Y-74428606D01*
X219842894Y-74263550D01*
X219648808Y-74133866D01*
X219433152Y-74044539D01*
X219204212Y-73999000D01*
X218970788Y-73999000D01*
X218741848Y-74044539D01*
X218526192Y-74133866D01*
X218332106Y-74263550D01*
X218167050Y-74428606D01*
X218037366Y-74622692D01*
X217948039Y-74838348D01*
X217902500Y-75067288D01*
X217732500Y-75067288D01*
X217686961Y-74838348D01*
X217597634Y-74622692D01*
X217467950Y-74428606D01*
X217302894Y-74263550D01*
X217108808Y-74133866D01*
X216893152Y-74044539D01*
X216664212Y-73999000D01*
X216430788Y-73999000D01*
X216201848Y-74044539D01*
X215986192Y-74133866D01*
X215792106Y-74263550D01*
X215627050Y-74428606D01*
X215497366Y-74622692D01*
X215408039Y-74838348D01*
X215378794Y-74985371D01*
X215367915Y-74890572D01*
X215284531Y-74630806D01*
X215176944Y-74429526D01*
X214932073Y-74368321D01*
X214116394Y-75184000D01*
X213898606Y-75184000D01*
X213082927Y-74368321D01*
X212838056Y-74429526D01*
X212713335Y-74672170D01*
X212638350Y-74934484D01*
X212615980Y-75206386D01*
X202136000Y-75206386D01*
X202136000Y-74259427D01*
X213191821Y-74259427D01*
X214007500Y-75075106D01*
X214823179Y-74259427D01*
X214761974Y-74014556D01*
X214519330Y-73889835D01*
X214257016Y-73814850D01*
X213985114Y-73792480D01*
X213714072Y-73823585D01*
X213454306Y-73906969D01*
X213253026Y-74014556D01*
X213191821Y-74259427D01*
X202136000Y-74259427D01*
X202136000Y-72680906D01*
X202561800Y-72680906D01*
X202561800Y-72916694D01*
X202607800Y-73147952D01*
X202698032Y-73365792D01*
X202829029Y-73561843D01*
X202995757Y-73728571D01*
X203191808Y-73859568D01*
X203409648Y-73949800D01*
X203640906Y-73995800D01*
X203876694Y-73995800D01*
X204107952Y-73949800D01*
X204325792Y-73859568D01*
X204521843Y-73728571D01*
X204688571Y-73561843D01*
X204819568Y-73365792D01*
X204909800Y-73147952D01*
X204955800Y-72916694D01*
X204955800Y-72680906D01*
X209064200Y-72680906D01*
X209064200Y-72916694D01*
X209110200Y-73147952D01*
X209200432Y-73365792D01*
X209331429Y-73561843D01*
X209498157Y-73728571D01*
X209694208Y-73859568D01*
X209912048Y-73949800D01*
X210143306Y-73995800D01*
X210379094Y-73995800D01*
X210610352Y-73949800D01*
X210828192Y-73859568D01*
X211024243Y-73728571D01*
X211190971Y-73561843D01*
X211321968Y-73365792D01*
X211412200Y-73147952D01*
X211458200Y-72916694D01*
X211458200Y-72680906D01*
X211412200Y-72449648D01*
X211321968Y-72231808D01*
X211190971Y-72035757D01*
X211024243Y-71869029D01*
X210828192Y-71738032D01*
X210610352Y-71647800D01*
X210379094Y-71601800D01*
X210143306Y-71601800D01*
X209912048Y-71647800D01*
X209694208Y-71738032D01*
X209498157Y-71869029D01*
X209331429Y-72035757D01*
X209200432Y-72231808D01*
X209110200Y-72449648D01*
X209064200Y-72680906D01*
X204955800Y-72680906D01*
X204909800Y-72449648D01*
X204819568Y-72231808D01*
X204688571Y-72035757D01*
X204521843Y-71869029D01*
X204325792Y-71738032D01*
X204107952Y-71647800D01*
X203876694Y-71601800D01*
X203640906Y-71601800D01*
X203409648Y-71647800D01*
X203191808Y-71738032D01*
X202995757Y-71869029D01*
X202829029Y-72035757D01*
X202698032Y-72231808D01*
X202607800Y-72449648D01*
X202561800Y-72680906D01*
X202136000Y-72680906D01*
X202136000Y-66271410D01*
X202134073Y-66251841D01*
X202134094Y-66248761D01*
X202133468Y-66242368D01*
X202123104Y-66143767D01*
X202114724Y-66102944D01*
X202106908Y-66061974D01*
X202105052Y-66055825D01*
X202075734Y-65961115D01*
X202059572Y-65922668D01*
X202043960Y-65884028D01*
X202040945Y-65878356D01*
X201993790Y-65791144D01*
X201970467Y-65756566D01*
X201947646Y-65721692D01*
X201943587Y-65716715D01*
X201880390Y-65640323D01*
X201850843Y-65610982D01*
X201821637Y-65581158D01*
X201816688Y-65577064D01*
X201739857Y-65514402D01*
X201705131Y-65491330D01*
X201670729Y-65467775D01*
X201665079Y-65464720D01*
X201577540Y-65418175D01*
X201539012Y-65402295D01*
X201500675Y-65385864D01*
X201494539Y-65383964D01*
X201399626Y-65355308D01*
X201358760Y-65347217D01*
X201317948Y-65338542D01*
X201311560Y-65337870D01*
X201212889Y-65328195D01*
X201212875Y-65328195D01*
X201190590Y-65326000D01*
X198142503Y-65326000D01*
X198111104Y-65322921D01*
X198102546Y-65320337D01*
X198094659Y-65316144D01*
X198087732Y-65310494D01*
X198082036Y-65303609D01*
X198077785Y-65295747D01*
X198075141Y-65287206D01*
X198072000Y-65257322D01*
X198072000Y-62896002D01*
X198221887Y-63120324D01*
X198499676Y-63398113D01*
X198826321Y-63616370D01*
X199189270Y-63766708D01*
X199574574Y-63843350D01*
X199967426Y-63843350D01*
X200352730Y-63766708D01*
X200715679Y-63616370D01*
X201042324Y-63398113D01*
X201320113Y-63120324D01*
X201538370Y-62793679D01*
X201688708Y-62430730D01*
X201720878Y-62269000D01*
X203817896Y-62269000D01*
X203817896Y-63969000D01*
X203826295Y-64054275D01*
X203851169Y-64136272D01*
X203891561Y-64211842D01*
X203945921Y-64278079D01*
X204012158Y-64332439D01*
X204087728Y-64372831D01*
X204169725Y-64397705D01*
X204255000Y-64406104D01*
X205955000Y-64406104D01*
X206040275Y-64397705D01*
X206122272Y-64372831D01*
X206197842Y-64332439D01*
X206264079Y-64278079D01*
X206318439Y-64211842D01*
X206358831Y-64136272D01*
X206383705Y-64054275D01*
X206392104Y-63969000D01*
X206392104Y-63406962D01*
X206409381Y-63493821D01*
X206506247Y-63727676D01*
X206646875Y-63938140D01*
X206825860Y-64117125D01*
X207036324Y-64257753D01*
X207270179Y-64354619D01*
X207518439Y-64404000D01*
X207771561Y-64404000D01*
X208019821Y-64354619D01*
X208253676Y-64257753D01*
X208464140Y-64117125D01*
X208643125Y-63938140D01*
X208783753Y-63727676D01*
X208880619Y-63493821D01*
X208915000Y-63320973D01*
X208949381Y-63493821D01*
X209046247Y-63727676D01*
X209186875Y-63938140D01*
X209365860Y-64117125D01*
X209576324Y-64257753D01*
X209810179Y-64354619D01*
X210058439Y-64404000D01*
X210311561Y-64404000D01*
X210559821Y-64354619D01*
X210793676Y-64257753D01*
X211004140Y-64117125D01*
X211183125Y-63938140D01*
X211323753Y-63727676D01*
X211420619Y-63493821D01*
X211455000Y-63320973D01*
X211489381Y-63493821D01*
X211586247Y-63727676D01*
X211726875Y-63938140D01*
X211905860Y-64117125D01*
X212116324Y-64257753D01*
X212350179Y-64354619D01*
X212598439Y-64404000D01*
X212851561Y-64404000D01*
X213099821Y-64354619D01*
X213333676Y-64257753D01*
X213544140Y-64117125D01*
X213723125Y-63938140D01*
X213863753Y-63727676D01*
X213888613Y-63667658D01*
X213900309Y-63704534D01*
X214040763Y-63959521D01*
X214228264Y-64182207D01*
X214455606Y-64364035D01*
X214714053Y-64498017D01*
X214956955Y-64571698D01*
X215188000Y-64443013D01*
X215188000Y-63196000D01*
X215168000Y-63196000D01*
X215168000Y-63042000D01*
X215188000Y-63042000D01*
X215188000Y-63022000D01*
X215342000Y-63022000D01*
X215342000Y-63042000D01*
X215362000Y-63042000D01*
X215362000Y-63196000D01*
X215342000Y-63196000D01*
X215342000Y-64443013D01*
X215573045Y-64571698D01*
X215815947Y-64498017D01*
X216074394Y-64364035D01*
X216301736Y-64182207D01*
X216489237Y-63959521D01*
X216629691Y-63704534D01*
X216641387Y-63667658D01*
X216666247Y-63727676D01*
X216806875Y-63938140D01*
X216985860Y-64117125D01*
X217196324Y-64257753D01*
X217430179Y-64354619D01*
X217678439Y-64404000D01*
X217931561Y-64404000D01*
X218179821Y-64354619D01*
X218413676Y-64257753D01*
X218624140Y-64117125D01*
X218803125Y-63938140D01*
X218943753Y-63727676D01*
X219040619Y-63493821D01*
X219075000Y-63320973D01*
X219109381Y-63493821D01*
X219206247Y-63727676D01*
X219346875Y-63938140D01*
X219525860Y-64117125D01*
X219736324Y-64257753D01*
X219970179Y-64354619D01*
X220218439Y-64404000D01*
X220471561Y-64404000D01*
X220719821Y-64354619D01*
X220953676Y-64257753D01*
X221164140Y-64117125D01*
X221343125Y-63938140D01*
X221483753Y-63727676D01*
X221580619Y-63493821D01*
X221615000Y-63320973D01*
X221649381Y-63493821D01*
X221746247Y-63727676D01*
X221886875Y-63938140D01*
X222065860Y-64117125D01*
X222276324Y-64257753D01*
X222510179Y-64354619D01*
X222758439Y-64404000D01*
X223011561Y-64404000D01*
X223259821Y-64354619D01*
X223493676Y-64257753D01*
X223704140Y-64117125D01*
X223883125Y-63938140D01*
X224023753Y-63727676D01*
X224120619Y-63493821D01*
X224170000Y-63245561D01*
X224170000Y-62992439D01*
X224120619Y-62744179D01*
X224023753Y-62510324D01*
X223883125Y-62299860D01*
X223704140Y-62120875D01*
X223493676Y-61980247D01*
X223259821Y-61883381D01*
X223086973Y-61849000D01*
X223259821Y-61814619D01*
X223493676Y-61717753D01*
X223704140Y-61577125D01*
X223883125Y-61398140D01*
X224023753Y-61187676D01*
X224120619Y-60953821D01*
X224170000Y-60705561D01*
X224170000Y-60452439D01*
X224120619Y-60204179D01*
X224023753Y-59970324D01*
X223883125Y-59759860D01*
X223704140Y-59580875D01*
X223493676Y-59440247D01*
X223259821Y-59343381D01*
X223011561Y-59294000D01*
X222758439Y-59294000D01*
X222510179Y-59343381D01*
X222276324Y-59440247D01*
X222065860Y-59580875D01*
X221886875Y-59759860D01*
X221746247Y-59970324D01*
X221649381Y-60204179D01*
X221615000Y-60377027D01*
X221580619Y-60204179D01*
X221483753Y-59970324D01*
X221343125Y-59759860D01*
X221164140Y-59580875D01*
X220953676Y-59440247D01*
X220719821Y-59343381D01*
X220471561Y-59294000D01*
X220218439Y-59294000D01*
X219970179Y-59343381D01*
X219736324Y-59440247D01*
X219525860Y-59580875D01*
X219346875Y-59759860D01*
X219206247Y-59970324D01*
X219109381Y-60204179D01*
X219075000Y-60377027D01*
X219040619Y-60204179D01*
X218943753Y-59970324D01*
X218803125Y-59759860D01*
X218624140Y-59580875D01*
X218413676Y-59440247D01*
X218179821Y-59343381D01*
X217931561Y-59294000D01*
X217678439Y-59294000D01*
X217430179Y-59343381D01*
X217196324Y-59440247D01*
X216985860Y-59580875D01*
X216806875Y-59759860D01*
X216666247Y-59970324D01*
X216569381Y-60204179D01*
X216535000Y-60377027D01*
X216500619Y-60204179D01*
X216403753Y-59970324D01*
X216263125Y-59759860D01*
X216084140Y-59580875D01*
X215873676Y-59440247D01*
X215639821Y-59343381D01*
X215391561Y-59294000D01*
X215138439Y-59294000D01*
X214890179Y-59343381D01*
X214656324Y-59440247D01*
X214445860Y-59580875D01*
X214266875Y-59759860D01*
X214126247Y-59970324D01*
X214029381Y-60204179D01*
X213995000Y-60377027D01*
X213960619Y-60204179D01*
X213863753Y-59970324D01*
X213723125Y-59759860D01*
X213544140Y-59580875D01*
X213333676Y-59440247D01*
X213099821Y-59343381D01*
X212851561Y-59294000D01*
X212598439Y-59294000D01*
X212350179Y-59343381D01*
X212116324Y-59440247D01*
X211905860Y-59580875D01*
X211726875Y-59759860D01*
X211586247Y-59970324D01*
X211561387Y-60030342D01*
X211549691Y-59993466D01*
X211409237Y-59738479D01*
X211221736Y-59515793D01*
X210994394Y-59333965D01*
X210735947Y-59199983D01*
X210493045Y-59126302D01*
X210262000Y-59254987D01*
X210262000Y-60502000D01*
X210282000Y-60502000D01*
X210282000Y-60656000D01*
X210262000Y-60656000D01*
X210262000Y-60676000D01*
X210108000Y-60676000D01*
X210108000Y-60656000D01*
X210088000Y-60656000D01*
X210088000Y-60502000D01*
X210108000Y-60502000D01*
X210108000Y-59254987D01*
X209876955Y-59126302D01*
X209634053Y-59199983D01*
X209375606Y-59333965D01*
X209148264Y-59515793D01*
X208960763Y-59738479D01*
X208820309Y-59993466D01*
X208808613Y-60030342D01*
X208783753Y-59970324D01*
X208643125Y-59759860D01*
X208464140Y-59580875D01*
X208253676Y-59440247D01*
X208019821Y-59343381D01*
X207771561Y-59294000D01*
X207518439Y-59294000D01*
X207270179Y-59343381D01*
X207036324Y-59440247D01*
X206825860Y-59580875D01*
X206646875Y-59759860D01*
X206506247Y-59970324D01*
X206409381Y-60204179D01*
X206375000Y-60377027D01*
X206340619Y-60204179D01*
X206243753Y-59970324D01*
X206103125Y-59759860D01*
X205924140Y-59580875D01*
X205713676Y-59440247D01*
X205479821Y-59343381D01*
X205231561Y-59294000D01*
X204978439Y-59294000D01*
X204730179Y-59343381D01*
X204496324Y-59440247D01*
X204285860Y-59580875D01*
X204106875Y-59759860D01*
X203966247Y-59970324D01*
X203869381Y-60204179D01*
X203820000Y-60452439D01*
X203820000Y-60705561D01*
X203869381Y-60953821D01*
X203966247Y-61187676D01*
X204106875Y-61398140D01*
X204285860Y-61577125D01*
X204496324Y-61717753D01*
X204730179Y-61814619D01*
X204817038Y-61831896D01*
X204255000Y-61831896D01*
X204169725Y-61840295D01*
X204087728Y-61865169D01*
X204012158Y-61905561D01*
X203945921Y-61959921D01*
X203891561Y-62026158D01*
X203851169Y-62101728D01*
X203826295Y-62183725D01*
X203817896Y-62269000D01*
X201720878Y-62269000D01*
X201765350Y-62045426D01*
X201765350Y-61652574D01*
X201688708Y-61267270D01*
X201538370Y-60904321D01*
X201320113Y-60577676D01*
X201042324Y-60299887D01*
X200715679Y-60081630D01*
X200352730Y-59931292D01*
X199967426Y-59854650D01*
X199574574Y-59854650D01*
X199189270Y-59931292D01*
X198826321Y-60081630D01*
X198499676Y-60299887D01*
X198221887Y-60577676D01*
X198072000Y-60801998D01*
X198072000Y-58950501D01*
X198075078Y-58919107D01*
X198077662Y-58910548D01*
X198081858Y-58902657D01*
X198087506Y-58895732D01*
X198094391Y-58890036D01*
X198102253Y-58885785D01*
X198110794Y-58883141D01*
X198140678Y-58880000D01*
X224513499Y-58880000D01*
X224544893Y-58883078D01*
%TA.AperFunction,Conductor*%
D17*
G36*
X224544893Y-58883078D02*
G01*
X224553452Y-58885662D01*
X224561343Y-58889858D01*
X224568268Y-58895506D01*
X224573964Y-58902391D01*
X224578215Y-58910253D01*
X224580859Y-58918794D01*
X224584001Y-58948688D01*
X224584000Y-78463497D01*
X224580921Y-78494896D01*
X224578337Y-78503454D01*
X224574144Y-78511341D01*
X224568494Y-78518268D01*
X224561609Y-78523964D01*
X224553747Y-78528215D01*
X224545206Y-78530859D01*
X224515322Y-78534000D01*
X202206503Y-78534000D01*
X202175104Y-78530921D01*
X202166546Y-78528337D01*
X202158659Y-78524144D01*
X202151732Y-78518494D01*
X202146036Y-78511609D01*
X202141785Y-78503747D01*
X202139141Y-78495206D01*
X202136000Y-78465322D01*
X202136000Y-77202106D01*
X202561800Y-77202106D01*
X202561800Y-77437894D01*
X202607800Y-77669152D01*
X202698032Y-77886992D01*
X202829029Y-78083043D01*
X202995757Y-78249771D01*
X203191808Y-78380768D01*
X203409648Y-78471000D01*
X203640906Y-78517000D01*
X203876694Y-78517000D01*
X204107952Y-78471000D01*
X204325792Y-78380768D01*
X204521843Y-78249771D01*
X204688571Y-78083043D01*
X204819568Y-77886992D01*
X204909800Y-77669152D01*
X204955800Y-77437894D01*
X204955800Y-77202106D01*
X209064200Y-77202106D01*
X209064200Y-77437894D01*
X209110200Y-77669152D01*
X209200432Y-77886992D01*
X209331429Y-78083043D01*
X209498157Y-78249771D01*
X209694208Y-78380768D01*
X209912048Y-78471000D01*
X210143306Y-78517000D01*
X210379094Y-78517000D01*
X210610352Y-78471000D01*
X210828192Y-78380768D01*
X211024243Y-78249771D01*
X211190971Y-78083043D01*
X211321968Y-77886992D01*
X211412200Y-77669152D01*
X211458200Y-77437894D01*
X211458200Y-77202106D01*
X211412200Y-76970848D01*
X211321968Y-76753008D01*
X211190971Y-76556957D01*
X211024243Y-76390229D01*
X210828192Y-76259232D01*
X210610352Y-76169000D01*
X210379094Y-76123000D01*
X210143306Y-76123000D01*
X209912048Y-76169000D01*
X209694208Y-76259232D01*
X209498157Y-76390229D01*
X209331429Y-76556957D01*
X209200432Y-76753008D01*
X209110200Y-76970848D01*
X209064200Y-77202106D01*
X204955800Y-77202106D01*
X204909800Y-76970848D01*
X204819568Y-76753008D01*
X204688571Y-76556957D01*
X204521843Y-76390229D01*
X204325792Y-76259232D01*
X204107952Y-76169000D01*
X203876694Y-76123000D01*
X203640906Y-76123000D01*
X203409648Y-76169000D01*
X203191808Y-76259232D01*
X202995757Y-76390229D01*
X202829029Y-76556957D01*
X202698032Y-76753008D01*
X202607800Y-76970848D01*
X202561800Y-77202106D01*
X202136000Y-77202106D01*
X202136000Y-76108573D01*
X213191821Y-76108573D01*
X213253026Y-76353444D01*
X213495670Y-76478165D01*
X213757984Y-76553150D01*
X214029886Y-76575520D01*
X214300928Y-76544415D01*
X214560694Y-76461031D01*
X214761974Y-76353444D01*
X214823179Y-76108573D01*
X214007500Y-75292894D01*
X213191821Y-76108573D01*
X202136000Y-76108573D01*
X202136000Y-75206386D01*
X212615980Y-75206386D01*
X212647085Y-75477428D01*
X212730469Y-75737194D01*
X212838056Y-75938474D01*
X213082927Y-75999679D01*
X213898606Y-75184000D01*
X214116394Y-75184000D01*
X214932073Y-75999679D01*
X215176944Y-75938474D01*
X215301665Y-75695830D01*
X215376650Y-75433516D01*
X215380239Y-75389892D01*
X215408039Y-75529652D01*
X215497366Y-75745308D01*
X215627050Y-75939394D01*
X215792106Y-76104450D01*
X215986192Y-76234134D01*
X216201848Y-76323461D01*
X216430788Y-76369000D01*
X216664212Y-76369000D01*
X216893152Y-76323461D01*
X217108808Y-76234134D01*
X217302894Y-76104450D01*
X217467950Y-75939394D01*
X217597634Y-75745308D01*
X217686961Y-75529652D01*
X217732500Y-75300712D01*
X217732500Y-75067288D01*
X217902500Y-75067288D01*
X217902500Y-75300712D01*
X217948039Y-75529652D01*
X218037366Y-75745308D01*
X218167050Y-75939394D01*
X218332106Y-76104450D01*
X218526192Y-76234134D01*
X218741848Y-76323461D01*
X218970788Y-76369000D01*
X219204212Y-76369000D01*
X219433152Y-76323461D01*
X219648808Y-76234134D01*
X219842894Y-76104450D01*
X220007950Y-75939394D01*
X220137634Y-75745308D01*
X220226961Y-75529652D01*
X220272500Y-75300712D01*
X220272500Y-75067288D01*
X220226961Y-74838348D01*
X220137634Y-74622692D01*
X220011555Y-74434000D01*
X220440396Y-74434000D01*
X220440396Y-75934000D01*
X220448795Y-76019275D01*
X220473669Y-76101272D01*
X220514061Y-76176842D01*
X220568421Y-76243079D01*
X220634658Y-76297439D01*
X220710228Y-76337831D01*
X220792225Y-76362705D01*
X220877500Y-76371104D01*
X222377500Y-76371104D01*
X222462775Y-76362705D01*
X222544772Y-76337831D01*
X222620342Y-76297439D01*
X222686579Y-76243079D01*
X222740939Y-76176842D01*
X222781331Y-76101272D01*
X222806205Y-76019275D01*
X222814604Y-75934000D01*
X222814604Y-74434000D01*
X222806205Y-74348725D01*
X222781331Y-74266728D01*
X222740939Y-74191158D01*
X222686579Y-74124921D01*
X222620342Y-74070561D01*
X222544772Y-74030169D01*
X222462775Y-74005295D01*
X222377500Y-73996896D01*
X220877500Y-73996896D01*
X220792225Y-74005295D01*
X220710228Y-74030169D01*
X220634658Y-74070561D01*
X220568421Y-74124921D01*
X220514061Y-74191158D01*
X220473669Y-74266728D01*
X220448795Y-74348725D01*
X220440396Y-74434000D01*
X220011555Y-74434000D01*
X220007950Y-74428606D01*
X219842894Y-74263550D01*
X219648808Y-74133866D01*
X219433152Y-74044539D01*
X219204212Y-73999000D01*
X218970788Y-73999000D01*
X218741848Y-74044539D01*
X218526192Y-74133866D01*
X218332106Y-74263550D01*
X218167050Y-74428606D01*
X218037366Y-74622692D01*
X217948039Y-74838348D01*
X217902500Y-75067288D01*
X217732500Y-75067288D01*
X217686961Y-74838348D01*
X217597634Y-74622692D01*
X217467950Y-74428606D01*
X217302894Y-74263550D01*
X217108808Y-74133866D01*
X216893152Y-74044539D01*
X216664212Y-73999000D01*
X216430788Y-73999000D01*
X216201848Y-74044539D01*
X215986192Y-74133866D01*
X215792106Y-74263550D01*
X215627050Y-74428606D01*
X215497366Y-74622692D01*
X215408039Y-74838348D01*
X215378794Y-74985371D01*
X215367915Y-74890572D01*
X215284531Y-74630806D01*
X215176944Y-74429526D01*
X214932073Y-74368321D01*
X214116394Y-75184000D01*
X213898606Y-75184000D01*
X213082927Y-74368321D01*
X212838056Y-74429526D01*
X212713335Y-74672170D01*
X212638350Y-74934484D01*
X212615980Y-75206386D01*
X202136000Y-75206386D01*
X202136000Y-74259427D01*
X213191821Y-74259427D01*
X214007500Y-75075106D01*
X214823179Y-74259427D01*
X214761974Y-74014556D01*
X214519330Y-73889835D01*
X214257016Y-73814850D01*
X213985114Y-73792480D01*
X213714072Y-73823585D01*
X213454306Y-73906969D01*
X213253026Y-74014556D01*
X213191821Y-74259427D01*
X202136000Y-74259427D01*
X202136000Y-72680906D01*
X202561800Y-72680906D01*
X202561800Y-72916694D01*
X202607800Y-73147952D01*
X202698032Y-73365792D01*
X202829029Y-73561843D01*
X202995757Y-73728571D01*
X203191808Y-73859568D01*
X203409648Y-73949800D01*
X203640906Y-73995800D01*
X203876694Y-73995800D01*
X204107952Y-73949800D01*
X204325792Y-73859568D01*
X204521843Y-73728571D01*
X204688571Y-73561843D01*
X204819568Y-73365792D01*
X204909800Y-73147952D01*
X204955800Y-72916694D01*
X204955800Y-72680906D01*
X209064200Y-72680906D01*
X209064200Y-72916694D01*
X209110200Y-73147952D01*
X209200432Y-73365792D01*
X209331429Y-73561843D01*
X209498157Y-73728571D01*
X209694208Y-73859568D01*
X209912048Y-73949800D01*
X210143306Y-73995800D01*
X210379094Y-73995800D01*
X210610352Y-73949800D01*
X210828192Y-73859568D01*
X211024243Y-73728571D01*
X211190971Y-73561843D01*
X211321968Y-73365792D01*
X211412200Y-73147952D01*
X211458200Y-72916694D01*
X211458200Y-72680906D01*
X211412200Y-72449648D01*
X211321968Y-72231808D01*
X211190971Y-72035757D01*
X211024243Y-71869029D01*
X210828192Y-71738032D01*
X210610352Y-71647800D01*
X210379094Y-71601800D01*
X210143306Y-71601800D01*
X209912048Y-71647800D01*
X209694208Y-71738032D01*
X209498157Y-71869029D01*
X209331429Y-72035757D01*
X209200432Y-72231808D01*
X209110200Y-72449648D01*
X209064200Y-72680906D01*
X204955800Y-72680906D01*
X204909800Y-72449648D01*
X204819568Y-72231808D01*
X204688571Y-72035757D01*
X204521843Y-71869029D01*
X204325792Y-71738032D01*
X204107952Y-71647800D01*
X203876694Y-71601800D01*
X203640906Y-71601800D01*
X203409648Y-71647800D01*
X203191808Y-71738032D01*
X202995757Y-71869029D01*
X202829029Y-72035757D01*
X202698032Y-72231808D01*
X202607800Y-72449648D01*
X202561800Y-72680906D01*
X202136000Y-72680906D01*
X202136000Y-66271410D01*
X202134073Y-66251841D01*
X202134094Y-66248761D01*
X202133468Y-66242368D01*
X202123104Y-66143767D01*
X202114724Y-66102944D01*
X202106908Y-66061974D01*
X202105052Y-66055825D01*
X202075734Y-65961115D01*
X202059572Y-65922668D01*
X202043960Y-65884028D01*
X202040945Y-65878356D01*
X201993790Y-65791144D01*
X201970467Y-65756566D01*
X201947646Y-65721692D01*
X201943587Y-65716715D01*
X201880390Y-65640323D01*
X201850843Y-65610982D01*
X201821637Y-65581158D01*
X201816688Y-65577064D01*
X201739857Y-65514402D01*
X201705131Y-65491330D01*
X201670729Y-65467775D01*
X201665079Y-65464720D01*
X201577540Y-65418175D01*
X201539012Y-65402295D01*
X201500675Y-65385864D01*
X201494539Y-65383964D01*
X201399626Y-65355308D01*
X201358760Y-65347217D01*
X201317948Y-65338542D01*
X201311560Y-65337870D01*
X201212889Y-65328195D01*
X201212875Y-65328195D01*
X201190590Y-65326000D01*
X198142503Y-65326000D01*
X198111104Y-65322921D01*
X198102546Y-65320337D01*
X198094659Y-65316144D01*
X198087732Y-65310494D01*
X198082036Y-65303609D01*
X198077785Y-65295747D01*
X198075141Y-65287206D01*
X198072000Y-65257322D01*
X198072000Y-62896002D01*
X198221887Y-63120324D01*
X198499676Y-63398113D01*
X198826321Y-63616370D01*
X199189270Y-63766708D01*
X199574574Y-63843350D01*
X199967426Y-63843350D01*
X200352730Y-63766708D01*
X200715679Y-63616370D01*
X201042324Y-63398113D01*
X201320113Y-63120324D01*
X201538370Y-62793679D01*
X201688708Y-62430730D01*
X201720878Y-62269000D01*
X203817896Y-62269000D01*
X203817896Y-63969000D01*
X203826295Y-64054275D01*
X203851169Y-64136272D01*
X203891561Y-64211842D01*
X203945921Y-64278079D01*
X204012158Y-64332439D01*
X204087728Y-64372831D01*
X204169725Y-64397705D01*
X204255000Y-64406104D01*
X205955000Y-64406104D01*
X206040275Y-64397705D01*
X206122272Y-64372831D01*
X206197842Y-64332439D01*
X206264079Y-64278079D01*
X206318439Y-64211842D01*
X206358831Y-64136272D01*
X206383705Y-64054275D01*
X206392104Y-63969000D01*
X206392104Y-63406962D01*
X206409381Y-63493821D01*
X206506247Y-63727676D01*
X206646875Y-63938140D01*
X206825860Y-64117125D01*
X207036324Y-64257753D01*
X207270179Y-64354619D01*
X207518439Y-64404000D01*
X207771561Y-64404000D01*
X208019821Y-64354619D01*
X208253676Y-64257753D01*
X208464140Y-64117125D01*
X208643125Y-63938140D01*
X208783753Y-63727676D01*
X208880619Y-63493821D01*
X208915000Y-63320973D01*
X208949381Y-63493821D01*
X209046247Y-63727676D01*
X209186875Y-63938140D01*
X209365860Y-64117125D01*
X209576324Y-64257753D01*
X209810179Y-64354619D01*
X210058439Y-64404000D01*
X210311561Y-64404000D01*
X210559821Y-64354619D01*
X210793676Y-64257753D01*
X211004140Y-64117125D01*
X211183125Y-63938140D01*
X211323753Y-63727676D01*
X211420619Y-63493821D01*
X211455000Y-63320973D01*
X211489381Y-63493821D01*
X211586247Y-63727676D01*
X211726875Y-63938140D01*
X211905860Y-64117125D01*
X212116324Y-64257753D01*
X212350179Y-64354619D01*
X212598439Y-64404000D01*
X212851561Y-64404000D01*
X213099821Y-64354619D01*
X213333676Y-64257753D01*
X213544140Y-64117125D01*
X213723125Y-63938140D01*
X213863753Y-63727676D01*
X213888613Y-63667658D01*
X213900309Y-63704534D01*
X214040763Y-63959521D01*
X214228264Y-64182207D01*
X214455606Y-64364035D01*
X214714053Y-64498017D01*
X214956955Y-64571698D01*
X215188000Y-64443013D01*
X215188000Y-63196000D01*
X215168000Y-63196000D01*
X215168000Y-63042000D01*
X215188000Y-63042000D01*
X215188000Y-63022000D01*
X215342000Y-63022000D01*
X215342000Y-63042000D01*
X215362000Y-63042000D01*
X215362000Y-63196000D01*
X215342000Y-63196000D01*
X215342000Y-64443013D01*
X215573045Y-64571698D01*
X215815947Y-64498017D01*
X216074394Y-64364035D01*
X216301736Y-64182207D01*
X216489237Y-63959521D01*
X216629691Y-63704534D01*
X216641387Y-63667658D01*
X216666247Y-63727676D01*
X216806875Y-63938140D01*
X216985860Y-64117125D01*
X217196324Y-64257753D01*
X217430179Y-64354619D01*
X217678439Y-64404000D01*
X217931561Y-64404000D01*
X218179821Y-64354619D01*
X218413676Y-64257753D01*
X218624140Y-64117125D01*
X218803125Y-63938140D01*
X218943753Y-63727676D01*
X219040619Y-63493821D01*
X219075000Y-63320973D01*
X219109381Y-63493821D01*
X219206247Y-63727676D01*
X219346875Y-63938140D01*
X219525860Y-64117125D01*
X219736324Y-64257753D01*
X219970179Y-64354619D01*
X220218439Y-64404000D01*
X220471561Y-64404000D01*
X220719821Y-64354619D01*
X220953676Y-64257753D01*
X221164140Y-64117125D01*
X221343125Y-63938140D01*
X221483753Y-63727676D01*
X221580619Y-63493821D01*
X221615000Y-63320973D01*
X221649381Y-63493821D01*
X221746247Y-63727676D01*
X221886875Y-63938140D01*
X222065860Y-64117125D01*
X222276324Y-64257753D01*
X222510179Y-64354619D01*
X222758439Y-64404000D01*
X223011561Y-64404000D01*
X223259821Y-64354619D01*
X223493676Y-64257753D01*
X223704140Y-64117125D01*
X223883125Y-63938140D01*
X224023753Y-63727676D01*
X224120619Y-63493821D01*
X224170000Y-63245561D01*
X224170000Y-62992439D01*
X224120619Y-62744179D01*
X224023753Y-62510324D01*
X223883125Y-62299860D01*
X223704140Y-62120875D01*
X223493676Y-61980247D01*
X223259821Y-61883381D01*
X223086973Y-61849000D01*
X223259821Y-61814619D01*
X223493676Y-61717753D01*
X223704140Y-61577125D01*
X223883125Y-61398140D01*
X224023753Y-61187676D01*
X224120619Y-60953821D01*
X224170000Y-60705561D01*
X224170000Y-60452439D01*
X224120619Y-60204179D01*
X224023753Y-59970324D01*
X223883125Y-59759860D01*
X223704140Y-59580875D01*
X223493676Y-59440247D01*
X223259821Y-59343381D01*
X223011561Y-59294000D01*
X222758439Y-59294000D01*
X222510179Y-59343381D01*
X222276324Y-59440247D01*
X222065860Y-59580875D01*
X221886875Y-59759860D01*
X221746247Y-59970324D01*
X221649381Y-60204179D01*
X221615000Y-60377027D01*
X221580619Y-60204179D01*
X221483753Y-59970324D01*
X221343125Y-59759860D01*
X221164140Y-59580875D01*
X220953676Y-59440247D01*
X220719821Y-59343381D01*
X220471561Y-59294000D01*
X220218439Y-59294000D01*
X219970179Y-59343381D01*
X219736324Y-59440247D01*
X219525860Y-59580875D01*
X219346875Y-59759860D01*
X219206247Y-59970324D01*
X219109381Y-60204179D01*
X219075000Y-60377027D01*
X219040619Y-60204179D01*
X218943753Y-59970324D01*
X218803125Y-59759860D01*
X218624140Y-59580875D01*
X218413676Y-59440247D01*
X218179821Y-59343381D01*
X217931561Y-59294000D01*
X217678439Y-59294000D01*
X217430179Y-59343381D01*
X217196324Y-59440247D01*
X216985860Y-59580875D01*
X216806875Y-59759860D01*
X216666247Y-59970324D01*
X216569381Y-60204179D01*
X216535000Y-60377027D01*
X216500619Y-60204179D01*
X216403753Y-59970324D01*
X216263125Y-59759860D01*
X216084140Y-59580875D01*
X215873676Y-59440247D01*
X215639821Y-59343381D01*
X215391561Y-59294000D01*
X215138439Y-59294000D01*
X214890179Y-59343381D01*
X214656324Y-59440247D01*
X214445860Y-59580875D01*
X214266875Y-59759860D01*
X214126247Y-59970324D01*
X214029381Y-60204179D01*
X213995000Y-60377027D01*
X213960619Y-60204179D01*
X213863753Y-59970324D01*
X213723125Y-59759860D01*
X213544140Y-59580875D01*
X213333676Y-59440247D01*
X213099821Y-59343381D01*
X212851561Y-59294000D01*
X212598439Y-59294000D01*
X212350179Y-59343381D01*
X212116324Y-59440247D01*
X211905860Y-59580875D01*
X211726875Y-59759860D01*
X211586247Y-59970324D01*
X211561387Y-60030342D01*
X211549691Y-59993466D01*
X211409237Y-59738479D01*
X211221736Y-59515793D01*
X210994394Y-59333965D01*
X210735947Y-59199983D01*
X210493045Y-59126302D01*
X210262000Y-59254987D01*
X210262000Y-60502000D01*
X210282000Y-60502000D01*
X210282000Y-60656000D01*
X210262000Y-60656000D01*
X210262000Y-60676000D01*
X210108000Y-60676000D01*
X210108000Y-60656000D01*
X210088000Y-60656000D01*
X210088000Y-60502000D01*
X210108000Y-60502000D01*
X210108000Y-59254987D01*
X209876955Y-59126302D01*
X209634053Y-59199983D01*
X209375606Y-59333965D01*
X209148264Y-59515793D01*
X208960763Y-59738479D01*
X208820309Y-59993466D01*
X208808613Y-60030342D01*
X208783753Y-59970324D01*
X208643125Y-59759860D01*
X208464140Y-59580875D01*
X208253676Y-59440247D01*
X208019821Y-59343381D01*
X207771561Y-59294000D01*
X207518439Y-59294000D01*
X207270179Y-59343381D01*
X207036324Y-59440247D01*
X206825860Y-59580875D01*
X206646875Y-59759860D01*
X206506247Y-59970324D01*
X206409381Y-60204179D01*
X206375000Y-60377027D01*
X206340619Y-60204179D01*
X206243753Y-59970324D01*
X206103125Y-59759860D01*
X205924140Y-59580875D01*
X205713676Y-59440247D01*
X205479821Y-59343381D01*
X205231561Y-59294000D01*
X204978439Y-59294000D01*
X204730179Y-59343381D01*
X204496324Y-59440247D01*
X204285860Y-59580875D01*
X204106875Y-59759860D01*
X203966247Y-59970324D01*
X203869381Y-60204179D01*
X203820000Y-60452439D01*
X203820000Y-60705561D01*
X203869381Y-60953821D01*
X203966247Y-61187676D01*
X204106875Y-61398140D01*
X204285860Y-61577125D01*
X204496324Y-61717753D01*
X204730179Y-61814619D01*
X204817038Y-61831896D01*
X204255000Y-61831896D01*
X204169725Y-61840295D01*
X204087728Y-61865169D01*
X204012158Y-61905561D01*
X203945921Y-61959921D01*
X203891561Y-62026158D01*
X203851169Y-62101728D01*
X203826295Y-62183725D01*
X203817896Y-62269000D01*
X201720878Y-62269000D01*
X201765350Y-62045426D01*
X201765350Y-61652574D01*
X201688708Y-61267270D01*
X201538370Y-60904321D01*
X201320113Y-60577676D01*
X201042324Y-60299887D01*
X200715679Y-60081630D01*
X200352730Y-59931292D01*
X199967426Y-59854650D01*
X199574574Y-59854650D01*
X199189270Y-59931292D01*
X198826321Y-60081630D01*
X198499676Y-60299887D01*
X198221887Y-60577676D01*
X198072000Y-60801998D01*
X198072000Y-58950501D01*
X198075078Y-58919107D01*
X198077662Y-58910548D01*
X198081858Y-58902657D01*
X198087506Y-58895732D01*
X198094391Y-58890036D01*
X198102253Y-58885785D01*
X198110794Y-58883141D01*
X198140678Y-58880000D01*
X224513499Y-58880000D01*
X224544893Y-58883078D01*
G37*
%TD.AperFunction*%
%TD*%
M02*
