%TF.GenerationSoftware,KiCad,Pcbnew,(5.1.9)-1*%
%TF.CreationDate,2022-01-05T00:47:20-06:00*%
%TF.ProjectId,BACEE,42414345-452e-46b6-9963-61645f706362,1*%
%TF.SameCoordinates,Original*%
%TF.FileFunction,Paste,Top*%
%TF.FilePolarity,Positive*%
%FSLAX46Y46*%
G04 Gerber Fmt 4.6, Leading zero omitted, Abs format (unit mm)*
G04 Created by KiCad (PCBNEW (5.1.9)-1) date 2022-01-05 00:47:20*
%MOMM*%
%LPD*%
G01*
G04 APERTURE LIST*
%ADD10R,1.700000X0.650000*%
%ADD11R,0.550000X1.600000*%
%ADD12R,1.600000X0.550000*%
%ADD13R,1.000000X1.800000*%
%ADD14R,3.500000X2.400000*%
G04 APERTURE END LIST*
%TO.C,C1*%
G36*
G01*
X222310000Y-111321001D02*
X222310000Y-110420999D01*
G75*
G02*
X222559999Y-110171000I249999J0D01*
G01*
X223210001Y-110171000D01*
G75*
G02*
X223460000Y-110420999I0J-249999D01*
G01*
X223460000Y-111321001D01*
G75*
G02*
X223210001Y-111571000I-249999J0D01*
G01*
X222559999Y-111571000D01*
G75*
G02*
X222310000Y-111321001I0J249999D01*
G01*
G37*
G36*
G01*
X220260000Y-111321001D02*
X220260000Y-110420999D01*
G75*
G02*
X220509999Y-110171000I249999J0D01*
G01*
X221160001Y-110171000D01*
G75*
G02*
X221410000Y-110420999I0J-249999D01*
G01*
X221410000Y-111321001D01*
G75*
G02*
X221160001Y-111571000I-249999J0D01*
G01*
X220509999Y-111571000D01*
G75*
G02*
X220260000Y-111321001I0J249999D01*
G01*
G37*
%TD*%
%TO.C,C2*%
G36*
G01*
X220260000Y-108077001D02*
X220260000Y-107176999D01*
G75*
G02*
X220509999Y-106927000I249999J0D01*
G01*
X221160001Y-106927000D01*
G75*
G02*
X221410000Y-107176999I0J-249999D01*
G01*
X221410000Y-108077001D01*
G75*
G02*
X221160001Y-108327000I-249999J0D01*
G01*
X220509999Y-108327000D01*
G75*
G02*
X220260000Y-108077001I0J249999D01*
G01*
G37*
G36*
G01*
X222310000Y-108077001D02*
X222310000Y-107176999D01*
G75*
G02*
X222559999Y-106927000I249999J0D01*
G01*
X223210001Y-106927000D01*
G75*
G02*
X223460000Y-107176999I0J-249999D01*
G01*
X223460000Y-108077001D01*
G75*
G02*
X223210001Y-108327000I-249999J0D01*
G01*
X222559999Y-108327000D01*
G75*
G02*
X222310000Y-108077001I0J249999D01*
G01*
G37*
%TD*%
%TO.C,C3*%
G36*
G01*
X239188000Y-115710999D02*
X239188000Y-116611001D01*
G75*
G02*
X238938001Y-116861000I-249999J0D01*
G01*
X238287999Y-116861000D01*
G75*
G02*
X238038000Y-116611001I0J249999D01*
G01*
X238038000Y-115710999D01*
G75*
G02*
X238287999Y-115461000I249999J0D01*
G01*
X238938001Y-115461000D01*
G75*
G02*
X239188000Y-115710999I0J-249999D01*
G01*
G37*
G36*
G01*
X237138000Y-115710999D02*
X237138000Y-116611001D01*
G75*
G02*
X236888001Y-116861000I-249999J0D01*
G01*
X236237999Y-116861000D01*
G75*
G02*
X235988000Y-116611001I0J249999D01*
G01*
X235988000Y-115710999D01*
G75*
G02*
X236237999Y-115461000I249999J0D01*
G01*
X236888001Y-115461000D01*
G75*
G02*
X237138000Y-115710999I0J-249999D01*
G01*
G37*
%TD*%
%TO.C,D1*%
G36*
G01*
X243147000Y-120846001D02*
X243147000Y-119945999D01*
G75*
G02*
X243396999Y-119696000I249999J0D01*
G01*
X244047001Y-119696000D01*
G75*
G02*
X244297000Y-119945999I0J-249999D01*
G01*
X244297000Y-120846001D01*
G75*
G02*
X244047001Y-121096000I-249999J0D01*
G01*
X243396999Y-121096000D01*
G75*
G02*
X243147000Y-120846001I0J249999D01*
G01*
G37*
G36*
G01*
X241097000Y-120846001D02*
X241097000Y-119945999D01*
G75*
G02*
X241346999Y-119696000I249999J0D01*
G01*
X241997001Y-119696000D01*
G75*
G02*
X242247000Y-119945999I0J-249999D01*
G01*
X242247000Y-120846001D01*
G75*
G02*
X241997001Y-121096000I-249999J0D01*
G01*
X241346999Y-121096000D01*
G75*
G02*
X241097000Y-120846001I0J249999D01*
G01*
G37*
%TD*%
%TO.C,R1*%
G36*
G01*
X238033000Y-120801001D02*
X238033000Y-119900999D01*
G75*
G02*
X238282999Y-119651000I249999J0D01*
G01*
X238983001Y-119651000D01*
G75*
G02*
X239233000Y-119900999I0J-249999D01*
G01*
X239233000Y-120801001D01*
G75*
G02*
X238983001Y-121051000I-249999J0D01*
G01*
X238282999Y-121051000D01*
G75*
G02*
X238033000Y-120801001I0J249999D01*
G01*
G37*
G36*
G01*
X236033000Y-120801001D02*
X236033000Y-119900999D01*
G75*
G02*
X236282999Y-119651000I249999J0D01*
G01*
X236983001Y-119651000D01*
G75*
G02*
X237233000Y-119900999I0J-249999D01*
G01*
X237233000Y-120801001D01*
G75*
G02*
X236983001Y-121051000I-249999J0D01*
G01*
X236282999Y-121051000D01*
G75*
G02*
X236033000Y-120801001I0J249999D01*
G01*
G37*
%TD*%
%TO.C,R2*%
G36*
G01*
X212912000Y-105721999D02*
X212912000Y-106622001D01*
G75*
G02*
X212662001Y-106872000I-249999J0D01*
G01*
X211961999Y-106872000D01*
G75*
G02*
X211712000Y-106622001I0J249999D01*
G01*
X211712000Y-105721999D01*
G75*
G02*
X211961999Y-105472000I249999J0D01*
G01*
X212662001Y-105472000D01*
G75*
G02*
X212912000Y-105721999I0J-249999D01*
G01*
G37*
G36*
G01*
X210912000Y-105721999D02*
X210912000Y-106622001D01*
G75*
G02*
X210662001Y-106872000I-249999J0D01*
G01*
X209961999Y-106872000D01*
G75*
G02*
X209712000Y-106622001I0J249999D01*
G01*
X209712000Y-105721999D01*
G75*
G02*
X209961999Y-105472000I249999J0D01*
G01*
X210662001Y-105472000D01*
G75*
G02*
X210912000Y-105721999I0J-249999D01*
G01*
G37*
%TD*%
%TO.C,U1*%
G36*
G01*
X237544000Y-111737000D02*
X237544000Y-112037000D01*
G75*
G02*
X237394000Y-112187000I-150000J0D01*
G01*
X235794000Y-112187000D01*
G75*
G02*
X235644000Y-112037000I0J150000D01*
G01*
X235644000Y-111737000D01*
G75*
G02*
X235794000Y-111587000I150000J0D01*
G01*
X237394000Y-111587000D01*
G75*
G02*
X237544000Y-111737000I0J-150000D01*
G01*
G37*
G36*
G01*
X237544000Y-110467000D02*
X237544000Y-110767000D01*
G75*
G02*
X237394000Y-110917000I-150000J0D01*
G01*
X235794000Y-110917000D01*
G75*
G02*
X235644000Y-110767000I0J150000D01*
G01*
X235644000Y-110467000D01*
G75*
G02*
X235794000Y-110317000I150000J0D01*
G01*
X237394000Y-110317000D01*
G75*
G02*
X237544000Y-110467000I0J-150000D01*
G01*
G37*
G36*
G01*
X237544000Y-109197000D02*
X237544000Y-109497000D01*
G75*
G02*
X237394000Y-109647000I-150000J0D01*
G01*
X235794000Y-109647000D01*
G75*
G02*
X235644000Y-109497000I0J150000D01*
G01*
X235644000Y-109197000D01*
G75*
G02*
X235794000Y-109047000I150000J0D01*
G01*
X237394000Y-109047000D01*
G75*
G02*
X237544000Y-109197000I0J-150000D01*
G01*
G37*
G36*
G01*
X237544000Y-107927000D02*
X237544000Y-108227000D01*
G75*
G02*
X237394000Y-108377000I-150000J0D01*
G01*
X235794000Y-108377000D01*
G75*
G02*
X235644000Y-108227000I0J150000D01*
G01*
X235644000Y-107927000D01*
G75*
G02*
X235794000Y-107777000I150000J0D01*
G01*
X237394000Y-107777000D01*
G75*
G02*
X237544000Y-107927000I0J-150000D01*
G01*
G37*
G36*
G01*
X244544000Y-107927000D02*
X244544000Y-108227000D01*
G75*
G02*
X244394000Y-108377000I-150000J0D01*
G01*
X242794000Y-108377000D01*
G75*
G02*
X242644000Y-108227000I0J150000D01*
G01*
X242644000Y-107927000D01*
G75*
G02*
X242794000Y-107777000I150000J0D01*
G01*
X244394000Y-107777000D01*
G75*
G02*
X244544000Y-107927000I0J-150000D01*
G01*
G37*
G36*
G01*
X244544000Y-109197000D02*
X244544000Y-109497000D01*
G75*
G02*
X244394000Y-109647000I-150000J0D01*
G01*
X242794000Y-109647000D01*
G75*
G02*
X242644000Y-109497000I0J150000D01*
G01*
X242644000Y-109197000D01*
G75*
G02*
X242794000Y-109047000I150000J0D01*
G01*
X244394000Y-109047000D01*
G75*
G02*
X244544000Y-109197000I0J-150000D01*
G01*
G37*
G36*
G01*
X244544000Y-110467000D02*
X244544000Y-110767000D01*
G75*
G02*
X244394000Y-110917000I-150000J0D01*
G01*
X242794000Y-110917000D01*
G75*
G02*
X242644000Y-110767000I0J150000D01*
G01*
X242644000Y-110467000D01*
G75*
G02*
X242794000Y-110317000I150000J0D01*
G01*
X244394000Y-110317000D01*
G75*
G02*
X244544000Y-110467000I0J-150000D01*
G01*
G37*
G36*
G01*
X244544000Y-111737000D02*
X244544000Y-112037000D01*
G75*
G02*
X244394000Y-112187000I-150000J0D01*
G01*
X242794000Y-112187000D01*
G75*
G02*
X242644000Y-112037000I0J150000D01*
G01*
X242644000Y-111737000D01*
G75*
G02*
X242794000Y-111587000I150000J0D01*
G01*
X244394000Y-111587000D01*
G75*
G02*
X244544000Y-111737000I0J-150000D01*
G01*
G37*
%TD*%
D10*
%TO.C,U2*%
X225966000Y-116459000D03*
X225966000Y-117729000D03*
X225966000Y-118999000D03*
X225966000Y-120269000D03*
X233266000Y-120269000D03*
X233266000Y-118999000D03*
X233266000Y-117729000D03*
X233266000Y-116459000D03*
%TD*%
%TO.C,U3*%
X233266000Y-107823000D03*
X233266000Y-109093000D03*
X233266000Y-110363000D03*
X233266000Y-111633000D03*
X225966000Y-111633000D03*
X225966000Y-110363000D03*
X225966000Y-109093000D03*
X225966000Y-107823000D03*
%TD*%
D11*
%TO.C,U4*%
X214116000Y-113606000D03*
X214916000Y-113606000D03*
X215716000Y-113606000D03*
X216516000Y-113606000D03*
X217316000Y-113606000D03*
X218116000Y-113606000D03*
X218916000Y-113606000D03*
X219716000Y-113606000D03*
D12*
X221166000Y-115056000D03*
X221166000Y-115856000D03*
X221166000Y-116656000D03*
X221166000Y-117456000D03*
X221166000Y-118256000D03*
X221166000Y-119056000D03*
X221166000Y-119856000D03*
X221166000Y-120656000D03*
D11*
X219716000Y-122106000D03*
X218916000Y-122106000D03*
X218116000Y-122106000D03*
X217316000Y-122106000D03*
X216516000Y-122106000D03*
X215716000Y-122106000D03*
X214916000Y-122106000D03*
X214116000Y-122106000D03*
D12*
X212666000Y-120656000D03*
X212666000Y-119856000D03*
X212666000Y-119056000D03*
X212666000Y-118256000D03*
X212666000Y-117456000D03*
X212666000Y-116656000D03*
X212666000Y-115856000D03*
X212666000Y-115056000D03*
%TD*%
D13*
%TO.C,Y1*%
X241552000Y-116366000D03*
X244052000Y-116366000D03*
%TD*%
D14*
%TO.C,Y2*%
X216662000Y-109728000D03*
X211462000Y-109728000D03*
%TD*%
M02*
