%TF.GenerationSoftware,KiCad,Pcbnew,(5.1.9)-1*%
%TF.CreationDate,2022-01-04T17:54:44-06:00*%
%TF.ProjectId,BACEE,42414345-452e-46b6-9963-61645f706362,1*%
%TF.SameCoordinates,Original*%
%TF.FileFunction,Legend,Top*%
%TF.FilePolarity,Positive*%
%FSLAX46Y46*%
G04 Gerber Fmt 4.6, Leading zero omitted, Abs format (unit mm)*
G04 Created by KiCad (PCBNEW (5.1.9)-1) date 2022-01-04 17:54:44*
%MOMM*%
%LPD*%
G01*
G04 APERTURE LIST*
%ADD10C,0.125000*%
%ADD11C,0.120000*%
%ADD12C,0.150000*%
G04 APERTURE END LIST*
D10*
X236132761Y-124186190D02*
X236299428Y-124686190D01*
X236466095Y-124186190D01*
X236847047Y-124662380D02*
X236799428Y-124686190D01*
X236704190Y-124686190D01*
X236656571Y-124662380D01*
X236632761Y-124638571D01*
X236608952Y-124590952D01*
X236608952Y-124448095D01*
X236632761Y-124400476D01*
X236656571Y-124376666D01*
X236704190Y-124352857D01*
X236799428Y-124352857D01*
X236847047Y-124376666D01*
X237275619Y-124662380D02*
X237228000Y-124686190D01*
X237132761Y-124686190D01*
X237085142Y-124662380D01*
X237061333Y-124638571D01*
X237037523Y-124590952D01*
X237037523Y-124448095D01*
X237061333Y-124400476D01*
X237085142Y-124376666D01*
X237132761Y-124352857D01*
X237228000Y-124352857D01*
X237275619Y-124376666D01*
X233807047Y-124210000D02*
X233759428Y-124186190D01*
X233688000Y-124186190D01*
X233616571Y-124210000D01*
X233568952Y-124257619D01*
X233545142Y-124305238D01*
X233521333Y-124400476D01*
X233521333Y-124471904D01*
X233545142Y-124567142D01*
X233568952Y-124614761D01*
X233616571Y-124662380D01*
X233688000Y-124686190D01*
X233735619Y-124686190D01*
X233807047Y-124662380D01*
X233830857Y-124638571D01*
X233830857Y-124471904D01*
X233735619Y-124471904D01*
X234045142Y-124686190D02*
X234045142Y-124186190D01*
X234330857Y-124686190D01*
X234330857Y-124186190D01*
X234568952Y-124686190D02*
X234568952Y-124186190D01*
X234688000Y-124186190D01*
X234759428Y-124210000D01*
X234807047Y-124257619D01*
X234830857Y-124305238D01*
X234854666Y-124400476D01*
X234854666Y-124471904D01*
X234830857Y-124567142D01*
X234807047Y-124614761D01*
X234759428Y-124662380D01*
X234688000Y-124686190D01*
X234568952Y-124686190D01*
X231278952Y-124686190D02*
X231278952Y-124186190D01*
X231398000Y-124186190D01*
X231469428Y-124210000D01*
X231517047Y-124257619D01*
X231540857Y-124305238D01*
X231564666Y-124400476D01*
X231564666Y-124471904D01*
X231540857Y-124567142D01*
X231517047Y-124614761D01*
X231469428Y-124662380D01*
X231398000Y-124686190D01*
X231278952Y-124686190D01*
X231850380Y-124400476D02*
X231802761Y-124376666D01*
X231778952Y-124352857D01*
X231755142Y-124305238D01*
X231755142Y-124281428D01*
X231778952Y-124233809D01*
X231802761Y-124210000D01*
X231850380Y-124186190D01*
X231945619Y-124186190D01*
X231993238Y-124210000D01*
X232017047Y-124233809D01*
X232040857Y-124281428D01*
X232040857Y-124305238D01*
X232017047Y-124352857D01*
X231993238Y-124376666D01*
X231945619Y-124400476D01*
X231850380Y-124400476D01*
X231802761Y-124424285D01*
X231778952Y-124448095D01*
X231755142Y-124495714D01*
X231755142Y-124590952D01*
X231778952Y-124638571D01*
X231802761Y-124662380D01*
X231850380Y-124686190D01*
X231945619Y-124686190D01*
X231993238Y-124662380D01*
X232017047Y-124638571D01*
X232040857Y-124590952D01*
X232040857Y-124495714D01*
X232017047Y-124448095D01*
X231993238Y-124424285D01*
X231945619Y-124400476D01*
X228738952Y-124686190D02*
X228738952Y-124186190D01*
X228858000Y-124186190D01*
X228929428Y-124210000D01*
X228977047Y-124257619D01*
X229000857Y-124305238D01*
X229024666Y-124400476D01*
X229024666Y-124471904D01*
X229000857Y-124567142D01*
X228977047Y-124614761D01*
X228929428Y-124662380D01*
X228858000Y-124686190D01*
X228738952Y-124686190D01*
X229191333Y-124186190D02*
X229524666Y-124186190D01*
X229310380Y-124686190D01*
X226198952Y-124686190D02*
X226198952Y-124186190D01*
X226318000Y-124186190D01*
X226389428Y-124210000D01*
X226437047Y-124257619D01*
X226460857Y-124305238D01*
X226484666Y-124400476D01*
X226484666Y-124471904D01*
X226460857Y-124567142D01*
X226437047Y-124614761D01*
X226389428Y-124662380D01*
X226318000Y-124686190D01*
X226198952Y-124686190D01*
X226913238Y-124186190D02*
X226818000Y-124186190D01*
X226770380Y-124210000D01*
X226746571Y-124233809D01*
X226698952Y-124305238D01*
X226675142Y-124400476D01*
X226675142Y-124590952D01*
X226698952Y-124638571D01*
X226722761Y-124662380D01*
X226770380Y-124686190D01*
X226865619Y-124686190D01*
X226913238Y-124662380D01*
X226937047Y-124638571D01*
X226960857Y-124590952D01*
X226960857Y-124471904D01*
X226937047Y-124424285D01*
X226913238Y-124400476D01*
X226865619Y-124376666D01*
X226770380Y-124376666D01*
X226722761Y-124400476D01*
X226698952Y-124424285D01*
X226675142Y-124471904D01*
X223658952Y-124686190D02*
X223658952Y-124186190D01*
X223778000Y-124186190D01*
X223849428Y-124210000D01*
X223897047Y-124257619D01*
X223920857Y-124305238D01*
X223944666Y-124400476D01*
X223944666Y-124471904D01*
X223920857Y-124567142D01*
X223897047Y-124614761D01*
X223849428Y-124662380D01*
X223778000Y-124686190D01*
X223658952Y-124686190D01*
X224397047Y-124186190D02*
X224158952Y-124186190D01*
X224135142Y-124424285D01*
X224158952Y-124400476D01*
X224206571Y-124376666D01*
X224325619Y-124376666D01*
X224373238Y-124400476D01*
X224397047Y-124424285D01*
X224420857Y-124471904D01*
X224420857Y-124590952D01*
X224397047Y-124638571D01*
X224373238Y-124662380D01*
X224325619Y-124686190D01*
X224206571Y-124686190D01*
X224158952Y-124662380D01*
X224135142Y-124638571D01*
X221118952Y-124686190D02*
X221118952Y-124186190D01*
X221238000Y-124186190D01*
X221309428Y-124210000D01*
X221357047Y-124257619D01*
X221380857Y-124305238D01*
X221404666Y-124400476D01*
X221404666Y-124471904D01*
X221380857Y-124567142D01*
X221357047Y-124614761D01*
X221309428Y-124662380D01*
X221238000Y-124686190D01*
X221118952Y-124686190D01*
X221833238Y-124352857D02*
X221833238Y-124686190D01*
X221714190Y-124162380D02*
X221595142Y-124519523D01*
X221904666Y-124519523D01*
X218578952Y-124686190D02*
X218578952Y-124186190D01*
X218698000Y-124186190D01*
X218769428Y-124210000D01*
X218817047Y-124257619D01*
X218840857Y-124305238D01*
X218864666Y-124400476D01*
X218864666Y-124471904D01*
X218840857Y-124567142D01*
X218817047Y-124614761D01*
X218769428Y-124662380D01*
X218698000Y-124686190D01*
X218578952Y-124686190D01*
X219031333Y-124186190D02*
X219340857Y-124186190D01*
X219174190Y-124376666D01*
X219245619Y-124376666D01*
X219293238Y-124400476D01*
X219317047Y-124424285D01*
X219340857Y-124471904D01*
X219340857Y-124590952D01*
X219317047Y-124638571D01*
X219293238Y-124662380D01*
X219245619Y-124686190D01*
X219102761Y-124686190D01*
X219055142Y-124662380D01*
X219031333Y-124638571D01*
X216038952Y-124686190D02*
X216038952Y-124186190D01*
X216158000Y-124186190D01*
X216229428Y-124210000D01*
X216277047Y-124257619D01*
X216300857Y-124305238D01*
X216324666Y-124400476D01*
X216324666Y-124471904D01*
X216300857Y-124567142D01*
X216277047Y-124614761D01*
X216229428Y-124662380D01*
X216158000Y-124686190D01*
X216038952Y-124686190D01*
X216515142Y-124233809D02*
X216538952Y-124210000D01*
X216586571Y-124186190D01*
X216705619Y-124186190D01*
X216753238Y-124210000D01*
X216777047Y-124233809D01*
X216800857Y-124281428D01*
X216800857Y-124329047D01*
X216777047Y-124400476D01*
X216491333Y-124686190D01*
X216800857Y-124686190D01*
X210284190Y-121495309D02*
X210046095Y-121661976D01*
X210284190Y-121781023D02*
X209784190Y-121781023D01*
X209784190Y-121590547D01*
X209808000Y-121542928D01*
X209831809Y-121519119D01*
X209879428Y-121495309D01*
X209950857Y-121495309D01*
X209998476Y-121519119D01*
X210022285Y-121542928D01*
X210046095Y-121590547D01*
X210046095Y-121781023D01*
X210260380Y-121304833D02*
X210284190Y-121233404D01*
X210284190Y-121114357D01*
X210260380Y-121066738D01*
X210236571Y-121042928D01*
X210188952Y-121019119D01*
X210141333Y-121019119D01*
X210093714Y-121042928D01*
X210069904Y-121066738D01*
X210046095Y-121114357D01*
X210022285Y-121209595D01*
X209998476Y-121257214D01*
X209974666Y-121281023D01*
X209927047Y-121304833D01*
X209879428Y-121304833D01*
X209831809Y-121281023D01*
X209808000Y-121257214D01*
X209784190Y-121209595D01*
X209784190Y-121090547D01*
X209808000Y-121019119D01*
X209784190Y-120876261D02*
X209784190Y-120590547D01*
X210284190Y-120733404D02*
X209784190Y-120733404D01*
X210260380Y-119324357D02*
X210284190Y-119252928D01*
X210284190Y-119133880D01*
X210260380Y-119086261D01*
X210236571Y-119062452D01*
X210188952Y-119038642D01*
X210141333Y-119038642D01*
X210093714Y-119062452D01*
X210069904Y-119086261D01*
X210046095Y-119133880D01*
X210022285Y-119229119D01*
X209998476Y-119276738D01*
X209974666Y-119300547D01*
X209927047Y-119324357D01*
X209879428Y-119324357D01*
X209831809Y-119300547D01*
X209808000Y-119276738D01*
X209784190Y-119229119D01*
X209784190Y-119110071D01*
X209808000Y-119038642D01*
X210236571Y-118538642D02*
X210260380Y-118562452D01*
X210284190Y-118633880D01*
X210284190Y-118681500D01*
X210260380Y-118752928D01*
X210212761Y-118800547D01*
X210165142Y-118824357D01*
X210069904Y-118848166D01*
X209998476Y-118848166D01*
X209903238Y-118824357D01*
X209855619Y-118800547D01*
X209808000Y-118752928D01*
X209784190Y-118681500D01*
X209784190Y-118633880D01*
X209808000Y-118562452D01*
X209831809Y-118538642D01*
X210284190Y-118324357D02*
X209784190Y-118324357D01*
X210284190Y-118038642D02*
X209998476Y-118252928D01*
X209784190Y-118038642D02*
X210069904Y-118324357D01*
X210236571Y-116604990D02*
X210260380Y-116628800D01*
X210284190Y-116700228D01*
X210284190Y-116747847D01*
X210260380Y-116819276D01*
X210212761Y-116866895D01*
X210165142Y-116890704D01*
X210069904Y-116914514D01*
X209998476Y-116914514D01*
X209903238Y-116890704D01*
X209855619Y-116866895D01*
X209808000Y-116819276D01*
X209784190Y-116747847D01*
X209784190Y-116700228D01*
X209808000Y-116628800D01*
X209831809Y-116604990D01*
X210284190Y-116390704D02*
X209784190Y-116390704D01*
X210284190Y-116152609D02*
X209784190Y-116152609D01*
X209784190Y-115962133D01*
X209808000Y-115914514D01*
X209831809Y-115890704D01*
X209879428Y-115866895D01*
X209950857Y-115866895D01*
X209998476Y-115890704D01*
X210022285Y-115914514D01*
X210046095Y-115962133D01*
X210046095Y-116152609D01*
X209784190Y-115557371D02*
X209784190Y-115462133D01*
X209808000Y-115414514D01*
X209855619Y-115366895D01*
X209950857Y-115343085D01*
X210117523Y-115343085D01*
X210212761Y-115366895D01*
X210260380Y-115414514D01*
X210284190Y-115462133D01*
X210284190Y-115557371D01*
X210260380Y-115604990D01*
X210212761Y-115652609D01*
X210117523Y-115676419D01*
X209950857Y-115676419D01*
X209855619Y-115652609D01*
X209808000Y-115604990D01*
X209784190Y-115557371D01*
X203958000Y-120827847D02*
X203981809Y-120780228D01*
X203981809Y-120708800D01*
X203958000Y-120637371D01*
X203910380Y-120589752D01*
X203862761Y-120565942D01*
X203767523Y-120542133D01*
X203696095Y-120542133D01*
X203600857Y-120565942D01*
X203553238Y-120589752D01*
X203505619Y-120637371D01*
X203481809Y-120708800D01*
X203481809Y-120756419D01*
X203505619Y-120827847D01*
X203529428Y-120851657D01*
X203696095Y-120851657D01*
X203696095Y-120756419D01*
X203481809Y-121065942D02*
X203981809Y-121065942D01*
X203481809Y-121351657D01*
X203981809Y-121351657D01*
X203481809Y-121589752D02*
X203981809Y-121589752D01*
X203981809Y-121708800D01*
X203958000Y-121780228D01*
X203910380Y-121827847D01*
X203862761Y-121851657D01*
X203767523Y-121875466D01*
X203696095Y-121875466D01*
X203600857Y-121851657D01*
X203553238Y-121827847D01*
X203505619Y-121780228D01*
X203481809Y-121708800D01*
X203481809Y-121589752D01*
X203529428Y-118192609D02*
X203505619Y-118168800D01*
X203481809Y-118097371D01*
X203481809Y-118049752D01*
X203505619Y-117978323D01*
X203553238Y-117930704D01*
X203600857Y-117906895D01*
X203696095Y-117883085D01*
X203767523Y-117883085D01*
X203862761Y-117906895D01*
X203910380Y-117930704D01*
X203958000Y-117978323D01*
X203981809Y-118049752D01*
X203981809Y-118097371D01*
X203958000Y-118168800D01*
X203934190Y-118192609D01*
X203981809Y-118502133D02*
X203981809Y-118597371D01*
X203958000Y-118644990D01*
X203910380Y-118692609D01*
X203815142Y-118716419D01*
X203648476Y-118716419D01*
X203553238Y-118692609D01*
X203505619Y-118644990D01*
X203481809Y-118597371D01*
X203481809Y-118502133D01*
X203505619Y-118454514D01*
X203553238Y-118406895D01*
X203648476Y-118383085D01*
X203815142Y-118383085D01*
X203910380Y-118406895D01*
X203958000Y-118454514D01*
X203981809Y-118502133D01*
X203481809Y-118930704D02*
X203981809Y-118930704D01*
X203981809Y-119121180D01*
X203958000Y-119168800D01*
X203934190Y-119192609D01*
X203886571Y-119216419D01*
X203815142Y-119216419D01*
X203767523Y-119192609D01*
X203743714Y-119168800D01*
X203719904Y-119121180D01*
X203719904Y-118930704D01*
X203481809Y-119430704D02*
X203981809Y-119430704D01*
X203981809Y-115533561D02*
X203481809Y-115700228D01*
X203981809Y-115866895D01*
X203505619Y-116247847D02*
X203481809Y-116200228D01*
X203481809Y-116104990D01*
X203505619Y-116057371D01*
X203529428Y-116033561D01*
X203577047Y-116009752D01*
X203719904Y-116009752D01*
X203767523Y-116033561D01*
X203791333Y-116057371D01*
X203815142Y-116104990D01*
X203815142Y-116200228D01*
X203791333Y-116247847D01*
X203505619Y-116676419D02*
X203481809Y-116628800D01*
X203481809Y-116533561D01*
X203505619Y-116485942D01*
X203529428Y-116462133D01*
X203577047Y-116438323D01*
X203719904Y-116438323D01*
X203767523Y-116462133D01*
X203791333Y-116485942D01*
X203815142Y-116533561D01*
X203815142Y-116628800D01*
X203791333Y-116676419D01*
X206375047Y-111764000D02*
X206327428Y-111740190D01*
X206256000Y-111740190D01*
X206184571Y-111764000D01*
X206136952Y-111811619D01*
X206113142Y-111859238D01*
X206089333Y-111954476D01*
X206089333Y-112025904D01*
X206113142Y-112121142D01*
X206136952Y-112168761D01*
X206184571Y-112216380D01*
X206256000Y-112240190D01*
X206303619Y-112240190D01*
X206375047Y-112216380D01*
X206398857Y-112192571D01*
X206398857Y-112025904D01*
X206303619Y-112025904D01*
X206613142Y-112240190D02*
X206613142Y-111740190D01*
X206898857Y-112240190D01*
X206898857Y-111740190D01*
X207136952Y-112240190D02*
X207136952Y-111740190D01*
X207256000Y-111740190D01*
X207327428Y-111764000D01*
X207375047Y-111811619D01*
X207398857Y-111859238D01*
X207422666Y-111954476D01*
X207422666Y-112025904D01*
X207398857Y-112121142D01*
X207375047Y-112168761D01*
X207327428Y-112216380D01*
X207256000Y-112240190D01*
X207136952Y-112240190D01*
X206017904Y-105644190D02*
X206327428Y-105644190D01*
X206160761Y-105834666D01*
X206232190Y-105834666D01*
X206279809Y-105858476D01*
X206303619Y-105882285D01*
X206327428Y-105929904D01*
X206327428Y-106048952D01*
X206303619Y-106096571D01*
X206279809Y-106120380D01*
X206232190Y-106144190D01*
X206089333Y-106144190D01*
X206041714Y-106120380D01*
X206017904Y-106096571D01*
X206541714Y-106096571D02*
X206565523Y-106120380D01*
X206541714Y-106144190D01*
X206517904Y-106120380D01*
X206541714Y-106096571D01*
X206541714Y-106144190D01*
X206732190Y-105644190D02*
X207041714Y-105644190D01*
X206875047Y-105834666D01*
X206946476Y-105834666D01*
X206994095Y-105858476D01*
X207017904Y-105882285D01*
X207041714Y-105929904D01*
X207041714Y-106048952D01*
X207017904Y-106096571D01*
X206994095Y-106120380D01*
X206946476Y-106144190D01*
X206803619Y-106144190D01*
X206756000Y-106120380D01*
X206732190Y-106096571D01*
X207184571Y-105644190D02*
X207351238Y-106144190D01*
X207517904Y-105644190D01*
X236364542Y-105942580D02*
X236435971Y-105966390D01*
X236555019Y-105966390D01*
X236602638Y-105942580D01*
X236626447Y-105918771D01*
X236650257Y-105871152D01*
X236650257Y-105823533D01*
X236626447Y-105775914D01*
X236602638Y-105752104D01*
X236555019Y-105728295D01*
X236459780Y-105704485D01*
X236412161Y-105680676D01*
X236388352Y-105656866D01*
X236364542Y-105609247D01*
X236364542Y-105561628D01*
X236388352Y-105514009D01*
X236412161Y-105490200D01*
X236459780Y-105466390D01*
X236578828Y-105466390D01*
X236650257Y-105490200D01*
X237150257Y-105918771D02*
X237126447Y-105942580D01*
X237055019Y-105966390D01*
X237007400Y-105966390D01*
X236935971Y-105942580D01*
X236888352Y-105894961D01*
X236864542Y-105847342D01*
X236840733Y-105752104D01*
X236840733Y-105680676D01*
X236864542Y-105585438D01*
X236888352Y-105537819D01*
X236935971Y-105490200D01*
X237007400Y-105466390D01*
X237055019Y-105466390D01*
X237126447Y-105490200D01*
X237150257Y-105514009D01*
X237364542Y-105966390D02*
X237364542Y-105466390D01*
X237650257Y-105966390D02*
X237435971Y-105680676D01*
X237650257Y-105466390D02*
X237364542Y-105752104D01*
X233834857Y-105967980D02*
X233906285Y-105991790D01*
X234025333Y-105991790D01*
X234072952Y-105967980D01*
X234096761Y-105944171D01*
X234120571Y-105896552D01*
X234120571Y-105848933D01*
X234096761Y-105801314D01*
X234072952Y-105777504D01*
X234025333Y-105753695D01*
X233930095Y-105729885D01*
X233882476Y-105706076D01*
X233858666Y-105682266D01*
X233834857Y-105634647D01*
X233834857Y-105587028D01*
X233858666Y-105539409D01*
X233882476Y-105515600D01*
X233930095Y-105491790D01*
X234049142Y-105491790D01*
X234120571Y-105515600D01*
X234334857Y-105991790D02*
X234334857Y-105491790D01*
X234453904Y-105491790D01*
X234525333Y-105515600D01*
X234572952Y-105563219D01*
X234596761Y-105610838D01*
X234620571Y-105706076D01*
X234620571Y-105777504D01*
X234596761Y-105872742D01*
X234572952Y-105920361D01*
X234525333Y-105967980D01*
X234453904Y-105991790D01*
X234334857Y-105991790D01*
X234811047Y-105848933D02*
X235049142Y-105848933D01*
X234763428Y-105991790D02*
X234930095Y-105491790D01*
X235096761Y-105991790D01*
X228981047Y-105515600D02*
X228933428Y-105491790D01*
X228862000Y-105491790D01*
X228790571Y-105515600D01*
X228742952Y-105563219D01*
X228719142Y-105610838D01*
X228695333Y-105706076D01*
X228695333Y-105777504D01*
X228719142Y-105872742D01*
X228742952Y-105920361D01*
X228790571Y-105967980D01*
X228862000Y-105991790D01*
X228909619Y-105991790D01*
X228981047Y-105967980D01*
X229004857Y-105944171D01*
X229004857Y-105777504D01*
X228909619Y-105777504D01*
X229219142Y-105991790D02*
X229219142Y-105491790D01*
X229504857Y-105991790D01*
X229504857Y-105491790D01*
X229742952Y-105991790D02*
X229742952Y-105491790D01*
X229862000Y-105491790D01*
X229933428Y-105515600D01*
X229981047Y-105563219D01*
X230004857Y-105610838D01*
X230028666Y-105706076D01*
X230028666Y-105777504D01*
X230004857Y-105872742D01*
X229981047Y-105920361D01*
X229933428Y-105967980D01*
X229862000Y-105991790D01*
X229742952Y-105991790D01*
X231306761Y-105466390D02*
X231473428Y-105966390D01*
X231640095Y-105466390D01*
X232021047Y-105942580D02*
X231973428Y-105966390D01*
X231878190Y-105966390D01*
X231830571Y-105942580D01*
X231806761Y-105918771D01*
X231782952Y-105871152D01*
X231782952Y-105728295D01*
X231806761Y-105680676D01*
X231830571Y-105656866D01*
X231878190Y-105633057D01*
X231973428Y-105633057D01*
X232021047Y-105656866D01*
X232449619Y-105942580D02*
X232402000Y-105966390D01*
X232306761Y-105966390D01*
X232259142Y-105942580D01*
X232235333Y-105918771D01*
X232211523Y-105871152D01*
X232211523Y-105728295D01*
X232235333Y-105680676D01*
X232259142Y-105656866D01*
X232306761Y-105633057D01*
X232402000Y-105633057D01*
X232449619Y-105656866D01*
X223647047Y-105491790D02*
X223932761Y-105491790D01*
X223789904Y-105991790D02*
X223789904Y-105491790D01*
X224051809Y-105491790D02*
X224385142Y-105991790D01*
X224385142Y-105491790D02*
X224051809Y-105991790D01*
X221404666Y-105991790D02*
X221238000Y-105753695D01*
X221118952Y-105991790D02*
X221118952Y-105491790D01*
X221309428Y-105491790D01*
X221357047Y-105515600D01*
X221380857Y-105539409D01*
X221404666Y-105587028D01*
X221404666Y-105658457D01*
X221380857Y-105706076D01*
X221357047Y-105729885D01*
X221309428Y-105753695D01*
X221118952Y-105753695D01*
X221571333Y-105491790D02*
X221904666Y-105991790D01*
X221904666Y-105491790D02*
X221571333Y-105991790D01*
X218352761Y-105491790D02*
X218519428Y-105991790D01*
X218686095Y-105491790D01*
X219067047Y-105967980D02*
X219019428Y-105991790D01*
X218924190Y-105991790D01*
X218876571Y-105967980D01*
X218852761Y-105944171D01*
X218828952Y-105896552D01*
X218828952Y-105753695D01*
X218852761Y-105706076D01*
X218876571Y-105682266D01*
X218924190Y-105658457D01*
X219019428Y-105658457D01*
X219067047Y-105682266D01*
X219495619Y-105967980D02*
X219448000Y-105991790D01*
X219352761Y-105991790D01*
X219305142Y-105967980D01*
X219281333Y-105944171D01*
X219257523Y-105896552D01*
X219257523Y-105753695D01*
X219281333Y-105706076D01*
X219305142Y-105682266D01*
X219352761Y-105658457D01*
X219448000Y-105658457D01*
X219495619Y-105682266D01*
X216027047Y-105566400D02*
X215979428Y-105542590D01*
X215908000Y-105542590D01*
X215836571Y-105566400D01*
X215788952Y-105614019D01*
X215765142Y-105661638D01*
X215741333Y-105756876D01*
X215741333Y-105828304D01*
X215765142Y-105923542D01*
X215788952Y-105971161D01*
X215836571Y-106018780D01*
X215908000Y-106042590D01*
X215955619Y-106042590D01*
X216027047Y-106018780D01*
X216050857Y-105994971D01*
X216050857Y-105828304D01*
X215955619Y-105828304D01*
X216265142Y-106042590D02*
X216265142Y-105542590D01*
X216550857Y-106042590D01*
X216550857Y-105542590D01*
X216788952Y-106042590D02*
X216788952Y-105542590D01*
X216908000Y-105542590D01*
X216979428Y-105566400D01*
X217027047Y-105614019D01*
X217050857Y-105661638D01*
X217074666Y-105756876D01*
X217074666Y-105828304D01*
X217050857Y-105923542D01*
X217027047Y-105971161D01*
X216979428Y-106018780D01*
X216908000Y-106042590D01*
X216788952Y-106042590D01*
X237045571Y-114907190D02*
X236759857Y-114907190D01*
X236902714Y-114907190D02*
X236902714Y-114407190D01*
X236855095Y-114478619D01*
X236807476Y-114526238D01*
X236759857Y-114550047D01*
X237355095Y-114407190D02*
X237402714Y-114407190D01*
X237450333Y-114431000D01*
X237474142Y-114454809D01*
X237497952Y-114502428D01*
X237521761Y-114597666D01*
X237521761Y-114716714D01*
X237497952Y-114811952D01*
X237474142Y-114859571D01*
X237450333Y-114883380D01*
X237402714Y-114907190D01*
X237355095Y-114907190D01*
X237307476Y-114883380D01*
X237283666Y-114859571D01*
X237259857Y-114811952D01*
X237236047Y-114716714D01*
X237236047Y-114597666D01*
X237259857Y-114502428D01*
X237283666Y-114454809D01*
X237307476Y-114431000D01*
X237355095Y-114407190D01*
X237736047Y-114573857D02*
X237736047Y-115073857D01*
X237974142Y-114835761D02*
X237997952Y-114883380D01*
X238045571Y-114907190D01*
X237736047Y-114835761D02*
X237759857Y-114883380D01*
X237807476Y-114907190D01*
X237902714Y-114907190D01*
X237950333Y-114883380D01*
X237974142Y-114835761D01*
X237974142Y-114573857D01*
X238426523Y-114645285D02*
X238259857Y-114645285D01*
X238259857Y-114907190D02*
X238259857Y-114407190D01*
X238497952Y-114407190D01*
X221047571Y-112041809D02*
X221071380Y-112018000D01*
X221119000Y-111994190D01*
X221238047Y-111994190D01*
X221285666Y-112018000D01*
X221309476Y-112041809D01*
X221333285Y-112089428D01*
X221333285Y-112137047D01*
X221309476Y-112208476D01*
X221023761Y-112494190D01*
X221333285Y-112494190D01*
X221523761Y-112041809D02*
X221547571Y-112018000D01*
X221595190Y-111994190D01*
X221714238Y-111994190D01*
X221761857Y-112018000D01*
X221785666Y-112041809D01*
X221809476Y-112089428D01*
X221809476Y-112137047D01*
X221785666Y-112208476D01*
X221499952Y-112494190D01*
X221809476Y-112494190D01*
X222023761Y-112160857D02*
X222023761Y-112660857D01*
X222023761Y-112184666D02*
X222071380Y-112160857D01*
X222166619Y-112160857D01*
X222214238Y-112184666D01*
X222238047Y-112208476D01*
X222261857Y-112256095D01*
X222261857Y-112398952D01*
X222238047Y-112446571D01*
X222214238Y-112470380D01*
X222166619Y-112494190D01*
X222071380Y-112494190D01*
X222023761Y-112470380D01*
X222642809Y-112232285D02*
X222476142Y-112232285D01*
X222476142Y-112494190D02*
X222476142Y-111994190D01*
X222714238Y-111994190D01*
X220920571Y-108765209D02*
X220944380Y-108741400D01*
X220992000Y-108717590D01*
X221111047Y-108717590D01*
X221158666Y-108741400D01*
X221182476Y-108765209D01*
X221206285Y-108812828D01*
X221206285Y-108860447D01*
X221182476Y-108931876D01*
X220896761Y-109217590D01*
X221206285Y-109217590D01*
X221396761Y-108765209D02*
X221420571Y-108741400D01*
X221468190Y-108717590D01*
X221587238Y-108717590D01*
X221634857Y-108741400D01*
X221658666Y-108765209D01*
X221682476Y-108812828D01*
X221682476Y-108860447D01*
X221658666Y-108931876D01*
X221372952Y-109217590D01*
X221682476Y-109217590D01*
X221896761Y-108884257D02*
X221896761Y-109384257D01*
X221896761Y-108908066D02*
X221944380Y-108884257D01*
X222039619Y-108884257D01*
X222087238Y-108908066D01*
X222111047Y-108931876D01*
X222134857Y-108979495D01*
X222134857Y-109122352D01*
X222111047Y-109169971D01*
X222087238Y-109193780D01*
X222039619Y-109217590D01*
X221944380Y-109217590D01*
X221896761Y-109193780D01*
X222515809Y-108955685D02*
X222349142Y-108955685D01*
X222349142Y-109217590D02*
X222349142Y-108717590D01*
X222587238Y-108717590D01*
X236688428Y-118852190D02*
X236997952Y-118852190D01*
X236831285Y-119042666D01*
X236902714Y-119042666D01*
X236950333Y-119066476D01*
X236974142Y-119090285D01*
X236997952Y-119137904D01*
X236997952Y-119256952D01*
X236974142Y-119304571D01*
X236950333Y-119328380D01*
X236902714Y-119352190D01*
X236759857Y-119352190D01*
X236712238Y-119328380D01*
X236688428Y-119304571D01*
X237164619Y-118852190D02*
X237474142Y-118852190D01*
X237307476Y-119042666D01*
X237378904Y-119042666D01*
X237426523Y-119066476D01*
X237450333Y-119090285D01*
X237474142Y-119137904D01*
X237474142Y-119256952D01*
X237450333Y-119304571D01*
X237426523Y-119328380D01*
X237378904Y-119352190D01*
X237236047Y-119352190D01*
X237188428Y-119328380D01*
X237164619Y-119304571D01*
X237783666Y-118852190D02*
X237831285Y-118852190D01*
X237878904Y-118876000D01*
X237902714Y-118899809D01*
X237926523Y-118947428D01*
X237950333Y-119042666D01*
X237950333Y-119161714D01*
X237926523Y-119256952D01*
X237902714Y-119304571D01*
X237878904Y-119328380D01*
X237831285Y-119352190D01*
X237783666Y-119352190D01*
X237736047Y-119328380D01*
X237712238Y-119304571D01*
X237688428Y-119256952D01*
X237664619Y-119161714D01*
X237664619Y-119042666D01*
X237688428Y-118947428D01*
X237712238Y-118899809D01*
X237736047Y-118876000D01*
X237783666Y-118852190D01*
X238140809Y-119352190D02*
X238259857Y-119352190D01*
X238259857Y-119256952D01*
X238212238Y-119233142D01*
X238164619Y-119185523D01*
X238140809Y-119114095D01*
X238140809Y-118995047D01*
X238164619Y-118923619D01*
X238212238Y-118876000D01*
X238283666Y-118852190D01*
X238378904Y-118852190D01*
X238450333Y-118876000D01*
X238497952Y-118923619D01*
X238521761Y-118995047D01*
X238521761Y-119114095D01*
X238497952Y-119185523D01*
X238450333Y-119233142D01*
X238402714Y-119256952D01*
X238402714Y-119352190D01*
X238521761Y-119352190D01*
X210744666Y-105128190D02*
X210458952Y-105128190D01*
X210601809Y-105128190D02*
X210601809Y-104628190D01*
X210554190Y-104699619D01*
X210506571Y-104747238D01*
X210458952Y-104771047D01*
X211054190Y-104628190D02*
X211101809Y-104628190D01*
X211149428Y-104652000D01*
X211173238Y-104675809D01*
X211197047Y-104723428D01*
X211220857Y-104818666D01*
X211220857Y-104937714D01*
X211197047Y-105032952D01*
X211173238Y-105080571D01*
X211149428Y-105104380D01*
X211101809Y-105128190D01*
X211054190Y-105128190D01*
X211006571Y-105104380D01*
X210982761Y-105080571D01*
X210958952Y-105032952D01*
X210935142Y-104937714D01*
X210935142Y-104818666D01*
X210958952Y-104723428D01*
X210982761Y-104675809D01*
X211006571Y-104652000D01*
X211054190Y-104628190D01*
X211435142Y-105128190D02*
X211435142Y-104628190D01*
X211482761Y-104937714D02*
X211625619Y-105128190D01*
X211625619Y-104794857D02*
X211435142Y-104985333D01*
X211816095Y-105128190D02*
X211935142Y-105128190D01*
X211935142Y-105032952D01*
X211887523Y-105009142D01*
X211839904Y-104961523D01*
X211816095Y-104890095D01*
X211816095Y-104771047D01*
X211839904Y-104699619D01*
X211887523Y-104652000D01*
X211958952Y-104628190D01*
X212054190Y-104628190D01*
X212125619Y-104652000D01*
X212173238Y-104699619D01*
X212197047Y-104771047D01*
X212197047Y-104890095D01*
X212173238Y-104961523D01*
X212125619Y-105009142D01*
X212078000Y-105032952D01*
X212078000Y-105128190D01*
X212197047Y-105128190D01*
D11*
%TO.C,BT1*%
X204220000Y-106366000D02*
X205550000Y-106366000D01*
X204220000Y-107696000D02*
X204220000Y-106366000D01*
X204220000Y-108966000D02*
X206880000Y-108966000D01*
X206880000Y-108966000D02*
X206880000Y-111566000D01*
X204220000Y-108966000D02*
X204220000Y-111566000D01*
X204220000Y-111566000D02*
X206880000Y-111566000D01*
%TO.C,C1*%
X220000000Y-111831000D02*
X222860000Y-111831000D01*
X220000000Y-109911000D02*
X220000000Y-111831000D01*
X222860000Y-109911000D02*
X220000000Y-109911000D01*
%TO.C,C2*%
X222860000Y-106667000D02*
X220000000Y-106667000D01*
X220000000Y-106667000D02*
X220000000Y-108587000D01*
X220000000Y-108587000D02*
X222860000Y-108587000D01*
%TO.C,C3*%
X236588000Y-117121000D02*
X239448000Y-117121000D01*
X239448000Y-117121000D02*
X239448000Y-115201000D01*
X239448000Y-115201000D02*
X236588000Y-115201000D01*
%TO.C,D1*%
X240837000Y-121356000D02*
X243697000Y-121356000D01*
X240837000Y-119436000D02*
X240837000Y-121356000D01*
X243697000Y-119436000D02*
X240837000Y-119436000D01*
%TO.C,J1*%
X215078000Y-126238000D02*
X215078000Y-124908000D01*
X215078000Y-124908000D02*
X216408000Y-124908000D01*
X217678000Y-124908000D02*
X238058000Y-124908000D01*
X238058000Y-127568000D02*
X238058000Y-124908000D01*
X217678000Y-127568000D02*
X238058000Y-127568000D01*
X217678000Y-127568000D02*
X217678000Y-124908000D01*
%TO.C,J2*%
X217678000Y-105152000D02*
X217678000Y-102492000D01*
X217678000Y-105152000D02*
X225358000Y-105152000D01*
X225358000Y-105152000D02*
X225358000Y-102492000D01*
X217678000Y-102492000D02*
X225358000Y-102492000D01*
X215078000Y-102492000D02*
X216408000Y-102492000D01*
X215078000Y-103822000D02*
X215078000Y-102492000D01*
%TO.C,J3*%
X208090000Y-114812000D02*
X209420000Y-114812000D01*
X209420000Y-114812000D02*
X209420000Y-116142000D01*
X206820000Y-114812000D02*
X206820000Y-117412000D01*
X206820000Y-117412000D02*
X209420000Y-117412000D01*
X209420000Y-117412000D02*
X209420000Y-122552000D01*
X204220000Y-122552000D02*
X209420000Y-122552000D01*
X204220000Y-114812000D02*
X204220000Y-122552000D01*
X204220000Y-114812000D02*
X206820000Y-114812000D01*
%TO.C,J4*%
X228032000Y-103822000D02*
X228032000Y-102492000D01*
X228032000Y-102492000D02*
X229362000Y-102492000D01*
X230632000Y-102492000D02*
X238312000Y-102492000D01*
X238312000Y-105152000D02*
X238312000Y-102492000D01*
X230632000Y-105152000D02*
X238312000Y-105152000D01*
X230632000Y-105152000D02*
X230632000Y-102492000D01*
%TO.C,R1*%
X237405936Y-121086000D02*
X237860064Y-121086000D01*
X237405936Y-119616000D02*
X237860064Y-119616000D01*
%TO.C,R2*%
X211539064Y-106907000D02*
X211084936Y-106907000D01*
X211539064Y-105437000D02*
X211084936Y-105437000D01*
%TO.C,U1*%
X242854000Y-112447000D02*
X244544000Y-112447000D01*
X242854000Y-113192000D02*
X242854000Y-112447000D01*
X240094000Y-113192000D02*
X242854000Y-113192000D01*
X237334000Y-113192000D02*
X237334000Y-112447000D01*
X240094000Y-113192000D02*
X237334000Y-113192000D01*
X242854000Y-106772000D02*
X242854000Y-107517000D01*
X240094000Y-106772000D02*
X242854000Y-106772000D01*
X237334000Y-106772000D02*
X237334000Y-107517000D01*
X240094000Y-106772000D02*
X237334000Y-106772000D01*
D12*
%TO.C,U2*%
X226866000Y-115609000D02*
X226866000Y-115814000D01*
X232366000Y-115609000D02*
X232366000Y-115909000D01*
X232366000Y-121119000D02*
X232366000Y-120819000D01*
X226866000Y-121119000D02*
X226866000Y-120819000D01*
X226866000Y-115609000D02*
X232366000Y-115609000D01*
X226866000Y-121119000D02*
X232366000Y-121119000D01*
X226866000Y-115814000D02*
X225116000Y-115814000D01*
%TO.C,U3*%
X226866000Y-107178000D02*
X225116000Y-107178000D01*
X226866000Y-112483000D02*
X232366000Y-112483000D01*
X226866000Y-106973000D02*
X232366000Y-106973000D01*
X226866000Y-112483000D02*
X226866000Y-112183000D01*
X232366000Y-112483000D02*
X232366000Y-112183000D01*
X232366000Y-106973000D02*
X232366000Y-107273000D01*
X226866000Y-106973000D02*
X226866000Y-107178000D01*
%TO.C,U4*%
X213291000Y-114456000D02*
X211866000Y-114456000D01*
X220541000Y-114231000D02*
X220216000Y-114231000D01*
X220541000Y-121481000D02*
X220216000Y-121481000D01*
X213291000Y-121481000D02*
X213616000Y-121481000D01*
X213291000Y-114231000D02*
X213616000Y-114231000D01*
X213291000Y-121481000D02*
X213291000Y-121156000D01*
X220541000Y-121481000D02*
X220541000Y-121156000D01*
X220541000Y-114231000D02*
X220541000Y-114556000D01*
X213291000Y-114231000D02*
X213291000Y-114456000D01*
D11*
%TO.C,Y1*%
X242252000Y-115416000D02*
X243352000Y-115416000D01*
X242252000Y-117316000D02*
X243352000Y-117316000D01*
X240852000Y-115466000D02*
X240852000Y-117266000D01*
%TO.C,Y2*%
X209512000Y-111528000D02*
X216762000Y-111528000D01*
X209512000Y-107928000D02*
X209512000Y-111528000D01*
X216762000Y-107928000D02*
X209512000Y-107928000D01*
%TO.C,BT1*%
D10*
X204331142Y-105882285D02*
X204402571Y-105906095D01*
X204426380Y-105929904D01*
X204450190Y-105977523D01*
X204450190Y-106048952D01*
X204426380Y-106096571D01*
X204402571Y-106120380D01*
X204354952Y-106144190D01*
X204164476Y-106144190D01*
X204164476Y-105644190D01*
X204331142Y-105644190D01*
X204378761Y-105668000D01*
X204402571Y-105691809D01*
X204426380Y-105739428D01*
X204426380Y-105787047D01*
X204402571Y-105834666D01*
X204378761Y-105858476D01*
X204331142Y-105882285D01*
X204164476Y-105882285D01*
X204593047Y-105644190D02*
X204878761Y-105644190D01*
X204735904Y-106144190D02*
X204735904Y-105644190D01*
X205307333Y-106144190D02*
X205021619Y-106144190D01*
X205164476Y-106144190D02*
X205164476Y-105644190D01*
X205116857Y-105715619D01*
X205069238Y-105763238D01*
X205021619Y-105787047D01*
X207482285Y-110517571D02*
X207506095Y-110446142D01*
X207529904Y-110422333D01*
X207577523Y-110398523D01*
X207648952Y-110398523D01*
X207696571Y-110422333D01*
X207720380Y-110446142D01*
X207744190Y-110493761D01*
X207744190Y-110684238D01*
X207244190Y-110684238D01*
X207244190Y-110517571D01*
X207268000Y-110469952D01*
X207291809Y-110446142D01*
X207339428Y-110422333D01*
X207387047Y-110422333D01*
X207434666Y-110446142D01*
X207458476Y-110469952D01*
X207482285Y-110517571D01*
X207482285Y-110684238D01*
X207744190Y-109969952D02*
X207482285Y-109969952D01*
X207434666Y-109993761D01*
X207410857Y-110041380D01*
X207410857Y-110136619D01*
X207434666Y-110184238D01*
X207720380Y-109969952D02*
X207744190Y-110017571D01*
X207744190Y-110136619D01*
X207720380Y-110184238D01*
X207672761Y-110208047D01*
X207625142Y-110208047D01*
X207577523Y-110184238D01*
X207553714Y-110136619D01*
X207553714Y-110017571D01*
X207529904Y-109969952D01*
X207410857Y-109803285D02*
X207410857Y-109612809D01*
X207244190Y-109731857D02*
X207672761Y-109731857D01*
X207720380Y-109708047D01*
X207744190Y-109660428D01*
X207744190Y-109612809D01*
X207410857Y-109517571D02*
X207410857Y-109327095D01*
X207244190Y-109446142D02*
X207672761Y-109446142D01*
X207720380Y-109422333D01*
X207744190Y-109374714D01*
X207744190Y-109327095D01*
X207720380Y-108969952D02*
X207744190Y-109017571D01*
X207744190Y-109112809D01*
X207720380Y-109160428D01*
X207672761Y-109184238D01*
X207482285Y-109184238D01*
X207434666Y-109160428D01*
X207410857Y-109112809D01*
X207410857Y-109017571D01*
X207434666Y-108969952D01*
X207482285Y-108946142D01*
X207529904Y-108946142D01*
X207577523Y-109184238D01*
X207744190Y-108731857D02*
X207410857Y-108731857D01*
X207506095Y-108731857D02*
X207458476Y-108708047D01*
X207434666Y-108684238D01*
X207410857Y-108636619D01*
X207410857Y-108589000D01*
X207410857Y-108469952D02*
X207744190Y-108350904D01*
X207410857Y-108231857D02*
X207744190Y-108350904D01*
X207863238Y-108398523D01*
X207887047Y-108422333D01*
X207910857Y-108469952D01*
X207244190Y-107708047D02*
X207244190Y-107398523D01*
X207434666Y-107565190D01*
X207434666Y-107493761D01*
X207458476Y-107446142D01*
X207482285Y-107422333D01*
X207529904Y-107398523D01*
X207648952Y-107398523D01*
X207696571Y-107422333D01*
X207720380Y-107446142D01*
X207744190Y-107493761D01*
X207744190Y-107636619D01*
X207720380Y-107684238D01*
X207696571Y-107708047D01*
X207244190Y-107255666D02*
X207744190Y-107089000D01*
X207244190Y-106922333D01*
%TO.C,C1*%
X219761571Y-110954333D02*
X219785380Y-110978142D01*
X219809190Y-111049571D01*
X219809190Y-111097190D01*
X219785380Y-111168619D01*
X219737761Y-111216238D01*
X219690142Y-111240047D01*
X219594904Y-111263857D01*
X219523476Y-111263857D01*
X219428238Y-111240047D01*
X219380619Y-111216238D01*
X219333000Y-111168619D01*
X219309190Y-111097190D01*
X219309190Y-111049571D01*
X219333000Y-110978142D01*
X219356809Y-110954333D01*
X219809190Y-110478142D02*
X219809190Y-110763857D01*
X219809190Y-110621000D02*
X219309190Y-110621000D01*
X219380619Y-110668619D01*
X219428238Y-110716238D01*
X219452047Y-110763857D01*
%TO.C,C2*%
X219761571Y-107779333D02*
X219785380Y-107803142D01*
X219809190Y-107874571D01*
X219809190Y-107922190D01*
X219785380Y-107993619D01*
X219737761Y-108041238D01*
X219690142Y-108065047D01*
X219594904Y-108088857D01*
X219523476Y-108088857D01*
X219428238Y-108065047D01*
X219380619Y-108041238D01*
X219333000Y-107993619D01*
X219309190Y-107922190D01*
X219309190Y-107874571D01*
X219333000Y-107803142D01*
X219356809Y-107779333D01*
X219356809Y-107588857D02*
X219333000Y-107565047D01*
X219309190Y-107517428D01*
X219309190Y-107398380D01*
X219333000Y-107350761D01*
X219356809Y-107326952D01*
X219404428Y-107303142D01*
X219452047Y-107303142D01*
X219523476Y-107326952D01*
X219809190Y-107612666D01*
X219809190Y-107303142D01*
%TO.C,C3*%
X235509571Y-116287333D02*
X235533380Y-116311142D01*
X235557190Y-116382571D01*
X235557190Y-116430190D01*
X235533380Y-116501619D01*
X235485761Y-116549238D01*
X235438142Y-116573047D01*
X235342904Y-116596857D01*
X235271476Y-116596857D01*
X235176238Y-116573047D01*
X235128619Y-116549238D01*
X235081000Y-116501619D01*
X235057190Y-116430190D01*
X235057190Y-116382571D01*
X235081000Y-116311142D01*
X235104809Y-116287333D01*
X235057190Y-116120666D02*
X235057190Y-115811142D01*
X235247666Y-115977809D01*
X235247666Y-115906380D01*
X235271476Y-115858761D01*
X235295285Y-115834952D01*
X235342904Y-115811142D01*
X235461952Y-115811142D01*
X235509571Y-115834952D01*
X235533380Y-115858761D01*
X235557190Y-115906380D01*
X235557190Y-116049238D01*
X235533380Y-116096857D01*
X235509571Y-116120666D01*
%TO.C,D1*%
X240644190Y-120765047D02*
X240144190Y-120765047D01*
X240144190Y-120646000D01*
X240168000Y-120574571D01*
X240215619Y-120526952D01*
X240263238Y-120503142D01*
X240358476Y-120479333D01*
X240429904Y-120479333D01*
X240525142Y-120503142D01*
X240572761Y-120526952D01*
X240620380Y-120574571D01*
X240644190Y-120646000D01*
X240644190Y-120765047D01*
X240644190Y-120003142D02*
X240644190Y-120288857D01*
X240644190Y-120146000D02*
X240144190Y-120146000D01*
X240215619Y-120193619D01*
X240263238Y-120241238D01*
X240287047Y-120288857D01*
X242375571Y-119288690D02*
X242137476Y-119288690D01*
X242137476Y-118788690D01*
X242542238Y-119026785D02*
X242708904Y-119026785D01*
X242780333Y-119288690D02*
X242542238Y-119288690D01*
X242542238Y-118788690D01*
X242780333Y-118788690D01*
X242994619Y-119288690D02*
X242994619Y-118788690D01*
X243113666Y-118788690D01*
X243185095Y-118812500D01*
X243232714Y-118860119D01*
X243256523Y-118907738D01*
X243280333Y-119002976D01*
X243280333Y-119074404D01*
X243256523Y-119169642D01*
X243232714Y-119217261D01*
X243185095Y-119264880D01*
X243113666Y-119288690D01*
X242994619Y-119288690D01*
%TO.C,J1*%
X214356190Y-126404666D02*
X214713333Y-126404666D01*
X214784761Y-126428476D01*
X214832380Y-126476095D01*
X214856190Y-126547523D01*
X214856190Y-126595142D01*
X214856190Y-125904666D02*
X214856190Y-126190380D01*
X214856190Y-126047523D02*
X214356190Y-126047523D01*
X214427619Y-126095142D01*
X214475238Y-126142761D01*
X214499047Y-126190380D01*
%TO.C,J2*%
X214356190Y-103036666D02*
X214713333Y-103036666D01*
X214784761Y-103060476D01*
X214832380Y-103108095D01*
X214856190Y-103179523D01*
X214856190Y-103227142D01*
X214403809Y-102822380D02*
X214380000Y-102798571D01*
X214356190Y-102750952D01*
X214356190Y-102631904D01*
X214380000Y-102584285D01*
X214403809Y-102560476D01*
X214451428Y-102536666D01*
X214499047Y-102536666D01*
X214570476Y-102560476D01*
X214856190Y-102846190D01*
X214856190Y-102536666D01*
X226008380Y-104747095D02*
X226032190Y-104675666D01*
X226032190Y-104556619D01*
X226008380Y-104509000D01*
X225984571Y-104485190D01*
X225936952Y-104461380D01*
X225889333Y-104461380D01*
X225841714Y-104485190D01*
X225817904Y-104509000D01*
X225794095Y-104556619D01*
X225770285Y-104651857D01*
X225746476Y-104699476D01*
X225722666Y-104723285D01*
X225675047Y-104747095D01*
X225627428Y-104747095D01*
X225579809Y-104723285D01*
X225556000Y-104699476D01*
X225532190Y-104651857D01*
X225532190Y-104532809D01*
X225556000Y-104461380D01*
X226008380Y-104056619D02*
X226032190Y-104104238D01*
X226032190Y-104199476D01*
X226008380Y-104247095D01*
X225960761Y-104270904D01*
X225770285Y-104270904D01*
X225722666Y-104247095D01*
X225698857Y-104199476D01*
X225698857Y-104104238D01*
X225722666Y-104056619D01*
X225770285Y-104032809D01*
X225817904Y-104032809D01*
X225865523Y-104270904D01*
X226032190Y-103818523D02*
X225698857Y-103818523D01*
X225794095Y-103818523D02*
X225746476Y-103794714D01*
X225722666Y-103770904D01*
X225698857Y-103723285D01*
X225698857Y-103675666D01*
X226032190Y-103509000D02*
X225698857Y-103509000D01*
X225532190Y-103509000D02*
X225556000Y-103532809D01*
X225579809Y-103509000D01*
X225556000Y-103485190D01*
X225532190Y-103509000D01*
X225579809Y-103509000D01*
X226032190Y-103056619D02*
X225770285Y-103056619D01*
X225722666Y-103080428D01*
X225698857Y-103128047D01*
X225698857Y-103223285D01*
X225722666Y-103270904D01*
X226008380Y-103056619D02*
X226032190Y-103104238D01*
X226032190Y-103223285D01*
X226008380Y-103270904D01*
X225960761Y-103294714D01*
X225913142Y-103294714D01*
X225865523Y-103270904D01*
X225841714Y-103223285D01*
X225841714Y-103104238D01*
X225817904Y-103056619D01*
X226032190Y-102747095D02*
X226008380Y-102794714D01*
X225960761Y-102818523D01*
X225532190Y-102818523D01*
%TO.C,J3*%
X208875333Y-114026190D02*
X208875333Y-114383333D01*
X208851523Y-114454761D01*
X208803904Y-114502380D01*
X208732476Y-114526190D01*
X208684857Y-114526190D01*
X209065809Y-114026190D02*
X209375333Y-114026190D01*
X209208666Y-114216666D01*
X209280095Y-114216666D01*
X209327714Y-114240476D01*
X209351523Y-114264285D01*
X209375333Y-114311904D01*
X209375333Y-114430952D01*
X209351523Y-114478571D01*
X209327714Y-114502380D01*
X209280095Y-114526190D01*
X209137238Y-114526190D01*
X209089619Y-114502380D01*
X209065809Y-114478571D01*
X206081904Y-123416190D02*
X206081904Y-122916190D01*
X206605714Y-123368571D02*
X206581904Y-123392380D01*
X206510476Y-123416190D01*
X206462857Y-123416190D01*
X206391428Y-123392380D01*
X206343809Y-123344761D01*
X206320000Y-123297142D01*
X206296190Y-123201904D01*
X206296190Y-123130476D01*
X206320000Y-123035238D01*
X206343809Y-122987619D01*
X206391428Y-122940000D01*
X206462857Y-122916190D01*
X206510476Y-122916190D01*
X206581904Y-122940000D01*
X206605714Y-122963809D01*
X206796190Y-123392380D02*
X206867619Y-123416190D01*
X206986666Y-123416190D01*
X207034285Y-123392380D01*
X207058095Y-123368571D01*
X207081904Y-123320952D01*
X207081904Y-123273333D01*
X207058095Y-123225714D01*
X207034285Y-123201904D01*
X206986666Y-123178095D01*
X206891428Y-123154285D01*
X206843809Y-123130476D01*
X206820000Y-123106666D01*
X206796190Y-123059047D01*
X206796190Y-123011428D01*
X206820000Y-122963809D01*
X206843809Y-122940000D01*
X206891428Y-122916190D01*
X207010476Y-122916190D01*
X207081904Y-122940000D01*
X207296190Y-123416190D02*
X207296190Y-122916190D01*
X207486666Y-122916190D01*
X207534285Y-122940000D01*
X207558095Y-122963809D01*
X207581904Y-123011428D01*
X207581904Y-123082857D01*
X207558095Y-123130476D01*
X207534285Y-123154285D01*
X207486666Y-123178095D01*
X207296190Y-123178095D01*
%TO.C,J4*%
X227310190Y-103036666D02*
X227667333Y-103036666D01*
X227738761Y-103060476D01*
X227786380Y-103108095D01*
X227810190Y-103179523D01*
X227810190Y-103227142D01*
X227476857Y-102584285D02*
X227810190Y-102584285D01*
X227286380Y-102703333D02*
X227643523Y-102822380D01*
X227643523Y-102512857D01*
X238986190Y-104310095D02*
X238486190Y-104310095D01*
X238533809Y-104095809D02*
X238510000Y-104072000D01*
X238486190Y-104024380D01*
X238486190Y-103905333D01*
X238510000Y-103857714D01*
X238533809Y-103833904D01*
X238581428Y-103810095D01*
X238629047Y-103810095D01*
X238700476Y-103833904D01*
X238986190Y-104119619D01*
X238986190Y-103810095D01*
X238938571Y-103310095D02*
X238962380Y-103333904D01*
X238986190Y-103405333D01*
X238986190Y-103452952D01*
X238962380Y-103524380D01*
X238914761Y-103572000D01*
X238867142Y-103595809D01*
X238771904Y-103619619D01*
X238700476Y-103619619D01*
X238605238Y-103595809D01*
X238557619Y-103572000D01*
X238510000Y-103524380D01*
X238486190Y-103452952D01*
X238486190Y-103405333D01*
X238510000Y-103333904D01*
X238533809Y-103310095D01*
%TO.C,R1*%
X235684190Y-120479333D02*
X235446095Y-120646000D01*
X235684190Y-120765047D02*
X235184190Y-120765047D01*
X235184190Y-120574571D01*
X235208000Y-120526952D01*
X235231809Y-120503142D01*
X235279428Y-120479333D01*
X235350857Y-120479333D01*
X235398476Y-120503142D01*
X235422285Y-120526952D01*
X235446095Y-120574571D01*
X235446095Y-120765047D01*
X235684190Y-120003142D02*
X235684190Y-120288857D01*
X235684190Y-120146000D02*
X235184190Y-120146000D01*
X235255619Y-120193619D01*
X235303238Y-120241238D01*
X235327047Y-120288857D01*
%TO.C,R2*%
X209268190Y-106255333D02*
X209030095Y-106422000D01*
X209268190Y-106541047D02*
X208768190Y-106541047D01*
X208768190Y-106350571D01*
X208792000Y-106302952D01*
X208815809Y-106279142D01*
X208863428Y-106255333D01*
X208934857Y-106255333D01*
X208982476Y-106279142D01*
X209006285Y-106302952D01*
X209030095Y-106350571D01*
X209030095Y-106541047D01*
X208815809Y-106064857D02*
X208792000Y-106041047D01*
X208768190Y-105993428D01*
X208768190Y-105874380D01*
X208792000Y-105826761D01*
X208815809Y-105802952D01*
X208863428Y-105779142D01*
X208911047Y-105779142D01*
X208982476Y-105802952D01*
X209268190Y-106088666D01*
X209268190Y-105779142D01*
%TO.C,U1*%
X242062047Y-106025190D02*
X242062047Y-106429952D01*
X242085857Y-106477571D01*
X242109666Y-106501380D01*
X242157285Y-106525190D01*
X242252523Y-106525190D01*
X242300142Y-106501380D01*
X242323952Y-106477571D01*
X242347761Y-106429952D01*
X242347761Y-106025190D01*
X242847761Y-106525190D02*
X242562047Y-106525190D01*
X242704904Y-106525190D02*
X242704904Y-106025190D01*
X242657285Y-106096619D01*
X242609666Y-106144238D01*
X242562047Y-106168047D01*
X237601428Y-114018190D02*
X237601428Y-113518190D01*
X237720476Y-113518190D01*
X237791904Y-113542000D01*
X237839523Y-113589619D01*
X237863333Y-113637238D01*
X237887142Y-113732476D01*
X237887142Y-113803904D01*
X237863333Y-113899142D01*
X237839523Y-113946761D01*
X237791904Y-113994380D01*
X237720476Y-114018190D01*
X237601428Y-114018190D01*
X238077619Y-113994380D02*
X238149047Y-114018190D01*
X238268095Y-114018190D01*
X238315714Y-113994380D01*
X238339523Y-113970571D01*
X238363333Y-113922952D01*
X238363333Y-113875333D01*
X238339523Y-113827714D01*
X238315714Y-113803904D01*
X238268095Y-113780095D01*
X238172857Y-113756285D01*
X238125238Y-113732476D01*
X238101428Y-113708666D01*
X238077619Y-113661047D01*
X238077619Y-113613428D01*
X238101428Y-113565809D01*
X238125238Y-113542000D01*
X238172857Y-113518190D01*
X238291904Y-113518190D01*
X238363333Y-113542000D01*
X238839523Y-114018190D02*
X238553809Y-114018190D01*
X238696666Y-114018190D02*
X238696666Y-113518190D01*
X238649047Y-113589619D01*
X238601428Y-113637238D01*
X238553809Y-113661047D01*
X239006190Y-113518190D02*
X239315714Y-113518190D01*
X239149047Y-113708666D01*
X239220476Y-113708666D01*
X239268095Y-113732476D01*
X239291904Y-113756285D01*
X239315714Y-113803904D01*
X239315714Y-113922952D01*
X239291904Y-113970571D01*
X239268095Y-113994380D01*
X239220476Y-114018190D01*
X239077619Y-114018190D01*
X239030000Y-113994380D01*
X239006190Y-113970571D01*
X239482380Y-113518190D02*
X239791904Y-113518190D01*
X239625238Y-113708666D01*
X239696666Y-113708666D01*
X239744285Y-113732476D01*
X239768095Y-113756285D01*
X239791904Y-113803904D01*
X239791904Y-113922952D01*
X239768095Y-113970571D01*
X239744285Y-113994380D01*
X239696666Y-114018190D01*
X239553809Y-114018190D01*
X239506190Y-113994380D01*
X239482380Y-113970571D01*
X239958571Y-113518190D02*
X240291904Y-113518190D01*
X240077619Y-114018190D01*
X240363333Y-114065809D02*
X240744285Y-114065809D01*
X240863333Y-114018190D02*
X240863333Y-113518190D01*
X241030000Y-113875333D01*
X241196666Y-113518190D01*
X241196666Y-114018190D01*
X241672857Y-114018190D02*
X241434761Y-114018190D01*
X241434761Y-113518190D01*
X241791904Y-113684857D02*
X241910952Y-114018190D01*
X242030000Y-113684857D01*
X242482380Y-114018190D02*
X242196666Y-114018190D01*
X242339523Y-114018190D02*
X242339523Y-113518190D01*
X242291904Y-113589619D01*
X242244285Y-113637238D01*
X242196666Y-113661047D01*
%TO.C,U2*%
X231521047Y-114788190D02*
X231521047Y-115192952D01*
X231544857Y-115240571D01*
X231568666Y-115264380D01*
X231616285Y-115288190D01*
X231711523Y-115288190D01*
X231759142Y-115264380D01*
X231782952Y-115240571D01*
X231806761Y-115192952D01*
X231806761Y-114788190D01*
X232021047Y-114835809D02*
X232044857Y-114812000D01*
X232092476Y-114788190D01*
X232211523Y-114788190D01*
X232259142Y-114812000D01*
X232282952Y-114835809D01*
X232306761Y-114883428D01*
X232306761Y-114931047D01*
X232282952Y-115002476D01*
X231997238Y-115288190D01*
X232306761Y-115288190D01*
X227830285Y-121439809D02*
X227854095Y-121416000D01*
X227901714Y-121392190D01*
X228020761Y-121392190D01*
X228068380Y-121416000D01*
X228092190Y-121439809D01*
X228116000Y-121487428D01*
X228116000Y-121535047D01*
X228092190Y-121606476D01*
X227806476Y-121892190D01*
X228116000Y-121892190D01*
X228544571Y-121558857D02*
X228544571Y-121892190D01*
X228425523Y-121368380D02*
X228306476Y-121725523D01*
X228616000Y-121725523D01*
X229044571Y-121892190D02*
X228806476Y-121892190D01*
X228806476Y-121392190D01*
X229496952Y-121844571D02*
X229473142Y-121868380D01*
X229401714Y-121892190D01*
X229354095Y-121892190D01*
X229282666Y-121868380D01*
X229235047Y-121820761D01*
X229211238Y-121773142D01*
X229187428Y-121677904D01*
X229187428Y-121606476D01*
X229211238Y-121511238D01*
X229235047Y-121463619D01*
X229282666Y-121416000D01*
X229354095Y-121392190D01*
X229401714Y-121392190D01*
X229473142Y-121416000D01*
X229496952Y-121439809D01*
X229973142Y-121892190D02*
X229687428Y-121892190D01*
X229830285Y-121892190D02*
X229830285Y-121392190D01*
X229782666Y-121463619D01*
X229735047Y-121511238D01*
X229687428Y-121535047D01*
X230282666Y-121392190D02*
X230330285Y-121392190D01*
X230377904Y-121416000D01*
X230401714Y-121439809D01*
X230425523Y-121487428D01*
X230449333Y-121582666D01*
X230449333Y-121701714D01*
X230425523Y-121796952D01*
X230401714Y-121844571D01*
X230377904Y-121868380D01*
X230330285Y-121892190D01*
X230282666Y-121892190D01*
X230235047Y-121868380D01*
X230211238Y-121844571D01*
X230187428Y-121796952D01*
X230163619Y-121701714D01*
X230163619Y-121582666D01*
X230187428Y-121487428D01*
X230211238Y-121439809D01*
X230235047Y-121416000D01*
X230282666Y-121392190D01*
X230639809Y-121439809D02*
X230663619Y-121416000D01*
X230711238Y-121392190D01*
X230830285Y-121392190D01*
X230877904Y-121416000D01*
X230901714Y-121439809D01*
X230925523Y-121487428D01*
X230925523Y-121535047D01*
X230901714Y-121606476D01*
X230616000Y-121892190D01*
X230925523Y-121892190D01*
X231377904Y-121392190D02*
X231139809Y-121392190D01*
X231116000Y-121630285D01*
X231139809Y-121606476D01*
X231187428Y-121582666D01*
X231306476Y-121582666D01*
X231354095Y-121606476D01*
X231377904Y-121630285D01*
X231401714Y-121677904D01*
X231401714Y-121796952D01*
X231377904Y-121844571D01*
X231354095Y-121868380D01*
X231306476Y-121892190D01*
X231187428Y-121892190D01*
X231139809Y-121868380D01*
X231116000Y-121844571D01*
%TO.C,U3*%
X226847447Y-106126790D02*
X226847447Y-106531552D01*
X226871257Y-106579171D01*
X226895066Y-106602980D01*
X226942685Y-106626790D01*
X227037923Y-106626790D01*
X227085542Y-106602980D01*
X227109352Y-106579171D01*
X227133161Y-106531552D01*
X227133161Y-106126790D01*
X227323638Y-106126790D02*
X227633161Y-106126790D01*
X227466495Y-106317266D01*
X227537923Y-106317266D01*
X227585542Y-106341076D01*
X227609352Y-106364885D01*
X227633161Y-106412504D01*
X227633161Y-106531552D01*
X227609352Y-106579171D01*
X227585542Y-106602980D01*
X227537923Y-106626790D01*
X227395066Y-106626790D01*
X227347447Y-106602980D01*
X227323638Y-106579171D01*
X227830285Y-112803809D02*
X227854095Y-112780000D01*
X227901714Y-112756190D01*
X228020761Y-112756190D01*
X228068380Y-112780000D01*
X228092190Y-112803809D01*
X228116000Y-112851428D01*
X228116000Y-112899047D01*
X228092190Y-112970476D01*
X227806476Y-113256190D01*
X228116000Y-113256190D01*
X228544571Y-112922857D02*
X228544571Y-113256190D01*
X228425523Y-112732380D02*
X228306476Y-113089523D01*
X228616000Y-113089523D01*
X229044571Y-113256190D02*
X228806476Y-113256190D01*
X228806476Y-112756190D01*
X229496952Y-113208571D02*
X229473142Y-113232380D01*
X229401714Y-113256190D01*
X229354095Y-113256190D01*
X229282666Y-113232380D01*
X229235047Y-113184761D01*
X229211238Y-113137142D01*
X229187428Y-113041904D01*
X229187428Y-112970476D01*
X229211238Y-112875238D01*
X229235047Y-112827619D01*
X229282666Y-112780000D01*
X229354095Y-112756190D01*
X229401714Y-112756190D01*
X229473142Y-112780000D01*
X229496952Y-112803809D01*
X229973142Y-113256190D02*
X229687428Y-113256190D01*
X229830285Y-113256190D02*
X229830285Y-112756190D01*
X229782666Y-112827619D01*
X229735047Y-112875238D01*
X229687428Y-112899047D01*
X230282666Y-112756190D02*
X230330285Y-112756190D01*
X230377904Y-112780000D01*
X230401714Y-112803809D01*
X230425523Y-112851428D01*
X230449333Y-112946666D01*
X230449333Y-113065714D01*
X230425523Y-113160952D01*
X230401714Y-113208571D01*
X230377904Y-113232380D01*
X230330285Y-113256190D01*
X230282666Y-113256190D01*
X230235047Y-113232380D01*
X230211238Y-113208571D01*
X230187428Y-113160952D01*
X230163619Y-113065714D01*
X230163619Y-112946666D01*
X230187428Y-112851428D01*
X230211238Y-112803809D01*
X230235047Y-112780000D01*
X230282666Y-112756190D01*
X230639809Y-112803809D02*
X230663619Y-112780000D01*
X230711238Y-112756190D01*
X230830285Y-112756190D01*
X230877904Y-112780000D01*
X230901714Y-112803809D01*
X230925523Y-112851428D01*
X230925523Y-112899047D01*
X230901714Y-112970476D01*
X230616000Y-113256190D01*
X230925523Y-113256190D01*
X231377904Y-112756190D02*
X231139809Y-112756190D01*
X231116000Y-112994285D01*
X231139809Y-112970476D01*
X231187428Y-112946666D01*
X231306476Y-112946666D01*
X231354095Y-112970476D01*
X231377904Y-112994285D01*
X231401714Y-113041904D01*
X231401714Y-113160952D01*
X231377904Y-113208571D01*
X231354095Y-113232380D01*
X231306476Y-113256190D01*
X231187428Y-113256190D01*
X231139809Y-113232380D01*
X231116000Y-113208571D01*
%TO.C,U4*%
X212217047Y-113772190D02*
X212217047Y-114176952D01*
X212240857Y-114224571D01*
X212264666Y-114248380D01*
X212312285Y-114272190D01*
X212407523Y-114272190D01*
X212455142Y-114248380D01*
X212478952Y-114224571D01*
X212502761Y-114176952D01*
X212502761Y-113772190D01*
X212955142Y-113938857D02*
X212955142Y-114272190D01*
X212836095Y-113748380D02*
X212717047Y-114105523D01*
X213026571Y-114105523D01*
X213856476Y-123654333D02*
X214094571Y-123654333D01*
X213808857Y-123797190D02*
X213975523Y-123297190D01*
X214142190Y-123797190D01*
X214237428Y-123297190D02*
X214523142Y-123297190D01*
X214380285Y-123797190D02*
X214380285Y-123297190D01*
X214689809Y-123797190D02*
X214689809Y-123463857D01*
X214689809Y-123511476D02*
X214713619Y-123487666D01*
X214761238Y-123463857D01*
X214832666Y-123463857D01*
X214880285Y-123487666D01*
X214904095Y-123535285D01*
X214904095Y-123797190D01*
X214904095Y-123535285D02*
X214927904Y-123487666D01*
X214975523Y-123463857D01*
X215046952Y-123463857D01*
X215094571Y-123487666D01*
X215118380Y-123535285D01*
X215118380Y-123797190D01*
X215546952Y-123773380D02*
X215499333Y-123797190D01*
X215404095Y-123797190D01*
X215356476Y-123773380D01*
X215332666Y-123725761D01*
X215332666Y-123535285D01*
X215356476Y-123487666D01*
X215404095Y-123463857D01*
X215499333Y-123463857D01*
X215546952Y-123487666D01*
X215570761Y-123535285D01*
X215570761Y-123582904D01*
X215332666Y-123630523D01*
X215999333Y-123463857D02*
X215999333Y-123868619D01*
X215975523Y-123916238D01*
X215951714Y-123940047D01*
X215904095Y-123963857D01*
X215832666Y-123963857D01*
X215785047Y-123940047D01*
X215999333Y-123773380D02*
X215951714Y-123797190D01*
X215856476Y-123797190D01*
X215808857Y-123773380D01*
X215785047Y-123749571D01*
X215761238Y-123701952D01*
X215761238Y-123559095D01*
X215785047Y-123511476D01*
X215808857Y-123487666D01*
X215856476Y-123463857D01*
X215951714Y-123463857D01*
X215999333Y-123487666D01*
X216451714Y-123797190D02*
X216451714Y-123535285D01*
X216427904Y-123487666D01*
X216380285Y-123463857D01*
X216285047Y-123463857D01*
X216237428Y-123487666D01*
X216451714Y-123773380D02*
X216404095Y-123797190D01*
X216285047Y-123797190D01*
X216237428Y-123773380D01*
X216213619Y-123725761D01*
X216213619Y-123678142D01*
X216237428Y-123630523D01*
X216285047Y-123606714D01*
X216404095Y-123606714D01*
X216451714Y-123582904D01*
X216642190Y-123297190D02*
X216951714Y-123297190D01*
X216785047Y-123487666D01*
X216856476Y-123487666D01*
X216904095Y-123511476D01*
X216927904Y-123535285D01*
X216951714Y-123582904D01*
X216951714Y-123701952D01*
X216927904Y-123749571D01*
X216904095Y-123773380D01*
X216856476Y-123797190D01*
X216713619Y-123797190D01*
X216666000Y-123773380D01*
X216642190Y-123749571D01*
X217142190Y-123344809D02*
X217166000Y-123321000D01*
X217213619Y-123297190D01*
X217332666Y-123297190D01*
X217380285Y-123321000D01*
X217404095Y-123344809D01*
X217427904Y-123392428D01*
X217427904Y-123440047D01*
X217404095Y-123511476D01*
X217118380Y-123797190D01*
X217427904Y-123797190D01*
X217713619Y-123511476D02*
X217666000Y-123487666D01*
X217642190Y-123463857D01*
X217618380Y-123416238D01*
X217618380Y-123392428D01*
X217642190Y-123344809D01*
X217666000Y-123321000D01*
X217713619Y-123297190D01*
X217808857Y-123297190D01*
X217856476Y-123321000D01*
X217880285Y-123344809D01*
X217904095Y-123392428D01*
X217904095Y-123416238D01*
X217880285Y-123463857D01*
X217856476Y-123487666D01*
X217808857Y-123511476D01*
X217713619Y-123511476D01*
X217666000Y-123535285D01*
X217642190Y-123559095D01*
X217618380Y-123606714D01*
X217618380Y-123701952D01*
X217642190Y-123749571D01*
X217666000Y-123773380D01*
X217713619Y-123797190D01*
X217808857Y-123797190D01*
X217856476Y-123773380D01*
X217880285Y-123749571D01*
X217904095Y-123701952D01*
X217904095Y-123606714D01*
X217880285Y-123559095D01*
X217856476Y-123535285D01*
X217808857Y-123511476D01*
X218118380Y-123797190D02*
X218118380Y-123297190D01*
X218308857Y-123297190D01*
X218356476Y-123321000D01*
X218380285Y-123344809D01*
X218404095Y-123392428D01*
X218404095Y-123463857D01*
X218380285Y-123511476D01*
X218356476Y-123535285D01*
X218308857Y-123559095D01*
X218118380Y-123559095D01*
X218618380Y-123606714D02*
X218999333Y-123606714D01*
X219213619Y-123654333D02*
X219451714Y-123654333D01*
X219166000Y-123797190D02*
X219332666Y-123297190D01*
X219499333Y-123797190D01*
X219666000Y-123297190D02*
X219666000Y-123701952D01*
X219689809Y-123749571D01*
X219713619Y-123773380D01*
X219761238Y-123797190D01*
X219856476Y-123797190D01*
X219904095Y-123773380D01*
X219927904Y-123749571D01*
X219951714Y-123701952D01*
X219951714Y-123297190D01*
%TO.C,Y1*%
X240280095Y-116697095D02*
X240518190Y-116697095D01*
X240018190Y-116863761D02*
X240280095Y-116697095D01*
X240018190Y-116530428D01*
X240518190Y-116101857D02*
X240518190Y-116387571D01*
X240518190Y-116244714D02*
X240018190Y-116244714D01*
X240089619Y-116292333D01*
X240137238Y-116339952D01*
X240161047Y-116387571D01*
X240720809Y-114661190D02*
X241054142Y-115161190D01*
X241054142Y-114661190D02*
X240720809Y-115161190D01*
X241173190Y-114661190D02*
X241458904Y-114661190D01*
X241316047Y-115161190D02*
X241316047Y-114661190D01*
X241863666Y-115161190D02*
X241625571Y-115161190D01*
X241625571Y-114661190D01*
X242363666Y-114661190D02*
X242673190Y-114661190D01*
X242506523Y-114851666D01*
X242577952Y-114851666D01*
X242625571Y-114875476D01*
X242649380Y-114899285D01*
X242673190Y-114946904D01*
X242673190Y-115065952D01*
X242649380Y-115113571D01*
X242625571Y-115137380D01*
X242577952Y-115161190D01*
X242435095Y-115161190D01*
X242387476Y-115137380D01*
X242363666Y-115113571D01*
X242863666Y-114708809D02*
X242887476Y-114685000D01*
X242935095Y-114661190D01*
X243054142Y-114661190D01*
X243101761Y-114685000D01*
X243125571Y-114708809D01*
X243149380Y-114756428D01*
X243149380Y-114804047D01*
X243125571Y-114875476D01*
X242839857Y-115161190D01*
X243149380Y-115161190D01*
X243363666Y-115161190D02*
X243363666Y-114661190D01*
X243530333Y-115018333D01*
X243697000Y-114661190D01*
X243697000Y-115161190D01*
X243935095Y-115161190D02*
X243935095Y-114661190D01*
X243935095Y-114899285D02*
X244220809Y-114899285D01*
X244220809Y-115161190D02*
X244220809Y-114661190D01*
X244411285Y-114827857D02*
X244673190Y-114827857D01*
X244411285Y-115161190D01*
X244673190Y-115161190D01*
%TO.C,Y2*%
X209030095Y-109966095D02*
X209268190Y-109966095D01*
X208768190Y-110132761D02*
X209030095Y-109966095D01*
X208768190Y-109799428D01*
X208815809Y-109656571D02*
X208792000Y-109632761D01*
X208768190Y-109585142D01*
X208768190Y-109466095D01*
X208792000Y-109418476D01*
X208815809Y-109394666D01*
X208863428Y-109370857D01*
X208911047Y-109370857D01*
X208982476Y-109394666D01*
X209268190Y-109680380D01*
X209268190Y-109370857D01*
X211129809Y-107295190D02*
X211463142Y-107795190D01*
X211463142Y-107295190D02*
X211129809Y-107795190D01*
X211582190Y-107295190D02*
X211867904Y-107295190D01*
X211725047Y-107795190D02*
X211725047Y-107295190D01*
X212272666Y-107795190D02*
X212034571Y-107795190D01*
X212034571Y-107295190D01*
X213082190Y-107795190D02*
X212796476Y-107795190D01*
X212939333Y-107795190D02*
X212939333Y-107295190D01*
X212891714Y-107366619D01*
X212844095Y-107414238D01*
X212796476Y-107438047D01*
X213510761Y-107295190D02*
X213415523Y-107295190D01*
X213367904Y-107319000D01*
X213344095Y-107342809D01*
X213296476Y-107414238D01*
X213272666Y-107509476D01*
X213272666Y-107699952D01*
X213296476Y-107747571D01*
X213320285Y-107771380D01*
X213367904Y-107795190D01*
X213463142Y-107795190D01*
X213510761Y-107771380D01*
X213534571Y-107747571D01*
X213558380Y-107699952D01*
X213558380Y-107580904D01*
X213534571Y-107533285D01*
X213510761Y-107509476D01*
X213463142Y-107485666D01*
X213367904Y-107485666D01*
X213320285Y-107509476D01*
X213296476Y-107533285D01*
X213272666Y-107580904D01*
X213772666Y-107795190D02*
X213772666Y-107295190D01*
X213939333Y-107652333D01*
X214106000Y-107295190D01*
X214106000Y-107795190D01*
X214344095Y-107795190D02*
X214344095Y-107295190D01*
X214344095Y-107533285D02*
X214629809Y-107533285D01*
X214629809Y-107795190D02*
X214629809Y-107295190D01*
X214820285Y-107461857D02*
X215082190Y-107461857D01*
X214820285Y-107795190D01*
X215082190Y-107795190D01*
%TD*%
M02*
