%TF.GenerationSoftware,KiCad,Pcbnew,(5.1.9)-1*%
%TF.CreationDate,2022-01-05T00:47:20-06:00*%
%TF.ProjectId,BACEE,42414345-452e-46b6-9963-61645f706362,1*%
%TF.SameCoordinates,Original*%
%TF.FileFunction,Copper,L1,Top*%
%TF.FilePolarity,Positive*%
%FSLAX46Y46*%
G04 Gerber Fmt 4.6, Leading zero omitted, Abs format (unit mm)*
G04 Created by KiCad (PCBNEW (5.1.9)-1) date 2022-01-05 00:47:20*
%MOMM*%
%LPD*%
G01*
G04 APERTURE LIST*
%TA.AperFunction,ComponentPad*%
%ADD10O,1.700000X1.700000*%
%TD*%
%TA.AperFunction,ComponentPad*%
%ADD11R,1.700000X1.700000*%
%TD*%
%TA.AperFunction,SMDPad,CuDef*%
%ADD12R,1.700000X0.650000*%
%TD*%
%TA.AperFunction,SMDPad,CuDef*%
%ADD13R,0.550000X1.600000*%
%TD*%
%TA.AperFunction,SMDPad,CuDef*%
%ADD14R,1.600000X0.550000*%
%TD*%
%TA.AperFunction,SMDPad,CuDef*%
%ADD15R,1.000000X1.800000*%
%TD*%
%TA.AperFunction,SMDPad,CuDef*%
%ADD16R,3.500000X2.400000*%
%TD*%
%TA.AperFunction,ViaPad*%
%ADD17C,0.800000*%
%TD*%
%TA.AperFunction,ViaPad*%
%ADD18C,1.000000*%
%TD*%
%TA.AperFunction,Conductor*%
%ADD19C,0.300000*%
%TD*%
%TA.AperFunction,Conductor*%
%ADD20C,0.250000*%
%TD*%
G04 APERTURE END LIST*
D10*
%TO.P,BT1,2*%
%TO.N,GNDPWR*%
X205550000Y-110236000D03*
D11*
%TO.P,BT1,1*%
%TO.N,/Vcc*%
X205550000Y-107696000D03*
%TD*%
%TO.P,C1,2*%
%TO.N,GNDPWR*%
%TA.AperFunction,SMDPad,CuDef*%
G36*
G01*
X222310000Y-111321001D02*
X222310000Y-110420999D01*
G75*
G02*
X222559999Y-110171000I249999J0D01*
G01*
X223210001Y-110171000D01*
G75*
G02*
X223460000Y-110420999I0J-249999D01*
G01*
X223460000Y-111321001D01*
G75*
G02*
X223210001Y-111571000I-249999J0D01*
G01*
X222559999Y-111571000D01*
G75*
G02*
X222310000Y-111321001I0J249999D01*
G01*
G37*
%TD.AperFunction*%
%TO.P,C1,1*%
%TO.N,Net-(C1-Pad1)*%
%TA.AperFunction,SMDPad,CuDef*%
G36*
G01*
X220260000Y-111321001D02*
X220260000Y-110420999D01*
G75*
G02*
X220509999Y-110171000I249999J0D01*
G01*
X221160001Y-110171000D01*
G75*
G02*
X221410000Y-110420999I0J-249999D01*
G01*
X221410000Y-111321001D01*
G75*
G02*
X221160001Y-111571000I-249999J0D01*
G01*
X220509999Y-111571000D01*
G75*
G02*
X220260000Y-111321001I0J249999D01*
G01*
G37*
%TD.AperFunction*%
%TD*%
%TO.P,C2,1*%
%TO.N,Net-(C2-Pad1)*%
%TA.AperFunction,SMDPad,CuDef*%
G36*
G01*
X220260000Y-108077001D02*
X220260000Y-107176999D01*
G75*
G02*
X220509999Y-106927000I249999J0D01*
G01*
X221160001Y-106927000D01*
G75*
G02*
X221410000Y-107176999I0J-249999D01*
G01*
X221410000Y-108077001D01*
G75*
G02*
X221160001Y-108327000I-249999J0D01*
G01*
X220509999Y-108327000D01*
G75*
G02*
X220260000Y-108077001I0J249999D01*
G01*
G37*
%TD.AperFunction*%
%TO.P,C2,2*%
%TO.N,GNDPWR*%
%TA.AperFunction,SMDPad,CuDef*%
G36*
G01*
X222310000Y-108077001D02*
X222310000Y-107176999D01*
G75*
G02*
X222559999Y-106927000I249999J0D01*
G01*
X223210001Y-106927000D01*
G75*
G02*
X223460000Y-107176999I0J-249999D01*
G01*
X223460000Y-108077001D01*
G75*
G02*
X223210001Y-108327000I-249999J0D01*
G01*
X222559999Y-108327000D01*
G75*
G02*
X222310000Y-108077001I0J249999D01*
G01*
G37*
%TD.AperFunction*%
%TD*%
%TO.P,C3,1*%
%TO.N,/Vcc*%
%TA.AperFunction,SMDPad,CuDef*%
G36*
G01*
X239188000Y-115710999D02*
X239188000Y-116611001D01*
G75*
G02*
X238938001Y-116861000I-249999J0D01*
G01*
X238287999Y-116861000D01*
G75*
G02*
X238038000Y-116611001I0J249999D01*
G01*
X238038000Y-115710999D01*
G75*
G02*
X238287999Y-115461000I249999J0D01*
G01*
X238938001Y-115461000D01*
G75*
G02*
X239188000Y-115710999I0J-249999D01*
G01*
G37*
%TD.AperFunction*%
%TO.P,C3,2*%
%TO.N,GNDPWR*%
%TA.AperFunction,SMDPad,CuDef*%
G36*
G01*
X237138000Y-115710999D02*
X237138000Y-116611001D01*
G75*
G02*
X236888001Y-116861000I-249999J0D01*
G01*
X236237999Y-116861000D01*
G75*
G02*
X235988000Y-116611001I0J249999D01*
G01*
X235988000Y-115710999D01*
G75*
G02*
X236237999Y-115461000I249999J0D01*
G01*
X236888001Y-115461000D01*
G75*
G02*
X237138000Y-115710999I0J-249999D01*
G01*
G37*
%TD.AperFunction*%
%TD*%
%TO.P,D1,2*%
%TO.N,Net-(D1-Pad2)*%
%TA.AperFunction,SMDPad,CuDef*%
G36*
G01*
X243147000Y-120846001D02*
X243147000Y-119945999D01*
G75*
G02*
X243396999Y-119696000I249999J0D01*
G01*
X244047001Y-119696000D01*
G75*
G02*
X244297000Y-119945999I0J-249999D01*
G01*
X244297000Y-120846001D01*
G75*
G02*
X244047001Y-121096000I-249999J0D01*
G01*
X243396999Y-121096000D01*
G75*
G02*
X243147000Y-120846001I0J249999D01*
G01*
G37*
%TD.AperFunction*%
%TO.P,D1,1*%
%TO.N,Net-(D1-Pad1)*%
%TA.AperFunction,SMDPad,CuDef*%
G36*
G01*
X241097000Y-120846001D02*
X241097000Y-119945999D01*
G75*
G02*
X241346999Y-119696000I249999J0D01*
G01*
X241997001Y-119696000D01*
G75*
G02*
X242247000Y-119945999I0J-249999D01*
G01*
X242247000Y-120846001D01*
G75*
G02*
X241997001Y-121096000I-249999J0D01*
G01*
X241346999Y-121096000D01*
G75*
G02*
X241097000Y-120846001I0J249999D01*
G01*
G37*
%TD.AperFunction*%
%TD*%
D10*
%TO.P,J1,9*%
%TO.N,/Vcc*%
X236728000Y-126238000D03*
%TO.P,J1,8*%
%TO.N,GNDPWR*%
X234188000Y-126238000D03*
%TO.P,J1,7*%
%TO.N,/D8*%
X231648000Y-126238000D03*
%TO.P,J1,6*%
%TO.N,/D7*%
X229108000Y-126238000D03*
%TO.P,J1,5*%
%TO.N,/D6*%
X226568000Y-126238000D03*
%TO.P,J1,4*%
%TO.N,/D5*%
X224028000Y-126238000D03*
%TO.P,J1,3*%
%TO.N,/D4*%
X221488000Y-126238000D03*
%TO.P,J1,2*%
%TO.N,/D3*%
X218948000Y-126238000D03*
D11*
%TO.P,J1,1*%
%TO.N,/D2*%
X216408000Y-126238000D03*
%TD*%
%TO.P,J2,1*%
%TO.N,GNDPWR*%
X216408000Y-103822000D03*
D10*
%TO.P,J2,2*%
%TO.N,/Vcc*%
X218948000Y-103822000D03*
%TO.P,J2,3*%
%TO.N,/RX*%
X221488000Y-103822000D03*
%TO.P,J2,4*%
%TO.N,/TX*%
X224028000Y-103822000D03*
%TD*%
%TO.P,J3,6*%
%TO.N,GNDPWR*%
X205550000Y-121222000D03*
%TO.P,J3,5*%
%TO.N,/RESET*%
X208090000Y-121222000D03*
%TO.P,J3,4*%
%TO.N,/COPI*%
X205550000Y-118682000D03*
%TO.P,J3,3*%
%TO.N,/SCK*%
X208090000Y-118682000D03*
%TO.P,J3,2*%
%TO.N,/Vcc*%
X205550000Y-116142000D03*
D11*
%TO.P,J3,1*%
%TO.N,/CIPO*%
X208090000Y-116142000D03*
%TD*%
D10*
%TO.P,J4,4*%
%TO.N,/SCK*%
X236982000Y-103822000D03*
%TO.P,J4,3*%
%TO.N,/SDA*%
X234442000Y-103822000D03*
%TO.P,J4,2*%
%TO.N,/Vcc*%
X231902000Y-103822000D03*
D11*
%TO.P,J4,1*%
%TO.N,GNDPWR*%
X229362000Y-103822000D03*
%TD*%
%TO.P,R1,2*%
%TO.N,GNDPWR*%
%TA.AperFunction,SMDPad,CuDef*%
G36*
G01*
X238033000Y-120801001D02*
X238033000Y-119900999D01*
G75*
G02*
X238282999Y-119651000I249999J0D01*
G01*
X238983001Y-119651000D01*
G75*
G02*
X239233000Y-119900999I0J-249999D01*
G01*
X239233000Y-120801001D01*
G75*
G02*
X238983001Y-121051000I-249999J0D01*
G01*
X238282999Y-121051000D01*
G75*
G02*
X238033000Y-120801001I0J249999D01*
G01*
G37*
%TD.AperFunction*%
%TO.P,R1,1*%
%TO.N,Net-(D1-Pad1)*%
%TA.AperFunction,SMDPad,CuDef*%
G36*
G01*
X236033000Y-120801001D02*
X236033000Y-119900999D01*
G75*
G02*
X236282999Y-119651000I249999J0D01*
G01*
X236983001Y-119651000D01*
G75*
G02*
X237233000Y-119900999I0J-249999D01*
G01*
X237233000Y-120801001D01*
G75*
G02*
X236983001Y-121051000I-249999J0D01*
G01*
X236282999Y-121051000D01*
G75*
G02*
X236033000Y-120801001I0J249999D01*
G01*
G37*
%TD.AperFunction*%
%TD*%
%TO.P,R2,1*%
%TO.N,/RESET*%
%TA.AperFunction,SMDPad,CuDef*%
G36*
G01*
X212912000Y-105721999D02*
X212912000Y-106622001D01*
G75*
G02*
X212662001Y-106872000I-249999J0D01*
G01*
X211961999Y-106872000D01*
G75*
G02*
X211712000Y-106622001I0J249999D01*
G01*
X211712000Y-105721999D01*
G75*
G02*
X211961999Y-105472000I249999J0D01*
G01*
X212662001Y-105472000D01*
G75*
G02*
X212912000Y-105721999I0J-249999D01*
G01*
G37*
%TD.AperFunction*%
%TO.P,R2,2*%
%TO.N,/Vcc*%
%TA.AperFunction,SMDPad,CuDef*%
G36*
G01*
X210912000Y-105721999D02*
X210912000Y-106622001D01*
G75*
G02*
X210662001Y-106872000I-249999J0D01*
G01*
X209961999Y-106872000D01*
G75*
G02*
X209712000Y-106622001I0J249999D01*
G01*
X209712000Y-105721999D01*
G75*
G02*
X209961999Y-105472000I249999J0D01*
G01*
X210662001Y-105472000D01*
G75*
G02*
X210912000Y-105721999I0J-249999D01*
G01*
G37*
%TD.AperFunction*%
%TD*%
%TO.P,U1,8*%
%TO.N,/Vcc*%
%TA.AperFunction,SMDPad,CuDef*%
G36*
G01*
X237544000Y-111737000D02*
X237544000Y-112037000D01*
G75*
G02*
X237394000Y-112187000I-150000J0D01*
G01*
X235794000Y-112187000D01*
G75*
G02*
X235644000Y-112037000I0J150000D01*
G01*
X235644000Y-111737000D01*
G75*
G02*
X235794000Y-111587000I150000J0D01*
G01*
X237394000Y-111587000D01*
G75*
G02*
X237544000Y-111737000I0J-150000D01*
G01*
G37*
%TD.AperFunction*%
%TO.P,U1,7*%
%TO.N,Net-(U1-Pad7)*%
%TA.AperFunction,SMDPad,CuDef*%
G36*
G01*
X237544000Y-110467000D02*
X237544000Y-110767000D01*
G75*
G02*
X237394000Y-110917000I-150000J0D01*
G01*
X235794000Y-110917000D01*
G75*
G02*
X235644000Y-110767000I0J150000D01*
G01*
X235644000Y-110467000D01*
G75*
G02*
X235794000Y-110317000I150000J0D01*
G01*
X237394000Y-110317000D01*
G75*
G02*
X237544000Y-110467000I0J-150000D01*
G01*
G37*
%TD.AperFunction*%
%TO.P,U1,6*%
%TO.N,/SCK*%
%TA.AperFunction,SMDPad,CuDef*%
G36*
G01*
X237544000Y-109197000D02*
X237544000Y-109497000D01*
G75*
G02*
X237394000Y-109647000I-150000J0D01*
G01*
X235794000Y-109647000D01*
G75*
G02*
X235644000Y-109497000I0J150000D01*
G01*
X235644000Y-109197000D01*
G75*
G02*
X235794000Y-109047000I150000J0D01*
G01*
X237394000Y-109047000D01*
G75*
G02*
X237544000Y-109197000I0J-150000D01*
G01*
G37*
%TD.AperFunction*%
%TO.P,U1,5*%
%TO.N,/SDA*%
%TA.AperFunction,SMDPad,CuDef*%
G36*
G01*
X237544000Y-107927000D02*
X237544000Y-108227000D01*
G75*
G02*
X237394000Y-108377000I-150000J0D01*
G01*
X235794000Y-108377000D01*
G75*
G02*
X235644000Y-108227000I0J150000D01*
G01*
X235644000Y-107927000D01*
G75*
G02*
X235794000Y-107777000I150000J0D01*
G01*
X237394000Y-107777000D01*
G75*
G02*
X237544000Y-107927000I0J-150000D01*
G01*
G37*
%TD.AperFunction*%
%TO.P,U1,4*%
%TO.N,GNDPWR*%
%TA.AperFunction,SMDPad,CuDef*%
G36*
G01*
X244544000Y-107927000D02*
X244544000Y-108227000D01*
G75*
G02*
X244394000Y-108377000I-150000J0D01*
G01*
X242794000Y-108377000D01*
G75*
G02*
X242644000Y-108227000I0J150000D01*
G01*
X242644000Y-107927000D01*
G75*
G02*
X242794000Y-107777000I150000J0D01*
G01*
X244394000Y-107777000D01*
G75*
G02*
X244544000Y-107927000I0J-150000D01*
G01*
G37*
%TD.AperFunction*%
%TO.P,U1,3*%
%TO.N,/Vcc*%
%TA.AperFunction,SMDPad,CuDef*%
G36*
G01*
X244544000Y-109197000D02*
X244544000Y-109497000D01*
G75*
G02*
X244394000Y-109647000I-150000J0D01*
G01*
X242794000Y-109647000D01*
G75*
G02*
X242644000Y-109497000I0J150000D01*
G01*
X242644000Y-109197000D01*
G75*
G02*
X242794000Y-109047000I150000J0D01*
G01*
X244394000Y-109047000D01*
G75*
G02*
X244544000Y-109197000I0J-150000D01*
G01*
G37*
%TD.AperFunction*%
%TO.P,U1,2*%
%TO.N,Net-(U1-Pad2)*%
%TA.AperFunction,SMDPad,CuDef*%
G36*
G01*
X244544000Y-110467000D02*
X244544000Y-110767000D01*
G75*
G02*
X244394000Y-110917000I-150000J0D01*
G01*
X242794000Y-110917000D01*
G75*
G02*
X242644000Y-110767000I0J150000D01*
G01*
X242644000Y-110467000D01*
G75*
G02*
X242794000Y-110317000I150000J0D01*
G01*
X244394000Y-110317000D01*
G75*
G02*
X244544000Y-110467000I0J-150000D01*
G01*
G37*
%TD.AperFunction*%
%TO.P,U1,1*%
%TO.N,Net-(U1-Pad1)*%
%TA.AperFunction,SMDPad,CuDef*%
G36*
G01*
X244544000Y-111737000D02*
X244544000Y-112037000D01*
G75*
G02*
X244394000Y-112187000I-150000J0D01*
G01*
X242794000Y-112187000D01*
G75*
G02*
X242644000Y-112037000I0J150000D01*
G01*
X242644000Y-111737000D01*
G75*
G02*
X242794000Y-111587000I150000J0D01*
G01*
X244394000Y-111587000D01*
G75*
G02*
X244544000Y-111737000I0J-150000D01*
G01*
G37*
%TD.AperFunction*%
%TD*%
D12*
%TO.P,U2,1*%
%TO.N,/ADDR1*%
X225966000Y-116459000D03*
%TO.P,U2,2*%
%TO.N,/ADDR2*%
X225966000Y-117729000D03*
%TO.P,U2,3*%
%TO.N,/Vcc*%
X225966000Y-118999000D03*
%TO.P,U2,4*%
%TO.N,GNDPWR*%
X225966000Y-120269000D03*
%TO.P,U2,5*%
%TO.N,/SDA*%
X233266000Y-120269000D03*
%TO.P,U2,6*%
%TO.N,/SCK*%
X233266000Y-118999000D03*
%TO.P,U2,7*%
%TO.N,GNDPWR*%
X233266000Y-117729000D03*
%TO.P,U2,8*%
%TO.N,/Vcc*%
X233266000Y-116459000D03*
%TD*%
%TO.P,U3,8*%
%TO.N,/Vcc*%
X233266000Y-107823000D03*
%TO.P,U3,7*%
%TO.N,GNDPWR*%
X233266000Y-109093000D03*
%TO.P,U3,6*%
%TO.N,/SCK*%
X233266000Y-110363000D03*
%TO.P,U3,5*%
%TO.N,/SDA*%
X233266000Y-111633000D03*
%TO.P,U3,4*%
%TO.N,GNDPWR*%
X225966000Y-111633000D03*
%TO.P,U3,3*%
%TO.N,/Vcc*%
X225966000Y-110363000D03*
%TO.P,U3,2*%
%TO.N,/ADDR2*%
X225966000Y-109093000D03*
%TO.P,U3,1*%
%TO.N,/ADDR1*%
X225966000Y-107823000D03*
%TD*%
D13*
%TO.P,U4,32*%
%TO.N,/D2*%
X214116000Y-113606000D03*
%TO.P,U4,31*%
%TO.N,/TX*%
X214916000Y-113606000D03*
%TO.P,U4,30*%
%TO.N,/RX*%
X215716000Y-113606000D03*
%TO.P,U4,29*%
%TO.N,/RESET*%
X216516000Y-113606000D03*
%TO.P,U4,28*%
%TO.N,Net-(U4-Pad28)*%
X217316000Y-113606000D03*
%TO.P,U4,27*%
%TO.N,/SDA*%
X218116000Y-113606000D03*
%TO.P,U4,26*%
%TO.N,/SCK*%
X218916000Y-113606000D03*
%TO.P,U4,25*%
%TO.N,Net-(U4-Pad25)*%
X219716000Y-113606000D03*
D14*
%TO.P,U4,24*%
%TO.N,/ADDR2*%
X221166000Y-115056000D03*
%TO.P,U4,23*%
%TO.N,/ADDR1*%
X221166000Y-115856000D03*
%TO.P,U4,22*%
%TO.N,Net-(U4-Pad22)*%
X221166000Y-116656000D03*
%TO.P,U4,21*%
%TO.N,GNDPWR*%
X221166000Y-117456000D03*
%TO.P,U4,20*%
%TO.N,/Vcc*%
X221166000Y-118256000D03*
%TO.P,U4,19*%
%TO.N,Net-(U4-Pad19)*%
X221166000Y-119056000D03*
%TO.P,U4,18*%
%TO.N,/Vcc*%
X221166000Y-119856000D03*
%TO.P,U4,17*%
%TO.N,Net-(D1-Pad2)*%
X221166000Y-120656000D03*
D13*
%TO.P,U4,16*%
%TO.N,/CIPO*%
X219716000Y-122106000D03*
%TO.P,U4,15*%
%TO.N,/COPI*%
X218916000Y-122106000D03*
%TO.P,U4,14*%
%TO.N,Net-(U4-Pad14)*%
X218116000Y-122106000D03*
%TO.P,U4,13*%
%TO.N,Net-(U4-Pad13)*%
X217316000Y-122106000D03*
%TO.P,U4,12*%
%TO.N,/D8*%
X216516000Y-122106000D03*
%TO.P,U4,11*%
%TO.N,/D7*%
X215716000Y-122106000D03*
%TO.P,U4,10*%
%TO.N,/D6*%
X214916000Y-122106000D03*
%TO.P,U4,9*%
%TO.N,/D5*%
X214116000Y-122106000D03*
D14*
%TO.P,U4,8*%
%TO.N,Net-(C2-Pad1)*%
X212666000Y-120656000D03*
%TO.P,U4,7*%
%TO.N,Net-(C1-Pad1)*%
X212666000Y-119856000D03*
%TO.P,U4,6*%
%TO.N,/Vcc*%
X212666000Y-119056000D03*
%TO.P,U4,5*%
%TO.N,GNDPWR*%
X212666000Y-118256000D03*
%TO.P,U4,4*%
%TO.N,/Vcc*%
X212666000Y-117456000D03*
%TO.P,U4,3*%
%TO.N,GNDPWR*%
X212666000Y-116656000D03*
%TO.P,U4,2*%
%TO.N,/D4*%
X212666000Y-115856000D03*
%TO.P,U4,1*%
%TO.N,/D3*%
X212666000Y-115056000D03*
%TD*%
D15*
%TO.P,Y1,1*%
%TO.N,Net-(U1-Pad1)*%
X241552000Y-116366000D03*
%TO.P,Y1,2*%
%TO.N,Net-(U1-Pad2)*%
X244052000Y-116366000D03*
%TD*%
D16*
%TO.P,Y2,2*%
%TO.N,Net-(C2-Pad1)*%
X216662000Y-109728000D03*
%TO.P,Y2,1*%
%TO.N,Net-(C1-Pad1)*%
X211462000Y-109728000D03*
%TD*%
D17*
%TO.N,/D2*%
X215071300Y-117057100D03*
%TO.N,/D3*%
X216079600Y-118042200D03*
%TO.N,/D4*%
X211243200Y-116283300D03*
%TO.N,/TX*%
X217593000Y-116047900D03*
%TO.N,/RX*%
X216987700Y-115006800D03*
%TO.N,/CIPO*%
X218966500Y-119499000D03*
%TO.N,/SCK*%
X219563600Y-115389700D03*
%TO.N,/COPI*%
X214184900Y-120668800D03*
%TO.N,/SDA*%
X234879700Y-111924400D03*
X222879800Y-112480700D03*
D18*
%TO.N,/Vcc*%
X231168900Y-117359700D03*
%TD*%
D19*
%TO.N,GNDPWR*%
X233266000Y-109093000D02*
X232065700Y-109093000D01*
X229959700Y-111414100D02*
X234466300Y-115920700D01*
X234466300Y-115920700D02*
X234466300Y-117729000D01*
X227166300Y-111633000D02*
X227385200Y-111414100D01*
X227385200Y-111414100D02*
X229959700Y-111414100D01*
X229959700Y-111414100D02*
X232065700Y-109308100D01*
X232065700Y-109308100D02*
X232065700Y-109093000D01*
X225966000Y-120269000D02*
X224765700Y-120269000D01*
X221166000Y-117456000D02*
X222316300Y-117456000D01*
X222316300Y-117456000D02*
X224765700Y-119905400D01*
X224765700Y-119905400D02*
X224765700Y-120269000D01*
X220590900Y-117456000D02*
X221166000Y-117456000D01*
X213939600Y-118132700D02*
X214599400Y-118792500D01*
X214599400Y-118792500D02*
X217303300Y-118792500D01*
X217303300Y-118792500D02*
X218639800Y-117456000D01*
X218639800Y-117456000D02*
X220015700Y-117456000D01*
X233172000Y-103376100D02*
X232417600Y-102621700D01*
X232417600Y-102621700D02*
X231387400Y-102621700D01*
X231387400Y-102621700D02*
X230562300Y-103446800D01*
X230562300Y-103446800D02*
X230562300Y-103822000D01*
X234466300Y-109093000D02*
X234466300Y-107031400D01*
X234466300Y-107031400D02*
X233172000Y-105737100D01*
X233172000Y-105737100D02*
X233172000Y-103376100D01*
X243594000Y-108077000D02*
X238130400Y-102613400D01*
X238130400Y-102613400D02*
X233934700Y-102613400D01*
X233934700Y-102613400D02*
X233172000Y-103376100D01*
X229362000Y-103822000D02*
X230562300Y-103822000D01*
X233266000Y-109093000D02*
X234466300Y-109093000D01*
X236563000Y-119281900D02*
X237563900Y-119281900D01*
X237563900Y-119281900D02*
X238633000Y-120351000D01*
X234188000Y-121146900D02*
X236053000Y-119281900D01*
X236053000Y-119281900D02*
X236563000Y-119281900D01*
X236563000Y-119281900D02*
X236563000Y-116162000D01*
X234188000Y-125037700D02*
X234188000Y-121146900D01*
X230531000Y-119263700D02*
X232414100Y-121146900D01*
X232414100Y-121146900D02*
X234188000Y-121146900D01*
X230531000Y-119263700D02*
X232065700Y-117729000D01*
X225966000Y-120269000D02*
X229525700Y-120269000D01*
X229525700Y-120269000D02*
X230531000Y-119263700D01*
X233266000Y-117729000D02*
X232065700Y-117729000D01*
X222885000Y-106415600D02*
X222338700Y-106415600D01*
X222338700Y-106415600D02*
X220218000Y-104294900D01*
X220218000Y-104294900D02*
X220218000Y-103337100D01*
X220218000Y-103337100D02*
X219448100Y-102567200D01*
X219448100Y-102567200D02*
X218488000Y-102567200D01*
X218488000Y-102567200D02*
X217608300Y-103446900D01*
X217608300Y-103446900D02*
X217608300Y-103822000D01*
X228161700Y-103822000D02*
X225568100Y-106415600D01*
X225568100Y-106415600D02*
X222885000Y-106415600D01*
X222885000Y-106415600D02*
X222885000Y-107627000D01*
X229362000Y-103822000D02*
X228161700Y-103822000D01*
X233266000Y-117729000D02*
X234466300Y-117729000D01*
X234188000Y-126238000D02*
X234188000Y-125037700D01*
X216408000Y-103822000D02*
X217608300Y-103822000D01*
X220590900Y-117456000D02*
X220015700Y-117456000D01*
X213939600Y-118132700D02*
X213816300Y-118256000D01*
X213816300Y-116656000D02*
X213816300Y-118009400D01*
X213816300Y-118009400D02*
X213939600Y-118132700D01*
X222885000Y-107627000D02*
X222885000Y-110871000D01*
X212666000Y-118256000D02*
X213816300Y-118256000D01*
X212666000Y-116656000D02*
X213816300Y-116656000D01*
X225966000Y-111633000D02*
X227166300Y-111633000D01*
D20*
%TO.N,Net-(C1-Pad1)*%
X212666000Y-119856000D02*
X211412000Y-119856000D01*
X211412000Y-119856000D02*
X208870000Y-122398000D01*
X208870000Y-122398000D02*
X205031200Y-122398000D01*
X205031200Y-122398000D02*
X203904100Y-121270900D01*
X203904100Y-121270900D02*
X203904100Y-115417000D01*
X203904100Y-115417000D02*
X208067800Y-111253300D01*
X208067800Y-111253300D02*
X211462000Y-111253300D01*
X211462000Y-111253300D02*
X220452700Y-111253300D01*
X220452700Y-111253300D02*
X220835000Y-110871000D01*
X211462000Y-109728000D02*
X211462000Y-111253300D01*
%TO.N,Net-(C2-Pad1)*%
X216662000Y-109728000D02*
X216662000Y-108202700D01*
X212666000Y-120656000D02*
X211540700Y-120656000D01*
X211540700Y-120656000D02*
X209332900Y-122863800D01*
X209332900Y-122863800D02*
X204854500Y-122863800D01*
X204854500Y-122863800D02*
X203453600Y-121462900D01*
X203453600Y-121462900D02*
X203453600Y-114320200D01*
X203453600Y-114320200D02*
X209571100Y-108202700D01*
X209571100Y-108202700D02*
X216662000Y-108202700D01*
X216662000Y-109728000D02*
X218737300Y-109728000D01*
X218737300Y-109728000D02*
X218737300Y-109724700D01*
X218737300Y-109724700D02*
X220835000Y-107627000D01*
%TO.N,Net-(D1-Pad1)*%
X240691990Y-121376010D02*
X241672000Y-120396000D01*
X237658010Y-121376010D02*
X240691990Y-121376010D01*
X236633000Y-120351000D02*
X237658010Y-121376010D01*
%TO.N,Net-(D1-Pad2)*%
X221166000Y-120656000D02*
X222291300Y-120656000D01*
X222291300Y-120656000D02*
X222891600Y-121256300D01*
X222891600Y-121256300D02*
X228331800Y-121256300D01*
X228331800Y-121256300D02*
X232918000Y-125842500D01*
X232918000Y-125842500D02*
X232918000Y-126726200D01*
X232918000Y-126726200D02*
X233673200Y-127481400D01*
X233673200Y-127481400D02*
X237412700Y-127481400D01*
X243969000Y-120925100D02*
X243969000Y-120396000D01*
X243722000Y-121172100D02*
X243722000Y-120396000D01*
X237412700Y-127481400D02*
X243722000Y-121172100D01*
%TO.N,/D2*%
X214116000Y-114731300D02*
X215071300Y-115686600D01*
X215071300Y-115686600D02*
X215071300Y-117057100D01*
X214116000Y-113606000D02*
X214116000Y-114731300D01*
%TO.N,/D3*%
X212666000Y-115056000D02*
X213791300Y-115056000D01*
X213791300Y-115056000D02*
X214291700Y-115556400D01*
X214291700Y-115556400D02*
X214291700Y-117319400D01*
X214291700Y-117319400D02*
X215014500Y-118042200D01*
X215014500Y-118042200D02*
X216079600Y-118042200D01*
%TO.N,/D4*%
X211540700Y-115856000D02*
X211540700Y-115985800D01*
X211540700Y-115985800D02*
X211243200Y-116283300D01*
X212666000Y-115856000D02*
X211540700Y-115856000D01*
%TO.N,/D5*%
X224028000Y-126238000D02*
X222852700Y-126238000D01*
X214116000Y-122106000D02*
X214116000Y-123231300D01*
X214116000Y-123231300D02*
X215947400Y-125062700D01*
X215947400Y-125062700D02*
X222044800Y-125062700D01*
X222044800Y-125062700D02*
X222852700Y-125870600D01*
X222852700Y-125870600D02*
X222852700Y-126238000D01*
%TO.N,/D6*%
X226568000Y-126238000D02*
X225392700Y-126238000D01*
X214916000Y-122106000D02*
X214916000Y-123231300D01*
X214916000Y-123231300D02*
X216185000Y-124500300D01*
X216185000Y-124500300D02*
X224022300Y-124500300D01*
X224022300Y-124500300D02*
X225392700Y-125870700D01*
X225392700Y-125870700D02*
X225392700Y-126238000D01*
%TO.N,/D7*%
X215716000Y-123231300D02*
X216291000Y-123806300D01*
X216291000Y-123806300D02*
X225868300Y-123806300D01*
X225868300Y-123806300D02*
X227932700Y-125870700D01*
X227932700Y-125870700D02*
X227932700Y-126238000D01*
X215716000Y-122106000D02*
X215716000Y-123231300D01*
X229108000Y-126238000D02*
X227932700Y-126238000D01*
%TO.N,/D8*%
X231648000Y-126238000D02*
X230472700Y-126238000D01*
X216516000Y-122106000D02*
X216516000Y-123231300D01*
X216516000Y-123231300D02*
X227833300Y-123231300D01*
X227833300Y-123231300D02*
X230472700Y-125870700D01*
X230472700Y-125870700D02*
X230472700Y-126238000D01*
%TO.N,/TX*%
X214916000Y-113606000D02*
X214916000Y-114731300D01*
X214916000Y-114731300D02*
X216232600Y-116047900D01*
X216232600Y-116047900D02*
X217593000Y-116047900D01*
%TO.N,/RX*%
X215716000Y-114731300D02*
X216712200Y-114731300D01*
X216712200Y-114731300D02*
X216987700Y-115006800D01*
X215716000Y-113606000D02*
X215716000Y-114731300D01*
%TO.N,/CIPO*%
X219716000Y-122106000D02*
X219716000Y-120248500D01*
X219716000Y-120248500D02*
X218966500Y-119499000D01*
%TO.N,/SCK*%
X233266000Y-110363000D02*
X234441300Y-110363000D01*
X236594000Y-109347000D02*
X235457300Y-109347000D01*
X235457300Y-109347000D02*
X234441300Y-110363000D01*
X236982000Y-104997300D02*
X237878200Y-105893500D01*
X237878200Y-105893500D02*
X237878200Y-108415100D01*
X237878200Y-108415100D02*
X236946300Y-109347000D01*
X236946300Y-109347000D02*
X236594000Y-109347000D01*
X236982000Y-103822000D02*
X236982000Y-104997300D01*
X233266000Y-118999000D02*
X234441300Y-118999000D01*
X234441300Y-118999000D02*
X234963200Y-118477100D01*
X234963200Y-118477100D02*
X234963200Y-115021600D01*
X234963200Y-115021600D02*
X232090700Y-112149100D01*
X232090700Y-112149100D02*
X232090700Y-110363000D01*
X218916000Y-114731300D02*
X219563500Y-115378800D01*
X219563500Y-115378800D02*
X219563500Y-115389700D01*
X219563500Y-115389700D02*
X219563600Y-115389700D01*
X218916000Y-113606000D02*
X218916000Y-114731300D01*
X233266000Y-110363000D02*
X232090700Y-110363000D01*
%TO.N,/COPI*%
X218916000Y-120980700D02*
X214496800Y-120980700D01*
X214496800Y-120980700D02*
X214184900Y-120668800D01*
X218916000Y-122106000D02*
X218916000Y-120980700D01*
%TO.N,/RESET*%
X212312000Y-106172000D02*
X220974200Y-106172000D01*
X220974200Y-106172000D02*
X221753500Y-106951300D01*
X221753500Y-106951300D02*
X221753500Y-111578000D01*
X221753500Y-111578000D02*
X221383000Y-111948500D01*
X221383000Y-111948500D02*
X217048200Y-111948500D01*
X217048200Y-111948500D02*
X216516000Y-112480700D01*
X206914700Y-121222000D02*
X206914700Y-120854600D01*
X206914700Y-120854600D02*
X206106800Y-120046700D01*
X206106800Y-120046700D02*
X205209300Y-120046700D01*
X205209300Y-120046700D02*
X204368900Y-119206300D01*
X204368900Y-119206300D02*
X204368900Y-115614000D01*
X204368900Y-115614000D02*
X207502200Y-112480700D01*
X207502200Y-112480700D02*
X216516000Y-112480700D01*
X216516000Y-113606000D02*
X216516000Y-112480700D01*
X208090000Y-121222000D02*
X206914700Y-121222000D01*
%TO.N,/SDA*%
X218116000Y-112480700D02*
X222879800Y-112480700D01*
X234879700Y-111924400D02*
X235413600Y-112458300D01*
X235413600Y-112458300D02*
X235413600Y-118685200D01*
X235413600Y-118685200D02*
X233829800Y-120269000D01*
X233829800Y-120269000D02*
X233266000Y-120269000D01*
X234441300Y-111633000D02*
X234588300Y-111633000D01*
X234588300Y-111633000D02*
X234879700Y-111924400D01*
X218116000Y-113606000D02*
X218116000Y-112480700D01*
X233266000Y-111633000D02*
X234441300Y-111633000D01*
X234442000Y-104997300D02*
X236594000Y-107149300D01*
X236594000Y-107149300D02*
X236594000Y-108077000D01*
X234442000Y-103822000D02*
X234442000Y-104997300D01*
%TO.N,Net-(U1-Pad1)*%
X241544000Y-116366000D02*
X241544000Y-113937000D01*
X241544000Y-113937000D02*
X243594000Y-111887000D01*
%TO.N,Net-(U1-Pad2)*%
X244044000Y-116366000D02*
X243218700Y-116366000D01*
X243218700Y-116366000D02*
X243218700Y-116572300D01*
X243218700Y-116572300D02*
X242199600Y-117591400D01*
X242199600Y-117591400D02*
X240832700Y-117591400D01*
X240832700Y-117591400D02*
X240692200Y-117450900D01*
X240692200Y-117450900D02*
X240692200Y-113063200D01*
X240692200Y-113063200D02*
X243138400Y-110617000D01*
X243138400Y-110617000D02*
X243594000Y-110617000D01*
%TO.N,/ADDR2*%
X225966000Y-109093000D02*
X224790700Y-109093000D01*
X225966000Y-117729000D02*
X227141300Y-117729000D01*
X224790700Y-109093000D02*
X224790700Y-112092800D01*
X224790700Y-112092800D02*
X227141300Y-114443400D01*
X227141300Y-114443400D02*
X227141300Y-117729000D01*
X226553700Y-109093000D02*
X225966000Y-109093000D01*
X226553700Y-109093000D02*
X227141300Y-109093000D01*
X221166000Y-115056000D02*
X222291300Y-115056000D01*
X222291300Y-115056000D02*
X223786400Y-113560900D01*
X223786400Y-113560900D02*
X223786400Y-108151800D01*
X223786400Y-108151800D02*
X224765600Y-107172600D01*
X224765600Y-107172600D02*
X227007000Y-107172600D01*
X227007000Y-107172600D02*
X227141300Y-107306900D01*
X227141300Y-107306900D02*
X227141300Y-109093000D01*
%TO.N,/ADDR1*%
X224790700Y-107823000D02*
X224340400Y-108273300D01*
X224340400Y-108273300D02*
X224340400Y-115703300D01*
X224340400Y-115703300D02*
X224187700Y-115856000D01*
X224187700Y-115856000D02*
X224790700Y-116459000D01*
X221166000Y-115856000D02*
X224187700Y-115856000D01*
X225966000Y-107823000D02*
X224790700Y-107823000D01*
X225966000Y-116459000D02*
X224790700Y-116459000D01*
D19*
%TO.N,/Vcc*%
X219966700Y-118748700D02*
X218408200Y-118748700D01*
X218408200Y-118748700D02*
X217864100Y-119292800D01*
X217864100Y-119292800D02*
X214053100Y-119292800D01*
X214053100Y-119292800D02*
X213816300Y-119056000D01*
X220015700Y-119856000D02*
X219966700Y-119807000D01*
X219966700Y-119807000D02*
X219966700Y-118748700D01*
X220015700Y-118256000D02*
X220015700Y-118699700D01*
X220015700Y-118699700D02*
X219966700Y-118748700D01*
X221166000Y-118256000D02*
X220015700Y-118256000D01*
X212666000Y-119056000D02*
X213816300Y-119056000D01*
X238613000Y-113906000D02*
X238613000Y-116162000D01*
X236594000Y-111887000D02*
X238613000Y-113906000D01*
X243594000Y-109347000D02*
X243172000Y-109347000D01*
X243172000Y-109347000D02*
X238613000Y-113906000D01*
X241404700Y-118191700D02*
X240642700Y-118191700D01*
X240642700Y-118191700D02*
X238613000Y-116162000D01*
X231168900Y-117359700D02*
X229529600Y-118999000D01*
X229529600Y-118999000D02*
X225966000Y-118999000D01*
X221166000Y-119856000D02*
X220015700Y-119856000D01*
X231168900Y-117359700D02*
X232065700Y-116462900D01*
X232065700Y-116462900D02*
X232065700Y-116459000D01*
X227166300Y-110363000D02*
X230703400Y-106825900D01*
X230703400Y-106825900D02*
X231068600Y-106825900D01*
X210312000Y-106172000D02*
X211461600Y-105022400D01*
X211461600Y-105022400D02*
X217747600Y-105022400D01*
X217747600Y-105022400D02*
X218948000Y-103822000D01*
X210312000Y-106172000D02*
X208274300Y-106172000D01*
X208274300Y-106172000D02*
X206750300Y-107696000D01*
X211515700Y-117777500D02*
X211837200Y-117456000D01*
X211837200Y-117456000D02*
X212090900Y-117456000D01*
X211515700Y-119056000D02*
X211515700Y-117777500D01*
X206750300Y-116142000D02*
X206750300Y-117078700D01*
X206750300Y-117078700D02*
X207127600Y-117456000D01*
X207127600Y-117456000D02*
X211194200Y-117456000D01*
X211194200Y-117456000D02*
X211515700Y-117777500D01*
X205550000Y-116142000D02*
X206750300Y-116142000D01*
X212666000Y-117456000D02*
X212090900Y-117456000D01*
X212666000Y-119056000D02*
X211515700Y-119056000D01*
X233266000Y-116459000D02*
X232065700Y-116459000D01*
X231068600Y-106825900D02*
X232065700Y-107823000D01*
X231902000Y-105022300D02*
X231068600Y-105855700D01*
X231068600Y-105855700D02*
X231068600Y-106825900D01*
X231902000Y-103822000D02*
X231902000Y-105022300D01*
X233266000Y-107823000D02*
X232065700Y-107823000D01*
X225966000Y-110363000D02*
X227166300Y-110363000D01*
X205550000Y-107696000D02*
X206750300Y-107696000D01*
X242597010Y-119384010D02*
X241404700Y-118191700D01*
X242597010Y-121571071D02*
X242597010Y-119384010D01*
X237930081Y-126238000D02*
X242597010Y-121571071D01*
X236728000Y-126238000D02*
X237930081Y-126238000D01*
%TD*%
M02*
