M48
; DRILL file {KiCad (5.1.9)-1} date 01/05/22 00:47:31
; FORMAT={2:4/ absolute / inch / suppress leading zeros}
; #@! TF.CreationDate,2022-01-05T00:47:31-06:00
; #@! TF.GenerationSoftware,Kicad,Pcbnew,(5.1.9)-1
; #@! TF.FileFunction,Plated,1,2,PTH
FMAT,2
INCH,TZ
T1C0.0157
T2C0.0236
T3C0.0394
%
G90
G05
T1
X83167Y-45781
X84325Y-47507
X84674Y-46085
X85071Y-46473
X85428Y-45278
X85667Y-45688
X86207Y-47047
X86442Y-45429
X87748Y-44284
X92472Y-44065
T2
X91011Y-46205
T3
X80925Y-42400
X80925Y-43400
X80925Y-45725
X80925Y-46725
X80925Y-47725
X81925Y-45725
X81925Y-46725
X81925Y-47725
X85200Y-40875
X85200Y-49700
X86200Y-40875
X86200Y-49700
X87200Y-40875
X87200Y-49700
X88200Y-40875
X88200Y-49700
X89200Y-49700
X90200Y-49700
X90300Y-40875
X91200Y-49700
X91300Y-40875
X92200Y-49700
X92300Y-40875
X93200Y-49700
X93300Y-40875
T0
M30
