%TF.GenerationSoftware,KiCad,Pcbnew,(5.1.9)-1*%
%TF.CreationDate,2022-01-05T00:47:20-06:00*%
%TF.ProjectId,BACEE,42414345-452e-46b6-9963-61645f706362,1*%
%TF.SameCoordinates,Original*%
%TF.FileFunction,Copper,L2,Bot*%
%TF.FilePolarity,Positive*%
%FSLAX46Y46*%
G04 Gerber Fmt 4.6, Leading zero omitted, Abs format (unit mm)*
G04 Created by KiCad (PCBNEW (5.1.9)-1) date 2022-01-05 00:47:20*
%MOMM*%
%LPD*%
G01*
G04 APERTURE LIST*
%TA.AperFunction,ComponentPad*%
%ADD10O,1.700000X1.700000*%
%TD*%
%TA.AperFunction,ComponentPad*%
%ADD11R,1.700000X1.700000*%
%TD*%
%TA.AperFunction,ViaPad*%
%ADD12C,0.800000*%
%TD*%
%TA.AperFunction,ViaPad*%
%ADD13C,1.000000*%
%TD*%
%TA.AperFunction,Conductor*%
%ADD14C,0.300000*%
%TD*%
%TA.AperFunction,Conductor*%
%ADD15C,0.250000*%
%TD*%
%TA.AperFunction,Conductor*%
%ADD16C,0.254000*%
%TD*%
%TA.AperFunction,Conductor*%
%ADD17C,0.100000*%
%TD*%
G04 APERTURE END LIST*
D10*
%TO.P,BT1,2*%
%TO.N,GNDPWR*%
X205550000Y-110236000D03*
D11*
%TO.P,BT1,1*%
%TO.N,/Vcc*%
X205550000Y-107696000D03*
%TD*%
D10*
%TO.P,J1,9*%
%TO.N,/Vcc*%
X236728000Y-126238000D03*
%TO.P,J1,8*%
%TO.N,GNDPWR*%
X234188000Y-126238000D03*
%TO.P,J1,7*%
%TO.N,/D8*%
X231648000Y-126238000D03*
%TO.P,J1,6*%
%TO.N,/D7*%
X229108000Y-126238000D03*
%TO.P,J1,5*%
%TO.N,/D6*%
X226568000Y-126238000D03*
%TO.P,J1,4*%
%TO.N,/D5*%
X224028000Y-126238000D03*
%TO.P,J1,3*%
%TO.N,/D4*%
X221488000Y-126238000D03*
%TO.P,J1,2*%
%TO.N,/D3*%
X218948000Y-126238000D03*
D11*
%TO.P,J1,1*%
%TO.N,/D2*%
X216408000Y-126238000D03*
%TD*%
%TO.P,J2,1*%
%TO.N,GNDPWR*%
X216408000Y-103822000D03*
D10*
%TO.P,J2,2*%
%TO.N,/Vcc*%
X218948000Y-103822000D03*
%TO.P,J2,3*%
%TO.N,/RX*%
X221488000Y-103822000D03*
%TO.P,J2,4*%
%TO.N,/TX*%
X224028000Y-103822000D03*
%TD*%
%TO.P,J3,6*%
%TO.N,GNDPWR*%
X205550000Y-121222000D03*
%TO.P,J3,5*%
%TO.N,/RESET*%
X208090000Y-121222000D03*
%TO.P,J3,4*%
%TO.N,/COPI*%
X205550000Y-118682000D03*
%TO.P,J3,3*%
%TO.N,/SCK*%
X208090000Y-118682000D03*
%TO.P,J3,2*%
%TO.N,/Vcc*%
X205550000Y-116142000D03*
D11*
%TO.P,J3,1*%
%TO.N,/CIPO*%
X208090000Y-116142000D03*
%TD*%
D10*
%TO.P,J4,4*%
%TO.N,/SCK*%
X236982000Y-103822000D03*
%TO.P,J4,3*%
%TO.N,/SDA*%
X234442000Y-103822000D03*
%TO.P,J4,2*%
%TO.N,/Vcc*%
X231902000Y-103822000D03*
D11*
%TO.P,J4,1*%
%TO.N,GNDPWR*%
X229362000Y-103822000D03*
%TD*%
D12*
%TO.N,/D2*%
X215071300Y-117057100D03*
%TO.N,/D3*%
X216079600Y-118042200D03*
%TO.N,/D4*%
X211243200Y-116283300D03*
%TO.N,/TX*%
X217593000Y-116047900D03*
%TO.N,/RX*%
X216987700Y-115006800D03*
%TO.N,/CIPO*%
X218966500Y-119499000D03*
%TO.N,/SCK*%
X219563600Y-115389700D03*
%TO.N,/COPI*%
X214184900Y-120668800D03*
%TO.N,/SDA*%
X234879700Y-111924400D03*
X222879800Y-112480700D03*
D13*
%TO.N,/Vcc*%
X231168900Y-117359700D03*
%TD*%
D14*
%TO.N,GNDPWR*%
X206571700Y-112458000D02*
X205550000Y-111436300D01*
X205550000Y-120021700D02*
X205925100Y-120021700D01*
X205925100Y-120021700D02*
X206754300Y-119192500D01*
X206754300Y-119192500D02*
X206754300Y-112640600D01*
X206754300Y-112640600D02*
X206571700Y-112458000D01*
X215207700Y-103822000D02*
X206571700Y-112458000D01*
X216408000Y-103822000D02*
X215207700Y-103822000D01*
X205550000Y-110236000D02*
X205550000Y-111436300D01*
X205550000Y-121222000D02*
X205550000Y-120021700D01*
D15*
%TO.N,/D2*%
X216408000Y-125062700D02*
X215071300Y-123726000D01*
X215071300Y-123726000D02*
X215071300Y-117057100D01*
X216408000Y-126238000D02*
X216408000Y-125062700D01*
%TO.N,/D3*%
X218948000Y-126238000D02*
X218948000Y-125062700D01*
X216079600Y-118042200D02*
X216079600Y-122194300D01*
X216079600Y-122194300D02*
X218948000Y-125062700D01*
%TO.N,/D4*%
X221488000Y-125062700D02*
X217376000Y-120950700D01*
X217376000Y-120950700D02*
X217376000Y-118312700D01*
X217376000Y-118312700D02*
X215346700Y-116283400D01*
X215346700Y-116283400D02*
X211243200Y-116283400D01*
X211243200Y-116283400D02*
X211243200Y-116283300D01*
X221488000Y-126238000D02*
X221488000Y-125062700D01*
%TO.N,/TX*%
X224028000Y-103822000D02*
X224028000Y-104997300D01*
X217593000Y-116047900D02*
X218383800Y-115257100D01*
X218383800Y-115257100D02*
X218383800Y-110641500D01*
X218383800Y-110641500D02*
X224028000Y-104997300D01*
%TO.N,/RX*%
X221488000Y-104997300D02*
X216987700Y-109497600D01*
X216987700Y-109497600D02*
X216987700Y-115006800D01*
X221488000Y-103822000D02*
X221488000Y-104997300D01*
%TO.N,/CIPO*%
X208090000Y-116142000D02*
X209265300Y-116142000D01*
X218966500Y-119499000D02*
X218966500Y-118565100D01*
X218966500Y-118565100D02*
X215468200Y-115066800D01*
X215468200Y-115066800D02*
X210340500Y-115066800D01*
X210340500Y-115066800D02*
X209265300Y-116142000D01*
%TO.N,/SCK*%
X219563600Y-115389700D02*
X219722100Y-115548200D01*
X219722100Y-115548200D02*
X219722100Y-119773900D01*
X219722100Y-119773900D02*
X219234000Y-120262000D01*
X219234000Y-120262000D02*
X218667600Y-120262000D01*
X218667600Y-120262000D02*
X218144600Y-119739000D01*
X218144600Y-119739000D02*
X218144600Y-118380100D01*
X218144600Y-118380100D02*
X215322500Y-115558000D01*
X215322500Y-115558000D02*
X210942800Y-115558000D01*
X210942800Y-115558000D02*
X208994100Y-117506700D01*
X208994100Y-117506700D02*
X208090000Y-117506700D01*
X236394400Y-103822000D02*
X234761800Y-102189400D01*
X234761800Y-102189400D02*
X228804600Y-102189400D01*
X228804600Y-102189400D02*
X219563600Y-111430400D01*
X219563600Y-111430400D02*
X219563600Y-115389700D01*
X208090000Y-118682000D02*
X208090000Y-117506700D01*
X236982000Y-103822000D02*
X236394400Y-103822000D01*
%TO.N,/COPI*%
X205550000Y-118682000D02*
X204368300Y-119863700D01*
X204368300Y-119863700D02*
X204368300Y-121737400D01*
X204368300Y-121737400D02*
X205028300Y-122397400D01*
X205028300Y-122397400D02*
X212456300Y-122397400D01*
X212456300Y-122397400D02*
X214184900Y-120668800D01*
%TO.N,/SDA*%
X233266700Y-103822000D02*
X233266700Y-103454600D01*
X233266700Y-103454600D02*
X232458800Y-102646700D01*
X232458800Y-102646700D02*
X231388300Y-102646700D01*
X231388300Y-102646700D02*
X230537400Y-103497600D01*
X230537400Y-103497600D02*
X230537400Y-104823100D01*
X230537400Y-104823100D02*
X222879800Y-112480700D01*
X233854400Y-103822000D02*
X233854400Y-110899100D01*
X233854400Y-110899100D02*
X234879700Y-111924400D01*
X233854400Y-103822000D02*
X233266700Y-103822000D01*
X234442000Y-103822000D02*
X233854400Y-103822000D01*
D14*
%TO.N,/Vcc*%
X236728000Y-125037700D02*
X236728000Y-122185700D01*
X236728000Y-122185700D02*
X231902000Y-117359700D01*
X231902000Y-117359700D02*
X231902000Y-103822000D01*
X231902000Y-117359700D02*
X231168900Y-117359700D01*
X204345100Y-115541800D02*
X203853200Y-116033700D01*
X203853200Y-116033700D02*
X203853200Y-121943700D01*
X203853200Y-121943700D02*
X209349300Y-127439800D01*
X209349300Y-127439800D02*
X234698900Y-127439800D01*
X234698900Y-127439800D02*
X235527700Y-126611000D01*
X235527700Y-126611000D02*
X235527700Y-126238000D01*
X205550000Y-115541800D02*
X204345100Y-115541800D01*
X204345100Y-115541800D02*
X204345100Y-109726100D01*
X204345100Y-109726100D02*
X205174900Y-108896300D01*
X205174900Y-108896300D02*
X205550000Y-108896300D01*
X205550000Y-107696000D02*
X205550000Y-108896300D01*
X236728000Y-126238000D02*
X235527700Y-126238000D01*
X205550000Y-116142000D02*
X205550000Y-115541800D01*
X236728000Y-126238000D02*
X236728000Y-125037700D01*
%TD*%
D16*
%TO.N,GNDPWR*%
X219187069Y-111014972D02*
X219165705Y-111032505D01*
X219148172Y-111053869D01*
X219148171Y-111053870D01*
X219098464Y-111114439D01*
X219095725Y-111117776D01*
X219043725Y-111215062D01*
X219011703Y-111320622D01*
X219003600Y-111402895D01*
X219003600Y-111402904D01*
X219000892Y-111430400D01*
X219003600Y-111457896D01*
X219003601Y-114768831D01*
X218943800Y-114828632D01*
X218943800Y-110873459D01*
X224404537Y-105412723D01*
X224425895Y-105395195D01*
X224443423Y-105373837D01*
X224443429Y-105373831D01*
X224495875Y-105309925D01*
X224533909Y-105238768D01*
X224547875Y-105212639D01*
X224579897Y-105107079D01*
X224588000Y-105024806D01*
X224588000Y-105024797D01*
X224590708Y-104997301D01*
X224589051Y-104980480D01*
X224636676Y-104960753D01*
X224847140Y-104820125D01*
X225026125Y-104641140D01*
X225166753Y-104430676D01*
X225263619Y-104196821D01*
X225313000Y-103948561D01*
X225313000Y-103695439D01*
X225263619Y-103447179D01*
X225166753Y-103213324D01*
X225026125Y-103002860D01*
X224847140Y-102823875D01*
X224636676Y-102683247D01*
X224402821Y-102586381D01*
X224154561Y-102537000D01*
X223901439Y-102537000D01*
X223653179Y-102586381D01*
X223419324Y-102683247D01*
X223208860Y-102823875D01*
X223029875Y-103002860D01*
X222889247Y-103213324D01*
X222792381Y-103447179D01*
X222758000Y-103620027D01*
X222723619Y-103447179D01*
X222626753Y-103213324D01*
X222486125Y-103002860D01*
X222307140Y-102823875D01*
X222096676Y-102683247D01*
X221862821Y-102586381D01*
X221614561Y-102537000D01*
X221361439Y-102537000D01*
X221113179Y-102586381D01*
X220879324Y-102683247D01*
X220668860Y-102823875D01*
X220489875Y-103002860D01*
X220349247Y-103213324D01*
X220252381Y-103447179D01*
X220218000Y-103620027D01*
X220183619Y-103447179D01*
X220086753Y-103213324D01*
X219946125Y-103002860D01*
X219767140Y-102823875D01*
X219556676Y-102683247D01*
X219322821Y-102586381D01*
X219074561Y-102537000D01*
X218821439Y-102537000D01*
X218573179Y-102586381D01*
X218339324Y-102683247D01*
X218128860Y-102823875D01*
X217949875Y-103002860D01*
X217895461Y-103084297D01*
X217896072Y-102972000D01*
X217883812Y-102847518D01*
X217847502Y-102727820D01*
X217788537Y-102617506D01*
X217709185Y-102520815D01*
X217612494Y-102441463D01*
X217502180Y-102382498D01*
X217382482Y-102346188D01*
X217258000Y-102333928D01*
X216693750Y-102337000D01*
X216535000Y-102495750D01*
X216535000Y-103695000D01*
X216555000Y-103695000D01*
X216555000Y-103949000D01*
X216535000Y-103949000D01*
X216535000Y-105148250D01*
X216693750Y-105307000D01*
X217258000Y-105310072D01*
X217382482Y-105297812D01*
X217502180Y-105261502D01*
X217612494Y-105202537D01*
X217709185Y-105123185D01*
X217788537Y-105026494D01*
X217847502Y-104916180D01*
X217883812Y-104796482D01*
X217896072Y-104672000D01*
X217895461Y-104559703D01*
X217949875Y-104641140D01*
X218128860Y-104820125D01*
X218339324Y-104960753D01*
X218573179Y-105057619D01*
X218821439Y-105107000D01*
X219074561Y-105107000D01*
X219322821Y-105057619D01*
X219556676Y-104960753D01*
X219767140Y-104820125D01*
X219946125Y-104641140D01*
X220086753Y-104430676D01*
X220183619Y-104196821D01*
X220218000Y-104023973D01*
X220252381Y-104196821D01*
X220349247Y-104430676D01*
X220489875Y-104641140D01*
X220668860Y-104820125D01*
X220791362Y-104901978D01*
X216611169Y-109082172D01*
X216589805Y-109099705D01*
X216572272Y-109121069D01*
X216572271Y-109121070D01*
X216548886Y-109149565D01*
X216519825Y-109184976D01*
X216467825Y-109282262D01*
X216435803Y-109387822D01*
X216427700Y-109470095D01*
X216427700Y-109470104D01*
X216424992Y-109497600D01*
X216427700Y-109525096D01*
X216427701Y-114385931D01*
X216339113Y-114474519D01*
X216247733Y-114611279D01*
X216184789Y-114763240D01*
X216152700Y-114924560D01*
X216152700Y-114959341D01*
X215883628Y-114690269D01*
X215866095Y-114668905D01*
X215780824Y-114598925D01*
X215683539Y-114546925D01*
X215577979Y-114514903D01*
X215495706Y-114506800D01*
X215495696Y-114506800D01*
X215468200Y-114504092D01*
X215440704Y-114506800D01*
X210367992Y-114506800D01*
X210340499Y-114504092D01*
X210313006Y-114506800D01*
X210312994Y-114506800D01*
X210230721Y-114514903D01*
X210125161Y-114546925D01*
X210079875Y-114571131D01*
X210027875Y-114598925D01*
X209963969Y-114651371D01*
X209963963Y-114651377D01*
X209942605Y-114668905D01*
X209925077Y-114690263D01*
X209372283Y-115243057D01*
X209368705Y-115206725D01*
X209343831Y-115124728D01*
X209303439Y-115049158D01*
X209249079Y-114982921D01*
X209182842Y-114928561D01*
X209107272Y-114888169D01*
X209025275Y-114863295D01*
X208940000Y-114854896D01*
X207240000Y-114854896D01*
X207154725Y-114863295D01*
X207072728Y-114888169D01*
X206997158Y-114928561D01*
X206930921Y-114982921D01*
X206876561Y-115049158D01*
X206836169Y-115124728D01*
X206811295Y-115206725D01*
X206802896Y-115292000D01*
X206802896Y-115854038D01*
X206785619Y-115767179D01*
X206688753Y-115533324D01*
X206548125Y-115322860D01*
X206369140Y-115143875D01*
X206158676Y-115003247D01*
X205924821Y-114906381D01*
X205676561Y-114857000D01*
X205423439Y-114857000D01*
X205175179Y-114906381D01*
X205053457Y-114956800D01*
X204930100Y-114956800D01*
X204930100Y-111584184D01*
X205193109Y-111677481D01*
X205423000Y-111556814D01*
X205423000Y-110363000D01*
X205677000Y-110363000D01*
X205677000Y-111556814D01*
X205906891Y-111677481D01*
X206181252Y-111580157D01*
X206431355Y-111431178D01*
X206647588Y-111236269D01*
X206821641Y-111002920D01*
X206946825Y-110740099D01*
X206991476Y-110592890D01*
X206870155Y-110363000D01*
X205677000Y-110363000D01*
X205423000Y-110363000D01*
X205403000Y-110363000D01*
X205403000Y-110109000D01*
X205423000Y-110109000D01*
X205423000Y-110089000D01*
X205677000Y-110089000D01*
X205677000Y-110109000D01*
X206870155Y-110109000D01*
X206991476Y-109879110D01*
X206946825Y-109731901D01*
X206821641Y-109469080D01*
X206647588Y-109235731D01*
X206431355Y-109040822D01*
X206334459Y-108983104D01*
X206400000Y-108983104D01*
X206485275Y-108974705D01*
X206567272Y-108949831D01*
X206642842Y-108909439D01*
X206709079Y-108855079D01*
X206763439Y-108788842D01*
X206803831Y-108713272D01*
X206828705Y-108631275D01*
X206837104Y-108546000D01*
X206837104Y-106846000D01*
X206828705Y-106760725D01*
X206803831Y-106678728D01*
X206763439Y-106603158D01*
X206709079Y-106536921D01*
X206642842Y-106482561D01*
X206567272Y-106442169D01*
X206485275Y-106417295D01*
X206400000Y-106408896D01*
X204700000Y-106408896D01*
X204614725Y-106417295D01*
X204532728Y-106442169D01*
X204457158Y-106482561D01*
X204390921Y-106536921D01*
X204336561Y-106603158D01*
X204296169Y-106678728D01*
X204271295Y-106760725D01*
X204262896Y-106846000D01*
X204262896Y-108546000D01*
X204271295Y-108631275D01*
X204296169Y-108713272D01*
X204336561Y-108788842D01*
X204389968Y-108853918D01*
X203951764Y-109292122D01*
X203929442Y-109310441D01*
X203856338Y-109399519D01*
X203835030Y-109439384D01*
X203802016Y-109501148D01*
X203768565Y-109611421D01*
X203757270Y-109726100D01*
X203760101Y-109754843D01*
X203760100Y-115299485D01*
X203459869Y-115599717D01*
X203437541Y-115618041D01*
X203364437Y-115707120D01*
X203312472Y-115804340D01*
X203310116Y-115808748D01*
X203276665Y-115919021D01*
X203265370Y-116033700D01*
X203268200Y-116062433D01*
X203268201Y-121914957D01*
X203265370Y-121943700D01*
X203276665Y-122058379D01*
X203310116Y-122168652D01*
X203329692Y-122205275D01*
X203364438Y-122270281D01*
X203437542Y-122359359D01*
X203459864Y-122377678D01*
X208892185Y-127810000D01*
X205479806Y-127810000D01*
X205548944Y-127781362D01*
X205834188Y-127590768D01*
X206076768Y-127348188D01*
X206267362Y-127062944D01*
X206398646Y-126745998D01*
X206465573Y-126409530D01*
X206465573Y-126066470D01*
X206398646Y-125730002D01*
X206267362Y-125413056D01*
X206076768Y-125127812D01*
X205834188Y-124885232D01*
X205548944Y-124694638D01*
X205231998Y-124563354D01*
X204895530Y-124496427D01*
X204552470Y-124496427D01*
X204216002Y-124563354D01*
X203899056Y-124694638D01*
X203613812Y-124885232D01*
X203371232Y-125127812D01*
X203180638Y-125413056D01*
X203152000Y-125482194D01*
X203152000Y-104641806D01*
X203180638Y-104710944D01*
X203371232Y-104996188D01*
X203613812Y-105238768D01*
X203899056Y-105429362D01*
X204216002Y-105560646D01*
X204552470Y-105627573D01*
X204895530Y-105627573D01*
X205231998Y-105560646D01*
X205548944Y-105429362D01*
X205834188Y-105238768D01*
X206076768Y-104996188D01*
X206267362Y-104710944D01*
X206283493Y-104672000D01*
X214919928Y-104672000D01*
X214932188Y-104796482D01*
X214968498Y-104916180D01*
X215027463Y-105026494D01*
X215106815Y-105123185D01*
X215203506Y-105202537D01*
X215313820Y-105261502D01*
X215433518Y-105297812D01*
X215558000Y-105310072D01*
X216122250Y-105307000D01*
X216281000Y-105148250D01*
X216281000Y-103949000D01*
X215081750Y-103949000D01*
X214923000Y-104107750D01*
X214919928Y-104672000D01*
X206283493Y-104672000D01*
X206398646Y-104393998D01*
X206465573Y-104057530D01*
X206465573Y-103714470D01*
X206398646Y-103378002D01*
X206267362Y-103061056D01*
X206207857Y-102972000D01*
X214919928Y-102972000D01*
X214923000Y-103536250D01*
X215081750Y-103695000D01*
X216281000Y-103695000D01*
X216281000Y-102495750D01*
X216122250Y-102337000D01*
X215558000Y-102333928D01*
X215433518Y-102346188D01*
X215313820Y-102382498D01*
X215203506Y-102441463D01*
X215106815Y-102520815D01*
X215027463Y-102617506D01*
X214968498Y-102727820D01*
X214932188Y-102847518D01*
X214919928Y-102972000D01*
X206207857Y-102972000D01*
X206076768Y-102775812D01*
X205834188Y-102533232D01*
X205548944Y-102342638D01*
X205479806Y-102314000D01*
X227888041Y-102314000D01*
X219187069Y-111014972D01*
%TA.AperFunction,Conductor*%
D17*
G36*
X219187069Y-111014972D02*
G01*
X219165705Y-111032505D01*
X219148172Y-111053869D01*
X219148171Y-111053870D01*
X219098464Y-111114439D01*
X219095725Y-111117776D01*
X219043725Y-111215062D01*
X219011703Y-111320622D01*
X219003600Y-111402895D01*
X219003600Y-111402904D01*
X219000892Y-111430400D01*
X219003600Y-111457896D01*
X219003601Y-114768831D01*
X218943800Y-114828632D01*
X218943800Y-110873459D01*
X224404537Y-105412723D01*
X224425895Y-105395195D01*
X224443423Y-105373837D01*
X224443429Y-105373831D01*
X224495875Y-105309925D01*
X224533909Y-105238768D01*
X224547875Y-105212639D01*
X224579897Y-105107079D01*
X224588000Y-105024806D01*
X224588000Y-105024797D01*
X224590708Y-104997301D01*
X224589051Y-104980480D01*
X224636676Y-104960753D01*
X224847140Y-104820125D01*
X225026125Y-104641140D01*
X225166753Y-104430676D01*
X225263619Y-104196821D01*
X225313000Y-103948561D01*
X225313000Y-103695439D01*
X225263619Y-103447179D01*
X225166753Y-103213324D01*
X225026125Y-103002860D01*
X224847140Y-102823875D01*
X224636676Y-102683247D01*
X224402821Y-102586381D01*
X224154561Y-102537000D01*
X223901439Y-102537000D01*
X223653179Y-102586381D01*
X223419324Y-102683247D01*
X223208860Y-102823875D01*
X223029875Y-103002860D01*
X222889247Y-103213324D01*
X222792381Y-103447179D01*
X222758000Y-103620027D01*
X222723619Y-103447179D01*
X222626753Y-103213324D01*
X222486125Y-103002860D01*
X222307140Y-102823875D01*
X222096676Y-102683247D01*
X221862821Y-102586381D01*
X221614561Y-102537000D01*
X221361439Y-102537000D01*
X221113179Y-102586381D01*
X220879324Y-102683247D01*
X220668860Y-102823875D01*
X220489875Y-103002860D01*
X220349247Y-103213324D01*
X220252381Y-103447179D01*
X220218000Y-103620027D01*
X220183619Y-103447179D01*
X220086753Y-103213324D01*
X219946125Y-103002860D01*
X219767140Y-102823875D01*
X219556676Y-102683247D01*
X219322821Y-102586381D01*
X219074561Y-102537000D01*
X218821439Y-102537000D01*
X218573179Y-102586381D01*
X218339324Y-102683247D01*
X218128860Y-102823875D01*
X217949875Y-103002860D01*
X217895461Y-103084297D01*
X217896072Y-102972000D01*
X217883812Y-102847518D01*
X217847502Y-102727820D01*
X217788537Y-102617506D01*
X217709185Y-102520815D01*
X217612494Y-102441463D01*
X217502180Y-102382498D01*
X217382482Y-102346188D01*
X217258000Y-102333928D01*
X216693750Y-102337000D01*
X216535000Y-102495750D01*
X216535000Y-103695000D01*
X216555000Y-103695000D01*
X216555000Y-103949000D01*
X216535000Y-103949000D01*
X216535000Y-105148250D01*
X216693750Y-105307000D01*
X217258000Y-105310072D01*
X217382482Y-105297812D01*
X217502180Y-105261502D01*
X217612494Y-105202537D01*
X217709185Y-105123185D01*
X217788537Y-105026494D01*
X217847502Y-104916180D01*
X217883812Y-104796482D01*
X217896072Y-104672000D01*
X217895461Y-104559703D01*
X217949875Y-104641140D01*
X218128860Y-104820125D01*
X218339324Y-104960753D01*
X218573179Y-105057619D01*
X218821439Y-105107000D01*
X219074561Y-105107000D01*
X219322821Y-105057619D01*
X219556676Y-104960753D01*
X219767140Y-104820125D01*
X219946125Y-104641140D01*
X220086753Y-104430676D01*
X220183619Y-104196821D01*
X220218000Y-104023973D01*
X220252381Y-104196821D01*
X220349247Y-104430676D01*
X220489875Y-104641140D01*
X220668860Y-104820125D01*
X220791362Y-104901978D01*
X216611169Y-109082172D01*
X216589805Y-109099705D01*
X216572272Y-109121069D01*
X216572271Y-109121070D01*
X216548886Y-109149565D01*
X216519825Y-109184976D01*
X216467825Y-109282262D01*
X216435803Y-109387822D01*
X216427700Y-109470095D01*
X216427700Y-109470104D01*
X216424992Y-109497600D01*
X216427700Y-109525096D01*
X216427701Y-114385931D01*
X216339113Y-114474519D01*
X216247733Y-114611279D01*
X216184789Y-114763240D01*
X216152700Y-114924560D01*
X216152700Y-114959341D01*
X215883628Y-114690269D01*
X215866095Y-114668905D01*
X215780824Y-114598925D01*
X215683539Y-114546925D01*
X215577979Y-114514903D01*
X215495706Y-114506800D01*
X215495696Y-114506800D01*
X215468200Y-114504092D01*
X215440704Y-114506800D01*
X210367992Y-114506800D01*
X210340499Y-114504092D01*
X210313006Y-114506800D01*
X210312994Y-114506800D01*
X210230721Y-114514903D01*
X210125161Y-114546925D01*
X210079875Y-114571131D01*
X210027875Y-114598925D01*
X209963969Y-114651371D01*
X209963963Y-114651377D01*
X209942605Y-114668905D01*
X209925077Y-114690263D01*
X209372283Y-115243057D01*
X209368705Y-115206725D01*
X209343831Y-115124728D01*
X209303439Y-115049158D01*
X209249079Y-114982921D01*
X209182842Y-114928561D01*
X209107272Y-114888169D01*
X209025275Y-114863295D01*
X208940000Y-114854896D01*
X207240000Y-114854896D01*
X207154725Y-114863295D01*
X207072728Y-114888169D01*
X206997158Y-114928561D01*
X206930921Y-114982921D01*
X206876561Y-115049158D01*
X206836169Y-115124728D01*
X206811295Y-115206725D01*
X206802896Y-115292000D01*
X206802896Y-115854038D01*
X206785619Y-115767179D01*
X206688753Y-115533324D01*
X206548125Y-115322860D01*
X206369140Y-115143875D01*
X206158676Y-115003247D01*
X205924821Y-114906381D01*
X205676561Y-114857000D01*
X205423439Y-114857000D01*
X205175179Y-114906381D01*
X205053457Y-114956800D01*
X204930100Y-114956800D01*
X204930100Y-111584184D01*
X205193109Y-111677481D01*
X205423000Y-111556814D01*
X205423000Y-110363000D01*
X205677000Y-110363000D01*
X205677000Y-111556814D01*
X205906891Y-111677481D01*
X206181252Y-111580157D01*
X206431355Y-111431178D01*
X206647588Y-111236269D01*
X206821641Y-111002920D01*
X206946825Y-110740099D01*
X206991476Y-110592890D01*
X206870155Y-110363000D01*
X205677000Y-110363000D01*
X205423000Y-110363000D01*
X205403000Y-110363000D01*
X205403000Y-110109000D01*
X205423000Y-110109000D01*
X205423000Y-110089000D01*
X205677000Y-110089000D01*
X205677000Y-110109000D01*
X206870155Y-110109000D01*
X206991476Y-109879110D01*
X206946825Y-109731901D01*
X206821641Y-109469080D01*
X206647588Y-109235731D01*
X206431355Y-109040822D01*
X206334459Y-108983104D01*
X206400000Y-108983104D01*
X206485275Y-108974705D01*
X206567272Y-108949831D01*
X206642842Y-108909439D01*
X206709079Y-108855079D01*
X206763439Y-108788842D01*
X206803831Y-108713272D01*
X206828705Y-108631275D01*
X206837104Y-108546000D01*
X206837104Y-106846000D01*
X206828705Y-106760725D01*
X206803831Y-106678728D01*
X206763439Y-106603158D01*
X206709079Y-106536921D01*
X206642842Y-106482561D01*
X206567272Y-106442169D01*
X206485275Y-106417295D01*
X206400000Y-106408896D01*
X204700000Y-106408896D01*
X204614725Y-106417295D01*
X204532728Y-106442169D01*
X204457158Y-106482561D01*
X204390921Y-106536921D01*
X204336561Y-106603158D01*
X204296169Y-106678728D01*
X204271295Y-106760725D01*
X204262896Y-106846000D01*
X204262896Y-108546000D01*
X204271295Y-108631275D01*
X204296169Y-108713272D01*
X204336561Y-108788842D01*
X204389968Y-108853918D01*
X203951764Y-109292122D01*
X203929442Y-109310441D01*
X203856338Y-109399519D01*
X203835030Y-109439384D01*
X203802016Y-109501148D01*
X203768565Y-109611421D01*
X203757270Y-109726100D01*
X203760101Y-109754843D01*
X203760100Y-115299485D01*
X203459869Y-115599717D01*
X203437541Y-115618041D01*
X203364437Y-115707120D01*
X203312472Y-115804340D01*
X203310116Y-115808748D01*
X203276665Y-115919021D01*
X203265370Y-116033700D01*
X203268200Y-116062433D01*
X203268201Y-121914957D01*
X203265370Y-121943700D01*
X203276665Y-122058379D01*
X203310116Y-122168652D01*
X203329692Y-122205275D01*
X203364438Y-122270281D01*
X203437542Y-122359359D01*
X203459864Y-122377678D01*
X208892185Y-127810000D01*
X205479806Y-127810000D01*
X205548944Y-127781362D01*
X205834188Y-127590768D01*
X206076768Y-127348188D01*
X206267362Y-127062944D01*
X206398646Y-126745998D01*
X206465573Y-126409530D01*
X206465573Y-126066470D01*
X206398646Y-125730002D01*
X206267362Y-125413056D01*
X206076768Y-125127812D01*
X205834188Y-124885232D01*
X205548944Y-124694638D01*
X205231998Y-124563354D01*
X204895530Y-124496427D01*
X204552470Y-124496427D01*
X204216002Y-124563354D01*
X203899056Y-124694638D01*
X203613812Y-124885232D01*
X203371232Y-125127812D01*
X203180638Y-125413056D01*
X203152000Y-125482194D01*
X203152000Y-104641806D01*
X203180638Y-104710944D01*
X203371232Y-104996188D01*
X203613812Y-105238768D01*
X203899056Y-105429362D01*
X204216002Y-105560646D01*
X204552470Y-105627573D01*
X204895530Y-105627573D01*
X205231998Y-105560646D01*
X205548944Y-105429362D01*
X205834188Y-105238768D01*
X206076768Y-104996188D01*
X206267362Y-104710944D01*
X206283493Y-104672000D01*
X214919928Y-104672000D01*
X214932188Y-104796482D01*
X214968498Y-104916180D01*
X215027463Y-105026494D01*
X215106815Y-105123185D01*
X215203506Y-105202537D01*
X215313820Y-105261502D01*
X215433518Y-105297812D01*
X215558000Y-105310072D01*
X216122250Y-105307000D01*
X216281000Y-105148250D01*
X216281000Y-103949000D01*
X215081750Y-103949000D01*
X214923000Y-104107750D01*
X214919928Y-104672000D01*
X206283493Y-104672000D01*
X206398646Y-104393998D01*
X206465573Y-104057530D01*
X206465573Y-103714470D01*
X206398646Y-103378002D01*
X206267362Y-103061056D01*
X206207857Y-102972000D01*
X214919928Y-102972000D01*
X214923000Y-103536250D01*
X215081750Y-103695000D01*
X216281000Y-103695000D01*
X216281000Y-102495750D01*
X216122250Y-102337000D01*
X215558000Y-102333928D01*
X215433518Y-102346188D01*
X215313820Y-102382498D01*
X215203506Y-102441463D01*
X215106815Y-102520815D01*
X215027463Y-102617506D01*
X214968498Y-102727820D01*
X214932188Y-102847518D01*
X214919928Y-102972000D01*
X206207857Y-102972000D01*
X206076768Y-102775812D01*
X205834188Y-102533232D01*
X205548944Y-102342638D01*
X205479806Y-102314000D01*
X227888041Y-102314000D01*
X219187069Y-111014972D01*
G37*
%TD.AperFunction*%
D16*
X227877000Y-103949002D02*
X228035748Y-103949002D01*
X227877000Y-104107750D01*
X227873928Y-104672000D01*
X227886188Y-104796482D01*
X227922498Y-104916180D01*
X227981463Y-105026494D01*
X228060815Y-105123185D01*
X228157506Y-105202537D01*
X228267820Y-105261502D01*
X228387518Y-105297812D01*
X228512000Y-105310072D01*
X229076250Y-105307000D01*
X229234998Y-105148252D01*
X229234998Y-105307000D01*
X229261541Y-105307000D01*
X222922841Y-111645700D01*
X222797560Y-111645700D01*
X222636240Y-111677789D01*
X222484279Y-111740733D01*
X222347519Y-111832113D01*
X222231213Y-111948419D01*
X222139833Y-112085179D01*
X222076889Y-112237140D01*
X222044800Y-112398460D01*
X222044800Y-112562940D01*
X222076889Y-112724260D01*
X222139833Y-112876221D01*
X222231213Y-113012981D01*
X222347519Y-113129287D01*
X222484279Y-113220667D01*
X222636240Y-113283611D01*
X222797560Y-113315700D01*
X222962040Y-113315700D01*
X223123360Y-113283611D01*
X223275321Y-113220667D01*
X223412081Y-113129287D01*
X223528387Y-113012981D01*
X223619767Y-112876221D01*
X223682711Y-112724260D01*
X223714800Y-112562940D01*
X223714800Y-112437659D01*
X230913931Y-105238528D01*
X230935295Y-105220995D01*
X230952829Y-105199630D01*
X231005275Y-105135725D01*
X231057274Y-105038440D01*
X231057275Y-105038439D01*
X231089297Y-104932879D01*
X231097400Y-104850606D01*
X231097400Y-104850596D01*
X231099318Y-104831122D01*
X231293324Y-104960753D01*
X231317001Y-104970560D01*
X231317000Y-116435841D01*
X231260989Y-116424700D01*
X231076811Y-116424700D01*
X230896171Y-116460632D01*
X230726011Y-116531114D01*
X230572872Y-116633438D01*
X230442638Y-116763672D01*
X230340314Y-116916811D01*
X230269832Y-117086971D01*
X230233900Y-117267611D01*
X230233900Y-117451789D01*
X230269832Y-117632429D01*
X230340314Y-117802589D01*
X230442638Y-117955728D01*
X230572872Y-118085962D01*
X230726011Y-118188286D01*
X230896171Y-118258768D01*
X231076811Y-118294700D01*
X231260989Y-118294700D01*
X231441629Y-118258768D01*
X231611789Y-118188286D01*
X231764928Y-118085962D01*
X231782938Y-118067952D01*
X236143001Y-122428016D01*
X236143000Y-125066432D01*
X236143001Y-125066442D01*
X236143001Y-125089440D01*
X236119324Y-125099247D01*
X235908860Y-125239875D01*
X235729875Y-125418860D01*
X235589247Y-125629324D01*
X235579440Y-125653000D01*
X235556433Y-125653000D01*
X235548279Y-125652197D01*
X235532157Y-125606748D01*
X235383178Y-125356645D01*
X235188269Y-125140412D01*
X234954920Y-124966359D01*
X234692099Y-124841175D01*
X234544890Y-124796524D01*
X234315000Y-124917845D01*
X234315000Y-126111000D01*
X234335000Y-126111000D01*
X234335000Y-126365000D01*
X234315000Y-126365000D01*
X234315000Y-126385000D01*
X234061000Y-126385000D01*
X234061000Y-126365000D01*
X234041000Y-126365000D01*
X234041000Y-126111000D01*
X234061000Y-126111000D01*
X234061000Y-124917845D01*
X233831110Y-124796524D01*
X233683901Y-124841175D01*
X233421080Y-124966359D01*
X233187731Y-125140412D01*
X232992822Y-125356645D01*
X232843843Y-125606748D01*
X232813192Y-125693154D01*
X232786753Y-125629324D01*
X232646125Y-125418860D01*
X232467140Y-125239875D01*
X232256676Y-125099247D01*
X232022821Y-125002381D01*
X231774561Y-124953000D01*
X231521439Y-124953000D01*
X231273179Y-125002381D01*
X231039324Y-125099247D01*
X230828860Y-125239875D01*
X230649875Y-125418860D01*
X230509247Y-125629324D01*
X230412381Y-125863179D01*
X230378000Y-126036027D01*
X230343619Y-125863179D01*
X230246753Y-125629324D01*
X230106125Y-125418860D01*
X229927140Y-125239875D01*
X229716676Y-125099247D01*
X229482821Y-125002381D01*
X229234561Y-124953000D01*
X228981439Y-124953000D01*
X228733179Y-125002381D01*
X228499324Y-125099247D01*
X228288860Y-125239875D01*
X228109875Y-125418860D01*
X227969247Y-125629324D01*
X227872381Y-125863179D01*
X227838000Y-126036027D01*
X227803619Y-125863179D01*
X227706753Y-125629324D01*
X227566125Y-125418860D01*
X227387140Y-125239875D01*
X227176676Y-125099247D01*
X226942821Y-125002381D01*
X226694561Y-124953000D01*
X226441439Y-124953000D01*
X226193179Y-125002381D01*
X225959324Y-125099247D01*
X225748860Y-125239875D01*
X225569875Y-125418860D01*
X225429247Y-125629324D01*
X225332381Y-125863179D01*
X225298000Y-126036027D01*
X225263619Y-125863179D01*
X225166753Y-125629324D01*
X225026125Y-125418860D01*
X224847140Y-125239875D01*
X224636676Y-125099247D01*
X224402821Y-125002381D01*
X224154561Y-124953000D01*
X223901439Y-124953000D01*
X223653179Y-125002381D01*
X223419324Y-125099247D01*
X223208860Y-125239875D01*
X223029875Y-125418860D01*
X222889247Y-125629324D01*
X222792381Y-125863179D01*
X222758000Y-126036027D01*
X222723619Y-125863179D01*
X222626753Y-125629324D01*
X222486125Y-125418860D01*
X222307140Y-125239875D01*
X222096676Y-125099247D01*
X222049051Y-125079520D01*
X222050708Y-125062699D01*
X222048000Y-125035203D01*
X222048000Y-125035194D01*
X222039897Y-124952921D01*
X222007875Y-124847361D01*
X221980702Y-124796524D01*
X221955875Y-124750075D01*
X221903429Y-124686169D01*
X221903423Y-124686163D01*
X221885895Y-124664805D01*
X221864537Y-124647277D01*
X217936000Y-120718741D01*
X217936000Y-120322359D01*
X218252172Y-120638531D01*
X218269705Y-120659895D01*
X218291069Y-120677428D01*
X218291070Y-120677429D01*
X218354975Y-120729875D01*
X218452260Y-120781875D01*
X218476829Y-120789328D01*
X218557821Y-120813897D01*
X218640094Y-120822000D01*
X218640104Y-120822000D01*
X218667600Y-120824708D01*
X218695096Y-120822000D01*
X219206504Y-120822000D01*
X219234000Y-120824708D01*
X219261496Y-120822000D01*
X219261506Y-120822000D01*
X219343779Y-120813897D01*
X219449339Y-120781875D01*
X219546624Y-120729875D01*
X219631895Y-120659895D01*
X219649428Y-120638531D01*
X220098631Y-120189328D01*
X220119995Y-120171795D01*
X220148637Y-120136895D01*
X220189975Y-120086525D01*
X220241975Y-119989240D01*
X220252562Y-119954338D01*
X220273997Y-119883679D01*
X220282100Y-119801406D01*
X220282100Y-119801396D01*
X220284808Y-119773900D01*
X220282100Y-119746404D01*
X220282100Y-115817349D01*
X220303567Y-115785221D01*
X220366511Y-115633260D01*
X220398600Y-115471940D01*
X220398600Y-115307460D01*
X220366511Y-115146140D01*
X220303567Y-114994179D01*
X220212187Y-114857419D01*
X220123600Y-114768832D01*
X220123600Y-111662359D01*
X227877000Y-103908959D01*
X227877000Y-103949002D01*
%TA.AperFunction,Conductor*%
D17*
G36*
X227877000Y-103949002D02*
G01*
X228035748Y-103949002D01*
X227877000Y-104107750D01*
X227873928Y-104672000D01*
X227886188Y-104796482D01*
X227922498Y-104916180D01*
X227981463Y-105026494D01*
X228060815Y-105123185D01*
X228157506Y-105202537D01*
X228267820Y-105261502D01*
X228387518Y-105297812D01*
X228512000Y-105310072D01*
X229076250Y-105307000D01*
X229234998Y-105148252D01*
X229234998Y-105307000D01*
X229261541Y-105307000D01*
X222922841Y-111645700D01*
X222797560Y-111645700D01*
X222636240Y-111677789D01*
X222484279Y-111740733D01*
X222347519Y-111832113D01*
X222231213Y-111948419D01*
X222139833Y-112085179D01*
X222076889Y-112237140D01*
X222044800Y-112398460D01*
X222044800Y-112562940D01*
X222076889Y-112724260D01*
X222139833Y-112876221D01*
X222231213Y-113012981D01*
X222347519Y-113129287D01*
X222484279Y-113220667D01*
X222636240Y-113283611D01*
X222797560Y-113315700D01*
X222962040Y-113315700D01*
X223123360Y-113283611D01*
X223275321Y-113220667D01*
X223412081Y-113129287D01*
X223528387Y-113012981D01*
X223619767Y-112876221D01*
X223682711Y-112724260D01*
X223714800Y-112562940D01*
X223714800Y-112437659D01*
X230913931Y-105238528D01*
X230935295Y-105220995D01*
X230952829Y-105199630D01*
X231005275Y-105135725D01*
X231057274Y-105038440D01*
X231057275Y-105038439D01*
X231089297Y-104932879D01*
X231097400Y-104850606D01*
X231097400Y-104850596D01*
X231099318Y-104831122D01*
X231293324Y-104960753D01*
X231317001Y-104970560D01*
X231317000Y-116435841D01*
X231260989Y-116424700D01*
X231076811Y-116424700D01*
X230896171Y-116460632D01*
X230726011Y-116531114D01*
X230572872Y-116633438D01*
X230442638Y-116763672D01*
X230340314Y-116916811D01*
X230269832Y-117086971D01*
X230233900Y-117267611D01*
X230233900Y-117451789D01*
X230269832Y-117632429D01*
X230340314Y-117802589D01*
X230442638Y-117955728D01*
X230572872Y-118085962D01*
X230726011Y-118188286D01*
X230896171Y-118258768D01*
X231076811Y-118294700D01*
X231260989Y-118294700D01*
X231441629Y-118258768D01*
X231611789Y-118188286D01*
X231764928Y-118085962D01*
X231782938Y-118067952D01*
X236143001Y-122428016D01*
X236143000Y-125066432D01*
X236143001Y-125066442D01*
X236143001Y-125089440D01*
X236119324Y-125099247D01*
X235908860Y-125239875D01*
X235729875Y-125418860D01*
X235589247Y-125629324D01*
X235579440Y-125653000D01*
X235556433Y-125653000D01*
X235548279Y-125652197D01*
X235532157Y-125606748D01*
X235383178Y-125356645D01*
X235188269Y-125140412D01*
X234954920Y-124966359D01*
X234692099Y-124841175D01*
X234544890Y-124796524D01*
X234315000Y-124917845D01*
X234315000Y-126111000D01*
X234335000Y-126111000D01*
X234335000Y-126365000D01*
X234315000Y-126365000D01*
X234315000Y-126385000D01*
X234061000Y-126385000D01*
X234061000Y-126365000D01*
X234041000Y-126365000D01*
X234041000Y-126111000D01*
X234061000Y-126111000D01*
X234061000Y-124917845D01*
X233831110Y-124796524D01*
X233683901Y-124841175D01*
X233421080Y-124966359D01*
X233187731Y-125140412D01*
X232992822Y-125356645D01*
X232843843Y-125606748D01*
X232813192Y-125693154D01*
X232786753Y-125629324D01*
X232646125Y-125418860D01*
X232467140Y-125239875D01*
X232256676Y-125099247D01*
X232022821Y-125002381D01*
X231774561Y-124953000D01*
X231521439Y-124953000D01*
X231273179Y-125002381D01*
X231039324Y-125099247D01*
X230828860Y-125239875D01*
X230649875Y-125418860D01*
X230509247Y-125629324D01*
X230412381Y-125863179D01*
X230378000Y-126036027D01*
X230343619Y-125863179D01*
X230246753Y-125629324D01*
X230106125Y-125418860D01*
X229927140Y-125239875D01*
X229716676Y-125099247D01*
X229482821Y-125002381D01*
X229234561Y-124953000D01*
X228981439Y-124953000D01*
X228733179Y-125002381D01*
X228499324Y-125099247D01*
X228288860Y-125239875D01*
X228109875Y-125418860D01*
X227969247Y-125629324D01*
X227872381Y-125863179D01*
X227838000Y-126036027D01*
X227803619Y-125863179D01*
X227706753Y-125629324D01*
X227566125Y-125418860D01*
X227387140Y-125239875D01*
X227176676Y-125099247D01*
X226942821Y-125002381D01*
X226694561Y-124953000D01*
X226441439Y-124953000D01*
X226193179Y-125002381D01*
X225959324Y-125099247D01*
X225748860Y-125239875D01*
X225569875Y-125418860D01*
X225429247Y-125629324D01*
X225332381Y-125863179D01*
X225298000Y-126036027D01*
X225263619Y-125863179D01*
X225166753Y-125629324D01*
X225026125Y-125418860D01*
X224847140Y-125239875D01*
X224636676Y-125099247D01*
X224402821Y-125002381D01*
X224154561Y-124953000D01*
X223901439Y-124953000D01*
X223653179Y-125002381D01*
X223419324Y-125099247D01*
X223208860Y-125239875D01*
X223029875Y-125418860D01*
X222889247Y-125629324D01*
X222792381Y-125863179D01*
X222758000Y-126036027D01*
X222723619Y-125863179D01*
X222626753Y-125629324D01*
X222486125Y-125418860D01*
X222307140Y-125239875D01*
X222096676Y-125099247D01*
X222049051Y-125079520D01*
X222050708Y-125062699D01*
X222048000Y-125035203D01*
X222048000Y-125035194D01*
X222039897Y-124952921D01*
X222007875Y-124847361D01*
X221980702Y-124796524D01*
X221955875Y-124750075D01*
X221903429Y-124686169D01*
X221903423Y-124686163D01*
X221885895Y-124664805D01*
X221864537Y-124647277D01*
X217936000Y-120718741D01*
X217936000Y-120322359D01*
X218252172Y-120638531D01*
X218269705Y-120659895D01*
X218291069Y-120677428D01*
X218291070Y-120677429D01*
X218354975Y-120729875D01*
X218452260Y-120781875D01*
X218476829Y-120789328D01*
X218557821Y-120813897D01*
X218640094Y-120822000D01*
X218640104Y-120822000D01*
X218667600Y-120824708D01*
X218695096Y-120822000D01*
X219206504Y-120822000D01*
X219234000Y-120824708D01*
X219261496Y-120822000D01*
X219261506Y-120822000D01*
X219343779Y-120813897D01*
X219449339Y-120781875D01*
X219546624Y-120729875D01*
X219631895Y-120659895D01*
X219649428Y-120638531D01*
X220098631Y-120189328D01*
X220119995Y-120171795D01*
X220148637Y-120136895D01*
X220189975Y-120086525D01*
X220241975Y-119989240D01*
X220252562Y-119954338D01*
X220273997Y-119883679D01*
X220282100Y-119801406D01*
X220282100Y-119801396D01*
X220284808Y-119773900D01*
X220282100Y-119746404D01*
X220282100Y-115817349D01*
X220303567Y-115785221D01*
X220366511Y-115633260D01*
X220398600Y-115471940D01*
X220398600Y-115307460D01*
X220366511Y-115146140D01*
X220303567Y-114994179D01*
X220212187Y-114857419D01*
X220123600Y-114768832D01*
X220123600Y-111662359D01*
X227877000Y-103908959D01*
X227877000Y-103949002D01*
G37*
%TD.AperFunction*%
D16*
X205677000Y-121095000D02*
X205697000Y-121095000D01*
X205697000Y-121349000D01*
X205677000Y-121349000D01*
X205677000Y-121369000D01*
X205423000Y-121369000D01*
X205423000Y-121349000D01*
X205403000Y-121349000D01*
X205403000Y-121095000D01*
X205423000Y-121095000D01*
X205423000Y-121075000D01*
X205677000Y-121075000D01*
X205677000Y-121095000D01*
%TA.AperFunction,Conductor*%
D17*
G36*
X205677000Y-121095000D02*
G01*
X205697000Y-121095000D01*
X205697000Y-121349000D01*
X205677000Y-121349000D01*
X205677000Y-121369000D01*
X205423000Y-121369000D01*
X205423000Y-121349000D01*
X205403000Y-121349000D01*
X205403000Y-121095000D01*
X205423000Y-121095000D01*
X205423000Y-121075000D01*
X205677000Y-121075000D01*
X205677000Y-121095000D01*
G37*
%TD.AperFunction*%
D16*
X206854381Y-119056821D02*
X206951247Y-119290676D01*
X207091875Y-119501140D01*
X207270860Y-119680125D01*
X207481324Y-119820753D01*
X207715179Y-119917619D01*
X207888027Y-119952000D01*
X207715179Y-119986381D01*
X207481324Y-120083247D01*
X207270860Y-120223875D01*
X207091875Y-120402860D01*
X206951247Y-120613324D01*
X206926021Y-120674224D01*
X206821641Y-120455080D01*
X206647588Y-120221731D01*
X206431355Y-120026822D01*
X206181252Y-119877843D01*
X206094846Y-119847192D01*
X206158676Y-119820753D01*
X206369140Y-119680125D01*
X206548125Y-119501140D01*
X206688753Y-119290676D01*
X206785619Y-119056821D01*
X206820000Y-118883973D01*
X206854381Y-119056821D01*
%TA.AperFunction,Conductor*%
D17*
G36*
X206854381Y-119056821D02*
G01*
X206951247Y-119290676D01*
X207091875Y-119501140D01*
X207270860Y-119680125D01*
X207481324Y-119820753D01*
X207715179Y-119917619D01*
X207888027Y-119952000D01*
X207715179Y-119986381D01*
X207481324Y-120083247D01*
X207270860Y-120223875D01*
X207091875Y-120402860D01*
X206951247Y-120613324D01*
X206926021Y-120674224D01*
X206821641Y-120455080D01*
X206647588Y-120221731D01*
X206431355Y-120026822D01*
X206181252Y-119877843D01*
X206094846Y-119847192D01*
X206158676Y-119820753D01*
X206369140Y-119680125D01*
X206548125Y-119501140D01*
X206688753Y-119290676D01*
X206785619Y-119056821D01*
X206820000Y-118883973D01*
X206854381Y-119056821D01*
G37*
%TD.AperFunction*%
D16*
X229489000Y-103695000D02*
X229509000Y-103695000D01*
X229509000Y-103949000D01*
X229489000Y-103949000D01*
X229489000Y-103969000D01*
X229235000Y-103969000D01*
X229235000Y-103949000D01*
X229215000Y-103949000D01*
X229215000Y-103695000D01*
X229235000Y-103695000D01*
X229235000Y-103675000D01*
X229489000Y-103675000D01*
X229489000Y-103695000D01*
%TA.AperFunction,Conductor*%
D17*
G36*
X229489000Y-103695000D02*
G01*
X229509000Y-103695000D01*
X229509000Y-103949000D01*
X229489000Y-103949000D01*
X229489000Y-103969000D01*
X229235000Y-103969000D01*
X229235000Y-103949000D01*
X229215000Y-103949000D01*
X229215000Y-103695000D01*
X229235000Y-103695000D01*
X229235000Y-103675000D01*
X229489000Y-103675000D01*
X229489000Y-103695000D01*
G37*
%TD.AperFunction*%
%TD*%
M02*
